<?xml version="1.0" encoding="UTF-8" standalone="no"?>
<!-- Created with Inkscape (http://www.inkscape.org/) -->

<svg
   xmlns:dc="http://purl.org/dc/elements/1.1/"
   xmlns:cc="http://creativecommons.org/ns#"
   xmlns:rdf="http://www.w3.org/1999/02/22-rdf-syntax-ns#"
   xmlns:svg="http://www.w3.org/2000/svg"
   xmlns="http://www.w3.org/2000/svg"
   xmlns:sodipodi="http://sodipodi.sourceforge.net/DTD/sodipodi-0.dtd"
   xmlns:inkscape="http://www.inkscape.org/namespaces/inkscape"
   version="1.0"
   width="300"
   height="291.62045"
   id="svg2483"
   xml:space="preserve"
   inkscape:version="0.91 r13725"
   sodipodi:docname="SC_Amiens_Logo.svg"><metadata
     id="metadata240"><rdf:RDF><cc:Work
         rdf:about=""><dc:format>image/svg+xml</dc:format><dc:type
           rdf:resource="http://purl.org/dc/dcmitype/StillImage" /><dc:title></dc:title></cc:Work></rdf:RDF></metadata><sodipodi:namedview
     pagecolor="#ffffff"
     bordercolor="#666666"
     borderopacity="1"
     objecttolerance="10"
     gridtolerance="10"
     guidetolerance="10"
     inkscape:pageopacity="0"
     inkscape:pageshadow="2"
     inkscape:window-width="1366"
     inkscape:window-height="705"
     id="namedview238"
     showgrid="false"
     fit-margin-top="2"
     fit-margin-bottom="2"
     fit-margin-left="2"
     fit-margin-right="2"
     inkscape:zoom="0.91"
     inkscape:cx="361.4914"
     inkscape:cy="172.60385"
     inkscape:window-x="-8"
     inkscape:window-y="-8"
     inkscape:window-maximized="1"
     inkscape:current-layer="svg2483" /><defs
     id="defs2486"><clipPath
       id="clipPath2498"><path
         d="M 0,841 595,841 595,0 0,0 0,841 Z"
         id="path2500"
         inkscape:connector-curvature="0" /></clipPath><clipPath
       id="clipPath2504"><path
         d="m 0.36,841.68 595.44,0 L 595.8,0 0.36,0 l 0,841.68 z"
         id="path2506"
         inkscape:connector-curvature="0" /></clipPath><clipPath
       id="clipPath2594"><path
         d="m 399.685,682.251 68.031,0 0,-70 -68.031,0 0,70 z"
         id="path2596"
         inkscape:connector-curvature="0" /></clipPath><clipPath
       id="clipPath2600"><path
         d="M 0,841 595,841 595,0 0,0 0,841 Z"
         id="path2602"
         inkscape:connector-curvature="0" /></clipPath><clipPath
       id="clipPath2606"><path
         d="m 0.36,841.68 595.44,0 L 595.8,0 0.36,0 l 0,841.68 z"
         id="path2608"
         inkscape:connector-curvature="0" /></clipPath><clipPath
       id="clipPath2698"><path
         d="m 484.724,682.251 68.032,0 0,-70 -68.032,0 0,70 z"
         id="path2700"
         inkscape:connector-curvature="0" /></clipPath><clipPath
       id="clipPath2704"><path
         d="M 0,841 595,841 595,0 0,0 0,841 Z"
         id="path2706"
         inkscape:connector-curvature="0" /></clipPath><clipPath
       id="clipPath2710"><path
         d="m 0.36,841.68 595.44,0 L 595.8,0 0.36,0 l 0,841.68 z"
         id="path2712"
         inkscape:connector-curvature="0" /></clipPath><radialGradient
       cx="0"
       cy="0"
       r="1"
       fx="0"
       fy="0"
       id="radialGradient2750"
       gradientUnits="userSpaceOnUse"
       gradientTransform="matrix(15.4865,-15.4865,-15.4865,-15.4865,511.748,669.5154)"
       spreadMethod="pad"><stop
         id="stop2752"
         style="stop-color:#ffffff;stop-opacity:1"
         offset="0" /><stop
         id="stop2754"
         style="stop-color:#696a6c;stop-opacity:1"
         offset="1" /></radialGradient><clipPath
       id="clipPath2762"><path
         d="m 484.724,682.251 68.032,0 0,-70 -68.032,0 0,70 z"
         id="path2764"
         inkscape:connector-curvature="0" /></clipPath><clipPath
       id="clipPath2768"><path
         d="M 0,841 595,841 595,0 0,0 0,841 Z"
         id="path2770"
         inkscape:connector-curvature="0" /></clipPath><clipPath
       id="clipPath2774"><path
         d="m 0.36,841.68 595.44,0 L 595.8,0 0.36,0 l 0,841.68 z"
         id="path2776"
         inkscape:connector-curvature="0" /></clipPath><clipPath
       id="clipPath2800"><path
         d="m 147.567,682.251 68.031,0 0,-70 -68.031,0 0,70 z"
         id="path2802"
         inkscape:connector-curvature="0" /></clipPath><clipPath
       id="clipPath2806"><path
         d="M 0,841 595,841 595,0 0,0 0,841 Z"
         id="path2808"
         inkscape:connector-curvature="0" /></clipPath><clipPath
       id="clipPath2812"><path
         d="m 0.36,841.68 595.44,0 L 595.8,0 0.36,0 l 0,841.68 z"
         id="path2814"
         inkscape:connector-curvature="0" /></clipPath><clipPath
       id="clipPath2876"><path
         d="m 229.606,682.251 68.032,0 0,-70 -68.032,0 0,70 z"
         id="path2878"
         inkscape:connector-curvature="0" /></clipPath><clipPath
       id="clipPath2882"><path
         d="M 0,841 595,841 595,0 0,0 0,841 Z"
         id="path2884"
         inkscape:connector-curvature="0" /></clipPath><clipPath
       id="clipPath2888"><path
         d="m 0.36,841.68 595.44,0 L 595.8,0 0.36,0 l 0,841.68 z"
         id="path2890"
         inkscape:connector-curvature="0" /></clipPath><clipPath
       id="clipPath3012"><path
         d="m 314.646,682.251 68.031,0 0,-70 -68.031,0 0,70 z"
         id="path3014"
         inkscape:connector-curvature="0" /></clipPath><clipPath
       id="clipPath3018"><path
         d="M 0,841 595,841 595,0 0,0 0,841 Z"
         id="path3020"
         inkscape:connector-curvature="0" /></clipPath><clipPath
       id="clipPath3024"><path
         d="m 0.36,841.68 595.44,0 L 595.8,0 0.36,0 l 0,841.68 z"
         id="path3026"
         inkscape:connector-curvature="0" /></clipPath><clipPath
       id="clipPath3124"><path
         d="m 399.685,574.543 68.031,0 0,-69.999 -68.031,0 0,69.999 z"
         id="path3126"
         inkscape:connector-curvature="0" /></clipPath><clipPath
       id="clipPath3130"><path
         d="M 0,841 595,841 595,0 0,0 0,841 Z"
         id="path3132"
         inkscape:connector-curvature="0" /></clipPath><clipPath
       id="clipPath3136"><path
         d="m 0.36,841.68 595.44,0 L 595.8,0 0.36,0 l 0,841.68 z"
         id="path3138"
         inkscape:connector-curvature="0" /></clipPath><clipPath
       id="clipPath3146"><path
         d="m 455.345,545.226 c 0.276,2.59 2.598,4.466 5.187,4.19 2.588,-0.275 4.463,-2.597 4.187,-5.187 -0.275,-2.59 -2.597,-4.466 -5.185,-4.191 -2.589,0.276 -4.464,2.598 -4.189,5.188"
         id="path3148"
         inkscape:connector-curvature="0" /></clipPath><clipPath
       id="clipPath3668"><path
         d="m 399.685,574.543 68.031,0 0,-69.999 -68.031,0 0,69.999 z"
         id="path3670"
         inkscape:connector-curvature="0" /></clipPath><clipPath
       id="clipPath3674"><path
         d="M 0,841 595,841 595,0 0,0 0,841 Z"
         id="path3676"
         inkscape:connector-curvature="0" /></clipPath><clipPath
       id="clipPath3680"><path
         d="m 0.36,841.68 595.44,0 L 595.8,0 0.36,0 l 0,841.68 z"
         id="path3682"
         inkscape:connector-curvature="0" /></clipPath><clipPath
       id="clipPath3728"><path
         d="m 484.724,574.543 68.032,0 0,-69.999 -68.032,0 0,69.999 z"
         id="path3730"
         inkscape:connector-curvature="0" /></clipPath><clipPath
       id="clipPath3734"><path
         d="M 0,841 595,841 595,0 0,0 0,841 Z"
         id="path3736"
         inkscape:connector-curvature="0" /></clipPath><clipPath
       id="clipPath3740"><path
         d="m 0.36,841.68 595.44,0 L 595.8,0 0.36,0 l 0,841.68 z"
         id="path3742"
         inkscape:connector-curvature="0" /></clipPath><clipPath
       id="clipPath3812"><path
         d="m 149.105,574.543 66.493,0 0,-69.999 -66.493,0 0,69.999 z"
         id="path3814"
         inkscape:connector-curvature="0" /></clipPath><clipPath
       id="clipPath3818"><path
         d="M 0,841 595,841 595,0 0,0 0,841 Z"
         id="path3820"
         inkscape:connector-curvature="0" /></clipPath><clipPath
       id="clipPath3824"><path
         d="m 0.36,841.68 595.44,0 L 595.8,0 0.36,0 l 0,841.68 z"
         id="path3826"
         inkscape:connector-curvature="0" /></clipPath><clipPath
       id="clipPath4492"><path
         d="m 229.606,574.543 68.032,0 0,-69.999 -68.032,0 0,69.999 z"
         id="path4494"
         inkscape:connector-curvature="0" /></clipPath><clipPath
       id="clipPath4498"><path
         d="M 0,841 595,841 595,0 0,0 0,841 Z"
         id="path4500"
         inkscape:connector-curvature="0" /></clipPath><clipPath
       id="clipPath4504"><path
         d="m 0.36,841.68 595.44,0 L 595.8,0 0.36,0 l 0,841.68 z"
         id="path4506"
         inkscape:connector-curvature="0" /></clipPath><clipPath
       id="clipPath4642"><path
         d="m 269.913,547.204 c -3.216,0 -5.823,-2.608 -5.823,-5.824 0,-3.215 2.607,-5.823 5.823,-5.823 3.216,0 5.823,2.608 5.823,5.823 0,3.216 -2.607,5.824 -5.823,5.824"
         id="path4644"
         inkscape:connector-curvature="0" /></clipPath><clipPath
       id="clipPath4858"><path
         d="m 229.606,574.543 68.032,0 0,-69.999 -68.032,0 0,69.999 z"
         id="path4860"
         inkscape:connector-curvature="0" /></clipPath><clipPath
       id="clipPath4864"><path
         d="M 0,841 595,841 595,0 0,0 0,841 Z"
         id="path4866"
         inkscape:connector-curvature="0" /></clipPath><clipPath
       id="clipPath4870"><path
         d="m 0.36,841.68 595.44,0 L 595.8,0 0.36,0 l 0,841.68 z"
         id="path4872"
         inkscape:connector-curvature="0" /></clipPath><clipPath
       id="clipPath4896"><path
         d="m 314.646,574.543 68.031,0 0,-69.999 -68.031,0 0,69.999 z"
         id="path4898"
         inkscape:connector-curvature="0" /></clipPath><clipPath
       id="clipPath4902"><path
         d="M 0,841 595,841 595,0 0,0 0,841 Z"
         id="path4904"
         inkscape:connector-curvature="0" /></clipPath><clipPath
       id="clipPath4908"><path
         d="m 0.36,841.68 595.44,0 L 595.8,0 0.36,0 l 0,841.68 z"
         id="path4910"
         inkscape:connector-curvature="0" /></clipPath><clipPath
       id="clipPath5008"><path
         d="m 337.923,562.831 2.029,0 0,-0.102 0.304,0.002 0.305,-0.002 0,-0.101 0.202,0.004 0.204,-0.004 0,-0.102 0.304,0 0,-0.101 0.152,0.002 0.153,-0.002 0,-0.102 0.149,0.007 0.155,-0.007 0,-0.101 0.203,0 0,-0.102 0.203,0 0,-0.101 0.203,0 0,-0.102 0.203,0 0,-0.101 0.203,0 0,-0.102 0.166,-0.047 0.138,-0.054 0,-0.102 0.203,0 0.102,-0.202 0.203,0 0,-0.102 0.15,-0.1 0.154,-0.103 0,-0.101 0.203,0 0,-0.102 0.165,-0.113 0.277,-0.279 0.167,-0.115 0,-0.101 0.101,0 0.101,-0.203 0.102,0 0,-0.204 0.203,0 0,-0.202 0.11,-0.049 0.093,-0.053 0,-0.203 0.203,-0.101 0.048,-0.204 0.053,-0.202 0.101,-0.052 0.102,-0.049 0,-0.203 0.11,-0.047 0.093,-0.055 0.014,-0.069 -0.007,-0.082 -0.007,-0.153 0.102,0 0.041,-0.206 0.06,-0.2 0.101,0 0.004,-0.152 -0.004,-0.152 0.102,0 0,-0.305 0.101,0 -0.003,-0.148 0.003,-0.156 0.102,0 -0.002,-0.253 0.002,-0.255 0.101,0 0,-0.406 0.102,0 0,-1.116 0.102,0 -0.102,-1.522 -0.102,0 0.003,-0.252 -0.003,-0.255 -0.101,0 0,-0.406 -0.102,0 0.003,-0.201 -0.003,-0.205 -0.101,0 0,-0.202 -0.102,0 -0.049,-0.305 -0.052,-0.304 -0.101,0 -0.056,-0.195 -0.046,-0.211 -0.101,0 0,-0.203 -0.105,-0.052 -0.099,-0.05 -0.054,-0.204 -0.047,-0.201 -0.203,-0.102 0,-0.203 -0.304,-0.203 0,-0.203 -0.101,0 0,-0.101 -0.205,-0.151 -0.201,-0.154 0,-0.101 -0.102,0 0,-0.101 -0.195,-0.136 -0.161,-0.168 -0.161,-0.168 -0.193,-0.137 0,-0.102 -0.203,0 -0.203,-0.304 -0.203,0 -0.101,-0.203 -0.205,-0.05 -0.201,-0.052 -0.102,-0.203 -0.203,0 0,-0.101 -0.212,-0.045 -0.193,-0.056 0,-0.102 -0.153,0.007 -0.152,-0.007 0,-0.101 -0.203,0 0,-0.102 -0.204,0.002 -0.202,-0.002 0,-0.101 -0.304,0 0,-0.102 -0.206,0.005 -0.2,-0.005 0,-0.101 -0.406,0 0,-0.102 -0.092,0.017 -0.008,0.045 10e-4,0.023 -0.01,0.017 -0.094,0 0,-0.102 -0.356,-0.002 -0.354,0.002 0,-0.101 -1.217,0 0,0.101 -0.105,-0.008 -0.006,-0.018 0.008,-0.022 0.007,-0.022 -0.005,-0.019 -0.102,-0.012 0,0.101 -0.914,0 0,0.102 -0.204,-0.003 -0.201,0.003 0,0.101 -0.31,0.046 -0.299,0.056 0,0.101 -0.152,-0.004 -0.152,0.004 0,0.102 -0.205,0.052 -0.202,0.049 -0.101,0.203 -0.203,0 0,0.101 -0.203,0 0,0.102 -0.21,0.047 -0.196,0.054 0,0.102 -0.203,0 -0.102,0.153 -0.1,0.151 -0.15,0.053 -0.155,0.049 0,0.101 -0.203,0 0,0.203 -0.203,0 -0.101,0.203 -0.102,0 0,0.102 -0.204,0.153 -0.202,0.151 0,0.101 -0.101,0 0,0.203 -0.097,0.051 -0.106,0.051 -0.203,0.304 -0.101,0 0,0.203 -0.102,0 -0.046,0.054 -0.017,0.08 -0.038,0.171 -0.092,0.059 -0.111,0.042 0,0.203 -0.102,0 0,0.203 -0.203,0.101 -0.052,0.141 -0.007,0.102 -0.002,0.107 -0.04,0.158 -0.101,0 0,0.203 -0.102,0 0.003,0.152 -0.003,0.152 -0.101,0 0.002,0.152 -0.002,0.152 -0.102,0 -0.046,0.309 -0.055,0.3 -0.102,0 -0.008,0.254 0.008,0.254 -0.101,0 0,0.811 -0.102,0 0,0.102 0.074,0.034 0.031,0.022 -0.003,0.146 -0.102,0 0,0.609 0.102,0 0,1.116 0.101,0 -0.008,0.257 0.008,0.251 0.102,0 0,0.304 0.101,0 0.003,0.156 -0.003,0.149 0.102,0 0.043,0.311 0.058,0.297 0.102,0 -0.004,0.155 0.004,0.15 0.101,0 0.041,0.207 0.06,0.199 0.102,0 0,0.203 0.203,0.101 0,0.203 0.101,0 0,0.203 0.102,0 0,0.203 0.149,0.103 0.155,0.1 0,0.203 0.102,0 0.304,0.406 0.101,0 0,0.203 0.102,0 0,0.101 0.202,0.153 0.204,0.151 0,0.102 0.203,0 0,0.101 0.202,0.154 0.204,0.151 0,0.101 0.161,0.048 0.072,0.014 0.071,0.04 0.101,0.202 0.15,0.005 0.155,-0.005 0.101,0.203 0.196,0.058 0.21,0.044 0,0.101 0.205,0.044 0.201,0.058 0,0.101 0.152,0.007 0.153,-0.007 0,0.102 0.202,0 0,0.101 0.151,0.005 0.154,-0.005 0,0.102 0.304,0 0,0.101 0.389,0.066 0.423,0.036 0,0.101 0.308,-0.014 0.154,-0.009 0.147,0.023 0.084,0.037 0.013,0.013 -0.002,0.011 -0.091,0.018 -0.05,0.003 -0.018,0.002 0.165,0.018"
         id="path5010"
         inkscape:connector-curvature="0" /></clipPath><clipPath
       id="clipPath5020"><path
         d="m 399.685,468.15 68.031,0 0,-70 -68.031,0 0,70 z"
         id="path5022"
         inkscape:connector-curvature="0" /></clipPath><clipPath
       id="clipPath5026"><path
         d="M 0,841 595,841 595,0 0,0 0,841 Z"
         id="path5028"
         inkscape:connector-curvature="0" /></clipPath><clipPath
       id="clipPath5032"><path
         d="m 0.36,841.68 595.44,0 L 595.8,0 0.36,0 l 0,841.68 z"
         id="path5034"
         inkscape:connector-curvature="0" /></clipPath><clipPath
       id="clipPath5088"><path
         d="m 457.87,446.123 c -0.448,-3.498 -1.215,-7.813 -2.528,-12.391 -1.86,-6.489 -4.437,-12.226 -7.66,-17.055 -3.863,-5.791 -8.676,-10.28 -14.309,-13.362 -1.805,1.233 -7.739,5.57 -13.348,12.779 -3.908,5.023 -6.897,10.441 -8.883,16.103 -1.578,4.493 -2.522,9.153 -2.83,13.926 l 49.558,0"
         id="path5090"
         inkscape:connector-curvature="0" /></clipPath><clipPath
       id="clipPath5108"><path
         d="m 399.685,468.15 68.031,0 0,-70 -68.031,0 0,70 z"
         id="path5110"
         inkscape:connector-curvature="0" /></clipPath><clipPath
       id="clipPath5114"><path
         d="M 0,841 595,841 595,0 0,0 0,841 Z"
         id="path5116"
         inkscape:connector-curvature="0" /></clipPath><clipPath
       id="clipPath5120"><path
         d="m 0.36,841.68 595.44,0 L 595.8,0 0.36,0 l 0,841.68 z"
         id="path5122"
         inkscape:connector-curvature="0" /></clipPath><clipPath
       id="clipPath5132"><path
         d="m 484.724,468.15 68.032,0 0,-70 -68.032,0 0,70 z"
         id="path5134"
         inkscape:connector-curvature="0" /></clipPath><clipPath
       id="clipPath5138"><path
         d="M 0,841 595,841 595,0 0,0 0,841 Z"
         id="path5140"
         inkscape:connector-curvature="0" /></clipPath><clipPath
       id="clipPath5144"><path
         d="m 0.36,841.68 595.44,0 L 595.8,0 0.36,0 l 0,841.68 z"
         id="path5146"
         inkscape:connector-curvature="0" /></clipPath><clipPath
       id="clipPath5260"><path
         d="m 149.105,468.15 66.493,0 0,-70 -66.493,0 0,70 z"
         id="path5262"
         inkscape:connector-curvature="0" /></clipPath><clipPath
       id="clipPath5266"><path
         d="M 0,841 595,841 595,0 0,0 0,841 Z"
         id="path5268"
         inkscape:connector-curvature="0" /></clipPath><clipPath
       id="clipPath5272"><path
         d="m 0.36,841.68 595.44,0 L 595.8,0 0.36,0 l 0,841.68 z"
         id="path5274"
         inkscape:connector-curvature="0" /></clipPath><clipPath
       id="clipPath5352"><path
         d="m 229.606,468.15 68.032,0 0,-70 -68.032,0 0,70 z"
         id="path5354"
         inkscape:connector-curvature="0" /></clipPath><clipPath
       id="clipPath5358"><path
         d="M 0,841 595,841 595,0 0,0 0,841 Z"
         id="path5360"
         inkscape:connector-curvature="0" /></clipPath><clipPath
       id="clipPath5364"><path
         d="m 0.36,841.68 595.44,0 L 595.8,0 0.36,0 l 0,841.68 z"
         id="path5366"
         inkscape:connector-curvature="0" /></clipPath><linearGradient
       x1="0"
       y1="0"
       x2="1"
       y2="0"
       id="linearGradient5466"
       gradientUnits="userSpaceOnUse"
       gradientTransform="matrix(0,-31.3668,-55.4292,0,377.1228,452.6494)"
       spreadMethod="pad"><stop
         id="stop5468"
         style="stop-color:#ffffff;stop-opacity:1"
         offset="0" /><stop
         id="stop5470"
         style="stop-color:#231f20;stop-opacity:1"
         offset="1" /></linearGradient><clipPath
       id="clipPath5478"><path
         d="m 314.646,468.15 68.031,0 0,-70 -68.031,0 0,70 z"
         id="path5480"
         inkscape:connector-curvature="0" /></clipPath><clipPath
       id="clipPath5484"><path
         d="M 0,841 595,841 595,0 0,0 0,841 Z"
         id="path5486"
         inkscape:connector-curvature="0" /></clipPath><clipPath
       id="clipPath5490"><path
         d="m 0.36,841.68 595.44,0 L 595.8,0 0.36,0 l 0,841.68 z"
         id="path5492"
         inkscape:connector-curvature="0" /></clipPath><clipPath
       id="clipPath5568"><path
         d="m 399.685,361.567 68.031,0 0,-70 -68.031,0 0,70 z"
         id="path5570"
         inkscape:connector-curvature="0" /></clipPath><clipPath
       id="clipPath5574"><path
         d="M 0,841 595,841 595,0 0,0 0,841 Z"
         id="path5576"
         inkscape:connector-curvature="0" /></clipPath><clipPath
       id="clipPath5580"><path
         d="m 0.36,841.68 595.44,0 L 595.8,0 0.36,0 l 0,841.68 z"
         id="path5582"
         inkscape:connector-curvature="0" /></clipPath><clipPath
       id="clipPath5650"><path
         d="m 484.724,361.567 68.032,0 0,-70 -68.032,0 0,70 z"
         id="path5652"
         inkscape:connector-curvature="0" /></clipPath><clipPath
       id="clipPath5656"><path
         d="M 0,841 595,841 595,0 0,0 0,841 Z"
         id="path5658"
         inkscape:connector-curvature="0" /></clipPath><clipPath
       id="clipPath5662"><path
         d="m 0.36,841.68 595.44,0 L 595.8,0 0.36,0 l 0,841.68 z"
         id="path5664"
         inkscape:connector-curvature="0" /></clipPath><radialGradient
       cx="0"
       cy="0"
       r="1"
       fx="0"
       fy="0"
       id="radialGradient5678"
       gradientUnits="userSpaceOnUse"
       gradientTransform="matrix(16.8629,0,0,-16.8629,518.789,332.9843)"
       spreadMethod="pad"><stop
         id="stop5680"
         style="stop-color:#ffffff;stop-opacity:1"
         offset="0" /><stop
         id="stop5682"
         style="stop-color:#231f20;stop-opacity:1"
         offset="1" /></radialGradient><clipPath
       id="clipPath5690"><path
         d="m 484.724,361.567 68.032,0 0,-70 -68.032,0 0,70 z"
         id="path5692"
         inkscape:connector-curvature="0" /></clipPath><clipPath
       id="clipPath5696"><path
         d="M 0,841 595,841 595,0 0,0 0,841 Z"
         id="path5698"
         inkscape:connector-curvature="0" /></clipPath><clipPath
       id="clipPath5702"><path
         d="m 0.36,841.68 595.44,0 L 595.8,0 0.36,0 l 0,841.68 z"
         id="path5704"
         inkscape:connector-curvature="0" /></clipPath><clipPath
       id="clipPath5788"><path
         d="m 147.567,361.567 68.031,0 0,-70 -68.031,0 0,70 z"
         id="path5790"
         inkscape:connector-curvature="0" /></clipPath><clipPath
       id="clipPath5794"><path
         d="M 0,841 595,841 595,0 0,0 0,841 Z"
         id="path5796"
         inkscape:connector-curvature="0" /></clipPath><clipPath
       id="clipPath5800"><path
         d="m 0.36,841.68 595.44,0 L 595.8,0 0.36,0 l 0,841.68 z"
         id="path5802"
         inkscape:connector-curvature="0" /></clipPath><clipPath
       id="clipPath5998"><path
         d="m 229.606,361.567 68.032,0 0,-70 -68.032,0 0,70 z"
         id="path6000"
         inkscape:connector-curvature="0" /></clipPath><clipPath
       id="clipPath6004"><path
         d="M 0,841 595,841 595,0 0,0 0,841 Z"
         id="path6006"
         inkscape:connector-curvature="0" /></clipPath><clipPath
       id="clipPath6010"><path
         d="m 0.36,841.68 595.44,0 L 595.8,0 0.36,0 l 0,841.68 z"
         id="path6012"
         inkscape:connector-curvature="0" /></clipPath><clipPath
       id="clipPath6104"><path
         d="m 314.646,361.567 68.031,0 0,-70 -68.031,0 0,70 z"
         id="path6106"
         inkscape:connector-curvature="0" /></clipPath><clipPath
       id="clipPath6110"><path
         d="M 0,841 595,841 595,0 0,0 0,841 Z"
         id="path6112"
         inkscape:connector-curvature="0" /></clipPath><clipPath
       id="clipPath6116"><path
         d="m 0.36,841.68 595.44,0 L 595.8,0 0.36,0 l 0,841.68 z"
         id="path6118"
         inkscape:connector-curvature="0" /></clipPath><clipPath
       id="clipPath6254"><path
         d="M 0,841 595,841 595,0 0,0 0,841 Z"
         id="path6256"
         inkscape:connector-curvature="0" /></clipPath><clipPath
       id="clipPath6260"><path
         d="m 0.36,841.68 595.44,0 L 595.8,0 0.36,0 l 0,841.68 z"
         id="path6262"
         inkscape:connector-curvature="0" /></clipPath></defs><g
     transform="matrix(0.50397819,0,0,-0.50397819,-6.1497175,418.13109)"
     id="g2492"><g
       transform="matrix(9.9621243,0,0,9.9621243,-4852.5485,-3778.2732)"
       id="g5128"><g
         clip-path="url(#clipPath5132)"
         id="g5130"><g
           clip-path="url(#clipPath5138)"
           id="g5136"><g
             clip-path="url(#clipPath5144)"
             id="g5142"><path
               d="m 518.17,404.86 8.43,4.324 c 9.083,0.194 14.809,5.296 14.809,5.296 6.455,5.141 3.858,14.922 3.858,14.922 l 2.412,1.934 c -4.46,2.019 -1.391,5.485 -1.391,5.485 -6.892,1.273 -4.888,8.216 -4.888,8.216 1.554,6.421 5.392,11.068 5.392,11.068 l -2.134,2.813 c -9.072,-2.27 -13.791,3.229 -13.791,3.229 l -4.522,0 c 0,0 -2.331,-1.99 -8.175,-2.017 -5.178,-0.024 -8.327,2.017 -8.327,2.017 l -4.467,0 c 0,0 -4.693,-5.454 -13.777,-3.229 l -2.119,-2.813 c 0,0 3.815,-4.365 5.45,-11.209 0,0 2.044,-6.493 -4.845,-8.075 0,0 3.331,-2.518 -1.362,-5.485 l 2.422,-1.934 c 0,0 -2.589,-10.532 3.936,-15.062 0,0 5.753,-5.191 14.838,-5.339 l 8.251,-4.141"
               id="path5148"
               style="fill:#000000;fill-opacity:1;fill-rule:nonzero;stroke:none"
               inkscape:connector-curvature="0" /><path
               d="m 518.047,459.559 c -4.996,-0.079 -8.508,1.964 -8.508,1.964 l -4.084,0 c 0,0 -4.819,-5.336 -13.555,-3.274 l -1.589,-2.121 c 0,0 4.072,-5.192 5.43,-11.581 0,0 1.413,-6.219 -4.683,-8.073 0,0 1.825,-2.378 -0.619,-4.554 l 27.608,0 0,27.639"
               id="path5150"
               style="fill:#f3f3f3;fill-opacity:1;fill-rule:evenodd;stroke:none"
               inkscape:connector-curvature="0" /><path
               d="m 545.711,431.92 -27.664,0 0,-26.191 8.238,4.051 c 8.552,0.188 14.185,4.898 14.185,4.898 6.686,5.04 3.996,14.953 3.996,14.953 l 2.205,1.637 c -0.547,0.237 -0.873,0.548 -0.96,0.652"
               id="path5152"
               style="fill:#f3f3f3;fill-opacity:1;fill-rule:evenodd;stroke:none"
               inkscape:connector-curvature="0" /><path
               d="m 545.711,431.92 c -2.078,1.958 -0.405,4.554 -0.405,4.554 -6.608,1.617 -4.602,8.684 -4.602,8.684 1.421,6.338 5.14,10.911 5.14,10.911 l -1.646,2.136 c -8.891,-1.929 -13.774,3.318 -13.774,3.318 l -4.015,0 c 0,0 -2.78,-1.971 -8.303,-1.965 -0.02,0 -0.039,0.001 -0.059,0.001 l 0,-27.639 27.664,0"
               id="path5154"
               style="fill:#808080;fill-opacity:1;fill-rule:evenodd;stroke:none"
               inkscape:connector-curvature="0" /><path
               d="m 490.439,431.92 c -0.225,-0.2 -0.485,-0.398 -0.787,-0.593 l 2.162,-1.696 c 0,0 -2.566,-10.559 3.706,-14.733 0,0 6.022,-5.156 14.575,-5.3 l 7.952,-3.869 0,26.191 -27.608,0"
               id="path5156"
               style="fill:#808080;fill-opacity:1;fill-rule:evenodd;stroke:none"
               inkscape:connector-curvature="0" /><path
               d="m 516.502,445.509 c -0.75,0.223 -0.883,0.291 -2.342,1.229 -1.459,0.939 -1.486,1.531 -2.219,1.599 -0.734,0.068 -1.732,-0.337 -2.472,-0.311 -0.741,0.026 -1.759,0.124 -1.759,0.124 0,0 -0.53,0.553 -1.105,0.831 -0.574,0.278 -1.237,0.699 -1.237,0.699 0,0 -0.479,0.309 -0.662,0.581 -0.183,0.272 -0.533,0.531 -0.533,0.531 0,0 0.134,-0.067 0.372,-0.002 0.238,0.065 0.279,0.188 0.279,0.188 l 1.855,-1.554 c 0,0 -0.851,1.187 -0.577,1.22 0.147,0.017 0.202,-0.14 0.334,-0.035 -0.382,-0.302 0.907,-0.399 0.91,-0.43 -0.041,0.507 0.4,0.918 -0.426,2.437 -0.825,1.518 -1.21,2.35 -1.21,2.35 l 4.461,3.339 -5.601,-2.349 c 0,0 -0.607,1.088 -0.939,1.083 -0.332,-0.005 -0.615,-1.344 -0.615,-1.344 0,0 -2.369,-1.571 -2.488,-3.744 -0.12,-2.174 0.557,-3.344 1.228,-5.651 0.671,-2.307 -1.501,-5.462 -3.752,-6.443 -2.252,-0.981 -0.898,-0.424 -1.673,-0.608 -0.775,-0.185 -1.489,-0.75 -1.835,-1.969 -0.346,-1.219 -0.269,-1.755 -0.269,-1.755 l 0.329,0.114 c 0,0 -0.058,-0.858 0.055,-1.552 0.113,-0.694 0.738,-1.416 0.738,-1.416 l 0.048,0.165 c 0,0 0.124,-0.131 0.26,-0.308 0.136,-0.177 0.451,-0.277 0.451,-0.277 0,0 10e-4,0.13 0.011,0.193 0.01,0.063 0.129,-0.219 0.671,-0.448 0.541,-0.229 0.853,-0.35 0.853,-0.35 l 0.963,-1.436 c 0,0 1.183,-1.605 1.001,-2.333 -0.182,-0.727 -0.254,-0.909 -0.254,-0.909 l 1.951,-0.594 c 0,0 0.039,0.362 -0.356,0.977 -0.395,0.615 -0.452,0.647 -0.452,0.647 0,0 -0.349,1.02 -0.775,1.575 -0.425,0.555 -0.706,1.736 -0.706,1.736 0,0 0.783,0.357 1.096,0.127 0.297,-0.219 0.944,0.328 0.944,0.328 0,0 0.841,-0.045 1.022,-0.577 0.181,-0.533 0.835,-0.456 0.392,-0.006 -0.443,0.449 -1.343,1.765 -1.343,1.765 l 0.015,0.214 -0.704,0.128 1.201,1.259 c 0,0 1.547,-0.911 1.772,-1.93 0.225,-1.018 -0.506,-2.189 -0.627,-2.797 -0.121,-0.608 1.029,-1.034 1.029,-1.034 0,0 0.854,-0.721 1.068,-1.302 0.214,-0.583 0.032,-0.81 0.032,-0.81 l 1.848,-0.336 c 0,0 -0.06,0.51 -0.547,0.947 -0.487,0.436 -1.055,1.256 -1.055,1.256 0,0 -1.13,1.053 -1.037,1.992 0.093,0.938 1.801,2.887 1.465,3.361 -0.336,0.474 -1.417,2.322 -1.417,2.322 0,0 -0.933,1.495 -0.395,2.374 0.539,0.88 2.822,0.421 3.978,2.666 1.156,2.245 1.172,3.219 1.433,3.672 0.261,0.452 1.748,1.441 2.079,1.316 0.331,-0.126 0.909,-1.013 0.82,-1.431 -0.09,-0.418 -0.538,-1.379 -1.217,-1.603 -0.678,-0.225 -1.243,-0.513 -1.243,-0.513 l 0.584,-1.605 c 0,0 0.469,0.088 0.744,0.495 0.273,0.406 -0.158,0.55 0.769,1.532 0.928,0.983 1.602,1.056 1.634,1.376 0.032,0.32 -0.258,0.568 -0.611,1.437 -0.353,0.868 -0.186,0.881 -0.186,0.881 0,0 0.602,-0.24 1.42,-0.672 0.819,-0.431 1.471,-0.615 1.632,-1.274 0.16,-0.659 -0.162,-0.731 -0.162,-0.731 l 1.734,-0.272 c 0,0 0.069,1.422 -0.68,1.645 z m -19.299,-10.004 c -0.127,0.136 -0.311,0.122 -0.311,0.122 l 0.058,0.098 c 0,0 -0.349,0.654 -0.388,0.788 -0.033,0.116 -0.083,0.623 -0.083,0.623 l 0.124,-0.001 c 0,0 -0.012,1.014 0.04,1.123 0.126,0.259 0.833,0.152 0.833,0.152 0,0 -0.184,-0.987 0.197,-1.686 0.381,-0.7 0.935,-2.234 0.935,-2.234 0,0 -1.035,0.623 -1.405,1.015"
               id="path5158"
               style="fill:#000000;fill-opacity:1;fill-rule:nonzero;stroke:none"
               inkscape:connector-curvature="0" /><path
               d="m 503.423,438.387 c 0,0 -0.098,-1.351 0.616,-2.415 0.714,-1.064 0.927,-1.406 1.056,-2.125 0.13,-0.719 -1.028,-2.594 -1.102,-3.297 -0.075,-0.704 0.661,-1.511 1.007,-1.921 0.346,-0.411 0.761,-1.03 0.761,-1.03 0,0 0.438,-0.231 0.686,-0.733 0.249,-0.501 0.145,-0.373 0.145,-0.373 l -1.021,0.207 c 0,0 -0.511,1.288 -1.095,1.763 -0.584,0.475 -0.984,0.809 -1.111,1.288 -0.128,0.48 0.47,1.849 0.543,2.791 0.072,0.943 -2.155,2.239 -2.155,2.239 0,0 0.4,0.296 0.63,1.188 0.23,0.893 0.17,0.904 0.317,1.42 0.147,0.516 0.723,0.998 0.723,0.998 z"
               id="path5160"
               style="fill:#cccccc;fill-opacity:1;fill-rule:nonzero;stroke:#000000;stroke-width:0.06;stroke-linecap:butt;stroke-linejoin:miter;stroke-miterlimit:4;stroke-dasharray:none;stroke-opacity:1"
               inkscape:connector-curvature="0" /><path
               d="m 505.553,454.821 c 0,0 0.851,-1.315 1.6,-2.538 0.888,-1.452 0.808,-1.33 0.851,-1.946 -0.002,0.037 -0.576,-0.832 -0.576,-0.832 0,0 -0.138,0.341 -0.2,0.385 -0.246,0.178 -0.57,0.547 -0.626,0.5 -0.085,-0.073 -0.038,0.012 -0.15,-0.027 -0.285,-0.098 0.438,-0.42 0.476,-0.683 0.033,-0.237 0.3,-0.166 0.275,-0.197 -0.113,-0.145 -0.451,-0.276 -0.451,-0.276 l -0.35,0.473 -1.177,1.262 c 0,0 -0.447,-0.048 -0.769,0.021 -0.639,0.138 -0.514,-0.232 -0.514,-0.232 0,0 0.2,0.333 0.7,-0.519 0.501,-0.851 0.475,-0.759 0.475,-0.759 0,0 0.764,-0.139 1.456,-0.46 0.691,-0.322 1.157,-0.884 1.157,-0.884 0,0 1.142,-0.099 2.054,-0.092 0.912,0.008 1.574,0.257 2.065,0.103 0.492,-0.155 2.33,-1.554 3.447,-2.061 1.116,-0.507 1.085,-0.567 1.351,-1.093 0.264,-0.526 0.065,-0.859 0.065,-0.859 l -1.156,0.145 c 0,0 0.157,1.054 -0.304,1.294 -0.838,0.434 -1.473,0.724 -1.473,0.724 l -1.33,0.659 c 0,0 -0.003,0.67 -0.834,0.777 -0.619,0.134 -1.113,0.019 -1.867,-0.035 -0.754,-0.053 -1.938,0.18 -1.938,0.18 l 1.887,-0.371 c 0,0 1.701,0.12 2.197,0.039 0.293,-0.047 0.714,-1.499 0.796,-1.703 0.234,-0.586 0.504,-0.83 0.462,-1.214 -0.043,-0.383 -0.886,-0.729 -1.23,-1.058 -0.344,-0.328 -0.788,-1.138 -0.788,-1.138 0,0 -0.163,-0.362 -0.409,-0.599 -0.379,-0.367 -0.389,-0.103 -0.389,-0.103 l -0.403,1.072 c 0,0 0.595,0.196 1.154,0.594 0.727,0.52 0.866,0.864 1.034,1.507 0.168,0.643 -0.898,1.706 -0.898,1.706 -0.227,0.063 -1.632,-0.801 -2.031,-1.467 -0.2,-0.333 -0.496,-1.409 -0.978,-2.385 -0.482,-0.977 -0.472,-1.446 -1.401,-2.19 -0.93,-0.743 -3.225,-1.238 -3.786,-1.505 -0.562,-0.268 -0.84,-2.455 -1.076,-3.259 -0.236,-0.804 -1.094,-1.865 -1.768,-2.438 -0.673,-0.572 -1.192,-1.586 -1.192,-1.586 0,0 0.562,0.652 0.757,0.891 0.195,0.24 0.717,0.644 0.717,0.644 l 0.659,-0.141 -0.055,-0.207 0.442,-0.581 1.015,-1.249 c 0,0 -0.107,-0.653 -0.411,0.14 -0.215,0.563 -1.078,0.87 -1.078,0.87 0,0 -0.516,-0.638 -0.891,-0.512 -0.98,0.33 -1.094,-0.235 -1.094,-0.235 0,0 0.073,-0.687 0.378,-1.351 0.304,-0.663 0.438,-0.601 0.603,-0.978 0.166,-0.378 0.437,-0.992 0.437,-0.992 0,0 0.323,-0.428 0.571,-0.93 0.248,-0.501 0.191,-0.599 0.191,-0.599 l -1.77,0.561 c 0,0 0.224,0.48 0.271,1.015 0.047,0.534 -0.408,1.291 -0.894,2.357 -0.758,1.05 -0.777,1.184 -0.764,1.768 0.014,0.584 1.028,1.464 1.083,2.171 0.054,0.707 -0.339,1.083 -0.92,2.079 -0.58,0.996 -0.547,2.076 -0.547,2.076 0,0 -0.391,0.137 -0.884,0.031 -0.404,-0.087 -0.266,-1.234 -0.266,-1.234 0,0 -0.196,0.075 -0.195,-0.051 0.01,-0.697 0.151,-1.092 0.151,-1.092 l 0.326,-0.407 -0.191,-0.03 1.942,-1.396 c 0,0 0.184,-0.142 -0.016,-0.475 -0.2,-0.333 -0.423,-0.684 -0.751,-1.167 -0.328,-0.484 -0.196,-0.812 -0.196,-0.812 l -1.487,0.77 -0.088,-0.158 -0.643,0.544 -0.058,-0.155 c 0,0 -0.179,0.374 -0.563,1.232 -0.211,0.473 -0.157,1.679 -0.157,1.679 0,0 -0.15,-0.14 -0.137,0.047 0.027,0.412 0.137,1.214 0.514,1.862 0.548,0.943 0.973,1.257 1.698,1.516 0.726,0.259 2.233,0.745 3.493,1.733 2.163,1.822 2.683,2.387 2.369,4.826 -0.315,2.44 -1.68,3.963 -1.614,6.398 0.065,2.436 2.209,3.691 2.209,3.691 0,0 0.319,0.977 0.49,1.011 0.171,0.034 1.295,-1.561 1.295,-1.561 l 4.799,2.643 -4.178,-3.174 z"
               id="path5162"
               style="fill:#cccccc;fill-opacity:1;fill-rule:nonzero;stroke:#000000;stroke-width:0.06;stroke-linecap:butt;stroke-linejoin:miter;stroke-miterlimit:4;stroke-dasharray:none;stroke-opacity:1"
               inkscape:connector-curvature="0" /><path
               d="m 504.591,454.069 0.13,0.12 c 0,0 0.349,0.042 0.577,-0.251 0.229,-0.293 0.254,-0.917 0.254,-0.917 0,0 -0.202,0.399 -0.388,0.711 -0.186,0.312 -0.573,0.337 -0.573,0.337 z"
               id="path5164"
               style="fill:#000000;fill-opacity:1;fill-rule:nonzero;stroke:#000000;stroke-width:0.107;stroke-linecap:butt;stroke-linejoin:miter;stroke-miterlimit:4;stroke-dasharray:none;stroke-opacity:1"
               inkscape:connector-curvature="0" /><path
               d="m 537.536,434.487 c 0,0 0.553,1.535 0.934,2.234 0.382,0.699 0.198,1.687 0.198,1.687 0,0 0.707,0.107 0.832,-0.153 0.053,-0.109 0.041,-1.122 0.041,-1.122 l 0.124,0.001 c 0,0 -0.051,-0.507 -0.084,-0.624 -0.038,-0.133 -0.387,-0.787 -0.387,-0.787 l 0.057,-0.098 c 0,0 -0.183,0.013 -0.31,-0.122 -0.37,-0.393 -1.405,-1.016 -1.405,-1.016 z m -18.575,9.375 1.735,0.272 c 0,0 -0.323,0.071 -0.162,0.731 0.16,0.659 0.813,0.842 1.631,1.274 0.819,0.431 1.421,0.671 1.421,0.671 0,0 0.167,-0.013 -0.186,-0.881 -0.354,-0.868 -0.644,-1.117 -0.612,-1.436 0.033,-0.32 0.707,-0.393 1.634,-1.376 0.928,-0.983 0.497,-1.126 0.77,-1.533 0.274,-0.406 0.744,-0.495 0.744,-0.495 l 0.584,1.606 c 0,0 -0.565,0.288 -1.244,0.512 -0.678,0.224 -1.126,1.185 -1.216,1.604 -0.089,0.418 0.488,1.305 0.819,1.43 0.331,0.126 1.819,-0.864 2.079,-1.316 0.261,-0.452 0.277,-1.427 1.434,-3.672 1.156,-2.244 3.439,-1.785 3.977,-2.665 0.538,-0.88 -0.394,-2.375 -0.394,-2.375 0,0 -1.082,-1.848 -1.417,-2.321 -0.336,-0.474 1.372,-2.423 1.465,-3.362 0.092,-0.939 -1.037,-1.992 -1.037,-1.992 0,0 -0.569,-0.82 -1.055,-1.256 -0.487,-0.436 -0.548,-0.947 -0.548,-0.947 l 1.848,0.336 c 0,0 -0.182,0.228 0.032,0.81 0.215,0.582 1.068,1.302 1.068,1.302 0,0 1.151,0.426 1.03,1.035 -0.121,0.608 -0.852,1.778 -0.627,2.797 0.225,1.018 1.771,1.929 1.771,1.929 l 1.201,-1.258 -0.703,-0.128 0.015,-0.215 c 0,0 -0.901,-1.315 -1.344,-1.765 -0.442,-0.45 0.211,-0.527 0.392,0.006 0.182,0.533 1.023,0.577 1.023,0.577 0,0 0.647,-0.546 0.943,-0.328 0.314,0.231 1.097,-0.126 1.097,-0.126 0,0 -0.281,-1.181 -0.707,-1.737 -0.425,-0.555 -0.774,-1.574 -0.774,-1.574 0,0 -0.057,-0.032 -0.452,-0.647 -0.396,-0.615 -0.356,-0.978 -0.356,-0.978 l 1.95,0.594 c 0,0 -0.072,0.183 -0.254,0.91 -0.182,0.727 1.002,2.333 1.002,2.333 l 0.963,1.435 c 0,0 0.311,0.122 0.853,0.351 0.541,0.228 0.66,0.511 0.671,0.447 0.01,-0.063 0.011,-0.193 0.011,-0.193 0,0 0.314,0.101 0.451,0.278 0.136,0.176 0.259,0.307 0.259,0.307 l 0.048,-0.165 c 0,0 0.626,0.722 0.739,1.416 0.113,0.695 0.054,1.553 0.054,1.553 l 0.33,-0.114 c 0,0 0.077,0.535 -0.269,1.754 -0.346,1.219 -1.06,1.784 -1.835,1.969 -0.776,0.185 0.578,-0.372 -1.673,0.608 -2.252,0.981 -4.424,4.137 -3.753,6.444 0.671,2.307 1.348,3.477 1.229,5.65 -0.12,2.173 -2.488,3.744 -2.488,3.744 0,0 -0.284,1.34 -0.615,1.344 -0.332,0.005 -0.939,-1.083 -0.939,-1.083 l -5.601,2.349 4.461,-3.338 c 0,0 -0.385,-0.832 -1.211,-2.351 -0.825,-1.519 -0.385,-1.929 -0.425,-2.436 0.002,0.03 1.291,0.128 0.909,0.429 0.133,-0.104 0.188,0.053 0.334,0.035 0.275,-0.033 -0.576,-1.219 -0.576,-1.219 l 1.854,1.553 c 0,0 0.041,-0.122 0.28,-0.188 0.238,-0.065 0.372,0.003 0.372,0.003 0,0 -0.351,-0.26 -0.533,-0.532 -0.183,-0.272 -0.662,-0.581 -0.662,-0.581 0,0 -0.663,-0.42 -1.238,-0.698 -0.574,-0.279 -1.104,-0.831 -1.104,-0.831 0,0 -1.018,-0.099 -1.759,-0.124 -0.74,-0.027 -1.738,0.378 -2.472,0.31 -0.734,-0.068 -0.76,-0.659 -2.219,-1.598 -1.459,-0.939 -1.593,-1.007 -2.342,-1.23 -0.75,-0.223 -0.681,-1.644 -0.681,-1.644"
               id="path5166"
               style="fill:#000000;fill-opacity:1;fill-rule:nonzero;stroke:none"
               inkscape:connector-curvature="0" /><path
               d="m 532.72,438.385 c 0,0 0.099,-1.351 -0.615,-2.415 -0.714,-1.064 -0.927,-1.407 -1.056,-2.126 -0.13,-0.718 1.027,-2.593 1.102,-3.297 0.075,-0.703 -0.661,-1.51 -1.008,-1.921 -0.345,-0.411 -0.761,-1.029 -0.761,-1.029 0,0 -0.437,-0.232 -0.685,-0.733 -0.249,-0.502 -0.146,-0.374 -0.146,-0.374 l 1.021,0.207 c 0,0 0.512,1.288 1.095,1.763 0.584,0.476 0.984,0.81 1.112,1.289 0.128,0.479 -0.47,1.848 -0.543,2.791 -0.073,0.942 2.155,2.238 2.155,2.238 0,0 -0.4,0.296 -0.631,1.189 -0.229,0.892 -0.169,0.903 -0.316,1.42 -0.148,0.516 -0.724,0.998 -0.724,0.998 z"
               id="path5168"
               style="fill:#cccccc;fill-opacity:1;fill-rule:nonzero;stroke:#000000;stroke-width:0.06;stroke-linecap:butt;stroke-linejoin:miter;stroke-miterlimit:4;stroke-dasharray:none;stroke-opacity:1"
               inkscape:connector-curvature="0" /><path
               d="m 530.591,454.818 c 0,0 -0.851,-1.314 -1.6,-2.538 -0.888,-1.452 -0.852,-1.945 -0.852,-1.945 l 0.576,-0.833 c 0,0 0.139,0.341 0.201,0.386 0.245,0.178 0.57,0.546 0.626,0.499 0.085,-0.073 0.038,0.013 0.15,-0.026 0.285,-0.098 -0.438,-0.421 -0.476,-0.684 -0.034,-0.237 -0.3,-0.165 -0.275,-0.197 0.112,-0.144 0.45,-0.276 0.45,-0.276 l 0.351,0.473 1.177,1.262 c 0,0 0.447,-0.048 0.769,0.022 0.639,0.138 0.514,-0.233 0.514,-0.233 0,0 -0.175,0.316 -0.701,-0.518 -0.444,-0.705 -0.475,-0.76 -0.475,-0.76 0,0 -0.763,-0.139 -1.455,-0.46 -0.692,-0.321 -1.157,-0.884 -1.157,-0.884 0,0 -1.143,-0.099 -2.054,-0.091 -0.912,0.008 -1.574,0.257 -2.066,0.102 -0.491,-0.154 -2.33,-1.553 -3.446,-2.06 -1.116,-0.507 -1.086,-0.567 -1.351,-1.093 -0.265,-0.526 -0.065,-0.859 -0.065,-0.859 l 1.155,0.145 c 0,0 -0.157,1.054 0.304,1.293 0.839,0.435 1.474,0.724 1.474,0.724 l 1.329,0.659 c 0,0 0.003,0.67 0.834,0.777 0.619,0.135 1.114,0.02 1.868,-0.034 0.753,-0.053 1.938,0.179 1.938,0.179 l -1.888,-0.371 c 0,0 -1.7,0.121 -2.196,0.04 -0.294,-0.048 -0.715,-1.499 -0.796,-1.704 -0.235,-0.585 -0.505,-0.83 -0.462,-1.213 0.042,-0.384 0.886,-0.73 1.23,-1.058 0.343,-0.329 0.787,-1.139 0.787,-1.139 0,0 0.163,-0.361 0.409,-0.599 0.38,-0.366 0.39,-0.103 0.39,-0.103 l 0.402,1.073 c 0,0 -0.595,0.195 -1.153,0.594 -0.727,0.519 -0.867,0.863 -1.035,1.506 -0.168,0.643 0.898,1.706 0.898,1.706 0.228,0.063 1.632,-0.8 2.032,-1.466 0.199,-0.333 0.496,-1.409 0.978,-2.386 0.482,-0.977 0.471,-1.446 1.401,-2.189 0.929,-0.744 3.225,-1.239 3.786,-1.506 0.561,-0.267 0.839,-2.454 1.076,-3.258 0.236,-0.805 1.093,-1.865 1.767,-2.438 0.674,-0.573 1.193,-1.586 1.193,-1.586 0,0 -0.562,0.651 -0.757,0.891 -0.195,0.239 -0.717,0.644 -0.717,0.644 l -0.659,-0.142 0.054,-0.207 -0.442,-0.58 -1.015,-1.249 c 0,0 0.108,-0.654 0.412,0.14 0.215,0.562 1.077,0.869 1.077,0.869 0,0 0.516,-0.638 0.891,-0.511 0.98,0.33 1.094,-0.236 1.094,-0.236 0,0 -0.073,-0.687 -0.377,-1.35 -0.304,-0.664 -0.439,-0.601 -0.604,-0.979 -0.165,-0.378 -0.437,-0.992 -0.437,-0.992 0,0 -0.322,-0.428 -0.57,-0.929 -0.249,-0.502 -0.191,-0.6 -0.191,-0.6 l 1.77,0.561 c 0,0 -0.225,0.481 -0.271,1.015 -0.047,0.535 0.407,1.291 0.894,2.357 0.758,1.05 0.777,1.184 0.763,1.768 -0.013,0.584 -1.028,1.464 -1.082,2.171 -0.055,0.707 0.339,1.083 0.919,2.079 0.581,0.997 0.547,2.077 0.547,2.077 0,0 0.392,0.136 0.885,0.03 0.404,-0.086 0.265,-1.233 0.265,-1.233 0,0 0.197,0.074 0.195,-0.052 -0.009,-0.696 -0.151,-1.092 -0.151,-1.092 l -0.326,-0.406 0.192,-0.031 -1.943,-1.396 c 0,0 -0.183,-0.142 0.017,-0.475 0.199,-0.333 0.423,-0.683 0.751,-1.167 0.328,-0.483 0.195,-0.811 0.195,-0.811 l 1.487,0.77 0.089,-0.158 0.643,0.544 0.058,-0.156 c 0,0 0.179,0.374 0.562,1.232 0.212,0.473 0.158,1.68 0.158,1.68 0,0 0.149,-0.141 0.137,0.047 -0.027,0.411 -0.137,1.213 -0.514,1.861 -0.549,0.943 -0.973,1.257 -1.698,1.516 -0.726,0.259 -2.234,0.746 -3.493,1.733 -2.163,1.823 -2.683,2.387 -2.369,4.827 0.314,2.439 1.68,3.962 1.614,6.398 -0.066,2.436 -2.209,3.691 -2.209,3.691 0,0 -0.32,0.976 -0.491,1.01 -0.171,0.034 -1.294,-1.56 -1.294,-1.56 l -4.799,2.642 4.178,-3.174 z"
               id="path5170"
               style="fill:#cccccc;fill-opacity:1;fill-rule:nonzero;stroke:#000000;stroke-width:0.06;stroke-linecap:butt;stroke-linejoin:miter;stroke-miterlimit:4;stroke-dasharray:none;stroke-opacity:1"
               inkscape:connector-curvature="0" /><path
               d="m 531.552,454.066 -0.129,0.121 c 0,0 -0.35,0.042 -0.578,-0.252 -0.228,-0.293 -0.253,-0.917 -0.253,-0.917 0,0 0.201,0.399 0.387,0.712 0.187,0.312 0.573,0.336 0.573,0.336 z"
               id="path5172"
               style="fill:#000000;fill-opacity:1;fill-rule:nonzero;stroke:#000000;stroke-width:0.107;stroke-linecap:butt;stroke-linejoin:miter;stroke-miterlimit:4;stroke-dasharray:none;stroke-opacity:1"
               inkscape:connector-curvature="0" /><path
               d="m 528.733,426.277 c -0.551,-0.547 -1.058,-0.956 -1.519,-1.227 -0.804,-0.479 -1.682,-0.717 -2.635,-0.717 -0.527,0 -1.015,0.086 -1.469,0.25 -0.682,0.247 -1.283,0.675 -1.799,1.293 -0.049,0.058 -0.092,0.122 -0.138,0.183 -0.765,1.007 -1.153,2.321 -1.153,3.948 0,0.027 0.002,0.052 0.002,0.079 l -0.031,1.754 c 0.058,-0.037 0.111,-0.074 0.168,-0.111 0.18,1.078 0.54,1.98 1.089,2.696 0.293,0.383 0.617,0.695 0.97,0.941 -0.127,0.359 -0.269,0.686 -0.427,0.983 -0.838,-0.334 -1.577,-0.852 -2.211,-1.565 -1.133,-1.278 -1.7,-2.858 -1.7,-4.74 0,-0.017 10e-4,-0.035 10e-4,-0.053 l -0.27,0.177 0.117,-0.538 c 0.065,-0.158 0.078,-0.53 0.19,-0.852 0.112,-0.323 0.189,-0.654 0.189,-0.711 0,-0.031 0.009,-0.046 0.024,-0.05 0.256,-0.969 0.708,-1.826 1.359,-2.57 0.381,-0.436 0.811,-0.793 1.281,-1.086 0.503,-0.314 1.057,-0.545 1.661,-0.695 0.55,-0.136 1.136,-0.211 1.769,-0.211 1.205,0 2.323,0.346 3.354,1.038 0.606,0.409 1.112,0.884 1.52,1.426 l -0.342,0.358 z"
               id="path5174"
               style="fill:#007ac1;fill-opacity:1;fill-rule:evenodd;stroke:#000000;stroke-width:0.12;stroke-linecap:butt;stroke-linejoin:miter;stroke-miterlimit:4;stroke-dasharray:none;stroke-opacity:1"
               inkscape:connector-curvature="0" /><path
               d="m 524.408,436.03 c 1.277,0 2.293,-0.497 3.048,-1.491 0.396,-0.529 0.717,-1.225 0.962,-2.087 l 0.423,0 -0.171,4.343 -0.386,0 c -0.06,-0.214 -0.168,-0.371 -0.324,-0.472 -0.156,-0.101 -0.321,-0.151 -0.495,-0.151 -0.084,0 -0.476,0.104 -1.178,0.312 -0.701,0.207 -1.384,0.311 -2.05,0.311 -0.475,0 -0.927,-0.042 -1.357,-0.124 l 0.089,-0.905 c 0.442,0.174 0.921,0.264 1.439,0.264 z"
               id="path5176"
               style="fill:#007ac1;fill-opacity:1;fill-rule:evenodd;stroke:#000000;stroke-width:0.12;stroke-linecap:butt;stroke-linejoin:miter;stroke-miterlimit:4;stroke-dasharray:none;stroke-opacity:1"
               inkscape:connector-curvature="0" /><path
               d="m 516.547,438.393 -1.705,4.075 -0.432,0 -4.607,-11.386 c -0.69,-1.707 -1.178,-2.753 -1.462,-3.138 -0.284,-0.385 -0.71,-0.612 -1.279,-0.68 l 0,-0.419 4.381,0 0,0.419 c -0.518,0.046 -0.87,0.114 -1.057,0.204 -0.302,0.151 -0.453,0.423 -0.453,0.816 0,0.196 0.055,0.462 0.167,0.799 0.111,0.336 0.455,1.263 1.03,2.781 l 3.979,0 c -0.299,0.243 -0.562,0.486 -0.776,0.731 -0.059,0.069 -0.112,0.139 -0.166,0.21 l -2.648,0 2.525,6.389 1.399,-3.495 c 0,0 0.382,-0.692 0.604,-0.964 0.384,-0.478 0.979,-0.978 1.786,-1.498 l 1.195,-0.773 -2.481,5.929 z"
               id="path5178"
               style="fill:#007ac1;fill-opacity:1;fill-rule:evenodd;stroke:#000000;stroke-width:0.12;stroke-linecap:butt;stroke-linejoin:miter;stroke-miterlimit:4;stroke-dasharray:none;stroke-opacity:1"
               inkscape:connector-curvature="0" /><path
               d="m 522.845,429.436 c -0.528,0.698 -1.427,1.463 -2.686,2.293 -0.057,0.037 -1.131,0.735 -1.131,0.735 l -1.195,0.773 c -0.807,0.52 -1.361,1.056 -1.786,1.498 -0.245,0.256 -0.604,0.964 -0.604,0.964 l -1.068,2.666 c -0.721,-0.835 -1.086,-1.859 -1.086,-3.076 0,-0.899 0.295,-1.727 0.878,-2.484 0.054,-0.071 0.107,-0.141 0.166,-0.21 0.214,-0.245 0.477,-0.488 0.776,-0.731 0.223,-0.181 0.464,-0.361 0.734,-0.54 l 1.768,-1.156 0.33,-0.216 c 1.207,-0.789 1.998,-1.381 2.374,-1.775 0.37,-0.399 0.619,-0.843 0.751,-1.332 0.068,-0.25 0.102,-0.513 0.107,-0.786 0.046,-0.061 0.089,-0.125 0.138,-0.183 0.516,-0.618 1.117,-1.046 1.799,-1.293 0.365,0.661 0.55,1.405 0.55,2.234 0,1.007 -0.272,1.88 -0.815,2.619 z"
               id="path5180"
               style="fill:#cccccc;fill-opacity:1;fill-rule:evenodd;stroke:#000000;stroke-width:0.12;stroke-linecap:butt;stroke-linejoin:miter;stroke-miterlimit:4;stroke-dasharray:none;stroke-opacity:1"
               inkscape:connector-curvature="0" /><path
               d="m 520.321,423.809 c -0.572,-0.521 -1.249,-0.781 -2.032,-0.781 -1.447,0 -2.658,0.6 -3.633,1.8 -0.559,0.688 -1.047,1.611 -1.462,2.77 l -0.564,0 0.731,-5.489 0.54,0 c 0.032,0.21 0.098,0.407 0.198,0.592 0.099,0.184 0.293,0.277 0.581,0.277 0.12,0 0.594,-0.151 1.421,-0.453 0.827,-0.302 1.62,-0.453 2.38,-0.453 1.51,0 2.751,0.453 3.722,1.359 0.082,0.076 0.155,0.156 0.229,0.235 -0.604,0.15 -1.158,0.381 -1.661,0.695 -0.123,-0.203 -0.271,-0.389 -0.45,-0.552 z"
               id="path5182"
               style="fill:#cccccc;fill-opacity:1;fill-rule:evenodd;stroke:#000000;stroke-width:0.12;stroke-linecap:butt;stroke-linejoin:miter;stroke-miterlimit:4;stroke-dasharray:none;stroke-opacity:1"
               inkscape:connector-curvature="0" /><path
               d="m 517.977,438.789 c 0.863,0 1.736,-0.328 2.62,-0.982 0.466,-0.346 0.863,-0.835 1.194,-1.458 0.158,-0.297 0.3,-0.624 0.427,-0.983 0.112,-0.317 0.214,-0.655 0.303,-1.021 l 0.587,0 -0.539,5.488 -0.504,0 c -0.064,-0.276 -0.154,-0.49 -0.27,-0.642 -0.116,-0.15 -0.325,-0.226 -0.629,-0.226 -0.112,0 -0.561,0.145 -1.349,0.434 -0.787,0.29 -1.46,0.434 -2.02,0.434 -0.637,0 -1.213,-0.098 -1.732,-0.288 l 0.482,-1.152 c 0.424,0.26 0.899,0.396 1.43,0.396 z"
               id="path5184"
               style="fill:#cccccc;fill-opacity:1;fill-rule:evenodd;stroke:#000000;stroke-width:0.12;stroke-linecap:butt;stroke-linejoin:miter;stroke-miterlimit:4;stroke-dasharray:none;stroke-opacity:1"
               inkscape:connector-curvature="0" /><path
               d="m 510.249,451.9 c 0.04,-0.427 0.054,-0.783 0.111,-1.16 -0.076,-0.031 -0.149,-0.054 -0.224,-0.089 -0.073,-0.036 -0.143,-0.081 -0.215,-0.121 l -0.133,3.998 c 0.064,0.019 0.121,0.041 0.182,0.07 0.06,0.028 0.113,0.06 0.169,0.097 l 2.751,-2.76 c -0.138,-0.054 -0.274,-0.102 -0.408,-0.166 -0.134,-0.064 -0.258,-0.14 -0.387,-0.214 -0.262,0.309 -0.502,0.593 -0.768,0.859 l -1.078,-0.514 z m 0.843,0.759 -0.901,0.936 0.055,-1.339 0.846,0.403"
               id="path5186"
               style="fill:#000000;fill-opacity:1;fill-rule:nonzero;stroke:none"
               inkscape:connector-curvature="0" /><path
               d="m 515.694,456.262 c 0.072,0.004 0.145,0.003 0.215,0.018 0.07,0.014 0.141,0.046 0.209,0.071 0.422,-1.375 0.753,-2.491 1.12,-3.497 -0.141,-0.019 -0.279,-0.031 -0.418,-0.061 -0.14,-0.029 -0.262,-0.07 -0.399,-0.11 -0.198,0.824 -0.449,1.603 -0.677,2.393 -0.227,-0.88 -0.449,-1.758 -0.648,-2.643 -0.067,-0.003 -0.128,-0.011 -0.19,-0.04 -0.456,0.655 -1.003,1.384 -1.538,2.126 0.06,-0.945 0.119,-1.689 0.243,-2.425 -0.082,-0.006 -0.16,-0.006 -0.24,-0.022 -0.079,-0.017 -0.146,-0.047 -0.224,-0.075 -0.02,1.09 -0.091,2.337 -0.173,3.696 0.072,0.004 0.139,0.002 0.209,0.016 0.07,0.015 0.137,0.045 0.205,0.071 0.514,-0.747 1.063,-1.48 1.612,-2.22 0.218,0.819 0.486,1.729 0.694,2.702"
               id="path5188"
               style="fill:#000000;fill-opacity:1;fill-rule:nonzero;stroke:none"
               inkscape:connector-curvature="0" /><path
               d="m 517.638,456.409 c 0.127,-0.008 0.254,-0.022 0.381,-0.019 0.127,0.002 0.254,0.021 0.38,0.033 l 0.069,-3.658 c -0.127,0.008 -0.255,0.021 -0.382,0.019 -0.127,-0.003 -0.253,-0.022 -0.38,-0.035 l -0.068,3.66"
               id="path5190"
               style="fill:#000000;fill-opacity:1;fill-rule:nonzero;stroke:none"
               inkscape:connector-curvature="0" /><path
               d="m 521.259,456.204 c -0.018,-0.074 -0.04,-0.152 -0.047,-0.226 -0.007,-0.074 0,-0.155 0.003,-0.231 -0.304,0.076 -0.644,0.154 -1.161,0.198 l -0.109,-1.141 0.526,-0.056 c 0.227,-0.024 0.437,-0.025 0.626,-0.018 -0.017,-0.073 -0.04,-0.151 -0.047,-0.226 -0.007,-0.074 0.001,-0.155 0.004,-0.23 -0.185,0.046 -0.39,0.089 -0.618,0.113 l -0.526,0.055 -0.129,-1.348 c 0.517,-0.049 0.863,-0.059 1.175,-0.049 -0.017,-0.073 -0.039,-0.151 -0.046,-0.225 -0.008,-0.075 0,-0.156 0.003,-0.232 l -1.927,0.204 0.346,3.615 1.927,-0.203"
               id="path5192"
               style="fill:#000000;fill-opacity:1;fill-rule:nonzero;stroke:none"
               inkscape:connector-curvature="0" /><path
               d="m 522.37,456.023 0.482,-0.15 c 0.468,-1.008 0.975,-2.011 1.43,-3.048 l 0.675,2.394 c 0.061,-0.03 0.127,-0.056 0.191,-0.076 0.063,-0.02 0.133,-0.036 0.199,-0.045 l -0.99,-3.51 -0.413,0.134 c -0.378,0.836 -0.727,1.628 -1.106,2.408 l -0.367,0.749 -0.698,-2.476 c -0.062,0.024 -0.127,0.056 -0.191,0.076 -0.063,0.019 -0.134,0.03 -0.199,0.045 l 0.987,3.499"
               id="path5194"
               style="fill:#000000;fill-opacity:1;fill-rule:nonzero;stroke:none"
               inkscape:connector-curvature="0" /><path
               d="m 527.623,453.156 c 0.033,0.301 -0.06,0.555 -0.317,0.694 -0.357,0.193 -0.592,0.074 -0.725,-0.196 -0.314,-0.64 1.117,-1.264 0.585,-2.35 -0.298,-0.607 -1.009,-0.774 -1.709,-0.396 -0.248,0.135 -0.484,0.34 -0.627,0.597 0.152,0.17 0.3,0.342 0.427,0.532 l 0.085,-0.047 c -0.092,-0.363 0.056,-0.69 0.368,-0.858 0.28,-0.152 0.609,-0.12 0.77,0.207 0.372,0.759 -1.108,1.211 -0.548,2.354 0.268,0.545 0.845,0.803 1.532,0.432 0.325,-0.176 0.551,-0.461 0.602,-0.614 -0.129,-0.122 -0.251,-0.254 -0.375,-0.391 l -0.068,0.036"
               id="path5196"
               style="fill:#000000;fill-opacity:1;fill-rule:nonzero;stroke:none"
               inkscape:connector-curvature="0" /><path
               d="m 505.47,420.502 c -0.09,0.106 -0.176,0.215 -0.273,0.312 -0.097,0.098 -0.206,0.183 -0.311,0.272 l 2.545,2.805 1.483,-1.483 c -0.059,-0.05 -0.126,-0.099 -0.178,-0.157 -0.052,-0.057 -0.096,-0.13 -0.14,-0.196 -0.212,0.266 -0.439,0.548 -0.848,0.957 l -0.798,-0.879 0.413,-0.413 c 0.152,-0.151 0.323,-0.291 0.505,-0.434 -0.06,-0.049 -0.127,-0.099 -0.179,-0.156 -0.052,-0.057 -0.096,-0.13 -0.14,-0.196 -0.149,0.18 -0.286,0.357 -0.442,0.512 l -0.409,0.409 -1.228,-1.353"
               id="path5198"
               style="fill:#000000;fill-opacity:1;fill-rule:nonzero;stroke:none"
               inkscape:connector-curvature="0" /><path
               d="m 508.82,417.739 c -1.027,0.629 -1.367,1.687 -0.752,2.795 0.538,0.971 1.648,1.345 2.806,0.637 1.324,-0.811 1.171,-2.031 0.755,-2.79 -0.523,-0.955 -1.67,-1.338 -2.809,-0.642 z m -0.06,2.182 c -0.352,-0.635 -0.451,-1.476 0.246,-1.903 0.716,-0.438 1.454,0.118 1.903,0.928 0.35,0.629 0.471,1.522 -0.226,1.949 -0.646,0.395 -1.316,0.119 -1.923,-0.974"
               id="path5200"
               style="fill:#000000;fill-opacity:1;fill-rule:nonzero;stroke:none"
               inkscape:connector-curvature="0" /><path
               d="m 513.671,415.676 c -1.157,0.29 -1.774,1.2 -1.49,2.447 0.249,1.094 1.209,1.788 2.512,1.461 1.492,-0.374 1.68,-1.589 1.491,-2.442 -0.239,-1.073 -1.231,-1.788 -2.513,-1.466 z m -0.658,2.07 c -0.162,-0.714 -0.026,-1.55 0.759,-1.747 0.806,-0.203 1.36,0.553 1.567,1.465 0.162,0.709 0.033,1.601 -0.752,1.798 -0.727,0.183 -1.293,-0.285 -1.574,-1.516"
               id="path5202"
               style="fill:#000000;fill-opacity:1;fill-rule:nonzero;stroke:none"
               inkscape:connector-curvature="0" /><path
               d="m 518.459,415.207 c -0.135,0.011 -0.269,0.027 -0.404,0.026 -0.134,0 -0.269,-0.018 -0.403,-0.03 l -0.018,3.474 c -0.382,-0.002 -0.721,-0.044 -1.001,-0.085 0.011,0.079 0.026,0.159 0.026,0.243 0,0.079 -0.017,0.158 -0.028,0.238 l 2.771,0.015 c -0.011,-0.079 -0.026,-0.158 -0.026,-0.237 0,-0.085 0.017,-0.164 0.028,-0.243 -0.317,0.038 -0.635,0.075 -0.963,0.074 l 0.018,-3.475"
               id="path5204"
               style="fill:#000000;fill-opacity:1;fill-rule:nonzero;stroke:none"
               inkscape:connector-curvature="0" /><path
               d="m 519.867,419.15 1.358,0.303 c 0.531,0.119 1.085,0.046 1.216,-0.601 0.105,-0.519 -0.25,-0.91 -0.684,-1.076 l 0.01,-0.05 c 0.398,0.048 0.993,-0.015 1.132,-0.7 0.154,-0.763 -0.433,-1.229 -1.054,-1.368 l -1.216,-0.271 -0.762,3.763 z m 1.119,-1.448 c 0.226,0.05 0.43,0.073 0.577,0.273 0.134,0.18 0.153,0.41 0.11,0.625 -0.081,0.398 -0.34,0.565 -0.688,0.488 -0.084,-0.019 -0.162,-0.042 -0.264,-0.082 l 0.265,-1.304 z m 0.368,-1.818 0.263,0.058 c 0.289,0.065 0.567,0.404 0.474,0.863 -0.123,0.608 -0.487,0.746 -1.041,0.576 l 0.304,-1.497"
               id="path5206"
               style="fill:#000000;fill-opacity:1;fill-rule:nonzero;stroke:none"
               inkscape:connector-curvature="0" /><path
               d="m 524.283,417.664 c 0.045,-0.452 0.065,-0.829 0.129,-1.227 -0.081,-0.033 -0.159,-0.059 -0.236,-0.097 -0.078,-0.038 -0.152,-0.086 -0.228,-0.13 l -0.178,4.231 c 0.067,0.021 0.128,0.044 0.191,0.076 0.064,0.03 0.12,0.064 0.179,0.104 l 2.938,-2.893 c -0.146,-0.059 -0.289,-0.11 -0.43,-0.179 -0.142,-0.069 -0.271,-0.151 -0.408,-0.231 -0.281,0.324 -0.537,0.622 -0.821,0.901 l -1.136,-0.555 z m 0.885,0.813 -0.963,0.98 0.071,-1.417 0.892,0.437"
               id="path5208"
               style="fill:#000000;fill-opacity:1;fill-rule:nonzero;stroke:none"
               inkscape:connector-curvature="0" /><path
               d="m 528.328,419.214 c 0.376,0.293 0.673,0.574 0.944,0.835 0.036,-0.07 0.072,-0.148 0.116,-0.212 0.045,-0.063 0.106,-0.121 0.16,-0.178 l -1.636,-1.276 -2.185,3.087 c 0.114,0.075 0.231,0.145 0.339,0.23 0.108,0.084 0.206,0.182 0.308,0.275 l 1.954,-2.761"
               id="path5210"
               style="fill:#000000;fill-opacity:1;fill-rule:nonzero;stroke:none"
               inkscape:connector-curvature="0" /><path
               d="m 530.637,421.344 c 0.321,0.357 0.567,0.688 0.791,0.995 0.047,-0.063 0.095,-0.133 0.15,-0.187 0.055,-0.055 0.124,-0.101 0.186,-0.147 l -1.4,-1.557 -2.664,2.642 c 0.1,0.095 0.204,0.186 0.297,0.289 0.092,0.103 0.173,0.217 0.257,0.327 l 2.383,-2.362"
               id="path5212"
               style="fill:#000000;fill-opacity:1;fill-rule:nonzero;stroke:none"
               inkscape:connector-curvature="0" /><path
               d="m 536.46,422.742 0.478,0.322 c -0.024,-0.229 -0.165,-0.619 -0.172,-0.856 0.28,0 0.656,-0.185 0.803,-0.43 -0.318,0.025 -0.68,0 -0.816,-0.398 -0.062,-0.171 0.005,-0.423 0.034,-0.622 0,0 -0.165,-0.094 -0.204,-0.051 -0.043,0.046 -0.092,0.31 -0.102,0.316 -0.135,0.108 -0.253,0.214 -0.477,0.077 l -0.393,-0.547 c -0.039,0.335 -0.127,0.699 0.113,0.994 -0.06,0.053 -0.187,0.114 -0.187,0.114 -0.233,0.106 -0.546,0.241 -0.772,0.387 0.216,0.121 0.428,0.184 0.603,0.455 0.369,0.694 0.332,1.517 0.122,2.301 0.389,-0.604 0.667,-1.425 0.97,-2.062 z"
               id="path5214"
               style="fill:#cccccc;fill-opacity:1;fill-rule:nonzero;stroke:#000000;stroke-width:0.042;stroke-linecap:butt;stroke-linejoin:miter;stroke-miterlimit:4;stroke-dasharray:none;stroke-opacity:1"
               inkscape:connector-curvature="0" /><path
               d="m 536.991,419.505 c 0.342,0 0.71,0.516 1.021,0.711 l 0.126,-0.161 c -0.35,-0.286 -1.144,-1.094 -1.672,-1.919 0.109,-0.073 0.314,-0.079 0.454,-0.013 l -0.026,-0.476 c -1.376,-0.482 -2.399,-1.105 -3.256,-2.574 l 0.145,-0.162 c 0.487,0.32 1.044,0.412 1.604,0.412 0.259,0.272 0.258,0.592 0.211,0.895 0.194,-0.164 0.402,-0.449 0.402,-0.449 0.147,0.335 0.624,0.77 0.92,0.966 -0.053,-0.172 -0.156,-0.422 -0.232,-0.757 -0.023,-0.041 0.364,0.065 0.387,0.008 0.56,0.009 1.11,0.085 1.646,-0.299 -0.529,-0.049 -1.427,-0.027 -1.878,-0.37 0.016,-0.319 0.103,-0.661 0.219,-0.923 -0.373,0.033 -0.755,0.151 -0.926,0.551 -0.287,-0.138 -0.394,-0.505 -0.846,-0.622 0.016,0.179 0.208,0.528 0.092,0.675 -0.21,0.098 -0.585,-0.046 -0.834,-0.087 -0.925,-0.261 -1.709,-0.67 -2.533,-1.2 -0.074,0.146 -0.183,0.535 -0.146,0.642 0.709,0.414 0.928,0.567 1.326,0.95 0.836,0.898 1.556,1.643 2.197,2.296 0.7,0.707 1.4,1.599 1.361,2.669 l 0.165,0.03 0.073,-0.793 z"
               id="path5216"
               style="fill:#cccccc;fill-opacity:1;fill-rule:nonzero;stroke:#000000;stroke-width:0.042;stroke-linecap:butt;stroke-linejoin:miter;stroke-miterlimit:4;stroke-dasharray:none;stroke-opacity:1"
               inkscape:connector-curvature="0" /><path
               d="m 540.42,418.999 c 0.858,0.335 1.305,0.151 1.839,-0.114 -0.637,0.008 -0.981,-0.143 -1.839,-0.556 -0.171,-0.236 -0.097,-0.553 0.012,-0.822 -0.412,-0.065 -0.789,0.112 -1.054,0.431 -0.287,-0.431 -0.663,-0.598 -0.919,-0.696 0.301,0.316 0.408,0.765 0.233,1.071 -0.436,0.008 -0.8,-0.215 -1.189,-0.313 0.025,0.13 -0.041,0.291 0.052,0.341 0.218,0.115 0.725,0.1 0.943,0.238 0.116,-0.033 0.258,0.036 0.281,0.142 -0.062,0.18 -0.106,0.521 -0.233,0.745 0.603,-0.05 0.552,-0.34 0.778,-0.561 0.223,0.357 0.321,0.653 0.962,0.868 0,0 0.025,-0.676 0.134,-0.774 z"
               id="path5218"
               style="fill:#cccccc;fill-opacity:1;fill-rule:nonzero;stroke:#000000;stroke-width:0.042;stroke-linecap:butt;stroke-linejoin:miter;stroke-miterlimit:4;stroke-dasharray:none;stroke-opacity:1"
               inkscape:connector-curvature="0" /><path
               d="m 532.473,417.877 c 0.233,-0.107 0.621,0.212 0.824,0.293 -0.093,-0.302 -0.485,-0.837 -0.738,-0.969 0,-0.265 0.126,-0.613 0.165,-1 -0.223,0.265 -0.387,0.42 -0.612,0.428 -0.179,-0.343 -0.272,-0.726 -0.288,-1.135 l -0.342,0 c 0.046,0.319 0.183,0.758 0.097,1.011 -0.216,0.237 -0.573,-0.092 -0.799,-0.141 0.078,0.204 0.107,0.623 0.262,0.755 -0.132,0.359 -0.315,0.934 -0.247,1.23 0.165,-0.041 0.442,-0.472 0.706,-0.432 0.193,0.835 0.572,1.57 1.165,2.06 -0.292,-0.368 -0.659,-1.782 -0.193,-2.1 z"
               id="path5220"
               style="fill:#cccccc;fill-opacity:1;fill-rule:nonzero;stroke:#000000;stroke-width:0.042;stroke-linecap:butt;stroke-linejoin:miter;stroke-miterlimit:4;stroke-dasharray:none;stroke-opacity:1"
               inkscape:connector-curvature="0" /><path
               d="m 531.208,413.843 c 0.165,-0.051 0.292,0.082 0.292,0.082 l 0.097,-0.5 c -0.214,-0.439 -1.174,-0.669 -1.55,-0.974 -1.026,-0.486 -2.051,-0.653 -3.349,-0.71 -0.257,-0.172 -1.172,-0.309 -1.468,-0.48 -0.715,-0.277 -1.182,-1.202 -1.516,-1.888 -0.292,-0.163 -1.085,-0.753 -1.302,-0.888 0.029,1.102 1.302,2.337 1.836,2.837 1.148,0.99 4.608,0.756 6.105,1.929 0.369,0.204 0.845,1.429 0.913,1.776 l 0.224,0.112 c 0.136,0.021 -0.107,-0.816 -0.282,-1.296 z"
               id="path5222"
               style="fill:#cccccc;fill-opacity:1;fill-rule:nonzero;stroke:#000000;stroke-width:0.042;stroke-linecap:butt;stroke-linejoin:miter;stroke-miterlimit:4;stroke-dasharray:none;stroke-opacity:1"
               inkscape:connector-curvature="0" /><path
               d="m 541.893,420.889 -0.084,-0.608 c -0.246,0.026 -0.516,0.354 -0.673,0.511 l -0.74,-0.743 c 0.058,0.453 0.064,0.628 -0.054,0.826 -0.133,0.157 -0.403,0.15 -0.56,0.117 l -0.278,-0.038 -0.52,-0.12 c -0.252,-0.041 -0.369,-0.561 -0.644,-0.198 0.424,0.717 0.941,1.351 1.422,2.093 0.28,0.52 0.777,1.032 0.313,1.511 -0.377,0.143 -0.495,0.225 -1.25,-0.109 0.383,0.752 0.556,0.999 1.037,1.206 -0.275,0.484 -0.446,1.068 -0.375,1.474 1.404,-0.145 1.529,0.418 1.902,0.789 1.011,1.443 0.922,1.732 1.215,2.669 0.102,-0.099 0.177,-0.552 0.189,-0.727 0.147,-1.189 0.159,-1.896 -0.069,-3.035 -0.102,-0.321 -0.137,-0.443 0.069,-0.841 0.204,-0.231 0.808,-0.087 0.911,-0.108 -0.157,-0.309 -0.491,-0.567 -0.841,-0.807 -0.259,-0.165 -0.53,-0.099 -0.797,-0.264 -0.013,-0.549 0.216,-1.402 -0.11,-1.779 -0.243,0.47 -0.726,1.004 -1.166,1.021 -0.709,-0.897 -1.068,-1.782 -1.767,-2.656 l 0.448,0.116 c 0.389,0.05 0.579,0.208 1.003,0.2 0.094,0.181 0.01,0.402 -0.049,0.701 0.196,-0.066 0.363,0.01 0.671,-0.382 0.055,0.281 0.283,0.47 0.526,0.594 l 0.04,-0.635 c 1.132,-0.17 1.697,0.018 2.208,0.266 -0.229,-0.275 -1.442,-0.959 -1.977,-1.044 z"
               id="path5224"
               style="fill:#cccccc;fill-opacity:1;fill-rule:nonzero;stroke:#000000;stroke-width:0.042;stroke-linecap:butt;stroke-linejoin:miter;stroke-miterlimit:4;stroke-dasharray:none;stroke-opacity:1"
               inkscape:connector-curvature="0" /><path
               d="m 499.801,422.982 -0.477,0.322 c 0.023,-0.228 0.164,-0.62 0.172,-0.856 -0.28,0 -0.656,-0.185 -0.804,-0.43 0.319,0.025 0.681,0 0.816,-0.398 0.063,-0.172 -0.004,-0.424 -0.034,-0.622 0,0 0.165,-0.094 0.205,-0.051 0.042,0.046 0.091,0.31 0.102,0.316 0.134,0.108 0.252,0.214 0.476,0.076 l 0.394,-0.546 c 0.038,0.335 0.126,0.699 -0.113,0.994 0.059,0.053 0.187,0.114 0.187,0.114 0.233,0.106 0.546,0.241 0.771,0.388 -0.215,0.12 -0.427,0.183 -0.602,0.454 -0.37,0.694 -0.333,1.517 -0.123,2.301 -0.389,-0.604 -0.667,-1.425 -0.97,-2.062 z"
               id="path5226"
               style="fill:#cccccc;fill-opacity:1;fill-rule:nonzero;stroke:#000000;stroke-width:0.042;stroke-linecap:butt;stroke-linejoin:miter;stroke-miterlimit:4;stroke-dasharray:none;stroke-opacity:1"
               inkscape:connector-curvature="0" /><path
               d="m 499.27,419.745 c -0.342,0 -0.709,0.516 -1.02,0.712 l -0.126,-0.162 c 0.349,-0.286 1.144,-1.094 1.671,-1.919 -0.108,-0.073 -0.313,-0.078 -0.453,-0.013 l 0.026,-0.476 c 1.376,-0.482 2.399,-1.104 3.256,-2.574 l -0.146,-0.162 c -0.486,0.32 -1.044,0.412 -1.604,0.412 -0.259,0.272 -0.257,0.593 -0.21,0.895 -0.195,-0.164 -0.402,-0.449 -0.402,-0.449 -0.148,0.334 -0.625,0.77 -0.92,0.966 0.053,-0.172 0.155,-0.422 0.232,-0.757 0.023,-0.041 -0.364,0.065 -0.388,0.008 -0.56,0.008 -1.109,0.085 -1.646,-0.299 0.529,-0.049 1.427,-0.027 1.878,-0.37 -0.015,-0.319 -0.102,-0.661 -0.219,-0.923 0.373,0.033 0.756,0.151 0.927,0.551 0.287,-0.137 0.394,-0.505 0.845,-0.622 -0.015,0.179 -0.208,0.528 -0.091,0.675 0.21,0.099 0.585,-0.046 0.833,-0.087 0.926,-0.261 1.71,-0.67 2.534,-1.2 0.074,0.146 0.182,0.534 0.146,0.643 -0.71,0.413 -0.929,0.566 -1.327,0.949 -0.836,0.898 -1.555,1.643 -2.197,2.296 -0.7,0.708 -1.399,1.599 -1.361,2.669 l -0.165,0.03 -0.073,-0.793 z"
               id="path5228"
               style="fill:#cccccc;fill-opacity:1;fill-rule:nonzero;stroke:#000000;stroke-width:0.042;stroke-linecap:butt;stroke-linejoin:miter;stroke-miterlimit:4;stroke-dasharray:none;stroke-opacity:1"
               inkscape:connector-curvature="0" /><path
               d="m 495.841,419.239 c -0.857,0.335 -1.304,0.151 -1.839,-0.114 0.638,0.008 0.982,-0.143 1.839,-0.556 0.171,-0.236 0.098,-0.553 -0.011,-0.822 0.412,-0.065 0.789,0.112 1.053,0.431 0.288,-0.431 0.663,-0.599 0.92,-0.696 -0.302,0.316 -0.409,0.765 -0.233,1.071 0.435,0.009 0.8,-0.215 1.188,-0.313 -0.025,0.13 0.042,0.291 -0.051,0.341 -0.218,0.115 -0.725,0.1 -0.943,0.238 -0.117,-0.033 -0.259,0.036 -0.282,0.142 0.062,0.18 0.107,0.521 0.233,0.745 -0.602,-0.051 -0.552,-0.34 -0.777,-0.561 -0.224,0.357 -0.321,0.653 -0.962,0.868 0,0 -0.026,-0.676 -0.135,-0.774 z"
               id="path5230"
               style="fill:#cccccc;fill-opacity:1;fill-rule:nonzero;stroke:#000000;stroke-width:0.042;stroke-linecap:butt;stroke-linejoin:miter;stroke-miterlimit:4;stroke-dasharray:none;stroke-opacity:1"
               inkscape:connector-curvature="0" /><path
               d="m 503.788,418.116 c -0.233,-0.106 -0.62,0.213 -0.824,0.294 0.093,-0.302 0.486,-0.836 0.739,-0.969 0,-0.265 -0.127,-0.613 -0.166,-1 0.224,0.265 0.387,0.42 0.613,0.428 0.179,-0.343 0.272,-0.726 0.287,-1.135 l 0.343,0 c -0.047,0.319 -0.183,0.758 -0.098,1.011 0.216,0.237 0.574,-0.092 0.8,-0.141 -0.078,0.204 -0.107,0.622 -0.263,0.755 0.132,0.359 0.316,0.934 0.248,1.23 -0.165,-0.041 -0.443,-0.473 -0.707,-0.432 -0.192,0.835 -0.571,1.57 -1.164,2.06 0.291,-0.368 0.659,-1.782 0.192,-2.101 z"
               id="path5232"
               style="fill:#cccccc;fill-opacity:1;fill-rule:nonzero;stroke:#000000;stroke-width:0.042;stroke-linecap:butt;stroke-linejoin:miter;stroke-miterlimit:4;stroke-dasharray:none;stroke-opacity:1"
               inkscape:connector-curvature="0" /><path
               d="m 505.054,414.083 c -0.165,-0.051 -0.292,0.082 -0.292,0.082 l -0.097,-0.5 c 0.213,-0.439 1.174,-0.669 1.549,-0.974 1.027,-0.486 2.051,-0.653 3.35,-0.71 0.256,-0.172 1.172,-0.309 1.467,-0.48 0.716,-0.277 1.182,-1.202 1.517,-1.888 0.291,-0.163 1.084,-0.753 1.302,-0.888 -0.029,1.102 -1.302,2.337 -1.837,2.837 -1.147,0.99 -4.607,0.756 -6.104,1.929 -0.369,0.204 -0.846,1.429 -0.913,1.776 l -0.224,0.112 c -0.136,0.021 0.107,-0.816 0.282,-1.296 z"
               id="path5234"
               style="fill:#cccccc;fill-opacity:1;fill-rule:nonzero;stroke:#000000;stroke-width:0.042;stroke-linecap:butt;stroke-linejoin:miter;stroke-miterlimit:4;stroke-dasharray:none;stroke-opacity:1"
               inkscape:connector-curvature="0" /><path
               d="m 492.391,422.173 c 0.511,-0.248 1.076,-0.436 2.209,-0.266 l 0.039,0.635 c 0.244,-0.124 0.471,-0.313 0.526,-0.594 0.308,0.392 0.475,0.315 0.672,0.382 -0.059,-0.299 -0.144,-0.52 -0.05,-0.701 0.425,0.008 0.614,-0.15 1.004,-0.2 l 0.448,-0.116 c -0.7,0.874 -1.059,1.759 -1.767,2.656 -0.44,-0.017 -0.923,-0.551 -1.167,-1.021 -0.326,0.378 -0.097,1.229 -0.11,1.779 -0.267,0.165 -0.538,0.099 -0.797,0.264 -0.349,0.24 -0.683,0.498 -0.84,0.807 0.103,0.021 0.707,-0.123 0.911,0.109 0.206,0.397 0.171,0.519 0.068,0.841 -0.227,1.138 -0.215,1.844 -0.068,3.034 0.012,0.175 0.086,0.628 0.188,0.727 0.293,-0.937 0.204,-1.226 1.216,-2.669 0.373,-0.371 0.497,-0.934 1.901,-0.789 0.072,-0.406 -0.1,-0.99 -0.375,-1.474 0.482,-0.207 0.655,-0.454 1.038,-1.206 -0.756,0.335 -0.874,0.252 -1.251,0.109 -0.463,-0.478 0.034,-0.991 0.313,-1.511 0.481,-0.742 0.999,-1.375 1.423,-2.093 -0.275,-0.363 -0.393,0.157 -0.644,0.198 l -0.521,0.12 -0.277,0.038 c -0.157,0.033 -0.427,0.04 -0.561,-0.117 -0.118,-0.197 -0.112,-0.373 -0.053,-0.826 l -0.74,0.743 c -0.157,-0.157 -0.427,-0.485 -0.674,-0.511 l -0.083,0.608 c -0.535,0.085 -1.749,0.769 -1.978,1.044 z"
               id="path5236"
               style="fill:#cccccc;fill-opacity:1;fill-rule:nonzero;stroke:#000000;stroke-width:0.042;stroke-linecap:butt;stroke-linejoin:miter;stroke-miterlimit:4;stroke-dasharray:none;stroke-opacity:1"
               inkscape:connector-curvature="0" /><path
               d="m 527.463,411.905 c 0.557,0.014 1.042,-0.236 1.6,-0.551 0.561,-0.31 1.043,-0.38 1.599,-0.328 -0.615,-0.209 -1.148,-0.212 -1.766,-0.011 -0.617,0.201 -1.15,0.201 -1.766,-0.009 -0.615,-0.209 -1.148,-0.22 -1.766,-0.019 -0.617,0.201 -1.15,0.209 -1.766,0 -0.003,0.689 -0.007,1.348 -0.01,2.038 0.604,0.204 1.128,0.206 1.734,0.008 0.606,-0.199 1.13,-0.219 1.734,-0.016 0.604,0.205 1.127,0.254 1.734,0.059 0.606,-0.197 1.13,-0.265 1.734,-0.067 -0.035,-0.025 -0.64,-0.405 -1.369,-0.355 -0.73,0.058 -1.434,-0.055 -1.686,-0.196 -0.501,-0.29 -1.053,-0.465 -1.083,-0.62 0.376,-0.041 0.702,0.04 1.077,0.067 z"
               id="path5238"
               style="fill:#fec35a;fill-opacity:1;fill-rule:evenodd;stroke:#000000;stroke-width:0.085;stroke-linecap:butt;stroke-linejoin:miter;stroke-miterlimit:4;stroke-dasharray:none;stroke-opacity:1"
               inkscape:connector-curvature="0" /><path
               d="m 508.782,412.247 c -0.557,0.011 -1.04,-0.242 -1.597,-0.559 -0.559,-0.313 -1.041,-0.386 -1.598,-0.336 0.617,-0.207 1.15,-0.207 1.766,-0.003 0.617,0.204 1.15,0.207 1.767,0.001 0.616,-0.207 1.149,-0.215 1.766,-0.011 0.616,0.204 1.149,0.215 1.766,0.009 0,0.69 0,1.349 0,2.039 -0.605,0.201 -1.129,0.2 -1.734,-0.002 -0.605,-0.202 -1.129,-0.224 -1.734,-0.025 -0.606,0.202 -1.129,0.249 -1.734,0.051 -0.605,-0.201 -1.129,-0.271 -1.734,-0.076 0.034,-0.025 0.641,-0.402 1.371,-0.349 0.729,0.063 1.433,-0.047 1.686,-0.187 0.503,-0.287 1.056,-0.459 1.087,-0.614 -0.376,-0.043 -0.702,0.037 -1.078,0.062 z"
               id="path5240"
               style="fill:#fec35a;fill-opacity:1;fill-rule:evenodd;stroke:#000000;stroke-width:0.085;stroke-linecap:butt;stroke-linejoin:miter;stroke-miterlimit:4;stroke-dasharray:none;stroke-opacity:1"
               inkscape:connector-curvature="0" /><path
               d="m 512.692,411.262 0,2.032 -1.637,-0.424 0,-1.608 1.637,0 z"
               id="path5242"
               style="fill:#000000;fill-opacity:1;fill-rule:evenodd;stroke:#000000;stroke-width:0.085;stroke-linecap:butt;stroke-linejoin:miter;stroke-miterlimit:4;stroke-dasharray:none;stroke-opacity:1"
               inkscape:connector-curvature="0" /><path
               d="m 525.139,410.958 0.016,1.86 -1.654,0.172 0,-2.032 1.638,0 z"
               id="path5244"
               style="fill:#000000;fill-opacity:1;fill-rule:evenodd;stroke:#000000;stroke-width:0.085;stroke-linecap:butt;stroke-linejoin:miter;stroke-miterlimit:4;stroke-dasharray:none;stroke-opacity:1"
               inkscape:connector-curvature="0" /><path
               d="m 525.261,410.609 c 0,0.754 0,1.475 0,2.23 -0.652,-0.12 -1.275,-0.225 -1.927,-0.224 -0.651,0.002 -0.429,0.082 -1.081,0.203 -0.652,0.121 -1.274,0.226 -1.926,0.226 -0.652,-10e-4 -1.275,-0.107 -1.926,-0.228 -0.652,-0.121 -1.275,-0.226 -1.927,-0.228 -0.651,0 -1.274,0.105 -1.926,0.226 -0.652,0.121 -0.991,0.254 -1.642,0.257 -0.652,0 -1.275,-0.103 -1.926,-0.224 0,-0.755 0,-1.476 0,-2.23 0.651,0.12 1.274,0.224 1.926,0.224 0.651,-0.003 0.99,-0.135 1.642,-0.256 0.652,-0.122 1.275,-0.226 1.926,-0.227 0.652,0.002 1.275,0.107 1.927,0.229 0.651,0.121 1.274,0.226 1.926,0.228 0.652,-10e-4 1.274,-0.105 1.926,-0.227 0.652,-0.121 0.43,-0.201 1.081,-0.203 0.652,-10e-4 1.275,0.103 1.927,0.224 z"
               id="path5246"
               style="fill:#fec35a;fill-opacity:1;fill-rule:nonzero;stroke:#000000;stroke-width:0.085;stroke-linecap:butt;stroke-linejoin:miter;stroke-miterlimit:4;stroke-dasharray:none;stroke-opacity:1"
               inkscape:connector-curvature="0" /><path
               d="m 516.56,411.878 c -0.074,-0.05 -0.133,-0.083 -0.198,-0.116 -0.019,0.031 -0.042,0.057 -0.069,0.081 0,0.005 0,0.009 0,0.014 0.171,0.064 0.327,0.151 0.487,0.247 0.005,-0.003 0.009,-0.005 0.014,-0.007 0,-0.39 0,-0.763 0,-1.153 -0.04,-0.001 -0.077,0 -0.117,-0.004 -0.04,-0.004 -0.077,-0.012 -0.117,-0.019 0,0.324 0,0.633 0,0.957"
               id="path5248"
               style="fill:#000000;fill-opacity:1;fill-rule:nonzero;stroke:none"
               inkscape:connector-curvature="0" /><path
               d="m 517.304,411.14 c 0.042,-0.024 0.093,-0.052 0.149,-0.042 0.219,0.041 0.284,0.323 0.294,0.498 0,0.006 0,0.012 0,0.017 -0.004,0.002 -0.008,10e-4 -0.012,0.003 -0.052,-0.065 -0.126,-0.109 -0.201,-0.121 -0.188,-0.03 -0.331,0.063 -0.334,0.257 10e-4,0.126 0.023,0.203 0.114,0.311 0.073,0.08 0.163,0.121 0.262,0.138 0.127,0.022 0.243,0.007 0.324,-0.081 0.068,-0.08 0.094,-0.199 0.095,-0.313 -10e-4,-0.164 -0.036,-0.346 -0.129,-0.502 -0.09,-0.148 -0.247,-0.253 -0.405,-0.282 -0.034,-0.006 -0.064,-0.008 -0.096,-0.002 -0.025,0.009 -0.029,-0.005 -0.036,0.021 -0.01,0.03 -0.022,0.056 -0.037,0.084 0.004,0.004 0.008,0.009 0.012,0.014 z m 0.296,0.989 c -0.118,-0.024 -0.155,-0.191 -0.149,-0.279 0,-0.085 0.016,-0.265 0.151,-0.246 0.118,0.025 0.141,0.176 0.142,0.268 0,0.098 -0.006,0.277 -0.144,0.257"
               id="path5250"
               style="fill:#000000;fill-opacity:1;fill-rule:nonzero;stroke:none"
               inkscape:connector-curvature="0" /><path
               d="m 518.943,411.9 c -10e-4,-0.172 -0.011,-0.353 -0.126,-0.511 -0.075,-0.097 -0.167,-0.152 -0.278,-0.171 -0.146,-0.025 -0.243,0.007 -0.316,0.122 -0.073,0.116 -0.088,0.237 -0.088,0.384 0,0.116 0.022,0.296 0.081,0.407 0.077,0.14 0.183,0.22 0.329,0.246 0.32,0.05 0.396,-0.209 0.398,-0.477 z m -0.402,-0.606 c 0.125,0.026 0.15,0.206 0.151,0.532 -10e-4,0.371 -0.032,0.492 -0.147,0.475 -0.136,-0.028 -0.159,-0.208 -0.16,-0.552 10e-4,-0.312 0.013,-0.476 0.156,-0.455"
               id="path5252"
               style="fill:#000000;fill-opacity:1;fill-rule:nonzero;stroke:none"
               inkscape:connector-curvature="0" /><path
               d="m 519.384,412.312 c -0.073,-0.051 -0.132,-0.087 -0.198,-0.125 -0.019,0.031 -0.042,0.055 -0.069,0.076 0,0.005 0,0.009 0,0.013 0.172,0.08 0.328,0.17 0.487,0.262 0.005,-0.003 0.009,-0.006 0.014,-0.008 0,-0.39 0,-0.763 0,-1.153 -0.039,0 -0.077,0.002 -0.117,-0.001 -0.039,-0.005 -0.077,-0.013 -0.117,-0.021 0,0.324 0,0.633 0,0.957"
               id="path5254"
               style="fill:#000000;fill-opacity:1;fill-rule:nonzero;stroke:none"
               inkscape:connector-curvature="0" /></g></g></g></g></g></svg>