<?xml version="1.0" encoding="UTF-8" standalone="no"?>
<svg
   xmlns:dc="http://purl.org/dc/elements/1.1/"
   xmlns:cc="http://creativecommons.org/ns#"
   xmlns:rdf="http://www.w3.org/1999/02/22-rdf-syntax-ns#"
   xmlns:svg="http://www.w3.org/2000/svg"
   xmlns="http://www.w3.org/2000/svg"
   xmlns:xlink="http://www.w3.org/1999/xlink"
   xmlns:sodipodi="http://sodipodi.sourceforge.net/DTD/sodipodi-0.dtd"
   xmlns:inkscape="http://www.inkscape.org/namespaces/inkscape"
   viewBox="0 0 186.67308 254.00001"
   version="1.1"
   id="svg77"
   sodipodi:docname="AngersSCO_2019.svg"
   width="186.67308"
   height="254"
   inkscape:version="0.92.4 (5da689c313, 2019-01-14)">
  <metadata
     id="metadata81">
    <rdf:RDF>
      <cc:Work
         rdf:about="">
        <dc:format>image/svg+xml</dc:format>
        <dc:type
           rdf:resource="http://purl.org/dc/dcmitype/StillImage" />
        <dc:title>AngersSCO_2019</dc:title>
      </cc:Work>
    </rdf:RDF>
  </metadata>
  <sodipodi:namedview
     pagecolor="#ffffff"
     bordercolor="#666666"
     borderopacity="1"
     objecttolerance="10"
     gridtolerance="10"
     guidetolerance="10"
     inkscape:pageopacity="0"
     inkscape:pageshadow="2"
     inkscape:window-width="1366"
     inkscape:window-height="705"
     id="namedview79"
     showgrid="false"
     fit-margin-top="2"
     fit-margin-right="2"
     fit-margin-bottom="2"
     fit-margin-left="2"
     inkscape:zoom="1.4164042"
     inkscape:cx="98.94246"
     inkscape:cy="170.98808"
     inkscape:window-x="-8"
     inkscape:window-y="-8"
     inkscape:window-maximized="1"
     inkscape:current-layer="Calque_2" />
  <defs
     id="defs21">
    <style
       id="style2">.cls-1{fill:none;}.cls-2{fill:#fff;}.cls-3{clip-path:url(#clip-path);}.cls-4{fill:url(#Dégradé_sans_nom_2);}.cls-5{fill:url(#Dégradé_sans_nom_2-2);}</style>
    <clipPath
       id="clip-path">
      <path
         class="cls-1"
         d="m 171.21,93.79 c -29.78,0 -63.92,1.43 -98.45,5.75 0,0 -21.66,23.37 -43.3,76.81 0,0 53.08,127.51 141.82,251.1 l 0.11,0.17 C 260.13,304.1 317.75,176.35 317.75,176.35 296.1,122.91 274.46,99.54 274.46,99.54 A 814.17,814.17 0 0 0 176,93.79 Z"
         id="path4"
         inkscape:connector-curvature="0"
         style="fill:none" />
    </clipPath>
    <linearGradient
       id="Dégradé_sans_nom_2"
       x1="-125"
       y1="693.51001"
       x2="-124"
       y2="693.51001"
       gradientTransform="matrix(106.11,0,0,-106.11,13290.9,73886.92)"
       gradientUnits="userSpaceOnUse">
      <stop
         offset="0"
         stop-color="#cbb582"
         id="stop7" />
      <stop
         offset="0.37"
         stop-color="#846850"
         id="stop9" />
      <stop
         offset="0.48"
         stop-color="#cbb582"
         id="stop11" />
      <stop
         offset="0.72"
         stop-color="#fae6c5"
         id="stop13" />
      <stop
         offset="0.93"
         stop-color="#cbb582"
         id="stop15" />
      <stop
         offset="1"
         stop-color="#846850"
         id="stop17" />
    </linearGradient>
    <linearGradient
       id="Dégradé_sans_nom_2-2"
       x1="-125"
       y1="693.51001"
       x2="-124"
       y2="693.51001"
       gradientTransform="matrix(106.11,0,0,-106.11,13473.7,73886.92)"
       xlink:href="#Dégradé_sans_nom_2" />
  </defs>
  <title
     id="title23">AngersSCO_2019</title>
  <g
     id="Calque_2"
     data-name="Calque 2"
     transform="translate(-1.9636103,-199.30093)">
    <g
       id="Calque_1-2"
       data-name="Calque 1"
       transform="matrix(0.53048146,0,0,0.53048146,3.9796318,201.30093)">
      <path
         class="cls-2"
         d="m 173.84,471.25 h -4 l -1.38,-0.7 C 120.91,447.31 81.46,416.32 56.68,394.38 29.86,370.62 14.44,352.53 13.78,351.79 L 12.6,350.38 12.29,348.6 C -2.35,272.32 -1.29,189.6 2.17,133.7 6,73.12 13.29,29.89 13.36,29.47 L 14,25.56 17.73,24.16 C 78.71,1.18 155.58,0 170.35,0 H 174 c 14.78,0 91.65,1.18 152.62,24.16 l 3.69,1.4 0.69,3.91 c 0.06,0.42 7.37,43.65 11.14,104.21 3.46,55.92 4.52,138.62 -10.12,214.9 l -0.31,1.82 -1.19,1.37 c -0.65,0.78 -16.18,18.84 -43.12,42.6 -24.84,21.94 -64.47,53 -112.09,76.17 z"
         id="path25"
         inkscape:connector-curvature="0"
         style="fill:#ffffff" />
      <path
         d="m 25.49,344.19 c 8.78,9.93 66.23,72.73 146.42,112.69 80.31,-39.94 138,-102.74 146.91,-112.7 14,-74.31 12.93,-154.83 9.54,-209.47 -3.07,-49.45 -8.52,-87.13 -10.37,-99 C 259.89,14.9 188.05,13.83 174,13.83 h -3.65 c -14.07,0 -85.9,1.07 -144,21.89 C 24.47,47.58 19,85.26 16,134.71 c -3.39,54.68 -4.46,135.16 9.54,209.48 m 148.28,127.08 h -4 l -1.37,-0.7 C 120.9,447.33 81.45,416.34 56.66,394.41 29.84,370.64 14.42,352.55 13.77,351.8 l -1.18,-1.4 -0.31,-1.78 C -2.36,272.33 -1.31,189.62 2.15,133.71 6,73.13 13.26,29.91 13.33,29.49 L 14,25.58 17.73,24.17 C 78.69,1.2 155.55,0 170.33,0 H 174 c 14.76,0 91.63,1.2 152.6,24.17 l 3.7,1.41 0.68,3.91 c 0.06,0.42 7.37,43.64 11.15,104.2 3.45,55.93 4.52,138.62 -10.12,214.91 l -0.32,1.82 -1.19,1.37 c -0.65,0.78 -16.17,18.84 -43.11,42.61 -24.85,21.92 -64.47,53 -112.11,76.16 z"
         id="path27"
         inkscape:connector-curvature="0" />
      <path
         class="cls-2"
         d="M 171.39,427.62 C 260.13,304.09 317.75,176.35 317.75,176.35 296.1,122.91 274.46,99.54 274.46,99.54 A 814.4,814.4 0 0 0 176,93.78 h -4.75 A 812.92,812.92 0 0 0 72.8,99.54 c 0,0 -21.66,23.37 -43.3,76.81 0,0 53.08,127.51 141.82,251.1 z"
         id="path29"
         inkscape:connector-curvature="0"
         style="fill:#ffffff" />
      <g
         class="cls-3"
         clip-path="url(#clip-path)"
         id="g33">
        <path
           d="M 152.94,434.62 H 96.17 v -344 h 56.77 z"
           id="path31"
           inkscape:connector-curvature="0" />
      </g>
      <g
         class="cls-3"
         clip-path="url(#clip-path)"
         id="g37">
        <path
           d="M 249.79,434.62 H 193 v -344 h 56.77 z"
           id="path35"
           inkscape:connector-curvature="0" />
      </g>
      <g
         class="cls-3"
         clip-path="url(#clip-path)"
         id="g41">
        <path
           d="M 358.9,221.74 H 19.35 v -92.4 H 358.9 Z"
           id="path39"
           inkscape:connector-curvature="0" />
      </g>
      <path
         d="M 78.45,62.83 87.89,62 82.06,50.3 Z m -8.21,13 9,-31.49 6.34,-0.56 14.62,29.31 -6.48,0.6 -3.91,-7.83 -12.55,1.14 -2.42,8.39 z"
         id="path43"
         inkscape:connector-curvature="0" />
      <path
         d="m 112.68,72.22 -1.54,-30.49 5.61,-0.29 15.18,20.12 -1.06,-20.83 5.1,-0.24 1.54,30.51 -5.7,0.29 -15.1,-20.12 1.06,20.83 z"
         id="path45"
         inkscape:connector-curvature="0" />
      <path
         d="m 177.67,69.56 a 39.63,39.63 0 0 1 -9.89,1.56 c -5.28,0.06 -9.33,-1.26 -12.18,-4 -2.85,-2.74 -4.32,-6.71 -4.37,-11.9 -0.05,-5.19 1.31,-9.08 4.1,-11.88 2.79,-2.8 6.81,-4.21 12,-4.28 a 42.22,42.22 0 0 1 10,1.07 l 0.05,5 a 30,30 0 0 0 -9.38,-1.88 9.33,9.33 0 0 0 -7.44,3.18 q -2.62,3.12 -2.55,8.79 c 0.06,3.67 1,6.53 2.92,8.59 a 9.91,9.91 0 0 0 7.84,3 13.63,13.63 0 0 0 2.55,-0.32 l -0.12,-10.07 6.39,-0.07 z"
         id="path47"
         inkscape:connector-curvature="0" />
      <path
         d="m 193,70.39 0.75,-30.52 19.06,0.44 -0.07,4.21 -12.74,-0.31 -0.19,8.51 10.39,0.28 -0.1,4 -10.44,-0.24 -0.24,9.42 13.71,0.31 -0.13,4.38 z"
         id="path49"
         inkscape:connector-curvature="0" />
      <path
         d="m 233.54,55.16 1.44,0.1 c 4.6,0.26 7,-1.47 7.23,-5.2 0.16,-2.72 -1.82,-4.17 -5.93,-4.44 l -2.2,-0.13 z m -7,16.3 1.79,-30.46 11.44,0.66 c 6.18,0.35 9.14,3.07 8.85,8.12 a 8.82,8.82 0 0 1 -1.89,5 10.17,10.17 0 0 1 -4.53,3.32 l 9.13,14.79 -7.75,-0.44 -6.82,-12.91 -3.5,-0.2 -0.73,12.46 z"
         id="path51"
         inkscape:connector-curvature="0" />
      <path
         d="m 262.16,73.56 0.51,-5.22 a 21.9,21.9 0 0 0 8.2,2.85 6.15,6.15 0 0 0 4,-0.71 3.61,3.61 0 0 0 1.68,-2.81 3.73,3.73 0 0 0 -0.66,-2.59 13.22,13.22 0 0 0 -3.1,-2.73 L 270.82,61 a 20.52,20.52 0 0 1 -5.35,-5 7.55,7.55 0 0 1 -1.19,-5 7.42,7.42 0 0 1 3.32,-5.77 11.13,11.13 0 0 1 7.53,-1.59 38.42,38.42 0 0 1 8.07,1.84 l -0.46,4.87 a 23.08,23.08 0 0 0 -7.2,-2.45 5.57,5.57 0 0 0 -3.44,0.61 3,3 0 0 0 -1.52,2.35 3.15,3.15 0 0 0 0.7,2.27 14.35,14.35 0 0 0 3.1,2.65 l 2.07,1.43 a 21.32,21.32 0 0 1 5.62,5.1 7.9,7.9 0 0 1 1.18,5.22 8,8 0 0 1 -3.79,6.34 c -2.24,1.38 -5.21,1.91 -8.9,1.56 a 42.21,42.21 0 0 1 -8.4,-1.84"
         id="path53"
         inkscape:connector-curvature="0" />
      <path
         class="cls-2"
         d="m 118.27,179.16 a 24,24 0 0 0 -5,-4.3 26.64,26.64 0 0 0 -7.24,-3.12 L 90.56,167.3 a 40.76,40.76 0 0 1 -5.11,-1.69 21.6,21.6 0 0 1 -4,-2 14,14 0 0 1 -2.6,-2 1.54,1.54 0 0 1 -0.38,-0.51 v -0.19 a 2.24,2.24 0 0 1 0.42,-1.59 6.81,6.81 0 0 1 2.34,-1.91 15.41,15.41 0 0 1 4,-1.45 37.34,37.34 0 0 1 5.06,-0.74 c 3.8,0.36 6.33,0.65 8.42,0.94 2.09,0.29 4.19,0.64 6.1,1.08 1.91,0.44 3.52,0.94 4.81,1.39 1.58,0.55 3,1.13 4.48,1.77 l 3.76,1.68 0.52,-4.09 a 55.36,55.36 0 0 1 1.19,-6.37 l 0.74,-2.94 -2.93,-0.77 a 105.9,105.9 0 0 0 -14.5,-2.73 115,115 0 0 0 -15.16,-0.51 c -8.18,0.59 -14.32,2.14 -18.81,4.75 -5,2.88 -7.58,7.66 -7.5,13.72 -0.09,3.84 1.61,7.36 5,10.46 3.13,2.84 7.62,5 13.75,6.47 l 16.41,4 a 10.65,10.65 0 0 1 3.58,1.53 10.2,10.2 0 0 1 2.34,2.19 8.11,8.11 0 0 1 1.22,2.16 5.88,5.88 0 0 1 0.38,1.6 v 0.18 a 4.22,4.22 0 0 1 -0.4,2.44 4.94,4.94 0 0 1 -1.92,1.7 14.64,14.64 0 0 1 -3.77,1.19 38,38 0 0 1 -5.31,0.5 c -2.34,0 -4.67,-0.05 -6.84,-0.19 a 48.53,48.53 0 0 1 -6.08,-0.77 34,34 0 0 1 -5.47,-1.47 25.63,25.63 0 0 1 -4.91,-2.36 l -3.74,-2.28 -0.85,4.31 c -0.24,1.16 -0.44,2.37 -0.64,3.75 a 29.08,29.08 0 0 1 -0.59,2.88 l -0.82,3.13 3.16,0.65 c 5.07,1 9.66,1.84 14,2.42 a 88.26,88.26 0 0 0 12.16,0.83 c 0.78,0 1.56,0 2.33,0 a 45.55,45.55 0 0 0 10.35,-1.36 31.82,31.82 0 0 0 8.63,-3.58 20.89,20.89 0 0 0 6.12,-5.75 15.13,15.13 0 0 0 2.61,-8.07 16.15,16.15 0 0 0 -0.85,-5.25 15.13,15.13 0 0 0 -3,-5.25"
         id="path55"
         inkscape:connector-curvature="0"
         style="fill:#ffffff" />
      <path
         class="cls-2"
         d="m 189.63,144.37 a 105.73,105.73 0 0 0 -14,-1 h -0.09 a 63.28,63.28 0 0 0 -16.41,2.07 46.65,46.65 0 0 0 -13.77,6.15 32.17,32.17 0 0 0 -9.64,10.1 27.9,27.9 0 0 0 0.1,27.94 32,32 0 0 0 10.09,10.09 47.1,47.1 0 0 0 14.44,6 73.7,73.7 0 0 0 17.27,2 54.23,54.23 0 0 0 6,-0.37 c 2,-0.23 4.21,-0.56 6.64,-1 2.22,-0.42 4.43,-0.93 6.6,-1.5 a 47.33,47.33 0 0 0 6,-2.08 l 1.66,-0.73 1.18,-13.14 -4.9,2.44 a 46.91,46.91 0 0 1 -9.64,3.56 42,42 0 0 1 -10,1.23 44.56,44.56 0 0 1 -12.8,-1.71 28.87,28.87 0 0 1 -9.47,-4.71 19.66,19.66 0 0 1 -5.8,-7 20.1,20.1 0 0 1 -0.39,-16.67 18,18 0 0 1 4.7,-6.19 23.06,23.06 0 0 1 7.69,-4.22 33.8,33.8 0 0 1 10.57,-1.58 84.75,84.75 0 0 1 9.36,0.8 63.19,63.19 0 0 1 6.6,1.35 48.57,48.57 0 0 1 4.86,1.61 c 1.42,0.59 3,1.16 4.83,1.78 l 3.2,1.07 0.75,-3.28 c 0.23,-1 0.48,-2.2 0.73,-3.53 0.19,-1 0.4,-2.1 0.6,-2.8 l 0.85,-3 -3,-0.78 a 123.32,123.32 0 0 0 -14.71,-2.9"
         id="path57"
         inkscape:connector-curvature="0"
         style="fill:#ffffff" />
      <path
         class="cls-2"
         d="m 254.05,197.4 a 30.14,30.14 0 0 1 -6,0.36 24.51,24.51 0 0 1 -5.72,-0.68 14.82,14.82 0 0 1 -4.76,-1.92 9.34,9.34 0 0 1 -3.08,-3.17 9.19,9.19 0 0 1 -1,-4.86 L 234,165 a 9,9 0 0 1 1.3,-4.83 8.85,8.85 0 0 1 3.2,-3 15.28,15.28 0 0 1 4.82,-1.71 A 26.31,26.31 0 0 1 249,155 h 0.16 a 27.16,27.16 0 0 1 5.82,0.64 14.36,14.36 0 0 1 4.76,1.85 8.67,8.67 0 0 1 4.1,8.14 l -0.53,22.18 a 9,9 0 0 1 -1.23,4.82 9.47,9.47 0 0 1 -3.24,3.09 14.56,14.56 0 0 1 -4.83,1.66 m 25.67,-38.85 a 20.32,20.32 0 0 0 -6.59,-7.65 32.73,32.73 0 0 0 -10.09,-4.7 52.63,52.63 0 0 0 -13.11,-1.83 c -10.62,-0.22 -18.59,1.55 -24.41,5.42 A 20.25,20.25 0 0 0 216,167 l -0.4,17.37 a 20.2,20.2 0 0 0 8.71,17.57 c 5.61,4.1 13.74,6.32 24.17,6.56 h 1.3 a 51,51 0 0 0 11.85,-1.25 32,32 0 0 0 10.31,-4.25 20.14,20.14 0 0 0 9.46,-17.14 l 0.41,-17.38 a 20.84,20.84 0 0 0 -2.09,-9.9"
         id="path59"
         inkscape:connector-curvature="0"
         style="fill:#ffffff" />
      <path
         d="m 166.84,261.37 v -2.54 h 4.35 v -16 l -4.35,1.07 v -2.61 l 8.7,-2.18 v 19.7 h 4.34 v 2.54 z"
         id="path61"
         inkscape:connector-curvature="0" />
      <path
         d="m 168.89,288.88 a 5.71,5.71 0 0 0 1,3.56 3.08,3.08 0 0 0 2.65,1.31 3.48,3.48 0 0 0 2.68,-1.19 4.15,4.15 0 0 0 1.07,-2.91 5.9,5.9 0 0 0 -1.07,-3.69 3.34,3.34 0 0 0 -2.78,-1.41 3.07,3.07 0 0 0 -2.56,1.18 4.81,4.81 0 0 0 -1,3.15 m -3.2,15 v -3.13 a 14.32,14.32 0 0 0 5.16,1.12 4.67,4.67 0 0 0 4.05,-2.13 10,10 0 0 0 1.48,-5.82 6.32,6.32 0 0 1 -5.1,2.46 6.45,6.45 0 0 1 -4.8,-2 6.68,6.68 0 0 1 -2,-4.88 7.47,7.47 0 0 1 2.23,-5.56 7.56,7.56 0 0 1 5.63,-2.18 7.68,7.68 0 0 1 6.31,2.85 12.57,12.57 0 0 1 2.25,7.88 c 0,3.78 -0.89,6.7 -2.67,8.84 a 9.16,9.16 0 0 1 -7.42,3.2 26.69,26.69 0 0 1 -5.16,-0.68"
         id="path63"
         inkscape:connector-curvature="0" />
      <path
         d="m 166.84,346.8 v -2.54 h 4.35 v -16 l -4.35,1.08 v -2.61 l 8.7,-2.19 v 19.71 h 4.34 v 2.54 z"
         id="path65"
         inkscape:connector-curvature="0" />
      <path
         d="m 168.89,374.31 a 5.75,5.75 0 0 0 1,3.56 3,3 0 0 0 2.65,1.3 3.51,3.51 0 0 0 2.68,-1.18 4.13,4.13 0 0 0 1.07,-2.89 6,6 0 0 0 -1.07,-3.73 3.36,3.36 0 0 0 -2.82,-1.37 3.09,3.09 0 0 0 -2.56,1.14 4.91,4.91 0 0 0 -1,3.17 m -3.2,15 v -3.15 a 13.2,13.2 0 0 0 5.16,1.14 4.67,4.67 0 0 0 4.05,-2.13 9.94,9.94 0 0 0 1.48,-5.81 6.36,6.36 0 0 1 -5.1,2.48 6.47,6.47 0 0 1 -4.8,-2 6.68,6.68 0 0 1 -2,-4.88 7.43,7.43 0 0 1 2.23,-5.55 7.56,7.56 0 0 1 5.63,-2.18 7.68,7.68 0 0 1 6.31,2.85 12.5,12.5 0 0 1 2.25,7.87 q 0,5.65 -2.67,8.86 a 9.15,9.15 0 0 1 -7.42,3.19 24.09,24.09 0 0 1 -5.16,-0.7"
         id="path67"
         inkscape:connector-curvature="0" />
      <path
         class="cls-4"
         d="m 27.44,205.4 c 25,122.51 106.1,191.22 106.1,191.22 C 72.92,310.36 27.44,205.4 27.44,205.4 Z"
         id="path69"
         inkscape:connector-curvature="0" />
      <path
         class="cls-5"
         d="m 210.25,396.66 c 0,0 81.12,-68.66 106.1,-191.22 0,0 -45.45,105 -106.1,191.22"
         id="path71"
         inkscape:connector-curvature="0" />
      <path
         d="m 32.06,176.39 c 5.62,13.16 57.28,132 139.22,247 81.9,-114.92 137.41,-233.69 143.55,-247 -18.88,-46.2 -37.68,-69.52 -41.6,-74.11 a 823.07,823.07 0 0 0 -97.41,-5.6 h -4.75 a 822.38,822.38 0 0 0 -97.37,5.6 c -3.93,4.6 -22.79,28 -41.64,74.16 m 138.75,258.49 -2.38,-4.63 C 80.16,307.37 26.23,178.91 25.7,177.63 l -0.51,-1.21 0.49,-1.2 C 47.41,121.59 68.88,98 69.78,97.06 l 0.78,-0.85 1.15,-0.14 a 824.22,824.22 0 0 1 99.36,-5.79 h 4.76 a 824.27,824.27 0 0 1 99.37,5.79 l 1.15,0.14 0.8,0.85 c 0.9,1 22.36,24.53 44.08,78.16 l 0.51,1.26 -0.56,1.23 c -0.58,1.29 -59,130 -147.34,253 z"
         id="path73"
         inkscape:connector-curvature="0" />
    </g>
  </g>
</svg>
