<?xml version="1.0" encoding="UTF-8" standalone="no"?>
<svg
   xmlns:dc="http://purl.org/dc/elements/1.1/"
   xmlns:cc="http://creativecommons.org/ns#"
   xmlns:rdf="http://www.w3.org/1999/02/22-rdf-syntax-ns#"
   xmlns:svg="http://www.w3.org/2000/svg"
   xmlns="http://www.w3.org/2000/svg"
   xmlns:sodipodi="http://sodipodi.sourceforge.net/DTD/sodipodi-0.dtd"
   xmlns:inkscape="http://www.inkscape.org/namespaces/inkscape"
   viewBox="0 0 251.99999 252"
   height="252"
   width="252"
   xml:space="preserve"
   version="1.1"
   id="svg2"
   sodipodi:docname="Logo_Stade_Reims_1999.svg"
   inkscape:version="0.92.4 (5da689c313, 2019-01-14)"><sodipodi:namedview
     pagecolor="#ffffff"
     bordercolor="#666666"
     borderopacity="1"
     objecttolerance="10"
     gridtolerance="10"
     guidetolerance="10"
     inkscape:pageopacity="0"
     inkscape:pageshadow="2"
     inkscape:window-width="1366"
     inkscape:window-height="705"
     id="namedview50"
     showgrid="false"
     fit-margin-top="1"
     fit-margin-right="1"
     fit-margin-bottom="1"
     fit-margin-left="1"
     inkscape:zoom="0.295"
     inkscape:cx="401"
     inkscape:cy="401"
     inkscape:window-x="-8"
     inkscape:window-y="-8"
     inkscape:window-maximized="1"
     inkscape:current-layer="svg2" /><metadata
     id="metadata8"><rdf:RDF><cc:Work
         rdf:about=""><dc:format>image/svg+xml</dc:format><dc:type
           rdf:resource="http://purl.org/dc/dcmitype/StillImage" /><dc:title></dc:title></cc:Work></rdf:RDF></metadata><defs
     id="defs6" /><g
     transform="matrix(0.390625,0,0,-0.390625,1,251.00001)"
     id="g10"><g
       id="g4796"><path
         id="path236"
         style="fill:#ee2223;fill-opacity:1;fill-rule:nonzero;stroke:none"
         d="M 640,320.00002 C 640,143.27034 496.72968,2.34375e-5 320,2.34375e-5 143.27032,2.34375e-5 0,143.27034 0,320.00002 c 0,176.72968 143.27032,320 320,320 176.72968,0 320,-143.27032 320,-320"
         inkscape:connector-curvature="0" /><path
         id="path240"
         style="fill:#ffffff;fill-opacity:1;fill-rule:nonzero;stroke:none"
         d="M 635.01161,320.00002 C 635.01161,146.02554 493.97508,4.9890034 320.00059,4.9890034 146.02611,4.9890034 4.98958,146.02554 4.98958,320.00002 c 0,173.97448 141.03653,315.011 315.01101,315.011 173.97449,0 315.01102,-141.03652 315.01102,-315.011"
         inkscape:connector-curvature="0" /><g
         id="g4744"><path
           d="m 320.00356,62.442303 c 142.0201,0 257.55476,115.540567 257.55476,257.554757 0,36.63525 -7.70863,71.5048 -21.55573,103.08589 l -4.56829,-1.99677 c 13.58046,-30.9708 21.13503,-65.15897 21.13503,-101.08912 0,-139.26491 -113.30086,-252.565777 -252.56577,-252.565777 -139.27084,0 -252.57171,113.300867 -252.57171,252.565777 0,35.93015 7.55458,70.11832 21.13504,101.08912 l -4.5683,1.99677 C 70.14557,391.50186 62.44287,356.63231 62.44287,319.99706 c 0,-142.01419 115.54058,-257.554757 257.56069,-257.554757"
           style="fill:#ee2223;fill-opacity:1;fill-rule:nonzero;stroke:none"
           id="path244"
           inkscape:connector-curvature="0" /><path
           d="m 592.75279,439.13302 c 16.00385,-36.49897 24.90936,-76.79004 24.90936,-119.13122 0,-164.1328 -133.52935,-297.662157 -297.65622,-297.662157 -164.1328,0 -297.66808,133.529357 -297.66808,297.662157 0,42.34118 8.90551,82.63225 24.90936,119.13122 l -4.5683,1.99678 C 26.40843,404.01461 17.34886,363.04807 17.34886,320.0018 c 0,-166.88207 135.76907,-302.651137 302.65707,-302.651137 166.87614,0 302.64521,135.769067 302.64521,302.651137 0,43.04627 -9.05364,84.01281 -25.33005,121.128 z"
           style="fill:#ee2223;fill-opacity:1;fill-rule:nonzero;stroke:none"
           id="path248"
           inkscape:connector-curvature="0" /></g><path
         id="path252"
         style="fill:#ee2223;fill-opacity:1;fill-rule:nonzero;stroke:none"
         d="m 560.20768,320.00002 c 0,-132.65836 -107.54754,-240.205897 -240.2059,-240.205897 -132.66429,0 -240.2059,107.547537 -240.2059,240.205897 0,132.66428 107.54161,240.2059 240.2059,240.2059 132.65836,0 240.2059,-107.54162 240.2059,-240.2059"
         inkscape:connector-curvature="0" /><g
         id="g4715"><path
           d="m 93.30583,435.81197 c -1.0843,1.14356 -2.25156,2.32859 -3.50177,3.54917 -1.25613,1.22058 -2.60114,2.46487 -4.03503,3.73285 l 0.50364,0.84137 c 2.8026,-0.90062 5.36819,-0.93617 7.69678,-0.0948 2.33451,0.83545 4.21279,2.45301 5.64075,4.8527 1.29168,2.18046 1.742,4.26612 1.34501,6.26882 -0.39699,2.0027 -1.56424,3.5788 -3.51362,4.74013 -1.41019,0.83544 -2.8737,1.13763 -4.39054,0.90062 -1.51092,-0.23108 -4.10614,-1.45759 -7.77973,-3.6736 -5.58743,-3.38919 -9.78836,-5.24969 -12.60281,-5.59335 -2.80853,-0.34958 -5.64075,0.32589 -8.49076,2.02048 -3.87505,2.30489 -6.19771,5.54003 -6.96798,9.72319 -0.7762,4.17723 0.18368,8.5263 2.86778,13.04719 1.17318,1.97901 2.50634,3.66175 3.99355,5.04231 1.49314,1.38649 3.19366,2.52412 5.11341,3.41289 1.00135,-1.18503 1.98493,-2.29896 2.96258,-3.35363 0.97173,-1.05468 1.92568,-2.03826 2.85593,-2.95666 l -0.40291,-0.68139 c -2.29304,0.48586 -4.44387,0.28441 -6.45842,-0.59844 -2.01456,-0.88285 -3.62028,-2.33451 -4.82901,-4.36684 -1.11393,-1.87828 -1.49906,-3.70323 -1.14948,-5.463 0.34366,-1.7657 1.36279,-3.14626 3.05738,-4.14761 1.41612,-0.8473 2.87963,-1.13171 4.39054,-0.871 1.51092,0.26663 3.90468,1.42796 7.18722,3.47807 0.73472,0.43846 1.75977,1.09615 3.06923,1.98493 3.70915,2.41746 6.32215,3.8158 7.83306,4.18316 1.86643,0.44439 3.66767,0.52734 5.40375,0.24293 1.74199,-0.29033 3.48399,-0.94803 5.22598,-1.98493 4.31352,-2.55967 6.91466,-6.08513 7.80344,-10.55863 0.8947,-4.47942 -0.11258,-9.15437 -3.00998,-14.03077 -1.52277,-2.5656 -3.08701,-4.63348 -4.70458,-6.21549 -1.61164,-1.58202 -3.31809,-2.72558 -5.11341,-3.43067"
           style="fill:#ee2223;fill-opacity:1;fill-rule:nonzero;stroke:none"
           id="path256"
           inkscape:connector-curvature="0" /><path
           d="m 122.7829,476.08942 c -2.69002,2.60114 -5.5815,5.27931 -8.68036,8.04044 -3.09293,2.76112 -6.5236,5.70592 -10.28607,8.84033 -1.28576,1.07245 -3.30624,2.72557 -6.06736,4.95936 -2.7552,2.23971 -5.86591,4.74012 -9.33805,7.5131 l -0.98358,-1.18503 c -1.45759,-1.75385 -2.8026,-3.47215 -4.03503,-5.16674 -1.22651,-1.6946 -2.34044,-3.35364 -3.34179,-4.98306 -0.18368,0.18368 -0.55696,0.54512 -1.11393,1.09023 -0.55696,0.54511 -1.01913,0.9658 -1.38056,1.27391 -0.36736,0.30811 -0.9421,0.71694 -1.7183,1.23836 -0.30811,0.22515 -0.55696,0.39698 -0.73472,0.51549 2.71373,2.97442 5.11341,5.64667 7.19907,8.02266 2.08566,2.37006 4.02318,4.6394 5.82443,6.80208 1.8131,2.17453 3.70915,4.50905 5.68223,7.00946 1.979,2.50042 4.16538,5.33264 6.56507,8.5026 0.31403,-0.32588 0.65769,-0.68139 1.03098,-1.04875 0.37328,-0.37921 0.75249,-0.72287 1.13763,-1.04283 0.40291,-0.33773 0.82952,-0.66954 1.28576,-1.00135 0.45624,-0.33181 0.95395,-0.67547 1.49314,-1.03098 -1.44574,-1.30353 -2.89148,-2.71372 -4.32537,-4.21871 -1.43389,-1.50499 -2.87962,-3.12848 -4.33129,-4.8764 l -0.9421,-1.12578 c 1.37464,-1.30946 2.89148,-2.69003 4.55052,-4.13576 1.66497,-1.45167 4.17131,-3.57287 7.52495,-6.36362 5.92516,-4.93566 10.55864,-8.70999 13.90635,-11.31705 3.34771,-2.60707 6.36362,-4.85271 9.05957,-6.73098 -0.86508,-0.82953 -1.66497,-1.6235 -2.39377,-2.38784 -0.72287,-0.76435 -1.39241,-1.51092 -1.99678,-2.23379 -0.60436,-0.72879 -1.2028,-1.49906 -1.79532,-2.31673 -0.59251,-0.81768 -1.18503,-1.70052 -1.79532,-2.64262"
           style="fill:#ee2223;fill-opacity:1;fill-rule:nonzero;stroke:none"
           id="path260"
           inkscape:connector-curvature="0" /><path
           d="m 136.93988,493.95851 c 0.93617,1.0606 1.65904,1.8131 2.16861,2.26341 0.32588,0.2844 0.69324,0.56881 1.10208,0.85915 0.40291,0.29033 0.90654,0.62214 1.50499,1.00727 -0.634,1.64127 -1.35687,3.47807 -2.16269,5.52225 -0.80582,2.03825 -2.06788,5.11934 -3.78025,9.24325 0.7288,0.70509 1.54054,1.45758 2.42932,2.26933 0.88285,0.80582 2.22786,1.99678 4.0291,3.5788 1.78348,1.55831 3.13441,2.72557 4.05281,3.49584 0.9184,0.77027 1.77162,1.47536 2.57152,2.10343 3.57287,-2.09751 6.31622,-3.71507 8.21819,-4.84085 1.90198,-1.13171 3.69138,-2.20416 5.36227,-3.23514 0.67547,0.73472 1.39241,1.46351 2.13898,2.18638 0.7525,0.72287 1.5761,1.48722 2.48857,2.28119 0.91247,0.7999 1.77755,1.52276 2.60707,2.18046 0.8236,0.65176 1.62942,1.25021 2.40561,1.79532 -8.89366,4.21279 -17.47921,8.42557 -25.73888,12.64429 -8.25967,4.22463 -16.22901,8.43742 -23.90801,12.65613 -0.26664,-0.32588 -0.55104,-0.64584 -0.86508,-0.9658 -0.31403,-0.31996 -0.64584,-0.63399 -0.9895,-0.93617 -0.36143,-0.31404 -0.74064,-0.62214 -1.12578,-0.91248 -0.38513,-0.29625 -0.79989,-0.58659 -1.25021,-0.88877 3.66175,-9.24325 7.02132,-18.23171 10.0787,-26.95947 3.05738,-8.72776 5.85405,-17.27183 8.3841,-25.63816 0.077,0.0652 0.1659,0.15998 0.27848,0.29034 m -6.17994,32.68909 c -1.0132,2.86778 -1.9316,5.70593 -2.73742,8.5026 2.67817,-1.26205 5.35634,-2.60114 8.04043,-4.0291 2.6841,-1.43389 5.36227,-2.93888 8.03452,-4.5209 -1.35686,-1.28576 -2.36414,-2.22193 -3.02183,-2.80852 -0.65177,-0.59252 -1.27391,-1.14356 -1.85458,-1.65312 -1.09615,-0.95395 -2.73742,-2.33451 -4.92973,-4.12391 -0.077,-0.0652 -0.13035,-0.10666 -0.1659,-0.14221 -1.22651,2.98036 -2.34636,5.90146 -3.36549,8.77516"
           style="fill:#ee2223;fill-opacity:1;fill-rule:nonzero;stroke:none"
           id="path264"
           inkscape:connector-curvature="0" /><path
           d="m 176.59103,527.77931 c 1.45167,0.93025 2.59522,1.64127 3.4366,2.1212 0.86507,0.49179 2.53596,1.40427 5.01268,2.73743 2.47672,1.33316 4.50312,2.45301 6.08514,3.35364 8.84033,5.04231 14.39221,10.76008 16.63784,17.14148 2.24563,6.38732 1.18503,13.41456 -3.19959,21.09356 -2.0738,3.63805 -4.57422,6.56508 -7.50125,8.78108 -2.92702,2.21601 -6.06736,3.5788 -9.42692,4.08836 -2.6841,0.39699 -5.45707,0.18961 -8.32485,-0.60436 -2.86185,-0.7999 -6.45249,-2.42932 -10.77194,-4.89418 -1.55831,-0.88878 -3.78025,-2.21601 -6.6658,-3.98171 -2.89147,-1.77162 -5.01861,-3.03961 -6.38139,-3.82173 -0.90655,-0.51549 -1.77755,-0.98357 -2.61892,-1.40426 -0.83545,-0.41476 -1.68867,-0.81175 -2.55967,-1.19096 1.48721,-2.0501 3.06923,-4.40239 4.74605,-7.05686 1.6709,-2.66039 3.86913,-6.36954 6.5947,-11.14522 l 1.99678,-3.49584 3.26476,-5.72371 c 2.41154,-4.23648 4.23649,-7.57235 5.47485,-10.01944 1.23836,-2.44709 2.26933,-4.68087 3.09886,-6.6895 0.24293,0.1659 0.61029,0.40291 1.10207,0.71102 m 3.38919,15.39948 c -1.29168,2.21009 -3.1581,5.45707 -5.59927,9.73504 -2.29896,4.0291 -4.36684,7.70863 -6.21549,11.03264 -1.84272,3.32994 -3.53732,6.44657 -5.07786,9.3499 0.40884,0.26071 0.9658,0.60437 1.67089,1.0369 1.34502,0.8236 2.22194,1.35094 2.61892,1.5761 6.00811,3.43066 11.13338,4.50312 15.36986,3.22328 4.23649,-1.27983 8.15895,-5.07786 11.76144,-11.39408 3.58472,-6.27474 4.84678,-11.80291 3.80395,-16.58451 -1.04282,-4.78161 -4.39054,-8.78109 -10.04314,-12.00437 -0.65177,-0.37329 -1.36871,-0.74657 -2.15676,-1.10801 -0.78212,-0.36736 -1.61164,-0.71102 -2.48264,-1.04283 -1.14355,1.9079 -2.36414,3.96393 -3.6499,6.17994"
           style="fill:#ee2223;fill-opacity:1;fill-rule:nonzero;stroke:none"
           id="path268"
           inkscape:connector-curvature="0" /><path
           d="m 225.71059,553.51879 c -0.56881,2.56559 -1.33908,5.46299 -2.31673,8.6922 -0.97765,3.22921 -2.69003,8.39595 -5.13712,15.50614 l -1.23243,3.56695 c -1.82495,5.31486 -3.31809,9.45064 -4.47349,12.40724 -1.14948,2.9567 -2.28119,5.5756 -3.38327,7.8627 2.21009,0.6518 4.48535,1.351 6.81986,2.1035 2.33451,0.7465 4.76383,1.5583 7.28202,2.4233 2.54189,0.877 4.85863,1.7006 6.94428,2.4768 2.07973,0.7702 4.04096,1.5286 5.86591,2.2693 0.14813,-0.8236 0.27848,-1.4635 0.39106,-1.9079 0.11258,-0.4503 0.23701,-0.8592 0.36143,-1.2265 0.12443,-0.3674 0.27849,-0.7466 0.45032,-1.1317 0.17775,-0.3911 0.46808,-0.9658 0.86507,-1.7302 -3.53732,-0.948 -6.5947,-1.7953 -9.16622,-2.5359 -2.57744,-0.7407 -4.8053,-1.4221 -6.68358,-2.0442 0.20146,-0.8769 0.45031,-1.8072 0.74657,-2.7789 0.30219,-0.9717 0.77027,-2.3997 1.41611,-4.278 l 1.16134,-3.3714 1.68274,-4.76382 c 1.44574,0.55104 3.9106,1.50499 7.3946,2.85 3.47807,1.35092 6.10884,2.37602 7.88638,3.06922 0.13628,-0.7643 0.26663,-1.3628 0.37921,-1.8072 0.11851,-0.4443 0.24293,-0.87688 0.39106,-1.29757 0.21331,-0.62807 0.62214,-1.55832 1.22651,-2.78482 0.0533,-0.0889 0.0889,-0.15406 0.10073,-0.20146 -4.32537,-1.19688 -7.61975,-2.12713 -9.87131,-2.79075 -2.25749,-0.66954 -4.21872,-1.29168 -5.88369,-1.86642 l 2.90926,-8.44928 c 1.03097,-2.99813 1.77754,-5.08971 2.23971,-6.28066 0.45623,-1.18504 0.87099,-2.16861 1.24428,-2.95666 2.0975,0.79397 4.41424,1.72422 6.94428,2.77298 2.53005,1.05467 5.27932,2.24563 8.2656,3.56102 0.0829,-0.47994 0.17775,-0.94803 0.29626,-1.41019 0.1185,-0.45624 0.2607,-0.92433 0.42068,-1.39834 0.16591,-0.47994 0.42069,-1.10208 0.77027,-1.86642 0.34366,-0.75842 0.54512,-1.23244 0.6103,-1.41612 -4.71051,-1.44574 -8.32485,-2.57152 -10.84304,-3.37734 -2.5182,-0.81174 -4.55052,-1.48129 -6.09107,-2.00863 -2.09158,-0.72286 -3.9343,-1.39833 -5.54002,-2.02047 -1.59979,-0.62215 -3.08108,-1.24429 -4.44387,-1.8605"
           style="fill:#ee2223;fill-opacity:1;fill-rule:nonzero;stroke:none"
           id="path272"
           inkscape:connector-curvature="0" /><path
           d="m 283.19055,569.77268 c 1.71237,0.1896 3.05146,0.31403 4.02318,0.37328 0.9895,0.0593 2.89148,0.13628 5.70593,0.23109 2.80852,0.10072 5.12526,0.20145 6.93836,0.3081 10.16164,0.59844 17.66882,3.25884 22.52152,7.98712 4.84086,4.72235 7.00947,11.49485 6.48213,20.31735 -0.24294,4.1772 -1.18504,7.9101 -2.8263,11.1986 -1.63535,3.2825 -3.85136,5.9014 -6.63618,7.8508 -2.22786,1.5405 -4.8053,2.5893 -7.72641,3.1463 -2.9211,0.551 -6.86133,0.6813 -11.82661,0.391 -1.79532,-0.1066 -4.37277,-0.3081 -7.74418,-0.6103 -3.37142,-0.3022 -5.84221,-0.5036 -7.41238,-0.5925 -1.0369,-0.065 -2.0264,-0.095 -2.96257,-0.1007 -0.93618,0 -1.87828,0.024 -2.8263,0.071 0.42068,-2.5004 0.79397,-5.309 1.11985,-8.4315 0.31996,-3.1226 0.64584,-7.4242 0.97173,-12.9169 l 0.237,-4.0113 0.38514,-6.58284 c 0.2844,-4.86456 0.43846,-8.66851 0.46216,-11.41186 0.0237,-2.73742 -0.0415,-5.19636 -0.18961,-7.36497 0.29034,0.0415 0.72287,0.0889 1.30354,0.14813 m 9.86539,12.2947 c -0.17776,2.55374 -0.40884,6.29252 -0.69917,11.21044 -0.27256,4.6334 -0.49179,8.8462 -0.66954,12.6442 -0.17776,3.804 -0.31404,7.3472 -0.40884,10.6357 0.48586,0.047 1.13763,0.1126 1.9553,0.1896 1.57609,0.1363 2.5893,0.2192 3.05146,0.2489 6.90281,0.4088 11.97474,-0.9066 15.20395,-3.9343 3.22921,-3.0278 5.06009,-8.1708 5.4867,-15.4291 0.42661,-7.211 -0.88877,-12.72729 -3.94616,-16.54901 -3.05738,-3.82173 -7.83305,-5.91924 -14.32703,-6.30437 -0.75249,-0.0415 -1.55831,-0.0593 -2.42339,-0.0355 -0.86507,0.0237 -1.75977,0.077 -2.69002,0.17183 -0.18368,2.21008 -0.36143,4.59792 -0.53326,7.15166"
           style="fill:#ee2223;fill-opacity:1;fill-rule:nonzero;stroke:none"
           id="path276"
           inkscape:connector-curvature="0" /><path
           d="m 338.70217,571.08332 c 0.62214,2.55375 1.20873,5.49263 1.75384,8.82256 0.55104,3.32994 1.29169,8.72184 2.22786,16.18164 l 0.47402,3.7447 c 0.69917,5.5755 1.18503,9.9424 1.45166,13.1064 0.27256,3.1641 0.41476,6.0141 0.43254,8.5559 2.27526,-0.391 4.62162,-0.7702 7.05093,-1.1257 2.42339,-0.3555 4.95936,-0.6992 7.60791,-1.0369 2.66632,-0.3318 5.10156,-0.6163 7.31757,-0.8414 2.21008,-0.2252 4.30166,-0.4088 6.26881,-0.551 -0.23108,-0.8059 -0.39698,-1.4339 -0.49178,-1.8842 -0.10073,-0.4504 -0.17183,-0.871 -0.21923,-1.2562 -0.0474,-0.3851 -0.077,-0.794 -0.0948,-1.2206 -0.0118,-0.4266 -0.006,-1.0665 0.0178,-1.9256 -3.59657,0.7051 -6.71321,1.2916 -9.3499,1.7657 -2.6367,0.468 -4.93566,0.8413 -6.89688,1.1139 -0.20738,-0.8769 -0.39106,-1.819 -0.55104,-2.8263 -0.16591,-1.0073 -0.36736,-2.4945 -0.61622,-4.4676 l -0.45031,-3.5373 -0.59252,-5.0186 c 1.54054,-0.1422 4.17724,-0.3733 7.89824,-0.6992 3.721,-0.3199 6.52952,-0.5629 8.4315,-0.7228 -0.21923,-0.7466 -0.36736,-1.3451 -0.45624,-1.7894 -0.0948,-0.4504 -0.17183,-0.8947 -0.22516,-1.3332 -0.0829,-0.6636 -0.12442,-1.6768 -0.13035,-3.0455 0.0118,-0.1008 0.0118,-0.1778 0.006,-0.2252 -4.41425,0.8355 -7.77974,1.4517 -10.09055,1.8487 -2.32266,0.391 -4.35499,0.6991 -6.10291,0.9184 l -1.11986,-8.87001 c -0.39106,-3.14033 -0.64584,-5.35041 -0.75842,-6.6184 -0.11257,-1.26798 -0.17183,-2.33451 -0.18368,-3.20551 2.22786,-0.20738 4.71643,-0.39698 7.45385,-0.56881 2.7315,-0.17183 5.72963,-0.31996 8.98254,-0.45032 -0.13035,-0.46808 -0.24885,-0.93617 -0.34958,-1.39833 -0.0948,-0.46216 -0.17776,-0.9421 -0.24293,-1.44574 -0.0593,-0.50364 -0.10666,-1.17318 -0.13036,-2.00863 -0.0237,-0.83545 -0.0533,-1.34501 -0.077,-1.53462 -4.86456,0.7762 -8.60926,1.35687 -11.22225,1.742 -2.613,0.38514 -4.7342,0.68139 -6.35177,0.88285 -2.19231,0.27848 -4.14761,0.48586 -5.85998,0.63399 -1.71237,0.14813 -3.31809,0.24293 -4.81123,0.29033"
           style="fill:#ee2223;fill-opacity:1;fill-rule:nonzero;stroke:none"
           id="path280"
           inkscape:connector-curvature="0" /><path
           d="m 399.73011,559.24664 c 0.97172,-0.31404 1.89012,-0.634 2.74927,-0.97173 0.87693,-0.34958 1.7657,-0.74064 2.66632,-1.16726 0.90063,-0.43253 1.81903,-0.90654 2.76113,-1.42796 0.77027,2.51227 1.53461,4.87641 2.29303,7.08056 0.76435,2.20416 1.54054,4.30759 2.32859,6.32215 l 3.69137,9.34397 c 1.07246,-4.98306 2.02048,-9.80021 2.85,-14.45146 0.82953,-4.65717 1.54055,-9.17214 2.12121,-13.54491 1.20281,-0.32588 2.32266,-0.65769 3.36549,-0.9895 1.0369,-0.33773 2.02048,-0.68732 2.95073,-1.05468 0.94802,-0.37328 1.91975,-0.79989 2.9211,-1.26798 1.00135,-0.46809 2.02641,-0.9895 3.08701,-1.55239 l -6.34584,29.47173 c 4.06465,-0.59251 7.43014,-0.24293 10.11424,1.04283 2.67817,1.27983 4.6394,3.50177 5.88961,6.65395 1.58201,4.01133 1.38648,7.53676 -0.58067,10.58236 -1.96715,3.0455 -5.75333,5.6703 -11.35853,7.8864 -2.49449,0.9835 -5.12526,1.973 -7.89823,2.9566 -2.77298,0.9777 -4.28389,1.5228 -4.52682,1.6176 -0.56289,0.2251 -1.14948,0.4799 -1.75977,0.7821 -0.61622,0.2963 -1.22651,0.6221 -1.8368,0.9777 -1.00728,-3.407 -2.19824,-7.051 -3.56695,-10.9438 -1.36871,-3.8869 -3.0159,-8.27153 -4.95343,-13.15979 -2.04418,-5.18451 -3.86913,-9.58098 -5.463,-13.19533 -1.59386,-3.61434 -3.16996,-6.96798 -4.72235,-10.05499 1.17318,-0.31403 2.25156,-0.62807 3.22329,-0.93617 m 21.33649,31.63438 c 0.53327,1.345 1.09023,2.7197 1.68275,4.1121 0.59251,1.3924 1.22058,2.7789 1.87235,4.1654 0.18368,-0.071 0.43253,-0.16 0.77027,-0.2667 0.33181,-0.1066 0.57474,-0.1896 0.73472,-0.2488 3.24106,-1.2798 5.33856,-2.9033 6.29844,-4.8705 0.94803,-1.9671 0.84137,-4.4379 -0.33181,-7.40644 -1.39241,-3.53732 -3.27069,-5.77703 -5.62297,-6.72505 -2.35229,-0.9421 -5.40967,-0.66954 -9.18992,0.8236 l -0.28441,0.11257 z"
           style="fill:#ee2223;fill-opacity:1;fill-rule:nonzero;stroke:none"
           id="path284"
           inkscape:connector-curvature="0" /><path
           d="m 437.85672,542.53651 c 1.59979,2.08565 3.32402,4.53867 5.16081,7.36497 1.84273,2.8263 4.69865,7.4657 8.56186,13.91227 l 1.94345,3.23513 c 2.88555,4.82308 5.08971,8.62703 6.6184,11.41186 1.51684,2.78482 2.79668,5.33857 3.8395,7.64938 1.91975,-1.27391 3.92246,-2.55967 5.99626,-3.86913 2.07381,-1.30354 4.25427,-2.6367 6.5473,-4.01133 2.30489,-1.38056 4.4261,-2.62485 6.3577,-3.721 1.9316,-1.09616 3.7684,-2.10936 5.51632,-3.03368 -0.53919,-0.63992 -0.9421,-1.14948 -1.21466,-1.52277 -0.26663,-0.37921 -0.50364,-0.73472 -0.70509,-1.06653 -0.20146,-0.33181 -0.39106,-0.68732 -0.57474,-1.07838 -0.18961,-0.37921 -0.44439,-0.97172 -0.77027,-1.76569 -2.99813,2.09158 -5.61113,3.8869 -7.83899,5.38004 -2.22193,1.49314 -4.17723,2.76112 -5.8659,3.80395 -0.53919,-0.72287 -1.08431,-1.51091 -1.64127,-2.36414 -0.55104,-0.85322 -1.34501,-2.13305 -2.36414,-3.8395 l -1.83087,-3.05738 -2.5656,-4.35499 c 1.35094,-0.7525 3.66175,-2.0264 6.94429,-3.82173 3.27068,-1.79532 5.74148,-3.14626 7.42422,-4.06466 -0.49771,-0.59251 -0.88285,-1.07837 -1.14355,-1.45166 -0.26664,-0.37328 -0.51549,-0.75249 -0.74065,-1.1317 -0.34366,-0.56882 -0.79397,-1.48129 -1.35094,-2.7315 -0.0296,-0.0948 -0.0533,-0.16591 -0.083,-0.20738 -3.6973,2.54189 -6.53545,4.46164 -8.49075,5.75925 -1.96123,1.29761 -3.6973,2.39969 -5.21414,3.30624 l -4.59792,-7.67308 c -1.62349,-2.71372 -2.74927,-4.63347 -3.36549,-5.7474 -0.61029,-1.11986 -1.09615,-2.06788 -1.45759,-2.86186 1.96123,-1.09022 4.15354,-2.26933 6.58878,-3.52546 2.43524,-1.25614 5.11933,-2.60115 8.04636,-4.03504 -0.31996,-0.37328 -0.61029,-0.75249 -0.88877,-1.13763 -0.27256,-0.37921 -0.53919,-0.78804 -0.7999,-1.22058 -0.26071,-0.43846 -0.57474,-1.03098 -0.93617,-1.7894 -0.36144,-0.75249 -0.58659,-1.21465 -0.68732,-1.37463 -4.13576,2.67224 -7.3235,4.71642 -9.56321,6.12068 -2.23971,1.40427 -4.05873,2.53005 -5.46299,3.37142 -1.89605,1.1317 -3.59657,2.11528 -5.10749,2.93888 -1.50499,0.82359 -2.93295,1.55831 -4.28389,2.20416"
           style="fill:#ee2223;fill-opacity:1;fill-rule:nonzero;stroke:none"
           id="path288"
           inkscape:connector-curvature="0" /><path
           d="m 469.6529,522.16107 c 2.22786,2.40562 4.56829,5.05416 6.99761,7.94564 2.43524,2.88555 5.52225,6.72505 9.26695,11.51258 3.62619,4.6394 6.60655,8.56778 8.94698,11.79107 2.34637,3.22328 4.36684,6.15031 6.07922,8.78108 0.74064,-0.78212 1.50499,-1.54647 2.29896,-2.28119 0.79397,-0.74064 1.62349,-1.44573 2.48264,-2.11528 0.85915,-0.67547 1.73607,-1.30353 2.63669,-1.89012 0.90063,-0.58067 1.80718,-1.13171 2.72558,-1.6472 -2.18046,-2.32266 -4.55053,-5.01861 -7.11612,-8.08191 -2.56559,-3.06331 -5.63482,-6.88504 -9.21362,-11.46518 -3.8869,-4.97714 -6.93836,-8.98254 -9.13659,-12.0103 -2.19824,-3.02775 -4.14761,-5.84813 -5.84813,-8.44927 -0.85323,0.84137 -1.6709,1.61757 -2.45894,2.31673 -0.79398,0.7051 -1.55832,1.35094 -2.30489,1.93161 -0.78212,0.61621 -1.61164,1.21465 -2.48264,1.81309 -0.87692,0.59252 -1.83088,1.20874 -2.8737,1.84865"
           style="fill:#ee2223;fill-opacity:1;fill-rule:nonzero;stroke:none"
           id="path292"
           inkscape:connector-curvature="0" /><path
           d="m 487.12678,510.34216 c 3.26476,2.09751 6.06144,3.89875 8.39595,5.39782 2.33451,1.49906 3.9817,2.58337 4.95343,3.25291 l 29.34731,19.81373 c 0.24293,-0.43254 0.51549,-0.85915 0.82359,-1.27983 0.31404,-0.42662 0.66955,-0.85915 1.07246,-1.31539 0.39698,-0.45031 0.79989,-0.85915 1.2028,-1.23243 0.40292,-0.37329 0.81175,-0.71695 1.22651,-1.02506 -2.64854,-5.937 -5.16674,-11.89179 -7.5605,-17.8762 -2.38784,-5.98441 -4.6868,-12.00437 -6.90281,-18.0658 6.04959,1.46944 12.1762,3.06923 18.37392,4.8053 6.20364,1.73607 12.47838,3.62027 18.83607,5.6526 0.27849,-0.46216 0.58067,-0.92432 0.91248,-1.37464 0.33181,-0.45031 0.70509,-0.90654 1.1317,-1.38056 0.41476,-0.46808 0.83545,-0.90062 1.25021,-1.29168 0.42069,-0.38514 0.83545,-0.73472 1.25613,-1.04875 l -23.671,-26.82319 c -2.6367,-2.96851 -4.66903,-5.33857 -6.10291,-7.10427 -1.43982,-1.77162 -2.67817,-3.38326 -3.72693,-4.83493 -0.71694,0.98358 -1.38648,1.8842 -2.01455,2.7078 -0.62807,0.81767 -1.25613,1.58202 -1.8842,2.28119 -0.62807,0.70509 -1.31539,1.42203 -2.05011,2.1449 -0.74064,0.72287 -1.52276,1.43982 -2.35228,2.16269 0.11257,0.13035 0.2844,0.31995 0.52734,0.56289 3.74469,3.64397 6.03773,5.93108 6.86725,6.86133 l 16.06903,17.55624 c -5.83035,-1.46944 -11.77329,-3.03961 -17.84065,-4.71642 -6.06144,-1.67682 -12.35395,-3.484 -18.88348,-5.40967 -0.0711,0.1659 -0.1659,0.3318 -0.27848,0.50363 -0.1185,0.17183 -0.33181,0.43254 -0.63992,0.77027 -0.26663,0.30811 -0.47993,0.52734 -0.62806,0.65177 -0.15406,0.12443 -0.30219,0.23701 -0.46217,0.32589 2.60115,6.17994 5.02454,12.12879 7.2761,17.84065 2.25156,5.71185 4.33721,11.20447 6.25104,16.48379 l -12.69169,-8.93514 -0.47994,-0.33181 c -6.58285,-4.67495 -11.10967,-8.09377 -13.56268,-10.25645 -0.26663,0.50956 -0.54512,0.97173 -0.83545,1.39834 -0.28441,0.42661 -0.57474,0.80582 -0.86507,1.12578 -0.31996,0.36143 -0.66955,0.69917 -1.04283,1.01912 -0.37921,0.31404 -0.80582,0.63992 -1.29761,0.98358"
           style="fill:#ee2223;fill-opacity:1;fill-rule:nonzero;stroke:none"
           id="path296"
           inkscape:connector-curvature="0" /><path
           d="m 531.96067,460.93464 c 1.52869,0.38513 3.13441,0.82952 4.8053,1.32723 1.67682,0.49772 3.41882,1.06061 5.23192,1.6946 l 0.48586,-0.8473 c -2.15083,-2.0027 -3.43066,-4.23056 -3.8395,-6.67173 -0.41476,-2.44709 0.0829,-4.8764 1.48721,-7.29386 1.26799,-2.19231 2.86778,-3.6025 4.81123,-4.23057 1.93753,-0.63399 3.88691,-0.37921 5.84813,0.7525 1.42204,0.82359 2.39377,1.9553 2.93296,3.38919 0.53326,1.43981 0.72879,4.30166 0.58659,8.58555 -0.22516,6.52953 0.19553,11.10967 1.26798,13.72859 1.07245,2.61892 3.04553,4.76383 5.91331,6.4288 3.89875,2.25748 7.86268,2.70187 11.88587,1.33908 4.02318,-1.36871 7.35312,-4.32536 9.98981,-8.87588 1.14948,-1.99085 1.96715,-3.97578 2.44709,-5.94886 0.47994,-1.97308 0.64584,-4.01726 0.48586,-6.12661 -1.51684,-0.29626 -2.97442,-0.61029 -4.37276,-0.94803 -1.39834,-0.33773 -2.72557,-0.68732 -3.97578,-1.05468 l -0.39699,0.68732 c 1.54054,1.7657 2.41747,3.73878 2.63077,5.93108 0.20738,2.18639 -0.27256,4.30167 -1.45759,6.33992 -1.09615,1.89605 -2.50041,3.12256 -4.20686,3.67953 -1.70644,0.55696 -3.41289,0.33773 -5.11341,-0.64585 -1.42204,-0.82359 -2.39376,-1.96122 -2.8974,-3.41289 -0.50957,-1.45166 -0.66955,-4.10613 -0.47402,-7.96933 0.0237,-0.85323 0.10073,-2.06788 0.23109,-3.64398 0.30218,-4.42016 0.24293,-7.38274 -0.16591,-8.88181 -0.52141,-1.84865 -1.33316,-3.45436 -2.42931,-4.83493 -1.10208,-1.37463 -2.52412,-2.57744 -4.27797,-3.59064 -4.34314,-2.51227 -8.68628,-3.06923 -13.02942,-1.65905 -4.34314,1.40427 -7.93971,4.56237 -10.77786,9.47433 -1.49314,2.57744 -2.53597,4.95936 -3.12848,7.13982 -0.59252,2.17453 -0.75843,4.22463 -0.49772,6.13846"
           style="fill:#ee2223;fill-opacity:1;fill-rule:nonzero;stroke:none"
           id="path300"
           inkscape:connector-curvature="0" /></g><g
         id="g4729"><path
           d="m 173.00868,365.70491 c 1.12578,3.28846 2.21601,6.77838 3.28254,10.46383 1.06653,3.68545 2.06196,7.55458 3.00406,11.58368 h 2.50634 c 1.67682,-6.20364 4.95343,-11.00894 9.82984,-14.41591 4.87047,-3.41289 10.87858,-5.11341 18.0184,-5.11341 6.45842,0 11.62516,1.46944 15.51206,4.42017 3.88098,2.95073 5.81851,6.87911 5.81851,11.79106 0,3.53732 -1.24428,6.5947 -3.73285,9.17807 -2.48857,2.57745 -8.55,6.03774 -18.19024,10.38681 -14.74771,6.65395 -24.34647,12.3895 -28.77849,17.20665 -4.43202,4.81716 -6.64802,10.83712 -6.64802,18.05396 0,9.69948 4.1002,17.56809 12.30655,23.5999 8.20634,6.03181 19.04938,9.04772 32.54097,9.04772 5.90145,0 11.35852,-0.62214 16.35936,-1.8605 5.00675,-1.23836 9.74688,-3.13441 14.22038,-5.67038 -1.30946,-3.1107 -2.50042,-6.13846 -3.56102,-9.08326 -1.06061,-2.95073 -1.99678,-5.79481 -2.80853,-8.52631 h -2.05603 c -1.9316,4.78161 -5.18451,8.53816 -9.75873,11.27558 -4.58015,2.7315 -9.88317,4.10021 -15.91498,4.10021 -5.6052,0 -10.12017,-1.29169 -13.54491,-3.87505 -3.41882,-2.57745 -5.13119,-5.98441 -5.13119,-10.21498 0,-3.54324 1.27391,-6.57692 3.82173,-9.09511 2.54782,-2.5182 8.21227,-5.6763 16.9815,-9.46841 1.92568,-0.93617 4.72828,-2.11528 8.40188,-3.54324 10.20312,-4.22464 16.70894,-7.55458 19.51154,-9.97797 3.42474,-2.98628 5.96071,-6.24511 7.61383,-9.78836 1.64719,-3.54917 2.47079,-7.52495 2.47079,-11.93919 0,-10.87859 -4.35499,-19.60042 -13.05905,-26.15365 -8.70405,-6.55915 -20.32921,-9.84168 -34.8814,-9.84168 -7.64938,0 -14.26778,0.61029 -19.86706,1.81902 -5.59334,1.21466 -10.35125,3.09293 -14.26778,5.64075"
           style="fill:#ffffff;fill-opacity:1;fill-rule:nonzero;stroke:none"
           id="path376"
           inkscape:connector-curvature="0" /><path
           d="m 395.92557,358.73574 c 2.11528,0.13628 4.11205,0.20738 5.99033,0.20738 1.91975,0 3.90468,-0.0711 5.93701,-0.20738 2.03825,-0.1422 4.15353,-0.34958 6.35177,-0.62214 -0.34959,5.83628 -0.61029,11.3526 -0.78212,16.54896 -0.17776,5.19637 -0.26071,10.1972 -0.26071,15.01435 v 22.46228 c 5.84221,-9.46841 11.35853,-18.68795 16.55489,-27.66456 5.19636,-8.97662 10.03129,-17.76363 14.52256,-26.36103 2.55375,0.27256 4.97121,0.47994 7.24647,0.62214 2.28119,0.13628 4.44979,0.20738 6.51175,0.20738 2.12121,0 4.33129,-0.0711 6.63618,-0.20738 2.31081,-0.1422 4.6868,-0.34958 7.12796,-0.62214 l -34.91103,56.00459 c 8.35447,2.10936 14.62922,5.59335 18.83608,10.4579 4.20686,4.86456 6.30437,11.08597 6.30437,18.6524 0,9.62246 -3.06331,16.78597 -9.19585,21.49055 -6.13254,4.69865 -15.43504,7.05686 -27.91934,7.05686 -5.56373,0 -11.40001,-0.10665 -17.50292,-0.31403 -6.10884,-0.20738 -9.45655,-0.31404 -10.04907,-0.31404 -1.24428,0 -2.56559,0.0533 -3.96985,0.15998 -1.40427,0.10073 -2.83815,0.26071 -4.29574,0.46809 0.62214,-7.89823 1.09023,-16.44824 1.40426,-25.64408 0.30811,-9.18992 0.46809,-19.65968 0.46809,-31.39149 0,-12.44283 -0.15998,-23.07256 -0.46809,-31.88327 -0.31403,-8.82256 -0.78212,-17.06446 -1.40426,-24.74346 2.46486,0.27256 4.75197,0.47994 6.86726,0.62214 m 16.48971,85.77258 c 0,3.56102 0.0237,7.19907 0.0829,10.91415 0.0533,3.70914 0.19553,7.43607 0.42069,11.17484 0.47994,0 1.11393,0.0296 1.91975,0.0948 0.80582,0.0533 1.39241,0.0889 1.74792,0.0889 8.04636,0 13.93005,-1.8131 17.65697,-5.43929 3.72693,-3.62027 5.58742,-9.3499 5.58742,-17.18888 0,-9.3262 -2.12713,-16.12236 -6.39324,-20.40032 -4.26019,-4.27797 -11.07412,-6.41102 -20.43587,-6.41102 h -0.58659 v 27.16684 z"
           style="fill:#ffffff;fill-opacity:1;fill-rule:nonzero;stroke:none"
           id="path380"
           inkscape:connector-curvature="0" /><path
           d="m 320,269.29904 c -3.61435,17.60364 -11.3526,32.23286 -21.455,43.70396 7.89231,6.35177 15.09731,13.37901 21.455,20.89803 6.35177,-7.51902 13.56269,-14.54626 21.455,-20.89803 C 331.3526,301.5319 323.61435,286.90268 320,269.29904 m -25.45448,135.47873 c 0,24.55978 11.39408,44.46831 25.45448,44.46831 14.0604,0 25.45448,-19.90853 25.45448,-44.46831 0,-20.15146 -9.66986,-40.94876 -25.45448,-58.89014 -15.79055,17.94138 -25.45448,38.73868 -25.45448,58.89014 m 207.68863,-31.58109 c -0.9895,1.1317 -2.42931,2.76705 -3.32401,2.69595 -0.31403,-0.0178 -0.45031,-0.26071 -0.45031,-0.62807 0,-0.37329 0.33181,-0.85915 0.65769,-1.23836 1.36871,-1.61164 2.71372,-3.35364 3.94616,-5.32079 3.0633,-4.88826 5.19636,-10.87266 5.19636,-17.53847 0,-12.77464 -7.11611,-24.80271 -20.36477,-35.53317 -13.78191,-11.15707 -34.20001,-19.52932 -60.46623,-19.52932 -24.92122,0 -49.37434,7.56643 -70.37903,19.70115 13.9656,10.74231 31.54554,18.11913 51.26447,18.11913 10.60603,0 21.40759,-1.23243 30.75157,-5.61112 4.43202,-2.07973 5.8185,-3.22329 7.27017,-3.22329 0.36736,0 0.62214,0.24293 0.62214,0.57474 0,1.24429 -2.08566,3.30032 -4.5683,5.14304 -8.03451,5.95478 -22.85926,12.05177 -37.40552,12.05177 -19.12049,0 -39.56821,-7.62568 -55.86831,-22.16009 -8.81071,5.83036 -16.88078,12.46061 -23.96134,19.65375 15.80239,20.92173 25.18192,44.91862 25.18192,67.95564 0,29.15177 -13.58046,52.7813 -30.33681,52.7813 -16.75635,0 -30.33681,-23.62953 -30.33681,-52.7813 0,-23.03702 9.37953,-47.03391 25.18192,-67.95564 -7.08056,-7.19314 -15.15063,-13.82339 -23.96134,-19.65375 -16.3001,14.53441 -36.75375,22.16009 -55.86831,22.16009 -14.54626,0 -29.37101,-6.09699 -37.40552,-12.05177 -2.48264,-1.84272 -4.5683,-3.89875 -4.5683,-5.14304 0,-0.33181 0.25478,-0.57474 0.62214,-0.57474 1.45167,0 2.83815,1.14356 7.27017,3.22329 9.34398,4.37869 20.14554,5.61112 30.75157,5.61112 19.713,0 37.29887,-7.37682 51.26447,-18.11913 -21.00469,-12.13472 -45.45781,-19.70115 -70.37903,-19.70115 -26.26622,0 -46.69024,8.37817 -60.46623,19.52932 -13.25458,10.73046 -20.36477,22.75853 -20.36477,35.53317 0,6.66581 2.13306,12.65021 5.19636,17.53847 1.23244,1.97308 2.57152,3.70915 3.94616,5.32079 0.32588,0.37921 0.65769,0.86507 0.65769,1.24428 0,0.36144 -0.13628,0.60437 -0.45031,0.62215 -0.90063,0.0711 -2.33451,-1.56425 -3.32401,-2.69595 -6.16217,-7.06871 -10.59419,-18.70572 -10.59419,-30.75749 0,-36.3627 38.22912,-62.54005 81.24577,-62.54005 30.82267,0 59.85002,10.97932 83.52695,28.06748 0.69917,-0.69325 1.40426,-1.38649 2.07973,-2.09751 15.58909,-16.37121 23.4814,-33.24606 25.97589,-50.70157 2.49449,17.45551 10.38088,34.33036 25.97589,50.70157 0.67547,0.71102 1.38056,1.40426 2.07973,2.09751 23.67693,-17.08816 52.70428,-28.06748 83.52695,-28.06748 43.01665,0 81.25169,26.17735 81.25169,62.54005 0,12.05177 -4.43794,23.68878 -10.60011,30.75749"
           style="fill:#ffffff;fill-opacity:1;fill-rule:nonzero;stroke:none"
           id="path384"
           inkscape:connector-curvature="0" /></g><g
         id="g4703"><path
           d="m 238.76075,44.481963 c 0.64585,-0.12443 1.14356,-0.23108 1.49907,-0.32589 0.36143,-0.0948 1.05468,-0.29625 2.07973,-0.59844 1.01913,-0.30218 1.86642,-0.54511 2.53597,-0.72287 3.73285,-0.98357 6.75468,-0.90062 9.05956,0.23108 2.30489,1.13764 3.88691,3.32994 4.74013,6.58286 0.40291,1.54054 0.50364,3.00405 0.30218,4.38461 -0.20145,1.38056 -0.68732,2.58337 -1.46351,3.62027 -0.62214,0.81768 -1.42797,1.49907 -2.41747,2.04418 -0.98357,0.54512 -2.39376,1.06061 -4.21278,1.54054 -0.6577,0.17183 -1.61165,0.40291 -2.86186,0.69917 -1.2502,0.29034 -2.16268,0.51549 -2.74334,0.66955 -0.37921,0.10072 -0.74065,0.20145 -1.07838,0.3081 -0.33774,0.10666 -0.67547,0.22516 -1.0132,0.34366 -0.14221,-0.94802 -0.34366,-2.00863 -0.59844,-3.17588 -0.24886,-1.17318 -0.64585,-2.76705 -1.17911,-4.79345 l -0.38514,-1.48129 -0.63991,-2.42932 c -0.47402,-1.7894 -0.86508,-3.17588 -1.17911,-4.17131 -0.31403,-0.9895 -0.62807,-1.86642 -0.93617,-2.63077 0.11257,-0.0237 0.27255,-0.0533 0.49178,-0.0948 m 4.97714,3.25883 c 0.237,0.94803 0.59844,2.32859 1.07837,4.14169 0.44439,1.70645 0.86508,3.26476 1.25021,4.65717 0.38514,1.39834 0.7525,2.69595 1.10801,3.89876 0.18368,-0.0356 0.42661,-0.0948 0.72879,-0.16591 0.58067,-0.13035 0.95988,-0.21923 1.12578,-0.26663 2.53597,-0.66362 4.20094,-1.73607 5.00676,-3.21143 0.80582,-1.48129 0.85322,-3.5551 0.15405,-6.23327 -0.69916,-2.6604 -1.83087,-4.50312 -3.38326,-5.52817 -1.54647,-1.02506 -3.51954,-1.22059 -5.90146,-0.59252 -0.27256,0.0711 -0.56289,0.15998 -0.871,0.27256 -0.3081,0.10665 -0.62806,0.237 -0.94802,0.37921 0.19553,0.8236 0.41476,1.70644 0.65177,2.64854"
           style="fill:#ee2223;fill-opacity:1;fill-rule:nonzero;stroke:none"
           id="path304"
           inkscape:connector-curvature="0" /><path
           d="m 260.41424,39.062813 c 0.29626,0.95987 0.59252,2.06195 0.88285,3.31809 0.29033,1.25613 0.71102,3.29438 1.25613,6.10883 l 0.26664,1.39834 c 0.40291,2.09158 0.69324,3.73285 0.87692,4.92381 0.18368,1.19095 0.30811,2.26933 0.37921,3.22921 0.85322,-0.20146 1.73015,-0.40291 2.64262,-0.59252 0.91247,-0.19553 1.8605,-0.38513 2.85593,-0.57474 1.00135,-0.19553 1.91975,-0.36736 2.74927,-0.50956 0.82952,-0.1422 1.61757,-0.26663 2.35821,-0.37329 -0.10072,-0.29625 -0.17183,-0.53326 -0.21923,-0.69916 -0.0474,-0.16591 -0.0829,-0.32589 -0.11258,-0.46809 -0.0237,-0.14221 -0.0474,-0.29626 -0.0652,-0.45624 -0.0178,-0.15998 -0.0356,-0.39698 -0.0533,-0.72287 -1.35094,0.36144 -2.52412,0.65769 -3.51954,0.90655 -0.99543,0.24293 -1.8605,0.43846 -2.60115,0.59252 -0.10073,-0.32589 -0.19553,-0.6814 -0.2844,-1.06061 -0.083,-0.37921 -0.20146,-0.9421 -0.34366,-1.68274 l -0.25479,-1.32724 -0.34958,-1.8842 c 0.58659,-0.0948 1.58794,-0.25478 2.99813,-0.47401 1.41019,-0.22516 2.47672,-0.39699 3.19958,-0.50956 -0.10072,-0.26664 -0.17182,-0.48587 -0.21923,-0.64585 -0.0415,-0.1659 -0.083,-0.3318 -0.11257,-0.49178 -0.0474,-0.24294 -0.0889,-0.61622 -0.11851,-1.12578 0,-0.0356 0,-0.0652 0,-0.083 -1.67089,0.42662 -2.93888,0.74065 -3.8158,0.94803 -0.87692,0.20145 -1.64719,0.37328 -2.31081,0.49771 l -0.63992,-3.32401 c -0.23108,-1.19688 -0.38513,-2.03233 -0.45623,-2.51227 -0.077,-0.47994 -0.12443,-0.88877 -0.15406,-1.22058 0.8473,-0.13628 1.7894,-0.26663 2.83223,-0.39699 1.0369,-0.13035 2.17453,-0.2607 3.41289,-0.38513 -0.0593,-0.17776 -0.11258,-0.35551 -0.15998,-0.53327 -0.0474,-0.17775 -0.0889,-0.36143 -0.12443,-0.55103 -0.0415,-0.19554 -0.077,-0.45032 -0.11258,-0.77028 -0.0356,-0.32588 -0.0593,-0.52141 -0.0711,-0.59251 -1.82495,0.41476 -3.22921,0.72287 -4.20686,0.93617 -0.98358,0.21331 -1.77755,0.37329 -2.38784,0.49179 -0.8236,0.15998 -1.55832,0.29033 -2.20416,0.38514 -0.64584,0.10072 -1.25021,0.17775 -1.8131,0.23108"
           style="fill:#ee2223;fill-opacity:1;fill-rule:nonzero;stroke:none"
           id="path308"
           inkscape:connector-curvature="0" /><path
           d="m 276.45009,36.277393 c 0.37328,-0.0237 0.74064,-0.0652 1.09615,-0.10665 0.36736,-0.0533 0.73472,-0.1185 1.11986,-0.19553 0.37921,-0.077 0.78212,-0.17183 1.20873,-0.27848 0.0711,1.33316 0.12443,2.31081 0.15998,2.9448 0.0355,0.62807 0.0711,1.0606 0.10665,1.28576 l 0.55697,4.12391 c 0.10073,-0.0119 0.24885,-0.0415 0.45624,-0.077 0.20145,-0.0356 0.3555,-0.0652 0.46808,-0.077 2.5893,-0.34958 4.57422,-0.13627 5.97256,0.6577 1.39241,0.78804 2.22194,2.1686 2.48857,4.14761 0.237,1.73014 -0.10073,3.06923 -1.00728,4.01133 -0.90655,0.9421 -2.45894,1.56424 -4.64532,1.8605 -0.6577,0.0948 -1.49907,0.1896 -2.53004,0.29626 -1.03098,0.10072 -1.73608,0.18368 -2.12121,0.237 -0.31403,0.0415 -0.63399,0.0948 -0.95395,0.15406 -0.31996,0.0592 -0.64584,0.13035 -0.97765,0.20738 -0.077,-1.30946 -0.18961,-2.74928 -0.35551,-4.31944 -0.15998,-1.57017 -0.37329,-3.34772 -0.63992,-5.31487 -0.29033,-2.12713 -0.56289,-3.9343 -0.81767,-5.41559 -0.25478,-1.48722 -0.51549,-2.85 -0.78805,-4.09429 0.42661,-0.006 0.8236,-0.0237 1.20281,-0.0474 m 5.08379,13.90635 c 0.0711,0.52141 0.15405,1.0369 0.24885,1.54646 0.10073,0.50957 0.21331,1.01913 0.33774,1.53462 0.0178,-0.006 0.0474,-0.006 0.0829,0 0.35551,-0.0178 0.62214,-0.0415 0.79397,-0.0652 1.05468,-0.1422 1.80125,-0.55104 2.23971,-1.21466 0.43254,-0.66954 0.56881,-1.60571 0.40291,-2.82037 -0.20146,-1.46944 -0.66954,-2.48857 -1.41019,-3.05738 -0.74064,-0.56289 -1.84865,-0.74065 -3.32401,-0.53919 l 0.62807,4.6157 z"
           style="fill:#ee2223;fill-opacity:1;fill-rule:nonzero;stroke:none"
           id="path312"
           inkscape:connector-curvature="0" /><path
           d="m 293.2645,53.421243 c 0.35551,-0.0592 0.7288,-0.10665 1.13171,-0.15405 0.40291,-0.0474 0.82359,-0.0829 1.27391,-0.11258 0.43846,-0.0296 0.84729,-0.0474 1.22058,-0.0533 0.37921,-0.0118 0.74064,-0.006 1.09023,0.006 -0.24293,-1.46944 -0.45624,-3.03368 -0.63399,-4.69865 -0.17776,-1.67089 -0.33181,-3.50769 -0.46809,-5.51632 -0.11258,-1.6235 -0.1422,-2.7789 -0.10073,-3.46029 0.0415,-0.68732 0.14221,-1.29169 0.31403,-1.81903 0.24886,-0.79989 0.72287,-1.43981 1.42797,-1.91975 0.70509,-0.47401 1.57609,-0.74657 2.62484,-0.81767 1.00728,-0.0652 1.90198,0.0533 2.69002,0.36736 0.78805,0.31403 1.43389,0.79397 1.93161,1.45166 0.40291,0.54512 0.71101,1.26799 0.92432,2.17454 0.21331,0.90062 0.38514,2.38783 0.52734,4.46164 0.11258,1.73607 0.19553,3.35956 0.24886,4.87048 0.0474,1.51684 0.0652,2.93295 0.0474,4.26611 0.2133,-0.0533 0.43253,-0.0948 0.66362,-0.12443 0.23108,-0.0356 0.47401,-0.0593 0.73471,-0.077 0.27256,-0.0178 0.52734,-0.0237 0.75842,-0.0237 0.23701,0 0.45032,0.0119 0.64585,0.0356 -0.17183,-1.27984 -0.31996,-2.42932 -0.43254,-3.45437 -0.10665,-1.01913 -0.1896,-1.9079 -0.24293,-2.6604 -0.0296,-0.43846 -0.0652,-1.12578 -0.11258,-2.05602 -0.0415,-0.92433 -0.077,-1.63535 -0.11258,-2.12121 -0.12443,-1.84865 -0.35551,-3.27069 -0.68732,-4.27204 -0.3318,-1.00135 -0.83544,-1.83087 -1.49314,-2.48857 -0.77027,-0.77619 -1.72422,-1.33316 -2.85592,-1.66497 -1.13171,-0.33773 -2.44709,-0.45031 -3.95208,-0.35551 -1.65312,0.11258 -3.06331,0.43847 -4.23056,0.97766 -1.17319,0.54511 -2.03233,1.26205 -2.57745,2.15675 -0.40883,0.6577 -0.66954,1.49314 -0.79397,2.50634 -0.1185,1.01321 -0.10665,2.60707 0.0415,4.77568 l 0.1659,2.47672 c 0.1185,1.77162 0.18961,3.19958 0.22516,4.28981 0.0237,1.09023 0.0296,2.10343 0.006,3.03368"
           style="fill:#ee2223;fill-opacity:1;fill-rule:nonzero;stroke:none"
           id="path316"
           inkscape:connector-curvature="0" /><path
           d="m 314.10328,32.964643 c 0.11851,1.23835 0.21331,2.57744 0.27849,4.01725 0.0711,1.43389 0.1185,3.30624 0.14812,5.61705 0.0237,2.23971 0.0237,4.11799 -0.0119,5.6289 -0.0355,1.51684 -0.0948,2.86778 -0.1896,4.05874 0.40291,-0.0533 0.81175,-0.0948 1.22058,-0.13036 0.40884,-0.0296 0.8236,-0.0474 1.23836,-0.0533 0.40884,-0.006 0.81767,0.006 1.22651,0.0296 0.40291,0.0178 0.80582,0.0533 1.19688,0.0948 -0.1185,-1.2028 -0.21331,-2.56559 -0.28441,-4.08243 -0.0652,-1.51684 -0.11258,-3.38327 -0.13628,-5.59335 -0.0296,-2.40561 -0.0296,-4.31944 0.006,-5.74148 0.0296,-1.42203 0.0889,-2.72557 0.17775,-3.90468 -0.45031,0.0593 -0.87692,0.10073 -1.27983,0.13036 -0.39699,0.0356 -0.7762,0.0533 -1.13171,0.0533 -0.37921,0.006 -0.77027,0 -1.16725,-0.0237 -0.40291,-0.0237 -0.82952,-0.0533 -1.29169,-0.10072"
           style="fill:#ee2223;fill-opacity:1;fill-rule:nonzero;stroke:none"
           id="path320"
           inkscape:connector-curvature="0" /><path
           d="m 322.82452,33.830893 c 0.15406,0.58067 0.30219,1.19689 0.43846,1.84273 0.14221,0.65177 0.27256,1.33316 0.39106,2.0501 l 0.37329,0.0119 c 0.28441,-1.07838 0.79397,-1.9079 1.52869,-2.48264 0.73472,-0.58066 1.62942,-0.85322 2.6841,-0.81767 0.94802,0.0296 1.70052,0.31403 2.25748,0.8473 0.55697,0.53919 0.8236,1.23836 0.79397,2.10343 -0.0178,0.62214 -0.21923,1.1554 -0.59844,1.59387 -0.37921,0.43846 -1.28576,1.02505 -2.71965,1.75384 -2.22193,1.10208 -3.67359,2.07381 -4.35499,2.90333 -0.68731,0.83545 -1.04282,1.8842 -1.0843,3.14626 -0.0533,1.71237 0.50956,3.12256 1.6946,4.22464 1.1791,1.10208 2.76704,1.68274 4.76382,1.74199 0.87693,0.0296 1.68867,-0.0533 2.43524,-0.24293 0.74657,-0.19553 1.45759,-0.50364 2.13306,-0.93617 -0.17776,-0.55104 -0.33774,-1.09023 -0.47994,-1.61757 -0.1422,-0.52142 -0.27256,-1.02505 -0.37921,-1.50499 l -0.30811,-0.0118 c -0.30811,0.82952 -0.80582,1.47536 -1.49314,1.93752 -0.68732,0.45624 -1.47536,0.67547 -2.37006,0.64585 -0.8236,-0.0237 -1.48129,-0.27256 -1.96715,-0.74065 -0.49179,-0.47401 -0.7288,-1.0843 -0.69917,-1.83087 0.0178,-0.62807 0.21923,-1.15541 0.61029,-1.58794 0.38514,-0.42662 1.23243,-0.95988 2.53597,-1.59387 0.29033,-0.14813 0.71102,-0.34366 1.26206,-0.58659 1.53461,-0.69917 2.51226,-1.25021 2.93887,-1.65905 0.52734,-0.51549 0.9184,-1.07838 1.17911,-1.69459 0.26071,-0.62214 0.40884,-1.31539 0.43254,-2.08566 0.0593,-1.91382 -0.53919,-3.47214 -1.79533,-4.68087 -1.2502,-1.20281 -2.95665,-1.8368 -5.10748,-1.90198 -1.13171,-0.0356 -2.11528,0.0474 -2.95073,0.23701 -0.83545,0.19553 -1.55239,0.50956 -2.14491,0.93617"
           style="fill:#ee2223;fill-opacity:1;fill-rule:nonzero;stroke:none"
           id="path324"
           inkscape:connector-curvature="0" /><path
           d="m 351.19833,34.585763 c -0.083,1.67089 -0.19553,3.35364 -0.33774,5.05416 -0.1422,1.70052 -0.31403,3.41289 -0.50956,5.13119 -0.1185,1.05467 -0.24886,2.01455 -0.37921,2.89147 -0.13628,0.87693 -0.28441,1.6946 -0.45031,2.45302 -0.50957,-0.29034 -1.00728,-0.59252 -1.49314,-0.91248 -0.49179,-0.31996 -0.9658,-0.64584 -1.43389,-0.97172 l -1.50499,1.45166 c 1.31538,0.59844 2.61299,1.27391 3.88098,2.02048 1.26206,0.74657 2.51226,1.56424 3.7447,2.45302 l 0.56881,-0.22516 c 0.0119,-0.78805 0.0711,-1.78347 0.17776,-2.99221 0.10665,-1.20873 0.33773,-3.38326 0.69917,-6.52952 0.29625,-2.60114 0.53918,-4.592 0.72879,-5.96663 0.1896,-1.38057 0.36143,-2.50635 0.52734,-3.37734 -0.38514,0.006 -0.75842,0.006 -1.10801,-0.006 -0.35551,-0.0178 -0.69324,-0.0415 -1.0132,-0.077 -0.33181,-0.0356 -0.66362,-0.0889 -1.00727,-0.15405 -0.34366,-0.0652 -0.7051,-0.14813 -1.09023,-0.24293"
           style="fill:#ee2223;fill-opacity:1;fill-rule:nonzero;stroke:none"
           id="path328"
           inkscape:connector-curvature="0" /><path
           d="m 369.65342,40.170813 c -0.69917,-1.61164 -1.84865,-2.55967 -3.44252,-2.83222 -0.40291,-0.0711 -0.7999,-0.077 -1.18503,-0.0296 -0.38514,0.0533 -0.77027,0.17183 -1.16726,0.36144 l 0.49179,-1.53462 c 0.33181,-0.0474 0.68732,-0.0652 1.06653,-0.0592 0.38513,0.006 0.77619,0.0474 1.18503,0.1185 2.71372,0.46809 4.7342,1.84865 6.06144,4.15354 1.33316,2.30488 1.71237,5.11341 1.14355,8.42557 -0.44439,2.55967 -1.34501,4.43202 -2.71372,5.61705 -1.36871,1.18503 -3.10478,1.59387 -5.19636,1.23836 -1.96716,-0.33773 -3.47807,-1.17911 -4.5446,-2.51819 -1.07245,-1.33909 -1.44574,-2.8737 -1.14948,-4.60385 0.29033,-1.68275 0.99543,-2.93888 2.11528,-3.7684 1.12578,-0.82952 2.49449,-1.10801 4.10021,-0.82952 0.82952,0.1422 1.54647,0.42068 2.15676,0.82952 0.61029,0.41476 1.12578,0.9658 1.55831,1.66497 0.37921,-2.54189 0.21923,-4.62162 -0.47993,-6.23327 m -0.29034,6.96799 c -0.29033,-0.74065 -0.87692,-1.18503 -1.77162,-1.33909 -0.86507,-0.14813 -1.55239,0.083 -2.06195,0.69917 -0.51549,0.61622 -0.8947,1.67682 -1.15541,3.18181 -0.26071,1.50499 -0.24886,2.62485 0.0237,3.37734 0.27848,0.74657 0.85322,1.19096 1.71237,1.33909 0.84137,0.14813 1.53462,-0.10073 2.08566,-0.74065 0.54511,-0.64584 0.94802,-1.68274 1.19688,-3.11071 0.26071,-1.53461 0.24885,-2.66632 -0.0296,-3.40696"
           style="fill:#ee2223;fill-opacity:1;fill-rule:nonzero;stroke:none"
           id="path332"
           inkscape:connector-curvature="0" /><path
           d="m 379.42696,43.865153 c 0.39699,-1.24428 0.93618,-2.12121 1.60572,-2.63077 0.66954,-0.50957 1.47537,-0.65177 2.41747,-0.43846 0.9421,0.21923 1.58794,0.73472 1.94937,1.54646 0.35551,0.81175 0.39106,1.85458 0.10073,3.11664 -0.31403,1.32723 -0.80582,2.26341 -1.48129,2.8026 -0.68139,0.53919 -1.54054,0.68731 -2.58929,0.44438 -0.30219,-0.0711 -0.52142,-0.12443 -0.65177,-0.15998 -0.13628,-0.0356 -0.24886,-0.0711 -0.34959,-0.10665 l -0.31995,1.34501 c 0.15998,0.0237 0.2844,0.0356 0.36143,0.0474 0.077,0.0178 0.14813,0.0237 0.22516,0.0356 1.04875,0.24293 1.75977,0.72287 2.1212,1.44574 0.36144,0.71695 0.39106,1.71237 0.10073,2.97443 -0.25478,1.10801 -0.64584,1.90198 -1.16133,2.38784 -0.52141,0.47994 -1.14948,0.63399 -1.90198,0.46216 -0.70509,-0.1659 -1.2028,-0.61029 -1.49314,-1.33908 -0.29033,-0.7288 -0.3318,-1.6235 -0.11257,-2.6841 l 0.10072,-0.0592 c -0.66361,0.32588 -1.65311,0.8236 -2.96257,1.50499 0.41476,1.04875 1.03097,1.90197 1.84864,2.55374 0.81175,0.65177 1.84273,1.11986 3.08109,1.41019 1.74792,0.40291 3.19366,0.33181 4.34906,-0.21331 1.14356,-0.55104 1.8842,-1.52869 2.21009,-2.92702 0.23108,-0.99543 0.13035,-1.87235 -0.29626,-2.6367 -0.42661,-0.75842 -1.26206,-1.54054 -2.50634,-2.32266 l 0.0415,-0.18961 c 1.5998,0.13628 2.85,-0.0593 3.73878,-0.58659 0.88877,-0.52734 1.48129,-1.40426 1.76569,-2.63669 0.40292,-1.73015 0.0889,-3.27069 -0.93025,-4.6157 -1.02505,-1.34501 -2.58336,-2.26341 -4.68679,-2.74927 -1.11393,-0.25479 -2.15676,-0.34366 -3.14626,-0.26071 -0.98358,0.0829 -1.8842,0.33773 -2.71373,0.76434 0.26664,0.7288 0.50364,1.38649 0.71102,1.98493 0.20738,0.60437 0.39699,1.17318 0.57474,1.73015"
           style="fill:#ee2223;fill-opacity:1;fill-rule:nonzero;stroke:none"
           id="path336"
           inkscape:connector-curvature="0" /><path
           d="m 399.40126,44.031653 c -0.37328,1.62941 -0.77027,3.27068 -1.19688,4.9238 -0.43254,1.6472 -0.88877,3.30624 -1.38056,4.96528 -0.30218,1.01913 -0.59252,1.94346 -0.871,2.78483 -0.28441,0.84137 -0.57474,1.61757 -0.86507,2.34044 -0.45031,-0.36736 -0.88878,-0.75842 -1.31539,-1.15541 -0.42661,-0.39699 -0.84137,-0.7999 -1.24428,-1.20281 l -1.73015,1.16726 c 1.19096,0.8236 2.35229,1.70644 3.47215,2.66039 1.11985,0.94803 2.21008,1.96716 3.27068,3.05739 l 0.59844,-0.12443 c 0.14813,-0.7762 0.37921,-1.74792 0.69325,-2.91518 0.30811,-1.17318 0.91247,-3.27661 1.80125,-6.32214 0.73472,-2.50635 1.31538,-4.4261 1.74199,-5.75333 0.42069,-1.32131 0.78805,-2.39969 1.10208,-3.22921 -0.38513,-0.0593 -0.75249,-0.12443 -1.09615,-0.20146 -0.34366,-0.0711 -0.66955,-0.15405 -0.9895,-0.24885 -0.31404,-0.0948 -0.634,-0.20146 -0.95988,-0.32589 -0.32588,-0.1185 -0.66954,-0.26071 -1.03098,-0.42068"
           style="fill:#ee2223;fill-opacity:1;fill-rule:nonzero;stroke:none"
           id="path340"
           inkscape:connector-curvature="0" /></g><g
         id="g4734"><path
           d="m 256.14576,174.96164 c 0,-35.20729 28.64221,-63.85543 63.85543,-63.85543 35.20728,0 63.85542,28.64814 63.85542,63.85543 0,35.20728 -28.64814,63.85542 -63.85542,63.85542 -35.21322,0 -63.85543,-28.64814 -63.85543,-63.85542"
           style="fill:#ffffff;fill-opacity:1;fill-rule:nonzero;stroke:none"
           id="path344"
           inkscape:connector-curvature="0" /><path
           d="m 380.22093,187.17635 c -3.27661,16.18161 -12.93462,30.07018 -26.22474,38.93421 -1.46352,0.18368 -2.97443,0.21331 -4.56238,0.0178 -5.30301,-4.10614 -10.22089,-10.06092 -13.69304,-15.77277 3.13441,-6.05551 6.38732,-15.20988 7.98119,-24.81456 8.60333,-2.5656 18.07766,-7.23462 24.42943,-12.67984 4.10613,2.61892 8.54408,7.4894 12.06954,14.31518"
           style="fill:#ee2223;fill-opacity:1;fill-rule:nonzero;stroke:none"
           id="path348"
           inkscape:connector-curvature="0" /><path
           d="m 299.66901,128.92968 c 7.31164,1.73014 14.17297,5.22006 19.29231,8.96476 v 30.40791 l -21.98826,15.26321 c -8.74553,-2.613 -18.5813,-7.5368 -24.66051,-13.0946 -1.53461,-7.04501 -2.03825,-14.91362 -0.10665,-21.98234 7.35905,-8.69813 15.64242,-15.47058 27.46311,-19.55894"
           style="fill:#ee2223;fill-opacity:1;fill-rule:nonzero;stroke:none"
           id="path352"
           inkscape:connector-curvature="0" /><path
           d="m 271.84683,172.85939 c 6.35177,5.44522 15.83203,10.11424 24.43536,12.67984 1.58794,9.59875 4.84085,18.75905 7.98118,24.81456 -3.47806,5.71778 -8.39595,11.66663 -13.69896,15.77277 -1.58794,0.19553 -3.09293,0.1659 -4.56237,-0.0178 -13.29013,-8.85811 -22.94814,-22.7526 -26.22475,-38.93421 3.52547,-6.82578 7.96341,-11.69626 12.06954,-14.31518"
           style="fill:#ee2223;fill-opacity:1;fill-rule:nonzero;stroke:none"
           id="path356"
           inkscape:connector-curvature="0" /><path
           d="m 368.07851,145.61551 c -7.15167,-8.12339 -15.29283,-14.47516 -26.55656,-18.46871 -1.82495,-4.56237 -4.14168,-8.74554 -6.93836,-11.86809 16.52527,4.04095 30.44939,14.78326 38.72091,29.17547 -1.97901,0.28441 -3.73285,0.66955 -5.22599,1.16133"
           style="fill:#ee2223;fill-opacity:1;fill-rule:nonzero;stroke:none"
           id="path360"
           inkscape:connector-curvature="0" /><path
           d="m 298.47746,127.14798 c -11.26373,3.99356 -19.39897,10.34533 -26.55656,18.46872 -1.49314,-0.49179 -3.24699,-0.87692 -5.22599,-1.16133 8.27152,-14.39221 22.18972,-25.13452 38.72091,-29.17548 -2.79668,3.12256 -5.11341,7.30572 -6.93836,11.86809"
           style="fill:#ee2223;fill-opacity:1;fill-rule:nonzero;stroke:none"
           id="path364"
           inkscape:connector-curvature="0" /><path
           d="m 292.68739,227.11428 c 5.23784,-4.24834 9.89502,-10.01944 13.23681,-15.49428 4.36091,0.34365 9.09511,0.53326 14.07817,0.53326 4.97121,0 9.71133,-0.18961 14.06632,-0.53326 3.34179,5.47484 8.00489,11.24594 13.24273,15.49428 -0.0474,1.16133 -0.43253,2.32266 -1.27391,3.484 -7.91008,3.72099 -16.73264,5.80665 -26.03514,5.80665 -9.30842,0 -18.13098,-2.09158 -26.04699,-5.80665 -0.83545,-1.16134 -1.22059,-2.32267 -1.26799,-3.484"
           style="fill:#ee2223;fill-opacity:1;fill-rule:nonzero;stroke:none"
           id="path368"
           inkscape:connector-curvature="0" /><path
           d="m 343.02753,183.56556 -21.98826,-15.26321 v -30.40791 c 5.11341,-3.7447 11.98067,-7.23462 19.28639,-8.96476 11.82662,4.08836 20.11591,10.86081 27.46903,19.56487 1.9316,7.06279 1.42797,14.93732 -0.11257,21.97641 -6.07329,5.5578 -15.90905,10.4816 -24.65459,13.0946"
           style="fill:#ee2223;fill-opacity:1;fill-rule:nonzero;stroke:none"
           id="path372"
           inkscape:connector-curvature="0" /></g></g></g></svg>