<?xml version="1.0" encoding="UTF-8" standalone="no"?>
<svg xmlns:rdf="http://www.w3.org/1999/02/22-rdf-syntax-ns#" xmlns="http://www.w3.org/2000/svg" height="38.41701" width="54.7763" version="1.1" xmlns:cc="http://creativecommons.org/ns#" xmlns:dc="http://purl.org/dc/elements/1.1/" viewBox="0 0 54.7763 38.41701"><path d="M9.4154,18.709a18.49849,18.49849,0,1,1,18.498,18.498A18.49839,18.49839,0,0,1,9.4154,18.709" fill="#fff"/><circle cx="27.91363" cy="18.70873" r="18.4985" fill="none" stroke="#fff" stroke-miterlimit="3.864" stroke-width="0.42"/><path d="M11.66439,12.54276h-1.125a17.9967,17.9967,0,0,1,17.374-12.332,18.64006,18.64006,0,0,1,18.499,19.338h-1.124a17.52639,17.52639,0,0,0-17.375-18.214,16.88969,16.88969,0,0,0-16.249,11.20795" fill="#fff"/><path d="M11.66439,12.54276h-1.125a17.9967,17.9967,0,0,1,17.374-12.332,18.64006,18.64006,0,0,1,18.499,19.338h-1.124a17.52639,17.52639,0,0,0-17.375-18.214A16.88969,16.88969,0,0,0,11.66439,12.54276Z" fill="none" stroke="#fff" stroke-miterlimit="3.864" stroke-width="0.42"/><path d="M9.9714,23.19456c-.141-.54395-.212-.855-.309-1.409-.095-.541-.134-.849-.185-1.396h45.054l-.433,2.805Z" fill="#fff"/><path d="M9.9714,23.19456c-.141-.54395-.212-.855-.309-1.409-.095-.541-.134-.849-.185-1.396h45.054l-.433,2.805Z" fill="none" stroke="#fff" stroke-miterlimit="3.864" stroke-width="0.42"/><path d="M10.25561,24.03483h35.316a18.42147,18.42147,0,0,1-35.316,0" fill="#fff"/><path d="M10.25561,24.03483h35.316a18.42147,18.42147,0,0,1-35.316,0Z" fill="none" stroke="#fff" stroke-miterlimit="3.864" stroke-width="0.336"/><path d="M3.18767,15.48863a.7417.7417,0,0,1-.82.681l.216-1.411.12-.008c.393,0,.544.349.484.738m-1.339,4.062.307-2.003a2.24164,2.24164,0,0,0,2.648-2.035c.247-1.605-.758-2.075-2.158-2.075h-1.463l-.938,6.113Z" fill="#fff" fill-rule="evenodd"/><path d="M3.18767,15.48863a.7417.7417,0,0,1-.82.681l.216-1.411.12-.008C3.09667,14.75059,3.24767,15.09959,3.18767,15.48863Zm-1.339,4.062.307-2.003a2.24164,2.24164,0,0,0,2.648-2.035c.247-1.605-.758-2.075-2.158-2.075h-1.463l-.938,6.113Z" fill="none" stroke="#fff" stroke-miterlimit="3.864" stroke-width="0.42"/><path d="M6.44558,17.46659l.438-1.419c.122-.381.221-.77.327-1.151h.015c-.019.381-.047.77-.058,1.151l-.045,1.419Zm2.323,2.084-.32-6.113h-1.958l-2.362,6.113h1.652l.254-.78595h1.077l-.002.78595Z" fill="#fff" fill-rule="evenodd"/><path d="M6.44558,17.46659l.438-1.419c.122-.381.221-.77.327-1.151h.015c-.019.381-.047.77-.058,1.151l-.045,1.419Zm2.323,2.084-.32-6.113h-1.958l-2.362,6.113h1.652l.254-.78595h1.077l-.002.78595Z" fill="none" stroke="#fff" stroke-miterlimit="3.864" stroke-width="0.42"/><path d="M11.60351,14.96153c.731,0,.715.924.613,1.58905-.088.576-.358,1.516-1.091,1.524Z" fill="#fff" fill-rule="evenodd"/><path d="M11.60351,14.96153c.731,0,.715.924.613,1.58905-.088.576-.358,1.516-1.091,1.524Z" fill="none" stroke="#fff" stroke-miterlimit="3.864" stroke-width="0.42"/><polygon points="14.161 19.551 17.142 19.551 17.363 18.108 15.987 18.108 16.13 17.175 17.365 17.175 17.586 15.732 16.351 15.732 16.482 14.881 17.858 14.881 18.08 13.438 15.099 13.438 14.161 19.551" fill="#fff" fill-rule="evenodd"/><polygon points="14.161 19.551 17.142 19.551 17.363 18.108 15.987 18.108 16.13 17.175 17.365 17.175 17.586 15.732 16.351 15.732 16.482 14.881 17.858 14.881 18.08 13.438 15.099 13.438 14.161 19.551" fill="none" stroke="#fff" stroke-miterlimit="3.864" stroke-width="0.42"/><path d="M20.19259,16.25858l.232-1.508c.444-.024.724.203.642.738a.84588.84588,0,0,1-.773.778Zm2.114,3.292-.805-2.546a1.86974,1.86974,0,0,0,1.156-1.532c.247-1.614-.695-2.035-2.087-2.035h-1.549l-.938,6.113h1.604l.25-1.62994c.046-.3.077-.6.115-.9l.018-.016.498,2.546Z" fill="#fff" fill-rule="evenodd"/><path d="M20.19259,16.25858l.232-1.508c.444-.024.724.203.642.738a.84588.84588,0,0,1-.773.778Zm2.114,3.292-.805-2.546a1.86974,1.86974,0,0,0,1.156-1.532c.247-1.614-.695-2.035-2.087-2.035h-1.549l-.938,6.113h1.604l.25-1.62994c.046-.3.077-.6.115-.9l.018-.016.498,2.546Z" fill="none" stroke="#fff" stroke-miterlimit="3.864" stroke-width="0.42"/><path d="M25.00908,15.8126l.162-1.054h.157c.33,0,.551.15405.495.519a.64815.64815,0,0,1-.72.535Zm-.371,2.416.181-1.175h.125c.37,0,.651.17.587.584a.70572.70572,0,0,1-.759.591Zm-1.807,1.322h2.155a2.0297,2.0297,0,0,0,2.139-1.743c.126-.819-.214-1.322-.99-1.387l.002-.01605a1.35483,1.35483,0,0,0,1.297-1.224c.203-1.322-.834-1.743-1.777-1.743h-1.888Z" fill="#fff" fill-rule="evenodd"/><path d="M25.00908,15.8126l.162-1.054h.157c.33,0,.551.15405.495.519a.64815.64815,0,0,1-.72.535Zm-.371,2.416.181-1.175h.125c.37,0,.651.17.587.584a.70572.70572,0,0,1-.759.591Zm-1.807,1.322h2.155a2.0297,2.0297,0,0,0,2.139-1.743c.126-.819-.214-1.322-.99-1.387l.002-.01605a1.35483,1.35483,0,0,0,1.297-1.224c.203-1.322-.834-1.743-1.777-1.743h-1.888Z" fill="none" stroke="#fff" stroke-miterlimit="3.864" stroke-width="0.42"/><path d="M29.55086,16.49387c.058-.381.272-1.62195.878-1.62195.605,0,.439,1.241.38,1.62195-.058.381-.272,1.622-.878,1.622s-.439-1.241-.38-1.622m-1.636,0c-.229,1.492.152,3.162,1.78,3.162s2.521-1.67,2.75-3.162-.152-3.162-1.78-3.162-2.521,1.67-2.75,3.162" fill="#fff" fill-rule="evenodd"/><path d="M29.55086,16.49387c.058-.381.272-1.62195.878-1.62195.605,0,.439,1.241.38,1.62195-.058.381-.272,1.622-.878,1.622S29.49187,16.87492,29.55086,16.49387Zm-1.636,0c-.229,1.492.152,3.162,1.78,3.162s2.521-1.67,2.75-3.162-.152-3.162-1.78-3.162S28.14385,15.00193,27.91488,16.49387Z" fill="none" stroke="#fff" stroke-miterlimit="3.864" stroke-width="0.42"/><path d="M34.85387,16.25858l.232-1.508c.444-.024.724.203.642.738a.84588.84588,0,0,1-.773.778Zm2.114,3.292-.805-2.546a1.86974,1.86974,0,0,0,1.156-1.532c.247-1.614-.695-2.035-2.087-2.035h-1.549l-.938,6.113h1.604l.25-1.62994c.046-.3.077-.6.115-.9l.018-.016.498,2.546Z" fill="#fff" fill-rule="evenodd"/><path d="M34.85387,16.25858l.232-1.508c.444-.024.724.203.642.738a.84588.84588,0,0,1-.773.778Zm2.114,3.292-.805-2.546a1.86974,1.86974,0,0,0,1.156-1.532c.247-1.614-.695-2.035-2.087-2.035h-1.549l-.938,6.113h1.604l.25-1.62994c.046-.3.077-.6.115-.9l.018-.016.498,2.546Z" fill="none" stroke="#fff" stroke-miterlimit="3.864" stroke-width="0.42"/><path d="M37.4923,19.55058h1.541l.275-1.792c.089-.575.105-1.143.154-1.719l.018-.016.654,3.527h1.542l.938-6.113h-1.541l-.239,1.556c-.108.706-.098,1.403-.143,2.108l-.018.017-.717-3.681h-1.526Z" fill="#fff" fill-rule="evenodd"/><path d="M37.4923,19.55058h1.541l.275-1.792c.089-.575.105-1.143.154-1.719l.018-.016.654,3.527h1.542l.938-6.113h-1.541l-.239,1.556c-.108.706-.098,1.403-.143,2.108l-.018.017-.717-3.681h-1.526Z" fill="none" stroke="#fff" stroke-miterlimit="3.864" stroke-width="0.42"/><path d="M10.25561,24.03483h35.316a18.42147,18.42147,0,0,1-35.316,0" fill="#005ca8"/><path d="M9.9714,23.19456c-.141-.54395-.212-.855-.309-1.409-.095-.541-.134-.849-.185-1.396h45.054l-.433,2.805Z"/><path d="M3.18767,15.48863a.7417.7417,0,0,1-.82.681l.216-1.411.12-.008c.393,0,.544.349.484.738m-1.339,4.062.307-2.003a2.24164,2.24164,0,0,0,2.648-2.035c.247-1.605-.758-2.075-2.158-2.075h-1.463l-.938,6.113Z" fill-rule="evenodd"/><path d="M6.44558,17.46659l.438-1.419c.122-.381.221-.77.327-1.151h.015c-.019.381-.047.77-.058,1.151l-.045,1.419Zm2.323,2.084-.32-6.113h-1.958l-2.362,6.113h1.652l.254-.78595h1.077l-.002.78595Z" fill-rule="evenodd"/><path d="M11.6039,14.96159c.731,0,.715.924.613,1.589-.088.576-.359,1.51605-1.091,1.524Zm-2.211,4.589h1.4c.975,0,2.737-.259,3.17-3.081.284-1.849-.517-3.032-2.342-3.032h-1.29Z" fill-rule="evenodd"/><polygon points="14.161 19.551 17.142 19.551 17.363 18.108 15.987 18.108 16.13 17.175 17.365 17.175 17.586 15.732 16.351 15.732 16.482 14.881 17.858 14.881 18.08 13.438 15.099 13.438 14.161 19.551" fill-rule="evenodd"/><path d="M20.19259,16.25858l.232-1.508c.444-.024.724.203.642.738a.84588.84588,0,0,1-.773.778Zm2.114,3.292-.805-2.546a1.86974,1.86974,0,0,0,1.156-1.532c.247-1.614-.695-2.035-2.087-2.035h-1.549l-.938,6.113h1.604l.25-1.62994c.046-.3.077-.6.115-.9l.018-.016.498,2.546Z" fill-rule="evenodd"/><path d="M25.00908,15.8126l.162-1.054h.157c.33,0,.551.15405.495.519a.64815.64815,0,0,1-.72.535Zm-.371,2.416.181-1.175h.125c.37,0,.651.17.587.584a.70572.70572,0,0,1-.759.591Zm-1.807,1.322h2.155a2.0297,2.0297,0,0,0,2.139-1.743c.126-.819-.214-1.322-.99-1.387l.002-.01605a1.35483,1.35483,0,0,0,1.297-1.224c.203-1.322-.834-1.743-1.777-1.743h-1.888Z" fill-rule="evenodd"/><path d="M29.55086,16.49387c.058-.381.272-1.62195.878-1.62195.605,0,.439,1.241.38,1.62195-.058.381-.272,1.622-.878,1.622s-.439-1.241-.38-1.622m-1.636,0c-.229,1.492.152,3.162,1.78,3.162s2.521-1.67,2.75-3.162-.152-3.162-1.78-3.162-2.521,1.67-2.75,3.162" fill-rule="evenodd"/><path d="M34.85387,16.25858l.232-1.508c.444-.024.724.203.642.738a.84588.84588,0,0,1-.773.778Zm2.114,3.292-.805-2.546a1.86974,1.86974,0,0,0,1.156-1.532c.247-1.614-.695-2.035-2.087-2.035h-1.549l-.938,6.113h1.604l.25-1.62994c.046-.3.077-.6.115-.9l.018-.016.498,2.546Z" fill-rule="evenodd"/><path d="M37.4923,19.55058h1.541l.275-1.792c.089-.575.105-1.143.154-1.719l.018-.016.654,3.527h1.542l.938-6.113h-1.541l-.239,1.556c-.108.706-.098,1.403-.143,2.108l-.018.017-.717-3.681h-1.526Z" fill-rule="evenodd"/><path d="M31.50228,3.53367a2.38684,2.38684,0,0,0-.908-.162c-.864,0-2.888.513-2.888,3.554,0,2.321,1.239,3.46405,2.696,3.46405a2.4692,2.4692,0,0,0,1.074-.243l.104-1.898a1.27683,1.27683,0,0,1-.942.432c-.89,0-1.117-1.008-1.117-1.8,0-.747.227-1.799,1.152-1.799a1.07089,1.07089,0,0,1,.829.396Zm-7.618,6.577a3.41487,3.41487,0,0,0,1.335.27905,2.13041,2.13041,0,0,0,2.095-2.267,1.97753,1.97753,0,0,0-.323-1.179,3.324,3.324,0,0,0-.873-.828,3.0722,3.0722,0,0,1-.323-.278.58356.58356,0,0,1-.174-.378.44665.44665,0,0,1,.462-.414,1.44544,1.44544,0,0,1,1.047.72894v-2.061a2.71932,2.71932,0,0,0-1.265-.342,2.1075,2.1075,0,0,0-2.007,2.232,2.0015,2.0015,0,0,0,.358,1.187,4.33577,4.33577,0,0,0,.881.864,1.454,1.454,0,0,1,.297.261.54085.54085,0,0,1,.139.378.485.485,0,0,1-.523.45,1.5033,1.5033,0,0,1-1.126-.756Z" fill-rule="evenodd"/><path d="M35.18868,32.31046a.41377.41377,0,0,0-.131.301.39521.39521,0,1,0,.79.01.41122.41122,0,0,0-.137-.31Zm-1.508,0,.15.674h.717l.178-.674Zm-1.23,0a.41768.41768,0,0,0-.131.301.39521.39521,0,1,0,.79.01.40773.40773,0,0,0-.137-.31Zm-2.015,0a.82454.82454,0,0,0,1.628.037h-.663a.153.153,0,0,1-.148.132c-.096,0-.135-.082-.15-.169Zm-3.782,0-.315.674h1.911l.295-.674Zm-4.494,0a2.02,2.02,0,0,0,3.207-.001Z" fill="#fff" fill-rule="evenodd"/><path d="M31.094,31.81449c-.003-.096.038-.238.152-.238.12,0,.158.13495.162.238Zm-7.331-4.165c.541,0,.576,1.178.576,1.943s-.035,1.943-.576,1.943-.576-1.178-.576-1.943.035-1.943.576-1.943M35.71,32.31046a.41234.41234,0,0,0-.273-.101.36448.36448,0,0,0-.248.102Zm-.984,0,.529-2.007h-.762l-.193,1.102c-.038.217-.049.43-.08.647h-.006c-.028-.217-.045-.43-.076-.647l-.166-1.102h-.738l.447,2.007Zm-1.754,0a.41041.41041,0,0,0-.273-.101.36448.36448,0,0,0-.248.102Zm-1.869,0a.71637.71637,0,0,1-.009-.119h.993a1.32439,1.32439,0,0,0-.196-.818.71908.71908,0,0,0-.614-.306.90561.90561,0,0,0-.859,1.014,1.421,1.421,0,0,0,.018.23Zm-2.558,0,2.672-6.11H26.54v1.566h2.234l-2.121,4.54395Zm-3.178,0a4.69751,4.69751,0,0,0,.726-2.718c0-1.502-.497-3.509-2.33-3.509-1.832,0-2.33,2.007-2.33,3.509a4.693,4.693,0,0,0,.727,2.717Z" fill="#fff" fill-rule="evenodd"/><path d="M11.66439,12.54276h-1.125a17.9967,17.9967,0,0,1,17.374-12.332,18.64006,18.64006,0,0,1,18.499,19.338h-1.124a17.52639,17.52639,0,0,0-17.375-18.214,16.88969,16.88969,0,0,0-16.249,11.20795" fill="#005ca8"/></svg>