<?xml version="1.0" encoding="utf-8"?>
<!-- Generator: Adobe Illustrator 13.0.2, SVG Export Plug-In . SVG Version: 6.00 Build 14948)  -->
<!DOCTYPE svg PUBLIC "-//W3C//DTD SVG 1.0//EN" "http://www.w3.org/TR/2001/REC-SVG-20010904/DTD/svg10.dtd">
<svg version="1.0" id="Ebene_1" xmlns="http://www.w3.org/2000/svg" xmlns:xlink="http://www.w3.org/1999/xlink" x="0px" y="0px"
	 width="276.531343826" height="361.622659538" viewBox="0 0 403.179 527.241" enable-background="new 0 0 403.179 527.241"
	 xml:space="preserve">
<path fill-rule="evenodd" clip-rule="evenodd" d="M201.68,0c55.499,0,105.965,29.728,142.586,77.615
	c36.378,47.708,58.913,113.577,58.913,186.037c0,72.463-22.535,138.211-58.913,186.035c-36.621,47.83-87.088,77.555-142.586,77.555
	c-55.739,0-106.204-29.725-142.764-77.555C22.475,401.862,0,336.114,0,263.651c0-72.46,22.475-138.328,58.916-186.037
	C95.476,29.728,145.941,0,201.68,0L201.68,0z"/>
<path fill-rule="evenodd" clip-rule="evenodd" fill="#EACC00" d="M201.68,4.015c-54.3,0-103.626,29.008-139.288,75.938
	C26.432,127,4.135,191.971,4.135,263.651c0,71.561,22.296,136.529,58.257,183.58c35.662,46.928,84.987,76.055,139.288,76.055
	c54.063,0,103.387-29.127,139.167-76.055c35.9-47.051,58.137-112.02,58.137-183.58c0-71.681-22.236-136.651-58.137-183.699
	C305.067,33.023,255.743,4.015,201.68,4.015L201.68,4.015z"/>
<path fill-rule="evenodd" clip-rule="evenodd" d="M201.68,18.458c35.483,0,68.747,13.667,96.916,37.34
	c29.007,24.393,52.562,59.455,67.726,100.929l0.598,1.919l-1.857,0.659c-21.636,7.972-47.288,14.383-75.577,18.699
	c-27.149,4.195-56.877,6.533-87.804,6.533c-31.106,0-60.832-2.338-88.043-6.533c-28.291-4.315-53.941-10.727-75.458-18.699
	l-1.978-0.659l0.719-1.919c15.044-41.474,38.599-76.537,67.607-100.929C132.756,32.125,166.08,18.458,201.68,18.458L201.68,18.458z"
	/>
<path fill-rule="evenodd" clip-rule="evenodd" d="M370.935,170.454l0.601,2.218c4.315,14.323,7.67,29.188,9.888,44.711
	c2.159,15.042,3.296,30.505,3.296,46.449c0,10.607-0.539,20.978-1.497,31.226c-0.958,10.488-2.517,20.736-4.436,30.809l-0.539,2.396
	l-2.338-0.902c-21.996-8.332-48.847-15.1-79.113-19.775c-29.188-4.436-61.433-6.896-95.117-6.896
	c-33.923,0-66.167,2.461-95.355,6.896c-30.146,4.676-57.117,11.443-79.113,19.775l-2.338,0.902l-0.419-2.396
	c-1.979-10.072-3.478-20.32-4.436-30.809c-1.08-10.248-1.559-20.619-1.559-31.226c0-15.943,1.2-31.406,3.297-46.449
	c2.216-15.523,5.514-30.388,9.829-44.711l0.719-2.218l2.098,0.899c21.636,8.451,47.527,15.223,76.475,19.958
	c27.93,4.434,58.557,6.892,90.801,6.892c32.005,0,62.691-2.458,90.561-6.892c28.948-4.736,54.961-11.508,76.535-19.958
	L370.935,170.454L370.935,170.454z"/>
<path fill-rule="evenodd" clip-rule="evenodd" d="M375.491,340.608l-0.48,1.74c-12.466,49.025-36.141,91.096-66.826,120.768
	c-30.088,28.887-66.946,46.025-106.504,46.025c-39.797,0-76.657-17.139-106.623-46.025c-30.806-29.672-54.48-71.742-66.886-120.768
	l-0.42-1.74l1.679-0.598c22.175-8.033,48.847-14.508,78.754-18.943c28.767-4.313,60.353-6.592,93.497-6.592
	c32.963,0,64.61,2.279,93.259,6.592c29.906,4.436,56.698,10.91,78.753,18.943L375.491,340.608L375.491,340.608z"/>
<path fill-rule="evenodd" clip-rule="evenodd" fill="#172983" d="M337.132,163.86c8.631-2.278,16.781-4.854,24.454-7.611
	c-6.595-17.919-14.865-34.582-24.454-49.626V163.86L337.132,163.86z"/>
<path fill-rule="evenodd" clip-rule="evenodd" fill="#172983" d="M276.836,175.727c4.137-0.539,8.033-1.198,12.047-1.677
	c6.114-1.018,12.17-2.098,18.161-3.236V69.104c-3.656-3.596-7.371-6.952-11.206-10.189c-6.053-5.153-12.407-9.769-19.002-13.964
	V175.727L276.836,175.727z"/>
<path fill-rule="evenodd" clip-rule="evenodd" fill="#172983" d="M65.988,106.623c-9.59,15.044-17.801,31.707-24.453,49.626
	c7.671,2.757,15.822,5.333,24.453,7.611V106.623L65.988,106.623z"/>
<path fill-rule="evenodd" clip-rule="evenodd" fill="#172983" d="M126.283,44.95c-6.533,4.195-12.946,8.811-18.999,13.964
	c-3.776,3.237-7.553,6.593-11.089,10.189v101.71c5.874,1.138,11.927,2.218,18.161,3.236c3.895,0.479,7.91,1.138,11.927,1.677V44.95
	L126.283,44.95z"/>
<path fill-rule="evenodd" clip-rule="evenodd" fill="#FFED00" d="M307.044,170.814c10.488-2.038,20.558-4.375,30.088-6.954v-57.237
	c-8.93-13.964-19.058-26.61-30.088-37.519V170.814L307.044,170.814z"/>
<path fill-rule="evenodd" clip-rule="evenodd" fill="#FFED00" d="M96.195,69.104c-11.147,10.909-21.215,23.555-30.207,37.519v57.237
	c9.53,2.578,19.598,4.916,30.207,6.954V69.104L96.195,69.104z"/>
<path fill-rule="evenodd" clip-rule="evenodd" fill="#172983" d="M216.722,158.706v21.517c10.189-0.24,20.2-0.779,29.968-1.499
	v-59.335C236.682,132.514,226.674,145.581,216.722,158.706L216.722,158.706z"/>
<path fill-rule="evenodd" clip-rule="evenodd" fill="#172983" d="M156.429,119.029v59.695c9.829,0.719,19.838,1.258,30.088,1.499
	v-21.816C176.508,145.282,166.499,132.155,156.429,119.029L156.429,119.029z"/>
<path fill-rule="evenodd" clip-rule="evenodd" fill="#E32219" d="M241.056,56.818l0.899-1.2l1.078,0.899
	c1.438,1.258,2.578,2.517,3.656,4.015V30.267c-9.709-3.356-19.658-5.754-29.968-6.952v64.849
	C224.814,77.675,232.967,67.247,241.056,56.818L241.056,56.818z"/>
<path fill-rule="evenodd" clip-rule="evenodd" fill="#008F2F" d="M156.79,60.533c0.958-1.499,2.218-2.757,3.596-4.015l1.138-0.899
	l0.899,1.2c8.03,10.308,16.062,20.616,24.094,30.926v-64.43c-10.25,1.198-20.379,3.596-30.088,6.952v30.807
	C156.549,60.894,156.669,60.713,156.79,60.533L156.79,60.533z"/>
<path fill-rule="evenodd" clip-rule="evenodd" fill="#FFED00" d="M248.908,64.428c4.377,0.661,8.452,1.739,11.569,3.598
	c3.475,2.156,5.874,5.153,6.533,9.769c0.059,0.479,0.179,0.719,0.237,0.839c0.062,0,0.182,0.059,0.419,0.059l9.17-0.059V44.95
	c-9.589-6.053-19.658-10.907-30.146-14.684v30.267C247.589,61.792,248.31,63.05,248.908,64.428L248.908,64.428z"/>
<path fill-rule="evenodd" clip-rule="evenodd" fill="#FFED00" d="M262.273,112.437h-2.396v-0.12l-6.173,0.12
	c-0.539,0-1.078,0-1.377,0.179c-0.36,0.062-0.662,0.36-0.902,0.601c-1.617,2.098-3.176,4.135-4.734,6.173v59.335
	c10.31-0.719,20.379-1.737,30.146-2.997v-63.41L262.273,112.437L262.273,112.437z"/>
<path fill-rule="evenodd" clip-rule="evenodd" fill="#FFED00" d="M136.172,78.634c0.18-0.12,0.239-0.36,0.239-0.839
	c0.721-4.616,3.117-7.613,6.593-9.769c3.117-1.859,7.132-2.937,11.568-3.598c0.539-1.198,1.138-2.336,1.857-3.354V30.267
	c-10.428,3.776-20.558,8.631-30.146,14.684v33.684l9.529,0.059C135.992,78.693,136.172,78.634,136.172,78.634L136.172,78.634z"/>
<path fill-rule="evenodd" clip-rule="evenodd" fill="#FFED00" d="M151.995,113.216c-0.3-0.24-0.541-0.539-0.781-0.601
	c-0.479-0.179-0.898-0.179-1.557-0.179l-6.053-0.12v0.12h-2.398l-14.924-0.12v63.41c9.769,1.26,19.838,2.278,30.146,2.997v-59.695
	C154.931,117.111,153.492,115.194,151.995,113.216L151.995,113.216z"/>
<path fill-rule="evenodd" clip-rule="evenodd" fill="#FFED00" d="M201.74,178.365c-5.033-6.653-10.128-13.305-15.223-19.958v21.816
	c4.975,0.12,10.069,0.18,15.163,0.18c5.035,0,10.009-0.06,15.042-0.18v-21.517C211.689,165.239,206.714,171.832,201.74,178.365
	L201.74,178.365z"/>
<path fill-rule="evenodd" clip-rule="evenodd" fill="#FFFFFF" d="M201.74,107.342c4.975-6.413,9.949-12.826,14.982-19.179V23.314
	c-5.033-0.539-10.008-0.839-15.042-0.839c-5.093,0-10.188,0.3-15.163,0.839v64.43C191.612,94.277,196.645,100.809,201.74,107.342
	L201.74,107.342z"/>
<path fill-rule="evenodd" clip-rule="evenodd" fill="#EACC00" d="M190.352,116.512l-0.539,8.092c7.912,0,15.943,0,23.974,0
	l-0.539-8.092C205.576,116.512,198.023,116.512,190.352,116.512L190.352,116.512z"/>
<path fill-rule="evenodd" clip-rule="evenodd" fill="#EACC00" d="M188.855,138.089l-0.539,8.09c8.988,0,17.979,0,26.971,0
	l-0.659-8.09C206.117,138.089,197.484,138.089,188.855,138.089L188.855,138.089z"/>
<polygon fill-rule="evenodd" clip-rule="evenodd" fill="#EACC00" points="213.069,113.875 211.991,98.711 202.879,110.399 
	201.74,111.778 191.612,98.711 190.532,113.875 213.069,113.875 "/>
<polygon fill-rule="evenodd" clip-rule="evenodd" fill="#EACC00" points="214.446,135.391 213.907,127.301 189.633,127.301 
	189.034,135.391 214.446,135.391 "/>
<polygon fill-rule="evenodd" clip-rule="evenodd" fill="#EACC00" points="201.74,173.87 215.884,155.35 215.465,148.816 
	188.134,148.816 187.655,155.35 201.74,173.87 "/>
<path fill-rule="evenodd" clip-rule="evenodd" fill="#EACC00" d="M140.607,109.74c-1.08-2.758-1.438-5.754-1.799-8.811
	c-0.719-5.754-2.997-11.566-10.25-13.485v22.296H140.607L140.607,109.74z"/>
<path fill-rule="evenodd" clip-rule="evenodd" fill="#EACC00" d="M262.812,109.74c1.14-2.758,1.5-5.754,1.86-8.811
	c0.718-5.754,2.994-11.566,10.248-13.485v22.296H262.812L262.812,109.74z"/>
<path fill-rule="evenodd" clip-rule="evenodd" fill="#EACC00" d="M159.007,61.972c-0.899,1.318-1.619,2.638-2.218,4.075l-0.24,0.839
	l-0.839,0.062c-2.218,0.299-4.314,0.718-6.293,1.258c-1.857,0.539-3.596,1.258-4.975,2.038c-2.877,1.677-4.734,4.194-5.273,7.91
	c-0.18,1.08-0.541,1.799-1.08,2.338c-0.599,0.601-1.438,0.779-2.278,0.779H128.5v3.237c9.769,2.216,12.167,9.168,13.065,16.181
	c0.36,3.177,0.719,6.413,2.039,9.051h5.813h0.24c1.018,0,1.797,0.119,2.517,0.359c0.779,0.36,1.499,0.839,2.038,1.619l30.867,40.336
	l3.955-56.698l-27.869-35.78C160.386,60.293,159.667,61.194,159.007,61.972L159.007,61.972z M142.465,80.852l0.18-1.378
	c0.059-1.499,0.959-2.937,2.218-3.896c1.138-0.959,2.757-1.499,4.554-1.499s3.296,0.539,4.556,1.499
	c1.198,0.959,2.038,2.398,2.218,3.896l0.179,1.378H142.465L142.465,80.852z"/>
<path fill-rule="evenodd" clip-rule="evenodd" fill="#EACC00" d="M267.667,81.271c-0.958,0-1.676-0.179-2.276-0.779
	c-0.539-0.539-0.899-1.258-1.078-2.338c-0.539-3.716-2.517-6.233-5.273-7.91c-1.5-0.779-3.117-1.499-4.978-2.038
	c-1.916-0.541-4.072-0.959-6.293-1.258l-0.838-0.062l-0.357-0.839c-0.48-1.437-1.201-2.757-2.101-4.075
	c-0.659-0.778-1.318-1.679-2.156-2.396l-27.75,35.78l3.896,56.698l30.806-40.336c0.539-0.779,1.26-1.258,2.036-1.619
	c0.721-0.24,1.5-0.359,2.399-0.359h0.357h5.695c1.38-2.638,1.799-5.874,2.159-9.051c0.776-7.012,3.296-13.964,13.005-16.181v-3.237
	H267.667L267.667,81.271z M247.112,80.852l0.117-1.378c0.182-1.499,1.081-2.937,2.279-3.896s2.818-1.499,4.553-1.499
	c1.682,0,3.299,0.539,4.556,1.499c1.26,0.959,2.039,2.398,2.218,3.896l0.182,1.378H247.112L247.112,80.852z"/>
<path fill-rule="evenodd" clip-rule="evenodd" fill="#172983" d="M65.988,420.8v-87.445c-11.927,2.936-23.134,6.234-33.264,9.773
	C40.217,371.892,51.604,398.206,65.988,420.8L65.988,420.8z"/>
<path fill-rule="evenodd" clip-rule="evenodd" fill="#172983" d="M96.195,327.12v131.379c0.539,0.48,1.14,1.137,1.799,1.676
	c8.87,8.631,18.28,16.125,28.289,22.359V322.749c-5.874,0.715-11.748,1.494-17.44,2.338
	C104.527,325.685,100.271,326.405,96.195,327.12L96.195,327.12z"/>
<path fill-rule="evenodd" clip-rule="evenodd" fill="#172983" d="M337.132,333.354V420.8c14.505-22.594,25.89-48.908,33.384-77.672
	C360.265,339.589,349.118,336.29,337.132,333.354L337.132,333.354z"/>
<path fill-rule="evenodd" clip-rule="evenodd" fill="#172983" d="M276.836,322.749v159.785
	c10.011-6.234,19.541-13.729,28.409-22.359c0.539-0.539,1.14-1.195,1.799-1.676V327.12c-4.195-0.715-8.449-1.436-12.765-2.033
	C288.584,324.243,282.831,323.464,276.836,322.749L276.836,322.749z"/>
<path fill-rule="evenodd" clip-rule="evenodd" fill="#FFED00" d="M337.132,333.354c-9.53-2.338-19.6-4.371-30.088-6.234v131.379
	c11.03-10.969,21.158-23.613,30.088-37.699V333.354L337.132,333.354z"/>
<path fill-rule="evenodd" clip-rule="evenodd" fill="#FFED00" d="M96.195,327.12c-10.488,1.863-20.558,3.896-30.207,6.234V420.8
	c8.991,14.086,19.059,26.73,30.207,37.699V327.12L96.195,327.12z"/>
<path fill-rule="evenodd" clip-rule="evenodd" fill="#172983" d="M246.69,352.837v-32.848c-9.768-0.656-19.778-1.078-29.968-1.318
	v34.166H246.69L246.69,352.837z"/>
<path fill-rule="evenodd" clip-rule="evenodd" fill="#172983" d="M244.173,448.79c-3.117,2.994-7.731,4.676-14.145,4.676h-13.307
	v50.766c10.31-1.143,20.259-3.598,29.968-7.014v-51.727C246.031,446.692,245.193,447.829,244.173,448.79L244.173,448.79z"/>
<path fill-rule="evenodd" clip-rule="evenodd" fill="#172983" d="M186.517,352.837v-34.166c-10.25,0.24-20.259,0.662-30.088,1.318
	v32.848H186.517L186.517,352.837z"/>
<path fill-rule="evenodd" clip-rule="evenodd" fill="#172983" d="M173.15,453.466c-6.472,0-11.087-1.682-14.203-4.676
	c-1.02-0.961-1.799-2.098-2.518-3.299v51.727c9.709,3.416,19.838,5.871,30.088,7.014v-50.766H173.15L173.15,453.466z"/>
<path fill-rule="evenodd" clip-rule="evenodd" fill="#FFED00" d="M246.69,319.989v32.848h2.399v82.049
	c0,4.137-0.779,7.729-2.399,10.605v51.727c10.488-3.656,20.558-8.689,30.146-14.684V322.749
	C267.069,321.606,257,320.71,246.69,319.989L246.69,319.989z"/>
<path fill-rule="evenodd" clip-rule="evenodd" fill="#FFED00" d="M216.722,352.837v-34.166c-5.033-0.117-10.008-0.182-15.042-0.182
	c-5.093,0-10.188,0.064-15.163,0.182v34.166H216.722L216.722,352.837z"/>
<path fill-rule="evenodd" clip-rule="evenodd" fill="#FFED00" d="M214.446,453.466c-2.575,0-4.676,1.078-6.592,2.695
	c-2.039,1.682-3.716,4.014-5.215,6.234l-0.959,1.436l-1.078-1.436c-1.559-2.221-3.236-4.553-5.155-6.234
	c-1.917-1.617-4.135-2.695-6.712-2.695h-2.218v50.766c4.975,0.539,10.069,0.896,15.163,0.896c5.035,0,10.009-0.357,15.042-0.896
	v-50.766H214.446L214.446,453.466z"/>
<path fill-rule="evenodd" clip-rule="evenodd" fill="#FFED00" d="M154.033,434.886v-82.049h2.396v-32.848
	c-10.308,0.721-20.377,1.617-30.146,2.76v159.785c9.589,5.994,19.718,11.027,30.146,14.684v-51.727
	C154.812,442.556,154.033,439.022,154.033,434.886L154.033,434.886z"/>
<path fill-rule="evenodd" clip-rule="evenodd" fill="#EACC00" d="M246.573,434.886c0,5.156-1.201,9.352-4.078,12.105
	c-2.637,2.578-6.771,4.014-12.466,4.014h-15.583c-3.176,0-5.933,1.318-8.15,3.299c-1.799,1.5-3.296,3.357-4.616,5.215
	c-1.437-1.857-2.936-3.715-4.674-5.215c-2.278-1.98-4.975-3.299-8.271-3.299H173.15c-5.752,0-9.828-1.436-12.526-4.014
	c-2.877-2.754-4.075-6.949-4.075-12.105v-79.652h90.023V434.886L246.573,434.886z M162.784,361.286v70.125
	c0,4.793,0.598,8.086,2.637,10.307c1.978,2.279,5.333,3.234,10.787,3.234h14.565c2.158,0,4.015,0.721,5.634,1.857
	c1.679,1.143,3.176,2.877,4.375,4.74l0.898,1.254l0.779-1.254c1.258-1.863,2.636-3.598,4.375-4.74l0,0
	c1.559-1.137,3.475-1.857,5.695-1.857h14.502c5.396,0,8.692-0.955,10.729-3.234c2.098-2.221,2.637-5.514,2.637-10.307v-70.125
	H162.784L162.784,361.286z"/>
<path fill-rule="evenodd" clip-rule="evenodd" fill="#172983" d="M238.419,363.325h-73.718v68.086c0,4.254,0.539,7.131,2.156,8.93
	c1.619,1.734,4.437,2.578,9.35,2.578h14.565c2.577,0,4.854,0.773,6.772,2.215c1.499,1.078,2.937,2.455,4.135,4.078
	c1.138-1.623,2.458-3,3.957-4.078l0,0c1.978-1.441,4.195-2.215,6.894-2.215h14.502c4.796,0,7.611-0.844,9.352-2.578
	c1.559-1.799,2.036-4.676,2.036-8.93V363.325L238.419,363.325z"/>
<path fill-rule="evenodd" clip-rule="evenodd" fill="#EACC00" d="M164.701,407.317v5.514h25.891v30.088h0.18
	c1.737,0,3.236,0.357,4.674,0.955v-36.557H164.701L164.701,407.317z"/>
<polygon fill-rule="evenodd" clip-rule="evenodd" fill="#EACC00" points="195.447,396.108 195.447,363.325 190.592,363.325 
	190.592,391.55 164.701,391.55 164.701,396.108 195.447,396.108 "/>
<path fill-rule="evenodd" clip-rule="evenodd" fill="#EACC00" d="M204.857,398.147v-34.822h-7.491v34.822h-32.665v7.131h32.665
	v39.732c0.119,0,0.179,0.123,0.179,0.123c1.499,1.078,2.937,2.455,4.135,4.078c0.839-1.26,2.038-2.461,3.177-3.48v-40.453h33.563
	v-7.131H204.857L204.857,398.147z"/>
<path fill-rule="evenodd" clip-rule="evenodd" fill="#EACC00" d="M206.834,407.317v37.096c1.679-0.955,3.536-1.494,5.695-1.494
	h0.179v-30.088h25.711v-5.514H206.834L206.834,407.317z"/>
<polygon fill-rule="evenodd" clip-rule="evenodd" fill="#EACC00" points="212.708,391.55 212.708,363.325 206.834,363.325 
	206.834,396.108 238.419,396.108 238.419,391.55 212.708,391.55 "/>
<path fill-rule="evenodd" clip-rule="evenodd" fill="#FFFFFF" d="M368.178,175.967c-21.337,8.092-46.928,14.804-75.278,19.299
	c-28.169,4.556-59.036,7.072-91.22,7.072c-32.424,0-63.29-2.517-91.459-7.072c-28.349-4.496-53.823-11.208-75.278-19.299
	c-3.895,13.425-6.954,27.45-8.99,41.955c-2.099,14.864-3.297,30.207-3.297,45.91c0,10.49,0.541,20.738,1.499,30.869
	c0.899,9.527,2.278,18.756,3.955,27.926c21.817-7.969,48.129-14.502,77.616-18.996c29.369-4.494,61.852-6.955,95.955-6.955
	c33.983,0,66.347,2.461,95.714,6.955c29.49,4.494,55.919,11.027,77.616,18.996c1.799-9.17,3.117-18.398,4.017-27.926
	c0.958-10.131,1.438-20.379,1.438-30.869c0-15.703-1.078-31.046-3.237-45.91C375.13,203.417,372.075,189.393,368.178,175.967
	L368.178,175.967z"/>
<path fill-rule="evenodd" clip-rule="evenodd" d="M289.065,279.835c-1.857-4.02-9.29-19.778-11.147-23.556
	c-2.396,0-18.58,0-24.214,0c0,5.874,0,29.609,0,35.603c5.455,0.416,10.849,0.955,16.362,1.5c0-3.838,0-18.943,0-22.775
	c0.179,0.357,0.36,0.715,0.539,1.137c1.737,3.475,8.751,18.762,10.608,22.893c8.092,1.143,16.181,2.279,24.214,3.539
	c0-6.955,0-34.882,0-41.834c-5.455,0-10.849-0.062-16.362-0.062C289.065,260.175,289.065,275.997,289.065,279.835L289.065,279.835z"
	/>
<path fill-rule="evenodd" clip-rule="evenodd" d="M149.597,234.883c-6.533-0.18-13.005-0.359-19.479-0.539c0-1.559,0-3.117,0-4.676
	c5.874,0.18,11.628,0.42,17.502,0.601c0-3.357,0-6.773,0-10.069c-5.874-0.36-11.628-0.719-17.502-1.08c0-1.378,0-2.937,0-4.315
	c6.293,0.42,12.527,0.839,18.82,1.2c0-3.297,0-6.653,0-9.951c-12.706-1.138-25.352-2.457-37.998-4.194c0,7.251,0,35.9,0,43.093
	c12.945,0,25.711,0,38.657,0C149.597,243.274,149.597,236.562,149.597,234.883L149.597,234.883z"/>
<path fill-rule="evenodd" clip-rule="evenodd" d="M263.172,238.718c2.458-0.059,12.287-0.239,14.684-0.239
	c0.601,2.098,1.14,4.315,1.74,6.473c6.952,0,14.024,0,20.915-0.062c-2.637-7.311-13.304-35.241-16.002-41.953
	c-4.614,0.539-9.229,1.078-13.904,1.499c-3.955,0.479-7.913,0.839-11.807,1.198c-2.877,6.773-13.966,33.025-16.723,39.438
	c6.293,0,12.706-0.12,19.119-0.12C261.795,242.915,262.513,240.756,263.172,238.718L263.172,238.718z M270.605,213.248
	c0-0.18,0.12-0.36,0.12-0.541c0.718,2.638,3.656,13.126,4.374,15.763c-1.438,0.12-2.936,0.18-4.494,0.18
	c-1.497,0.12-2.997,0.179-4.494,0.179C266.89,226.192,269.826,215.764,270.605,213.248L270.605,213.248z"/>
<path fill-rule="evenodd" clip-rule="evenodd" d="M353.914,256.519c-4.676-0.059-22.295-0.059-26.432-0.179
	c-2.815,7.671-14.203,36.081-17.08,42.731c6.592,1.26,13.125,2.52,19.658,3.896c0.659-2.279,1.257-4.611,1.978-6.949
	c2.517,0.48,12.527,2.514,15.044,3.053c0.601,2.818,1.257,5.695,1.857,8.514c7.134,1.975,14.265,4.137,21.396,6.41
	C367.578,303.688,356.612,265.45,353.914,256.519L353.914,256.519z M339.708,285.53c-1.617-0.24-3.114-0.422-4.614-0.721
	c0.659-3,1.5-6.053,2.279-9.053c0.718-2.877,1.497-5.813,2.335-8.748c0-0.24,0.062-0.422,0.062-0.721
	c0.838,3.299,1.559,6.592,2.338,9.891c0.718,3.299,1.438,6.715,2.218,10.066C342.705,286.005,341.208,285.829,339.708,285.53
	L339.708,285.53z"/>
<path fill-rule="evenodd" clip-rule="evenodd" d="M73.121,226.252c2.937,0.3,6.053,0.479,9.11,0.719c0,3.057,0,14.864,0,17.919
	c6.293,0,12.646,0,18.939,0c0-7.431,0-37.039,0-44.41c-6.293-1.08-12.646-2.278-18.939-3.478c0,2.758,0,13.487,0,16.182
	c-3.057-0.479-6.173-0.898-9.11-1.317c0-2.758,0-14.026,0-16.783c-6.413-1.378-12.706-2.997-19.059-4.676c0,9.051,0,45.312,0,54.362
	c6.353,0,12.646,0,19.059,0C73.121,241.775,73.121,229.37,73.121,226.252L73.121,226.252z"/>
<path fill-rule="evenodd" clip-rule="evenodd" d="M240.517,245.073c0-1.739,0-8.511,0-10.189c-6.114,0.119-12.167,0.18-18.278,0.299
	c0-4.674,0-22.774,0-27.45c-0.721,0-1.438,0.12-2.159,0.12c-5.813,0.06-11.687,0.18-17.44,0.24c0,6.173,0,30.807,0,36.98
	C208.393,245.073,233.685,245.073,240.517,245.073L240.517,245.073z"/>
<path fill-rule="evenodd" clip-rule="evenodd" d="M196.226,245.073c0-1.739,0-8.212,0-9.891c-6.173,0-12.286,0-18.4-0.119
	c0-4.556,0-22.775,0-27.391c-4.315-0.179-8.631-0.359-12.946-0.539c-2.216-0.179-4.434-0.299-6.652-0.419c0,6.353,0,31.945,0,38.358
	C160.446,245.073,185.796,245.073,196.226,245.073L196.226,245.073z"/>
<path fill-rule="evenodd" clip-rule="evenodd" d="M339.708,242.735c1.081-0.539,2.101-1.26,3.117-2.038
	c4.198-3.416,6.234-8.212,6.234-13.966c0-4.314-1.198-7.611-3.656-9.649c-1.257-1.14-3.237-2.038-5.695-2.757
	c-2.335-0.599-4.972-1.14-8.209-1.499c-0.899-0.18-2.098-0.239-3.536-0.419c-4.137-0.36-6.173-1.438-6.173-3.117
	c0-1.018,0.357-1.797,1.078-2.517c0.721-0.721,1.679-1.14,2.936-1.438c1.441-0.18,2.52-0.06,3.237,0.539
	c0.659,0.659,1.14,1.619,1.198,3.117c3.117-0.541,14.326-2.458,16.843-2.938c0-0.359,0-0.778,0-1.138
	c0-4.734-1.799-8.03-5.273-9.649c-0.659-0.36-1.38-0.599-2.101-0.779c-3.416-0.779-7.729-0.539-13.184,0.599
	c-7.313,1.619-12.885,3.955-17.021,7.132c-4.075,3.237-6.114,6.892-6.114,11.328c0,2.997,0.961,5.335,2.938,7.132
	c1.978,1.739,5.092,3.117,9.349,3.957c1.799,0.479,4.195,0.838,7.192,1.378c3.056,0.419,4.975,0.898,5.994,1.317
	c0.598,0.182,1.02,0.601,1.318,1.14c0.36,0.659,0.539,1.258,0.539,2.158c0,1.078-0.48,2.038-1.26,2.697s-1.978,1.02-3.354,1.138
	c-1.737,0.062-2.877-0.299-3.656-1.018c-0.841-0.779-1.26-1.917-1.26-3.536c0-0.18,0-0.24,0-0.42
	c-6.053,0.42-12.105,0.781-18.161,1.02c-0.12,0.3-0.12,0.479-0.12,0.659c0,0.24,0,0.601,0,0.959c0,4.374,1.98,7.671,5.874,10.008
	c3.958,2.279,9.53,3.538,16.843,3.538C331.258,245.672,335.873,244.712,339.708,242.735L339.708,242.735z"/>
<path fill-rule="evenodd" clip-rule="evenodd" d="M239.559,260.235c-4.556-3.117-10.907-4.614-19.418-4.614c0,0,0,0-0.062,0
	c-8.391,0-14.863,1.497-19.418,4.554c-2.278,1.499-4.017,3.356-5.155,5.515c-1.138,2.156-1.677,4.611-1.677,7.371
	c0,2.754,0.539,5.092,1.677,7.254c1.08,2.098,2.757,3.896,5.095,5.391c4.434,3.059,10.727,4.559,18.939,4.799
	c0.179,0,0.36,0,0.539,0c8.572,0.176,14.924-0.961,19.418-3.721c2.279-1.436,3.958-3.176,5.156-5.449
	c1.137-2.098,1.679-4.617,1.679-7.553s-0.542-5.514-1.679-7.734C243.456,263.832,241.777,261.854,239.559,260.235L239.559,260.235z
	 M226.493,279.835c-1.26,1.318-3.416,1.975-6.413,1.857c-3.056,0-5.153-0.721-6.413-1.916c-1.257-1.26-1.857-3.416-1.857-6.598
	c0-3.416,0.721-5.689,1.857-6.949c1.26-1.14,3.357-1.799,6.413-1.799c0.062,0,0.062,0,0.062,0c3.056,0,5.212,0.659,6.413,1.799
	c1.257,1.137,1.796,3.357,1.796,6.475C228.35,276.179,227.752,278.517,226.493,279.835L226.493,279.835z"/>
<path fill-rule="evenodd" clip-rule="evenodd" d="M112.318,280.913c5.933-0.539,11.927-0.961,17.859-1.436c0-3.117,0-6.299,0-9.533
	c-5.933,0.299-11.927,0.539-17.859,0.902c0-1.5,0-2.941,0-4.377c6.413-0.24,12.766-0.422,19.179-0.601c0-3.176,0-6.413,0-9.59
	c-12.946,0-25.893,0-38.779,0.062c0,7.132,0,35.6,0,42.731c13.187-2.156,26.312-4.072,39.498-5.631c0-1.559,0-8.092,0-9.65
	c-6.653,0.598-13.367,1.137-19.898,1.857C112.318,284.03,112.318,282.53,112.318,280.913L112.318,280.913z"/>
<path fill-rule="evenodd" clip-rule="evenodd" d="M178.307,272.704c3.416-0.604,5.873-1.559,7.671-2.941
	c1.677-1.318,2.577-2.994,2.577-4.974c0-3.115-1.559-5.333-4.676-6.651c-3.056-1.258-8.569-1.978-16.302-1.978
	c-0.898,0-18.639,0.119-26.55,0.119c0,6.054,0,30.265,0,36.324c6.533-0.662,13.006-1.201,19.478-1.559c0-2.098,0-4.26,0-6.293
	c0-2.162,0-4.26,0-6.357c0.3-0.059,1.438-0.176,1.919-0.176c0.899-0.064,1.737,0.117,2.457,0.475
	c3.656,1.623,4.556,7.313,5.634,11.748c6.593-0.299,13.187-0.48,19.838-0.656C188.196,281.81,186.517,273.782,178.307,272.704
	L178.307,272.704z M167.278,269.587c-0.599,0.299-1.378,0.539-2.398,0.715c-0.899,0.182-1.857,0.305-2.937,0.305
	c-0.359,0.059-0.599,0.059-0.778,0.059c-0.18-0.059-0.48-0.059-0.541-0.059c0-2.162,0-4.377,0-6.595c0.24,0,0.599,0,0.899,0
	c0.359-0.12,0.719-0.12,1.318-0.12c0.719,0,1.438,0,2.038,0.12c1.2,0.06,2.039,0.239,2.757,0.6c1.02,0.479,1.559,1.258,1.559,2.339
	C169.195,268.028,168.536,268.925,167.278,269.587L167.278,269.587z"/>
<path fill-rule="evenodd" clip-rule="evenodd" d="M58.617,289.485L48.548,256.34c-6.892,0-12.706,0-19.538,0.12
	c4.255,17.082,13.065,35.48,18.338,53.099c8.691-2.396,13.605-3.475,22.417-5.514l18.4-47.706l-19.419,0.12L58.617,289.485
	L58.617,289.485z"/>
</svg>
