<?xml version="1.0" encoding="UTF-8" standalone="no"?>
<svg
   xmlns:dc="http://purl.org/dc/elements/1.1/"
   xmlns:cc="http://creativecommons.org/ns#"
   xmlns:rdf="http://www.w3.org/1999/02/22-rdf-syntax-ns#"
   xmlns:svg="http://www.w3.org/2000/svg"
   xmlns="http://www.w3.org/2000/svg"
   xml:space="preserve"
   enable-background="new 0 0 507.388 610.088"
   viewBox="0 0 211.91573 253.99999"
   height="254"
   width="211.91573"
   y="0px"
   x="0px"
   id="Ebene_1"
   version="1.0"><metadata
   id="metadata107"><rdf:RDF><cc:Work
       rdf:about=""><dc:format>image/svg+xml</dc:format><dc:type
         rdf:resource="http://purl.org/dc/dcmitype/StillImage" /><dc:title></dc:title></cc:Work></rdf:RDF></metadata><defs
   id="defs105" />
<path
   style="fill:#dabd94;stroke-width:0.40977702"
   id="path2"
   d="M 105.95991,252 C 159.32067,212.35612 184.65144,141.00083 184.65144,141.00083 213.32395,66.329624 209.7761,7.1463444 209.7761,7.1463444 148.58287,15.936064 106.32134,2.1171544 105.95991,2.0003644 v 0 0 c 0,-8.2e-4 0,0 0,0 v 0 c -0.37453,0.12253 -42.63689,13.9356996 -103.8198783,5.14598 0,0 -3.5519472,59.1832796 25.1222003,133.8544856 -4.1e-4,0 25.329138,71.35529 78.697678,110.99917 z" />
<path
   style="fill:#005b81;stroke-width:0.40977702"
   id="path4"
   d="m 105.95991,5.7137644 c 7.08259,2.13494 45.64384,12.5096796 100.25769,5.4430696 0.0102,0.66671 0.0193,1.38546 0.0193,2.21976 0,16.80947 -2.16813,66.8793 -25.02222,126.392446 -0.27701,0.77448 -24.93411,68.85852 -75.25473,107.69555 C 55.633144,208.62756 30.973583,140.54352 30.726077,139.85017 7.8469963,80.262454 5.6792759,30.177044 5.6792759,13.370864 c 0,-0.83308 0.00738,-1.54732 0.014752,-2.21403 C 60.248463,18.211964 98.856835,7.8458344 105.95991,5.7137644 Z" />
<path
   style="fill:#dabd94;stroke-width:0.40977702"
   id="path6"
   d="m 83.48323,16.410994 v 1.18713 h 2.40703 v 10.34687 c 0,0 -0.334787,5.12016 5.634844,5.09926 0,0 3.637181,0.19915 5.53158,-1.8821 0,0 -0.152027,1.93496 1.23261,1.8821 0,0 2.147636,-0.19833 5.375866,-1.53461 l -0.30856,-1.23589 c 0,0 -1.14205,0.51386 -1.94726,0.3938 0,0 -0.67163,0.0102 -0.66589,-1.23712 0,0 0,-10.84147 0.30733,-14.20738 l -4.042859,1.08919 v 12.07981 c 0,0 0.113918,2.71723 -4.151861,2.72338 0,0 -3.284773,0.0414 -3.278216,-3.66504 v -12.22734 c -4.1e-4,0 -2.148461,0.84209 -6.094614,1.18794 z" />
<path
   style="fill:#dabd94;stroke-width:0.40977702"
   id="path8"
   d="m 109.35041,31.212554 c 0,0.93101 -0.78022,1.68254 -1.74278,1.68254 -0.9597,0 -1.74401,-0.75153 -1.74401,-1.68254 0,-0.92856 0.78472,-1.68255 1.74401,-1.68255 0.96256,0 1.74278,0.75399 1.74278,1.68255 z" />
<path
   style="fill:#dabd94;stroke-width:0.40977702"
   id="path10"
   d="m 128.14852,31.212554 c 0,0.93101 -0.78145,1.68254 -1.74565,1.68254 -0.95806,0 -1.73828,-0.75153 -1.73828,-1.68254 0,-0.92856 0.78022,-1.68255 1.73828,-1.68255 0.9642,0 1.74565,0.75399 1.74565,1.68255 z" />
<path
   style="fill:#dabd94;stroke-width:0.40977702"
   id="path12"
   d="m 113.41458,28.977224 -1.79442,2.6447 c 0,0 1.54855,1.54117 5.23122,1.4924 0,0 6.62158,0.38397 7.01538,-5.53322 0,0 0.51509,-3.25485 -4.22849,-5.00501 0,0 -3.23396,-1.10681 -3.73102,-2.74305 0,0 -0.63392,-2.9004 2.51972,-2.9004 0,0 2.16977,0.0467 2.15584,1.249 v 1.50552 l 1.1445,-0.15694 0.64704,-3.688 c 0,0 -8.8098,-2.81476 -9.88751,3.84494 -0.0668,0.6286 -0.73924,3.46671 4.38093,5.19925 0,0 3.8142,1.32153 3.31837,3.91132 -0.21267,1.04411 -0.21267,2.60086 -3.10283,2.66478 -4.1e-4,4.1e-4 -1.84605,0.22292 -3.66873,-2.48529 z" />
<path
   style="fill:#dabd94;stroke-width:0.40977702"
   id="path14"
   d="m 47.177396,37.453454 c 0,0 -5.112788,1.4793 -9.75884,2.05422 l 0.265125,1.41168 3.186017,0.0639 c 0,0 0.586391,0.034 0.597455,1.21786 0,0 0.462638,14.63519 -0.03524,24.06334 h 17.321684 l 0.399942,-3.84822 c 0,0 -3.781832,1.82842 -11.845015,1.73172 -4.1e-4,0 -0.500338,-20.8806 -0.131128,-26.69452 z" />
<path
   style="fill:#dabd94;stroke-width:0.40977702"
   id="path16"
   d="m 72.592996,64.195914 c 0,0 -0.119245,-5.9389 -0.152437,-12.11833 1.318253,0.0246 6.223284,0.13686 8.963872,0.42411 0,0 0.05081,-1.87391 0.200791,-2.78976 0,0 -6.639207,0.61836 -9.172859,0.48272 -0.01188,-3.95968 0.025,-7.77224 0.155716,-9.95144 1.306369,0.0365 6.067568,0.18113 7.521867,0.47166 0,0 0.858073,0.13318 0.797016,0.96461 l 0.09958,2.83771 h 1.445693 c 0,0 0.746204,-5.43815 0.894134,-6.44743 l -13.889802,0.0971 c 0,0 -1.689101,0.3352 -2.486118,0.48026 l -4.084247,0.84824 c -0.02746,0.002 -0.05204,0.004 -0.07622,0.007 v 0.009 l -0.0098,0.003 0.0098,4.1e-4 0.260618,1.40226 3.188476,0.0631 c 0,0 0.588439,0.0328 0.597045,1.21868 0,0 0.363882,13.28948 0.0168,24.0658 l 17.819973,-0.003 0.399533,-3.85109 c -4.1e-4,4.1e-4 -4.433378,1.88006 -12.499429,1.78581 z" />
<path
   style="fill:#dabd94;stroke-width:0.40977702"
   id="path18"
   d="m 161.7531,64.195914 c 0,0 -0.11965,-5.9389 -0.15694,-12.11833 1.31866,0.0246 6.22451,0.13686 8.96838,0.42411 0,0 0.0471,-1.87391 0.19669,-2.78976 0,0 -6.63511,0.61836 -9.17122,0.48272 -0.0106,-3.95968 0.0254,-7.77224 0.15736,-9.95144 1.30596,0.0365 6.0647,0.18113 7.52104,0.47166 0,0 0.86013,0.13318 0.79702,0.96461 l 0.10081,2.83771 h 1.43913 c 0,0 0.75071,-5.43815 0.89864,-6.44743 l -13.88693,0.0971 c 0,0 -1.69566,0.3352 -2.49185,0.48026 l -4.08384,0.84824 c -0.0254,0.002 -0.0516,0.004 -0.0758,0.007 l 0.002,0.009 -0.0127,0.003 0.0127,4.1e-4 0.2598,1.40226 3.18642,0.0631 c 0,0 0.58926,0.0328 0.60115,1.21868 0,0 0.35978,13.28948 0.0131,24.0658 l 17.82038,-0.003 0.40035,-3.85109 c 4.1e-4,4.1e-4 -4.43173,1.88006 -12.49615,1.78581 z" />
<path
   style="fill:#dabd94;stroke-width:0.40977702"
   id="path20"
   d="m 112.52044,44.872884 1.76655,-0.23686 0.88512,-5.8594 c 0,0 -2.55373,-1.28383 -8.45288,-1.2367 0,0 -14.810165,-0.30488 -14.921214,15.95343 0,0 -0.810539,13.59108 13.598864,13.45585 0,0 6.22328,-0.0332 9.24375,-2.57258 v -2.84057 c 0,0 -2.93441,3.2065 -8.15825,3.2065 0,0 -7.177659,0.47207 -8.916343,-10.56528 0,0 -1.649762,-14.2545 9.246623,-14.45775 0,0 3.20568,-0.0369 5.05337,1.36988 0,0 0.56344,0.34913 0.60114,1.31211 z" />
<path
   style="fill:#dabd94;stroke-width:0.40977702"
   id="path22"
   d="m 143.45984,44.872884 1.76286,-0.23686 0.88921,-5.8594 c 0,0 -2.55577,-1.28383 -8.45779,-1.2367 0,0 -14.80484,-0.30488 -14.91589,15.95343 0,0 -0.81258,13.59108 13.59681,13.45585 0,0 6.2237,-0.0332 9.24416,-2.57258 v -2.84057 c 0,0 -2.93318,3.2065 -8.15702,3.2065 0,0 -7.1797,0.47207 -8.91879,-10.56528 0,0 -1.64567,-14.2545 9.24743,-14.45775 0,0 3.20241,-0.0369 5.05337,1.36988 0,0 0.5655,0.34913 0.59951,1.31211 z" />
<path
   style="fill:#dabd94;stroke-width:0.40977702"
   id="path24"
   d="m 88.060849,75.212774 v 1.05927 c 0,0 1.392423,-0.3229 2.817627,-1.18548 v 9.75105 c 0,0 0.03606,1.05927 -0.724895,1.09738 H 88.64765 v 0.6704 h 6.109775 l 0.0066,-0.67491 c 0,0 -2.111581,0.18318 -2.09519,-1.09246 v -11.32091 h -0.4233 c 0,-4.1e-4 -2.061588,1.11951 -4.184643,1.69566 z" />
<path
   style="fill:#dabd94;stroke-width:0.40977702"
   id="path26"
   d="m 100.77008,73.516704 c 0,0 -4.114977,-0.12949 -4.114977,4.55303 0,0 -0.231114,4.20145 4.114977,3.72119 0,0 1.32727,-0.16186 2.19067,-1.41291 0,0 -0.066,4.8747 -5.541413,5.90242 0,0 -0.193824,0.94987 0.910525,0.72162 0,0 6.626098,-1.26785 6.626098,-7.84067 0,4.1e-4 0.57451,-5.64714 -4.18588,-5.64468 z m 0,6.96334 c -1.319478,0 -2.387767,-1.36538 -2.387767,-3.05448 0,-1.68213 1.068289,-3.04546 2.387767,-3.04546 1.31949,0 2.38983,1.36292 2.38983,3.04546 0,1.68951 -1.07034,3.05448 -2.38983,3.05448 z" />
<path
   style="fill:#dabd94;stroke-width:0.40977702"
   id="path28"
   d="m 114.34641,80.097314 c 0,0 0.23808,-6.61544 -4.14899,-6.61544 -4.39158,0 -4.14572,6.61544 -4.14572,6.61544 0,0 -0.37003,6.88876 4.14572,6.88876 4.51369,0 4.14899,-6.88876 4.14899,-6.88876 z m -2.39761,4.89806 c 0,0 -0.41756,1.03264 -1.72188,1.03059 -1.30719,0.002 -1.72475,-1.03059 -1.72475,-1.03059 -1.13058,-2.56315 -0.6036,-7.53416 -0.6036,-7.53416 0.31758,-3.12619 2.32835,-3.03071 2.32835,-3.03071 0,0 2.00791,-0.0959 2.32467,3.03071 0,0 0.52574,4.97101 -0.60279,7.53416 z" />
<path
   style="fill:#dabd94;stroke-width:0.40977702"
   id="path30"
   d="m 121.01799,79.424454 c 0,0 2.25213,-1.13098 2.25213,-3.11963 0,0 0.26349,-2.73854 -3.68389,-2.72747 0,0 -3.70603,-0.0836 -3.75028,3.56055 0,0 -0.26636,1.98824 2.0284,2.92089 0,0 -2.59102,0.96339 -2.45785,3.56055 0,0 0.0635,3.39705 3.78429,3.36673 0,0 4.64032,0.13482 4.51329,-4.29692 -4.1e-4,0 0.11678,-2.53283 -2.68609,-3.2647 z m -3.52121,-3.15241 c 0.12375,-1.92226 2.06486,-1.87555 2.06486,-1.87555 2.09191,-0.0225 2.16526,1.97308 2.16526,1.97308 0.22374,1.56207 -1.56944,2.64634 -1.56944,2.64634 -0.40855,-0.18276 -0.99043,-0.43437 -0.99043,-0.43437 -1.84564,-0.70891 -1.67025,-2.3095 -1.67025,-2.3095 z m 1.90792,9.78466 c -2.53693,-0.0246 -2.50579,-2.66314 -2.50579,-2.66314 -0.0475,-1.75508 1.86981,-2.93483 1.86981,-2.93483 1.26744,0.48067 2.22837,1.16992 2.22837,1.16992 1.12853,0.65892 1.10394,1.74114 1.10394,1.74114 0.0152,2.83729 -2.69633,2.68691 -2.69633,2.68691 z" />
<path
   style="fill:#dabd94;stroke-width:0.40977702"
   id="path32"
   d="m 155.73471,120.75006 c -0.59664,-0.1 -0.34954,-0.43396 -0.34954,-0.43396 1.57067,-0.0832 1.54445,-0.8679 1.54445,-0.8679 0.22497,-1.27441 -0.99371,-1.78048 -0.99371,-1.78048 -1.96939,-0.58926 -3.68513,1.39856 -3.68513,1.39856 -0.24955,0.28644 -0.72284,0.11761 -0.72284,0.11761 l -0.27701,0.86627 c -0.595,-0.0496 -1.14287,0.74866 -1.14287,0.74866 -0.90315,0.20284 -1.3412,-0.19464 -1.3412,-0.19464 -0.64704,-0.57615 -1.69566,-0.62573 -1.69566,-0.62573 -0.64376,-0.28889 -0.14875,-0.38642 -0.14875,-0.38642 1.79565,-0.0926 1.7436,-1.2027 1.7436,-1.2027 0,-2.19026 -1.89235,-2.02061 -1.89235,-2.02061 0.79948,-0.42944 0.83677,-1.05845 0.83677,-1.05845 -0.16268,-0.66179 0.57,-0.95109 0.85889,-0.67368 0.37167,0.36266 0.93265,0.52001 0.93265,0.52001 1.09288,0.38314 1.20639,-0.27619 1.20639,-0.27619 0,-0.38642 0.14957,-0.67449 0.14957,-0.67449 0.19833,-0.0484 1.2912,-0.0484 1.2912,-0.0484 1.24737,-0.0475 1.04985,-1.20311 1.04985,-1.34735 0,-1.91612 -1.29694,-1.58789 -1.29694,-1.58789 -0.24751,-0.0975 -0.10081,-0.28766 -0.10081,-0.28766 0.99658,-0.19178 0.45035,-0.67449 0.45035,-0.67449 -0.34954,-0.48272 0,-0.67491 0,-0.67491 1.89071,-0.77038 1.84195,-1.34611 1.84195,-1.34611 0.18644,-0.81874 -1.46373,-1.7223 -1.64526,-1.82843 -0.65892,-0.3856 -1.84359,0.14506 -1.84359,0.14506 0.25325,-0.38765 0.10368,-0.8675 0.10368,-0.8675 -0.14916,-1.62189 -2.09068,-1.73171 -2.09068,-1.73171 -3.17455,0 -5.32874,4.04081 -5.32874,4.04081 -0.39872,0.62696 -0.39872,0.80767 -0.69745,0.91585 -0.70645,0.25816 -0.2979,1.05722 -0.2979,1.05722 0.31266,0.59008 -0.49501,0.91749 -0.49501,0.91749 -0.49747,0.23768 -0.55197,0.6704 -0.55197,0.6704 -0.0455,-0.28684 -0.24587,-0.47862 -0.24587,-0.47862 -0.44871,-0.29012 -0.24832,-0.72285 -0.24832,-0.72285 0.54869,-0.62573 0.34954,-1.05968 0.34954,-1.05968 0,-1.87596 -2.69019,-3.22208 -2.69019,-3.22208 0,0.43355 -0.54951,1.10804 -0.54951,1.10804 -0.65851,0.62409 -0.94167,3.07825 -0.94167,3.07825 -0.30201,0.23971 -0.30201,-0.0488 -0.30201,-0.0488 -0.12293,-1.20351 -0.3479,-1.34775 -0.3479,-1.34775 -1.56657,-1.85302 -3.53063,-1.15435 -3.53063,-1.15435 -0.72613,1.4457 0.59458,3.75438 0.59458,3.75438 0.14916,0.28725 0.3479,0.62491 0.3479,0.62491 0,1.15557 0.89455,1.15557 0.89455,1.15557 0.58639,0.0828 0.40117,0.38273 0.40117,0.38273 -0.15121,0.33848 0.14916,0.62532 0.14916,0.62532 0.44583,0.38437 0.44583,0.8675 0.44583,0.8675 0.22374,0.67204 0.69744,0.14383 0.69744,0.14383 0.30037,-0.38314 0.74744,0.0979 0.74744,0.0979 0.6454,0.71834 1.29243,-0.0979 1.29243,-0.0979 -0.0983,0.19178 0.24751,0.57697 0.24751,0.57697 -0.98019,0.0598 -1.88907,1.10763 -1.88907,1.10763 -0.34954,0.62491 -1.54158,1.44159 -1.54158,1.44159 v 1.25228 l -0.20038,0.0479 v -0.67449 l -0.59746,-0.7208 v -1.49281 c -0.95888,0.0471 -1.24367,-0.28931 -1.24367,-0.28931 -0.49583,-0.52861 -0.8466,-0.52861 -0.8466,-0.52861 -1.0937,0 -0.84824,0.81792 -0.84824,0.81792 0.14916,0.38355 0.14916,0.6245 0.14916,0.6245 -0.69662,0.19423 -0.3479,0.67285 -0.3479,0.67285 0.49911,0.50894 0,0.43805 0,0.43805 -0.7835,0.0828 -0.99535,0.47821 -0.99535,0.47821 -0.21309,0.34872 0.89618,0.86627 0.89618,0.86627 0.44707,0.33684 0.15244,0.67285 0.15244,0.67285 -0.45035,0.81874 0.69416,1.68173 0.69416,1.68173 -0.99658,-0.0918 -1.44323,0.29176 -1.44323,0.29176 -0.3475,-3.41631 -2.28902,-3.60686 -2.28902,-3.60686 -0.10162,0.62532 -0.44911,0.86463 -0.44911,0.86463 -0.7458,0.62491 -1.04371,2.93483 -1.04371,2.93483 -1.60673,-2.08167 -3.03685,-1.68337 -3.03685,-1.68337 -1.08427,0.30119 -0.50034,2.78976 -0.50034,2.78976 l 0.19792,0.0504 -0.0455,0.52861 0.14915,0.14301 0.0992,0.81955 c 0.54787,0.24218 0.8929,0.72121 0.8929,0.72121 0.0537,0.81956 0.25161,0.76833 0.25161,0.76833 l 0.0979,0.6745 c 0.24997,0.19546 0.94372,0.0459 0.94372,0.0459 1.64771,1.06132 1.44283,2.26484 1.44283,2.26484 -0.49297,0.62327 -1.18877,2.93441 -1.18877,2.93441 -0.40117,-0.14506 -0.89864,0.24136 -0.89864,0.24136 -0.14793,-0.5282 0.19915,-0.81709 0.19915,-0.81709 0.29832,-0.82038 -0.49829,-1.15639 -0.49829,-1.15639 -0.44747,-0.23972 -0.0979,-0.48272 -0.0979,-0.48272 0.29791,-0.28726 0.0979,-1.54158 0.0979,-1.54158 -1.29858,0.0492 -1.49117,-0.67081 -1.49117,-0.67081 -0.40118,-0.48108 -1.14779,-0.24136 -1.14779,-0.24136 -0.65851,0.32578 -0.3479,0.86463 -0.3479,0.86463 0.49911,0.60442 -0.19833,0.8171 -0.19833,0.8171 -0.64909,0.1467 -0.24587,0.62778 -0.24587,0.62778 0.35528,0.20284 0.0426,0.53025 0.0426,0.53025 -0.69498,0.14383 -1.0437,0.77161 -1.0437,0.77161 0.0983,0.96093 0.94617,1.10558 0.94617,1.10558 0.0975,0.19259 -0.0504,0.47985 -0.0504,0.47985 -0.99043,1.82719 0.897,2.3558 0.897,2.3558 l -0.0504,0.33766 c -2.28902,-0.38806 -1.98947,1.34858 -1.98947,1.34858 -0.74456,-0.14507 -1.98988,1.15475 -1.98988,1.15475 0.29873,-1.735 0.34954,-1.97513 0.34954,-1.97513 0.23399,0.0135 0.1967,-0.38355 0.1967,-0.38355 0.1008,-0.67367 -0.74621,-1.01133 -0.74621,-1.01133 l -0.0975,-1.77966 -1.18016,-0.0963 c -0.59664,-0.89577 -1.52642,-0.70481 -1.52642,-0.70481 -0.92938,0.0635 -0.46838,0.83348 -0.46838,0.83348 0.63393,0.48272 0,0.64253 0,0.64253 -0.66179,0.0619 -0.46346,0.70482 -0.46346,0.70482 0.066,0.3184 0.066,0.57574 0.066,0.57574 -0.52943,0 -0.86135,0.5155 -0.86135,0.5155 -0.19792,0.31962 0.26512,0.51222 0.26512,0.51222 -0.0684,0.19095 0.52985,0.44747 0.52985,0.44747 0.7212,0.27209 0.13645,0.70605 0.13645,0.70605 -0.39994,0.13031 -0.73473,-0.19096 -0.73473,-0.19096 l -0.9933,-0.83348 -0.19833,-0.45158 -0.28275,0.24997 -0.26471,0.25897 c -0.86176,0.19137 -1.17565,-0.12293 -1.17565,-0.12293 -0.24423,-1.63009 0.59663,-2.82049 0.59663,-2.82049 0.23071,-0.42945 0.0635,-0.51714 0.0635,-0.51714 -0.46182,-0.18932 0.31512,-2.16444 0.31512,-2.16444 0.60319,-0.96093 0.99739,-0.0459 0.99739,-0.0459 0.54788,0.86791 1.1945,0.48313 1.1945,0.48313 0.64581,-0.38642 0.19711,-0.82202 0.19711,-0.82202 -0.54665,-0.6245 0,-0.81709 0,-0.81709 0.6499,-0.28725 0.39912,-0.62614 0.39912,-0.62614 -0.436,-0.44584 0.0496,-0.52861 0.0496,-0.52861 0.53599,-0.0729 0.39994,0.38355 0.39994,0.38355 -0.31266,0.39994 0.0488,0.72285 0.0488,0.72285 -0.14957,0.29012 -0.0164,0.59499 -0.0164,0.59499 0.86299,-0.13031 1.26088,0.31963 1.26088,0.31963 0.66548,1.0941 1.79073,0.45034 1.79073,0.45034 0.6499,-0.42494 0,-0.76997 0,-0.76997 -0.2639,-0.31962 0.10039,-0.45198 0.10039,-0.45198 0.74784,-0.38191 0.35077,-0.8171 0.35077,-0.8171 -0.35077,-0.43231 0.19833,-0.52861 0.19833,-0.52861 0.88225,0.0488 0.79497,-0.52697 0.79497,-0.52697 0,-0.67777 -0.545,-0.67777 -0.545,-0.67777 -0.77448,-0.17867 -0.54624,-0.67327 -0.54624,-0.67327 0.24587,-0.47821 0.19547,-0.7167 0.19547,-0.7167 0,-0.96543 -1.19327,-1.34734 -1.19327,-1.34734 -0.34954,-0.19424 -0.19834,-0.38806 -0.19834,-0.38806 0.74785,-0.33397 0.14671,-0.67368 0.14671,-0.67368 -0.39708,-0.43395 0.19956,-0.57901 0.19956,-0.57901 0.66261,-0.17785 0.55033,-0.57697 0.55033,-0.57697 0,-0.47903 -1.39529,-0.81791 -1.39529,-0.81791 0.3479,-1.15189 -0.79825,-1.68214 -0.79825,-1.68214 0.24874,0.0955 0.64417,-0.33765 0.64417,-0.33765 0.20202,0.76997 0.95027,0 0.95027,0 0.45035,-0.52698 0.84537,-0.72162 0.84537,-0.72162 0.99658,-0.33725 0.54787,0.24259 0.54787,0.24259 -0.48599,0.37248 -0.4946,1.492 -0.4946,1.492 -0.4487,1.29612 0.44584,1.249 0.44584,1.249 v 1.34816 c 0.0488,0.14465 0.89577,0.0475 0.89577,0.0475 0.24874,0.8175 1.34038,0.53066 1.34038,0.53066 0.69867,-0.14588 0.15244,-0.6286 0.15244,-0.6286 -0.34667,-0.28725 0,-0.47985 0,-0.47985 0.79784,0.23849 0.24587,-0.86627 0.24587,-0.86627 0.62614,0.0111 0.64867,-0.38478 0.64867,-0.38478 0.20121,-0.52697 -0.64867,-0.96093 -0.64867,-0.96093 0.0512,-0.43477 0.90028,-0.14465 0.90028,-0.14465 0.17333,0.50403 0.89577,0.67163 0.89577,0.67163 0.3983,-0.0443 0.6958,-0.67163 0.6958,-0.67163 0.93429,0.16883 1.14615,-0.4819 1.14615,-0.4819 0.20284,-0.67449 -0.69744,-0.62327 -0.69744,-0.62327 0.0975,-0.29012 -0.2012,-0.72489 -0.2012,-0.72489 0.052,-0.28807 0.69867,0.0475 0.69867,0.0475 0.34995,0.67695 1.24695,0.19465 1.24695,0.19465 0.14793,0.52779 1.04698,0.81873 1.04698,0.81873 0.54336,0.14424 0.64376,-0.43313 0.64376,-0.43313 0.0483,-0.58025 0.54664,-0.28931 0.54664,-0.28931 2.09191,0.64868 1.8903,-1.73253 1.8903,-1.73253 0,-2.21362 -4.67719,-1.63788 -4.67719,-1.63788 1.19204,-1.58871 3.03767,-1.82761 3.03767,-1.82761 0.35733,0.64991 0.59582,0.33848 0.59582,0.33848 0.2012,-0.48272 0.39748,-0.0992 0.39748,-0.0992 0.19916,0.77202 0.99535,0.67532 0.99535,0.67532 0.55074,-0.0598 0.44953,-0.7208 0.44953,-0.7208 0.2725,0.37003 0.84988,0.2389 0.84988,0.2389 1.09082,-0.14342 0.79209,-1.87514 0.79209,-1.87514 0.29873,-0.62819 -0.14956,-0.72121 -0.14956,-0.72121 -0.49583,0.0492 -0.7458,-0.0971 -0.7458,-0.0971 -0.63556,-0.55156 -2.38695,-0.33478 -2.38695,-0.33478 -0.84824,-0.0516 -0.79702,0.52533 -0.79702,0.52533 -0.34995,0 -1.14532,-0.0439 -1.14532,-0.0439 -0.34954,0 -0.44871,0.18891 -0.44871,0.18891 0.49583,0.24382 0.3479,0.72285 0.3479,0.72285 -0.29791,0.0496 -0.52,0.56795 -0.66916,0.55279 -0.50157,-0.0479 -1.47028,1.08263 -1.47028,1.08263 -0.14957,0.0971 -0.24874,-0.2389 -0.24874,-0.2389 0.59664,-0.43232 1.14615,-1.20516 1.14615,-1.20516 0.58352,-1.02116 -1.19655,-1.5842 -1.19655,-1.5842 -1.49241,-0.24258 -3.44745,2.548 -3.44745,2.548 -0.6495,0.8298 -0.53558,1.63501 -0.53558,1.63501 -0.5491,0.193 -0.94331,1.00928 -0.94331,1.00928 l 0.0947,0.28971 c -0.5446,0 -1.09329,0.1926 -1.09329,0.1926 1.34325,-1.05436 0.49952,-1.00846 0.49952,-1.00846 -0.35036,-0.19178 0,-0.38683 0,-0.38683 1.19204,-0.49174 1.30637,-1.09329 1.30637,-1.09329 0.29627,-2.16567 -1.95464,-4.05392 -1.95464,-4.05392 0.29791,-0.48231 0.94782,-0.0492 0.94782,-0.0492 0.49911,0.57861 0.84414,0.14629 0.84414,0.14629 0.15244,-0.29012 0.79374,-0.0496 0.79374,-0.0496 1.38299,1.27769 1.69688,0.5782 1.69688,0.5782 l 0.24587,-0.81874 c 1.96652,0.51632 2.09232,-0.43149 2.09232,-0.43149 0.40035,-1.39775 -1.09451,-2.06897 -1.09451,-2.06897 0.34954,0.0947 0.90028,0 0.90028,0 0.79087,-0.14383 0.99207,0.14342 0.99207,0.14342 0.7462,0.62532 1.79154,0.62532 1.79154,0.62532 0.44707,0 0.39831,-0.91216 0.39831,-0.91216 2.43858,0.3352 2.48734,-0.72121 2.48734,-0.72121 0.4356,-1.96324 -2.8377,-2.45497 -2.8377,-2.45497 -1.81614,-0.31184 -3.33518,0 -3.33518,0 -0.90643,0.19096 -1.7899,-0.0496 -1.7899,-0.0496 -0.052,-0.5741 -0.54788,-1.10763 -0.54788,-1.10763 -0.32454,-0.43232 -1.29735,-0.14219 -1.29735,-0.14219 1.19819,-1.44365 1.9448,-1.15803 1.9448,-1.15803 0.37331,0.35158 -0.15162,0.67613 -0.15162,0.67613 0,0.91339 0.99658,1.10558 0.99658,1.10558 0.84537,0.0963 1.14615,-0.24136 1.14615,-0.24136 0.4487,-0.3352 0.74702,-0.0963 0.74702,-0.0963 0.49501,0.43395 0.99576,0.0963 0.99576,0.0963 0.69416,-0.2893 0.94454,-0.0492 0.94454,-0.0492 0.89454,0.7708 1.54731,0.43601 1.54731,0.43601 0.65442,-0.24095 0.4442,-1.0601 0.4442,-1.0601 2.18985,0 1.78991,-0.14219 1.78991,-0.14219 0.0992,-0.24423 0.35405,-0.24423 0.35405,-0.24423 0.24586,0.53231 1.04288,0.29095 1.04288,0.29095 0.24791,0.67244 1.04329,0.76833 1.04329,0.76833 0.5741,0.18276 0.45034,-0.43314 0.45034,-0.43314 0,-0.33519 0.24833,-0.23972 0.24833,-0.23972 0.35855,0.22989 0.94331,0.23972 0.94331,0.23972 0.83676,0.10982 0.69744,-1.20146 0.69744,-1.20146 0.0488,-1.923906 -2.98482,-1.971436 -2.98482,-1.971436 0.6454,-0.19259 0.94454,-0.43395 0.94454,-0.43395 0.66179,0.15612 0.64785,-0.2889 0.64785,-0.2889 0.0619,-0.49337 -0.29872,-0.72202 -0.29872,-0.72202 1.00395,-0.62655 0.84414,-0.91299 0.84414,-0.91299 -0.1967,-1.30227 -1.2404,-1.25268 -1.2404,-1.25268 -0.94781,-0.0717 -1.84358,0.52943 -1.84358,0.52943 0.0979,-0.48108 -0.7962,-0.43273 -0.7962,-0.43273 0.24996,-0.0967 0.24996,-0.62573 0.24996,-0.62573 0.0607,-0.82898 -0.8466,-0.91626 -0.8466,-0.91626 -2.53938,-0.2893 -2.04314,2.83976 -2.04314,2.83976 0.24996,1.20228 0.0992,1.83047 0.0992,1.83047 -0.24873,-0.0492 -1.14492,0.0951 -1.14492,0.0951 -0.30036,-0.0951 -0.0975,-0.33684 -0.0975,-0.33684 0.24873,-0.24054 0.5954,-0.4819 0.5954,-0.4819 0.64704,-0.38519 0.34954,-0.81832 0.34954,-0.81832 -0.44747,-1.25187 -1.44077,-1.34776 -1.44077,-1.34776 -2.14273,-0.15366 -3.53433,2.7914 -3.53433,2.7914 -0.34954,-0.0467 -0.44871,0.29013 -0.44871,0.29013 -0.0533,0.47944 0.1926,0.67121 0.1926,0.67121 -0.44215,0.145056 -0.54173,0.722846 -0.54173,0.722846 -1.89235,-0.29094 -3.286,1.54035 -3.286,1.54035 -0.10203,-0.81874 1.03223,-1.75631 1.03223,-1.75631 0.3983,-0.675716 -0.2389,-0.890026 -0.2389,-0.890026 -0.67162,-0.14424 -0.39789,-0.62491 -0.39789,-0.62491 0.34954,-0.43477 0.34954,-0.86627 0.34954,-0.86627 0.14957,-1.44487 -2.28738,-1.0142 -2.28738,-1.0142 -2.51357,0.59213 -2.44022,5.103776 -2.44022,5.103776 -0.69703,0.0479 -0.7962,-0.48026 -0.7962,-0.48026 -0.0504,-1.30309 -1.09738,-1.54036 -1.09738,-1.54036 -0.49624,0 -0.49624,-0.434356 -0.49624,-0.434356 0.89454,0.048 0.99699,-0.52861 0.99699,-0.52861 0.0959,-0.96339 1.0437,-1.01215 1.0437,-1.01215 0.55074,0.19341 0.84619,-0.38273 0.84619,-0.38273 0.31307,-0.54091 0.0496,-0.72572 0.0496,-0.72572 -0.5954,-0.6708 -0.24873,-0.81504 0,-0.91134 0.98429,-0.38478 0.92077,-0.86545 0.92077,-0.86545 -0.0758,-1.82761 -2.06568,-2.25951 -2.06568,-2.25951 -2.26525,-0.41142 -3.83183,3.22126 -3.83183,3.22126 -0.25939,0.9011 -0.44871,0.86749 -0.44871,0.86749 -0.39625,0.1799 -0.54787,0.57328 -0.54787,0.57328 -0.64622,-1.00846 -3.43516,0.91667 -3.43516,0.91667 -0.1008,-0.52861 0.595,-1.34816 0.595,-1.34816 0.54787,-1.10599 -0.29791,-1.00969 -0.29791,-1.00969 -0.49296,-0.0492 -0.74374,-0.33684 -0.74374,-0.33684 0,-0.67449 -0.10122,-1.63542 -0.10122,-1.63542 -0.15121,-0.62573 -1.63911,-0.62573 -1.63911,-0.62573 -3.09095,0.28807 -1.84645,4.61942 -1.84645,4.61942 -0.24751,-0.0983 -0.39708,-0.24136 -0.39708,-0.24136 -0.34872,-1.58748 -1.6932,-1.92636 -1.6932,-1.92636 -1.319891,-0.37167 -1.792773,0.96092 -1.792773,0.96092 -0.597455,2.45744 2.439403,5.247606 2.439403,5.247606 0.0533,0.67244 0.69826,0.76833 0.69826,0.76833 0.69908,0 0.49829,0.52943 0.49829,0.52943 -0.3983,0.38724 -0.897,1.92718 -0.897,1.92718 -0.14793,-0.48271 -1.14451,-0.24136 -1.14451,-0.24136 -0.34831,-1.63624 -1.34366,-1.87759 -1.34366,-1.87759 -1.517814,-0.50403 -2.090682,0.91585 -2.090682,0.91585 -0.597455,2.01938 1.990697,4.81283 1.990697,4.81283 -0.942488,0.0455 -2.288195,1.29653 -2.288195,1.29653 -0.945356,0.38355 -0.747434,1.01215 -0.747434,1.01215 -0.397483,-0.0955 -0.446657,0.28726 -0.446657,0.28726 -0.549101,-1.58789 -2.887288,-1.39529 -2.887288,-1.39529 -0.945766,0.0959 -1.047391,-0.19301 -1.047391,-0.19301 -0.745794,-0.57779 -2.339007,-0.62614 -2.339007,-0.62614 0.249554,-0.33561 0.797836,-0.86504 0.797836,-0.86504 1.142868,0.0979 1.240395,-0.14547 1.240395,-0.14547 0.998217,0.19342 0.797016,-0.4319 0.797016,-0.4319 -0.247095,-1.25105 0.05122,-1.10558 0.05122,-1.10558 0.199151,0.24054 0.696211,0.19341 0.696211,0.19341 0.646218,0.0475 0.549101,-0.53066 0.549101,-0.53066 -0.03893,-0.4696 0.49665,-0.38396 0.49665,-0.38396 h 1.39529 c 1.792775,-0.0381 1.443645,-2.79058 1.443645,-2.79058 0.01352,-0.80562 -2.539388,-1.20229 -2.539388,-1.20229 1.655499,-0.73432 1.628454,-1.33915 1.692379,-1.63706 0.397074,-1.876776 -1.145737,-2.213606 -1.145737,-2.213606 -1.316613,-0.31225 -3.484334,0.57655 -3.484334,0.57655 -0.397074,-1.34529 -1.442825,-1.53748 -1.442825,-1.53748 -0.711373,0.009 -1.295715,0.76751 -1.295715,0.76751 -0.445017,-0.76751 -1.19327,-0.76751 -1.19327,-0.76751 -0.847829,0 -0.897002,1.15311 -0.897002,1.15311 -1.394062,-0.0467 -1.244083,0.81833 -1.244083,0.81833 -0.212675,0.39584 -0.697441,0.14424 -0.697441,0.14424 -0.659741,-0.32413 -0.944946,-0.14424 -0.944946,-0.14424 -0.674902,0.41879 -0.198741,1.203096 -0.198741,1.203096 0.147519,0.24095 0.04835,0.86586 0.04835,0.86586 -0.598274,-0.0483 -1.293256,0.96175 -1.293256,0.96175 l -0.09835,-0.81792 c -1.444464,-0.33683 -1.444464,-1.780476 -1.496095,-1.924716 -0.16596,-0.4864 -0.597865,-0.0467 -0.597865,-0.0467 -0.495421,0.480666 -0.994119,0.0947 -0.994119,0.0947 -0.621632,-0.29955 -1.142459,0.19136 -1.142459,0.19136 -0.66097,0.794556 0,1.108856 0,1.108856 0.49706,0.23972 0.247506,0.57655 0.247506,0.57655 -0.549511,0.38274 -0.05081,0.72039 -0.05081,0.72039 1.022394,0.6999 0.299957,0.67286 0.299957,0.67286 -0.151617,-0.0471 -0.497059,0.11105 -0.497059,0.57819 -0.451575,1.01133 -1.294076,0.48313 -1.294076,0.48313 -0.69785,-0.38683 -1.396111,-0.57861 -1.396111,-0.57861 -1.591983,-0.14096 -1.691149,1.7813 -1.691149,1.7813 0,1.95915 5.723355,3.27125 5.723355,3.27125 -1.342019,0.67163 -0.199561,1.20147 -0.199561,1.20147 0.471244,0.30364 0.247096,0.82037 0.247096,0.82037 -0.347082,0 -0.743336,0.48108 -0.743336,0.48108 -0.148749,0.14342 -0.34913,0.14342 -0.546643,0.0955 -0.974449,-0.23521 -1.144507,0 -1.144507,0 -0.298727,0.17948 -0.450345,0 -0.450345,0 -0.447066,-0.62573 -1.094104,-0.72244 -1.094104,-0.72244 -0.797017,0.0484 -1.146147,1.54076 -1.146147,1.54076 l -0.897002,-0.0496 c 0.326183,-0.88921 -1.418238,-1.68254 -1.418238,-1.68254 0.20202,-1.10476 -0.271272,-1.15434 -0.271272,-1.15434 0.08687,-0.36102 -0.151618,-0.67368 -0.151618,-0.67368 -0.396664,-0.38724 -0.694982,-0.14629 -0.694982,-0.14629 0,0 0.09671,0.159 -0.150388,0.19424 -0.34872,0.0459 -0.447067,-0.14588 -0.447067,-0.14588 -1.19368,-1.03305 -1.842767,-0.6245 -1.842767,-0.6245 -1.082221,0.55319 -0.398713,1.00969 -0.398713,1.00969 0.498289,0.48148 0.199562,0.91339 0.199562,0.91339 -0.547872,0.43354 0.100805,0.96461 0.100805,0.96461 0.434773,0.4065 0,0.72162 0,0.72162 -0.783904,0.27578 -0.748253,0.62327 -0.748253,0.62327 -0.07581,0.69949 1.146556,1.05846 1.146556,1.05846 0.396664,0.193 0.49583,0.38601 0.49583,0.38601 -0.346671,0.96133 0.552789,1.82678 0.597865,2.0202 0.149568,0.6245 -1.042883,0.19341 -1.243264,0.33765 -0.407318,0.29299 -0.822012,0.0955 -1.196549,0.14302 -0.09671,0.76915 -1.04657,1.25104 -1.04657,1.25104 -0.744975,0.0467 -1.442415,0.52944 -1.442415,0.52944 -0.946995,0.0967 -0.549101,0.62655 -0.549101,0.62655 0.549101,0.4319 0.149568,0.77161 0.149568,0.77161 -0.919539,0.91216 -0.395844,1.73253 -0.395844,1.73253 0.673263,0.72982 1.344888,-0.14875 1.344888,-0.14875 0.297908,-0.38273 0.84537,-0.2389 0.84537,-0.2389 -0.01352,0.2389 0.447067,0.19342 0.447067,0.19342 0.399532,-0.0496 0.597864,-0.43232 0.597864,-0.43232 0.996578,-0.19341 0.847419,0.2389 0.847419,0.2389 -1.246951,0.3393 -1.3957,0.91422 -1.3957,0.91422 0,1.10516 -1.294076,1.53748 -1.294076,1.53748 -0.746204,0.29012 -0.200381,0.9638 -0.200381,0.9638 0.399942,0.33929 0.100805,0.81791 0.100805,0.81791 -0.599094,1.0855 0.398303,1.58789 0.398303,1.58789 0.498289,0.14588 0.747024,-0.47903 0.747024,-0.47903 0.149568,-0.33766 0.447066,-0.24136 0.447066,-0.24136 0.649087,0.28971 0.747024,-0.0963 0.747024,-0.2389 0,-0.69089 0.648677,-0.34053 0.648677,-0.34053 0.01803,0.0279 0.04876,0.0725 0.0963,0.14629 0.20202,0.2889 0.601962,0.2889 0.601962,0.2889 0.593357,0 0.547052,-1.01051 0.547052,-1.01051 -0.100805,-0.81874 0.445838,-0.77161 0.445838,-0.77161 0.870776,-0.1799 0.995348,-0.77202 0.995348,-0.77202 0.252423,-0.47821 0.597455,0.14588 0.597455,0.14588 0.399123,0.96338 1.345708,0.76915 1.345708,0.76915 0.77161,-0.0926 0.697031,-0.57615 0.697031,-0.72121 0,-0.56221 0,-0.81873 0,-0.81873 0.993299,-0.43191 0.595815,-0.86381 0.595815,-0.86381 -0.296678,-0.52657 0.397484,-0.6286 0.397484,-0.6286 0.574098,-0.009 0.69826,-0.38027 0.69826,-0.38027 0.199561,-0.81669 -0.546642,-1.0097 -0.546642,-1.0097 -0.448706,-0.23971 -0.199972,-0.48107 -0.199972,-0.48107 1.243264,0.0963 3.386398,1.53666 3.386398,1.53666 -0.599504,0.0992 -1.045342,0.62696 -1.045342,0.62696 -1.794003,-0.0979 -1.943982,0.72121 -1.943982,0.72121 -0.04958,0.81791 0.946585,0.76915 0.946585,0.76915 -0.198742,0.67367 0.249145,0.7712 0.249145,0.7712 0.956419,0.0947 0.397483,0.62655 0.397483,0.62655 -0.646628,0.48026 -0.09917,0.76751 -0.09917,0.76751 l 0.748253,0.24054 -1.04657,-0.14219 c 0,0 0,0 0,0.23767 0,0.24136 -0.34954,1.01379 -0.34954,1.01379 -0.744975,0.91421 -1.144098,1.58337 -1.144098,1.73294 0,1.06706 0.797017,0.7667 0.797017,0.7667 0.174565,-0.31389 0.748662,-0.14384 0.748662,-0.14384 -0.451164,0.0947 -0.549511,0.62327 -0.549511,0.62327 -2.190668,0.14507 -2.190668,1.44488 -2.239841,1.58871 -0.583932,1.68623 -1.89358,1.30145 -1.89358,1.30145 -0.147109,-0.43395 0.0504,-1.25105 0.0504,-1.25105 -1.244083,-0.53025 -1.392422,-2.5525 -1.392422,-2.5525 -1.046981,-0.0959 -1.891531,-1.05599 -1.891531,-1.05599 -0.38519,-0.4233 -0.945356,-0.4819 -0.945356,-0.4819 -0.747843,-0.0971 -0.500337,0.4819 -0.500337,0.4819 0.299137,0.28889 0.250783,0.67121 0.250783,0.67121 -0.498289,0.14506 -0.09753,0.6749 -0.09753,0.6749 0.145881,0.0947 0.04794,0.42945 0.04794,0.42945 -0.34954,-0.0455 -0.647448,0 -0.647448,0 -0.470014,0.26636 0.09999,0.67531 0.09999,0.67531 0.583932,0.44707 0.994119,1.01133 0.994119,1.01133 -0.34872,1.29859 1.096154,2.02389 1.096154,2.02389 -0.521647,0.16555 -1.243674,-0.0963 -1.243674,-0.0963 -0.299137,-0.0959 -0.299137,-0.14506 -0.547872,-0.19259 -0.588439,-0.11679 -1.644025,0.76833 -1.644025,0.76833 -1.243263,-0.14383 -1.842767,0.0488 -1.842767,0.0488 0,0.66958 -1.043702,1.2027 -1.043702,1.2027 -1.840309,0.57574 -1.543221,1.77843 -1.543221,1.77843 0.447477,0.14506 0.848649,-0.0979 0.848649,-0.0979 0.04876,-0.14506 0.545003,0 0.545003,0 0.09876,0.77448 0.747843,0.38806 0.747843,0.38806 0.09753,-0.14506 0.296679,0 0.296679,0 -0.149159,0.67491 0.248325,0.96093 0.248325,0.96093 0.447886,0.28725 1.494456,-0.8675 1.494456,-0.8675 0.547463,-0.38355 0.84701,-0.0934 0.84701,-0.0934 0.248734,0.52862 1.344478,-0.0504 1.344478,-0.0504 0.148749,0.62778 -0.09753,0.96421 -0.09753,0.96421 -0.499518,0.24136 -0.699899,0.91462 -0.699899,0.91462 -0.546643,0.43272 -0.09876,0.8675 -0.09876,0.8675 0.497059,0.43272 0.248734,1.10148 0.248734,1.10148 -0.248734,2.11895 0.796607,2.11895 0.796607,2.11895 0.596635,-0.0488 0.549921,-1.00518 0.549921,-1.00518 0.994119,0.33151 0.84496,-0.48599 0.84496,-0.48599 -0.0504,-0.48272 0.447476,-0.18973 0.447476,-0.18973 -0.01311,0.47862 0.547872,0.42822 0.547872,0.42822 0.596226,-0.0459 0.347081,-2.11281 0.347081,-2.11281 1.483393,-0.56427 1.018296,-3.61014 1.018296,-3.61014 -0.04876,-0.28848 0.166779,-0.15694 0.166779,-0.15694 0.495011,1.73089 2.347613,1.54854 2.347613,1.54854 0.252013,0.72572 0.898641,1.01133 0.898641,1.01133 0.299547,0.53025 0.795787,0.10081 0.795787,0.10081 0.547052,-0.33889 1.395701,-0.10081 1.395701,-0.10081 0.943716,0.62614 1.344068,0 1.344068,0 0.683099,0.0504 0.646219,-0.33438 0.646219,-0.33438 0.149568,-0.67654 -0.748253,-0.72243 -0.748253,-0.72243 -0.261438,-0.0492 -0.199971,-0.28726 -0.199971,-0.28726 0.637613,-0.73759 -0.149569,-0.72284 -0.149569,-0.72284 -0.696621,-0.0385 -0.347081,-0.43396 -0.347081,-0.43396 0.649087,-0.33601 0.547872,-0.72284 0.547872,-0.72284 0,-0.57738 -1.444055,-0.43068 -1.444055,-0.43068 -0.643349,0.20407 -0.695391,-0.24136 -0.695391,-0.24136 -0.199152,-1.53707 -3.138892,-1.53707 -3.138892,-1.53707 1.54363,-0.33766 1.894399,-1.39611 1.894399,-1.39611 0.833077,0.0828 1.144917,-0.53025 1.144917,-0.53025 1.196139,-1.83007 2.291883,-1.58871 2.291883,-1.58871 -0.05245,0.76874 0.595816,0.81587 0.595816,0.81587 0.744974,0.0959 1.392422,-1.19942 1.392422,-1.19942 l -0.04958,1.15229 c -0.351179,0.0471 -0.748253,0.91463 -0.748253,0.91463 -0.647038,0.33765 -0.09958,0.72284 -0.09958,0.72284 0.149569,0.14383 0.201201,0.62778 0.201201,0.62778 -0.138095,2.28 0.695801,2.06528 0.695801,2.06528 0.523286,-0.0102 0.399123,-0.33315 0.399123,-0.33315 0,-0.48313 0.247915,-0.48313 0.247915,-0.48313 0.994939,0.28725 0.69949,-0.33725 0.69949,-0.33725 0,-0.23849 0.295449,-0.28889 0.295449,-0.28889 -0.04917,0.28889 0.897002,0.33766 0.897002,0.33766 0.34954,-0.0963 0.249964,-1.78294 0.249964,-1.78294 1.591983,-0.71957 1.094514,-1.8776 1.094514,-1.8776 0.398713,-0.62327 1.791955,-0.71793 1.791955,-0.71793 0.706865,-0.0607 0.696211,0.43109 0.696211,0.43109 0.245866,0.62614 1.243673,0.38478 1.243673,0.38478 0,0.33601 0.947815,0.9179 0.947815,0.9179 0,0.18808 0.246276,0.42944 0.246276,0.42944 0.496649,-0.0963 0.699079,-0.42944 0.699079,-0.42944 0.348311,-0.24628 1.194091,-0.0992 1.194091,-0.0992 0.598274,0.0709 0.747843,-0.29012 0.747843,-0.29012 0.746204,-1.00846 0.09917,-0.91339 0.09917,-0.91339 -0.696621,-0.10982 -0.646219,-0.57451 -0.646219,-0.57451 -0.03688,-0.41183 -0.0504,-0.53025 -0.0504,-0.53025 -0.347491,-0.53025 0.197512,-0.38888 0.197512,-0.38888 0.102035,-0.18727 0.447067,0.0525 0.447067,0.0525 1.295715,0.0484 0.996578,0.14219 0.996578,0.14219 0,0.19424 0.399123,0.0516 0.399123,0.0516 -0.04999,-0.33888 0.397074,-0.43354 0.397074,-0.43354 2.790171,0.86504 7.417782,0.62204 7.417782,0.62204 0.22415,-0.30979 1.39488,-0.14342 1.39488,-0.14342 l 0.3479,0.14342 c 0.54705,0 0.7458,0.28889 0.7458,0.28889 0.45034,0.48108 0.84823,0.72244 0.84823,0.72244 1.74279,0.38396 1.89072,3.56219 1.89072,3.56219 -0.59377,0.48149 -0.0992,1.15476 -0.0504,1.39488 0.005,0.0164 0.005,0.0238 0.007,0.0324 0.0119,0.0283 0.0238,0.0606 0.043,0.10982 0.16268,0.41879 0.8929,0.24299 0.8929,0.24299 0.84824,0.28726 1.44897,1.68173 1.44897,1.68173 0.0951,0.24136 0.0951,0.72285 0.0951,0.72285 -0.14793,-0.2889 -0.7462,-0.86627 -0.7462,-0.86627 -0.3479,-0.19424 -0.59213,-0.48272 -0.59213,-0.48272 -0.352,-0.14219 -0.84824,0.28848 -0.84824,0.28848 h -0.59705 c -0.1008,-0.33724 -0.99493,-0.14219 -0.99493,-0.14219 l -0.29914,0.19137 c -0.22661,-0.40896 0.0488,-1.20106 0.0488,-1.20106 0.3479,-0.96421 -0.24873,-1.05886 -0.24873,-1.05886 -0.15039,-0.14384 -0.39995,-0.43232 -0.39995,-0.43232 v -1.59034 l -1.09533,-0.0471 c -0.99658,-1.30186 -2.04151,-0.72284 -2.04151,-0.72284 -0.507301,0.50648 0.0488,0.96543 0.0488,0.96543 0.14998,0.0943 -0.0488,0.5282 -0.0488,0.5282 -0.743742,0.2889 -0.298725,0.72121 -0.298725,0.72121 0.198332,0.0963 -0.04835,0.43395 -0.04835,0.43395 -1.04903,0.0443 -0.998627,0.66958 -0.998627,0.66958 0.02582,0.48559 1.04698,1.01133 1.04698,1.01133 v 0.14383 h -1.991926 c -0.04835,-0.96093 -0.247095,-1.87309 -0.247095,-1.87309 -0.73514,-0.95929 -0.84619,-1.73336 -0.84619,-1.73336 -0.05245,-0.72284 -0.847009,-0.72284 -0.847009,-0.72284 -0.361423,-0.009 -0.347081,-0.43109 -0.347081,-0.43109 -0.05081,-0.58024 -0.498699,-0.81873 -0.498699,-0.81873 -0.101215,-0.52984 -0.34831,-0.52984 -0.34831,-0.52984 -0.236851,-0.0475 -0.449935,0.19095 -0.449935,0.19095 l -0.646629,-0.0963 c -0.04876,-0.28684 -0.446247,-0.23808 -0.446247,-0.23808 -0.859302,-0.33765 -1.147375,0.28849 -1.147375,0.28849 -0.199972,0.71957 0.54992,1.10599 0.54992,1.10599 0.345852,0.0975 0,0.48148 0,0.48148 -0.399532,0.43232 0.345852,0.86914 0.345852,0.86914 0.09999,0.19096 0,0.47821 0,0.47821 l -0.296678,0.19669 c -0.84619,-0.1008 -0.84619,0.23808 -0.84619,0.23808 -0.198742,-0.0471 -0.451164,0.19424 -0.451164,0.19424 -0.08482,0.24996 -0.493782,0.0475 -0.493782,0.0475 -0.09958,-0.38478 -0.796606,-0.24177 -0.796606,-0.24177 -0.02541,-0.19382 -0.447887,-0.19382 -0.447887,-0.19382 -0.946994,0.0594 -0.649086,0.91462 -0.649086,0.91462 -1.344889,0.0934 -1.242444,0.96134 -1.242444,0.96134 -0.025,0.70891 1.143278,0.62327 1.143278,0.62327 0.148749,0.0992 -0.04958,0.48149 -0.04958,0.48149 -0.399943,0.29012 -0.645809,0.6749 -0.645809,0.6749 0.04999,-0.28848 0,-1.01133 0,-1.01133 -0.201201,0.0504 -0.797016,-0.0934 -0.797016,-0.0934 -2.091092,-0.33888 -2.987275,0 -2.987275,0 -1.294895,0.0934 -1.394881,0.23685 -1.394881,0.23685 h -0.49583 c -0.946995,-0.0459 -1.594442,1.01133 -1.594442,1.01133 -0.397484,-0.0975 -1.044932,0.29012 -1.044932,0.29012 -0.149568,-0.0488 -0.846599,0.0947 -0.846599,0.0947 -0.200381,0.14383 0.149159,0.62778 0.149159,0.62778 0.149568,0.14055 0.04753,0.48108 0.04753,0.48108 -0.382732,-0.0357 -0.544594,0.67408 -0.544594,0.67408 -0.150798,0.97404 0.616305,0.99658 0.616305,0.99658 1.026491,0.1803 1.026491,-0.0844 1.026491,-0.0844 0.199152,-0.43109 0.895773,-0.19096 0.895773,-0.19096 0.326182,0.33602 0.946175,-0.0475 0.946175,-0.0475 0.07294,-0.30037 0.694982,-0.0488 0.694982,-0.0488 -0.14711,0.0488 -0.196283,0.28726 -0.196283,0.28726 -0.249145,0 -0.660561,0.10654 -0.660561,0.10654 -0.09835,0.33929 -0.784723,0.32741 -0.784723,0.32741 -0.498289,0.33602 -0.498289,1.53994 -0.498289,1.53994 -0.944536,0.47821 -1.243673,2.30991 -1.243673,2.30991 0.09917,0.38356 0.645808,0.23972 0.645808,0.23972 0.101625,-0.3356 0.597865,-0.29012 0.597865,-0.29012 0.04835,0.38396 0.547052,0.38396 0.547052,0.38396 0.05122,-0.18808 0.448297,-0.38396 0.448297,-0.38396 v 0.67409 c 0.05081,0.41018 0.350359,0.48107 0.350359,0.48107 0.447886,0.0521 0.961747,-1.06009 0.961747,-1.06009 0.398303,-0.64089 0.729812,-0.64089 0.729812,-0.64089 0.796197,0.5155 0.332739,1.47766 0.332739,1.47766 -0.332739,1.3916 1.051488,1.56452 1.051488,1.56452 0.470014,0.0209 0.465097,-0.38601 0.465097,-0.38601 0.06679,-0.65318 0.598684,-0.57901 0.598684,-0.57901 h 0.529842 c 0.343393,-0.002 0.340935,-0.5995 0.340935,-0.5995 -0.0074,-0.29177 0.463867,0 0.463867,0 0,0.19546 0.621632,0.36265 0.621632,0.36265 0.560575,0.23521 0.507714,-0.42658 0.507714,-0.42658 v -0.96502 c 0,-0.25448 0.358555,-0.28849 0.358555,-0.28849 l 0.132767,1.28342 c 1.116233,0.27701 1.500194,0.80726 1.500194,0.80726 0.890445,1.45553 1.950129,0.88225 1.950129,0.88225 0.244227,-0.37166 -0.160633,-1.33423 -0.160633,-1.33423 0.44133,0.3143 0.597865,-0.19096 0.597865,-0.19096 -0.132768,-0.38764 -0.268404,-0.68268 -0.268404,-0.68268 -0.0672,-0.38478 0.199561,-0.19383 0.199561,-0.19383 0.196284,0.13318 0.928965,0 0.928965,0 -0.132768,-0.19136 0.07048,-0.53763 0.07048,-0.53763 l 0.265535,0.12744 c 0.198332,0.57738 1.725161,1.35186 1.725161,1.35186 0.817096,0.34216 0.997398,0.70318 0.997398,0.70318 0.463867,0.75685 1.213349,0.96994 1.213349,0.96994 0.529432,0.18973 0.777757,0.82488 0.777757,0.82488 0.157764,0.97281 1.31456,1.20966 1.31456,1.20966 l 0.01,0.33192 c -0.330686,-0.0668 -0.595811,0.38027 -0.595811,0.38027 -0.498289,0.20448 -0.597865,0.45322 -0.597865,0.45322 -0.345032,0.23357 -0.08646,0.68842 -0.08646,0.68842 0.795787,0.6872 0.286434,1.10599 0.286434,1.10599 -0.529841,0.19546 0.133178,0.96503 0.133178,0.96503 0.538857,0.79414 1.059274,0.38396 1.059274,0.38396 0.0688,-0.51386 0.5323,-0.89619 0.5323,-0.89619 0.0668,0.19137 0.79702,0.12745 0.79702,0.12745 0.0652,-0.70769 0.66097,-0.70769 0.66097,-0.70769 0,0.25775 0.66711,0.38642 0.66711,0.38642 l 0.33151,-0.1926 c 0,0.38601 0.92979,0.89824 0.92979,0.89824 0.66507,0.83225 0.13195,1.92472 0.13195,1.92472 -0.66343,1.21745 -0.59664,1.928 -0.59664,1.928 0.068,1.85342 -0.26512,1.85342 -0.26512,1.85342 -0.17457,0.65605 0.52984,2.24763 0.52984,2.24763 0.15489,1.43913 -0.33151,1.73376 -0.33151,1.73376 -0.59664,0.51059 -0.0635,1.4121 -0.0635,1.4121 0,0.83348 -0.0684,1.34447 -0.0684,1.34447 -0.0668,0.3643 0.0684,0.77161 0.0684,0.77161 -0.60032,1.0896 -0.26635,2.30664 -0.26635,2.30664 0.1049,0.84537 0.13154,1.60674 0.13154,1.60674 -0.33315,0.38478 -0.13154,1.09123 -0.13154,1.09123 0.16882,0.27988 0.26635,0.76547 0.26635,0.76547 -0.26635,0.70768 -0.0684,1.92923 -0.0684,1.92923 -1.5928,-0.25939 -3.784703,-0.64254 -4.117851,-0.7081 -0.598275,-0.11392 -1.260065,-0.44871 -1.260065,-0.44871 -2.467677,-0.40567 -4.236274,-1.72966 -4.512464,-1.92636 -1.251869,-0.88061 -2.920481,-1.98865 -2.920481,-1.98865 -1.148195,-0.81586 -3.30854,-0.78759 -3.30854,-0.78759 0.460999,-1.89522 -0.255291,-3.06062 -0.255291,-3.06062 -0.142602,-0.23071 -0.399942,-0.19587 -0.399942,-0.19587 -0.597455,0.0668 -0.747024,0.9642 -0.747024,0.9642 -0.04262,0.50485 -0.269223,0.83513 -0.269223,0.83513 -0.3311,0.47985 -0.55238,1.18712 -0.55238,1.18712 -0.199971,-0.0647 -1.701804,-0.034 -1.701804,-0.034 -0.16514,-0.44707 -0.433954,-0.75194 -0.433954,-0.75194 -0.04753,-0.69048 -0.299137,-0.91339 -0.299137,-0.91339 -0.295449,-0.14671 -0.794148,-0.67409 -0.794148,-0.67409 -0.398303,-0.29012 -0.645398,0.0475 -0.645398,0.0475 -0.631467,1.24818 0.247095,2.59839 0.247095,2.59839 -0.896592,0.0488 -1.392832,0.76833 -1.392832,0.76833 -0.200381,0.38478 -0.699489,0.81915 -0.699489,0.81915 l -0.04876,0.48272 c -0.199151,0.23685 -1.096153,0.76669 -1.096153,0.76669 -0.594997,0.24627 -0.546643,1.0101 -0.546643,1.0101 -0.132768,0.78759 -1.095334,1.15475 -1.095334,1.15475 -2.091092,0.96503 -2.091092,1.63583 -2.091092,1.63583 0,0.96666 0.399123,0.91667 0.399123,0.91667 0.0504,0.28562 0.301596,0.43232 0.301596,0.43232 v 0.33437 l 0.295449,0.0992 c 0.148339,0.24136 1.043292,0.13154 1.043292,0.13154 l 0.252423,-0.13154 c 0,0.18973 0.347081,0.18973 0.347081,0.18973 0.232344,0 0.341754,0.003 0.570819,-0.0742 0.09876,-0.24013 0.774479,-0.11556 0.774479,-0.11556 0.169238,0.43559 1.058454,0.30815 1.058454,0.30815 0.149569,-0.19259 0.534759,-0.16719 0.534759,-0.16719 l 0.248325,0.14793 c 0.247915,0 0.696621,-0.0992 0.696621,-0.0992 0.397074,-0.2889 1.295715,-0.71834 1.295715,-0.71834 0.395844,0.0488 0.84414,0 0.84414,0 0.09917,-0.24423 0.597455,-0.28726 0.597455,-0.28726 0.949044,-0.0193 1.289159,0.20161 1.289159,0.20161 0.849468,0.5446 1.269489,1.39284 1.269489,1.39284 0.712193,1.3621 2.18739,2.38531 2.18739,2.38531 0.544594,0.35364 0.75358,0.76382 0.75358,0.76382 0.649906,0.98306 0.990431,0.93593 1.078943,1.11665 0.731861,1.48339 0.981416,1.14901 1.294076,1.61657 0.557706,0.96543 1.48708,1.13303 1.48708,1.13303 v 0.38478 l 0.146701,0.28848 c -0.395435,0.38478 -0.795378,1.00846 -0.795378,1.00846 -0.993299,-0.0471 -2.139036,0.82038 -2.139036,0.82038 -0.510172,0.33724 -1.442825,0.24136 -1.442825,0.24136 -1.943982,0.0975 -3.088489,1.96939 -3.088489,1.96939 -1.060913,1.62886 -1.044931,2.69756 -1.044931,2.69756 -0.685148,0.46509 -0.646629,1.05722 -0.646629,1.05722 -1.04616,0.8675 -0.647447,1.87883 -0.647447,1.87883 0.194234,0.29791 0.197512,0.813 0.197512,0.813 -0.09671,1.44487 0.449526,1.59034 0.449526,1.59034 l 0.148749,0.72408 c 0.08318,1.10599 1.067059,0.6708 1.128935,0.8929 0.05696,0.2012 0.365931,0.11228 0.365931,0.11228 0.503616,-0.0262 0.397894,-0.38191 0.397894,-0.38191 0.297908,-0.19137 0.14711,-0.47985 0.14711,-0.47985 -0.04917,-0.24587 0.05204,-0.48272 0.05204,-0.48272 0.301186,-0.32003 0.04835,-0.7671 0.04835,-0.7671 0.247915,-0.20735 0.247915,-0.58024 0.247915,-0.58024 0.101215,-0.76998 -0.247915,-1.01297 -0.247915,-1.01297 0.150388,-0.0922 0.09876,-0.52862 0.09876,-0.52862 0.34995,-0.18972 0.149159,-0.91093 0.149159,-0.91093 -0.149159,-0.38765 0.04876,-0.77284 0.04876,-0.77284 0.299956,-0.23972 0.20079,-0.71834 0.20079,-0.71834 0.709324,-1.1695 1.690331,-1.42561 1.690331,-1.42561 0.556887,-0.18481 0.812178,-0.64827 0.812178,-0.64827 1.544449,0.0488 2.326714,-0.33602 2.326714,-0.33602 0.722436,-0.25324 1.243673,-0.33438 1.243673,-0.33438 0.946995,-0.0947 1.843996,-0.91503 1.843996,-0.91503 0.646629,-0.53025 0.796607,-0.19259 0.796607,-0.19259 0.596635,2.60003 1.292847,3.27371 1.292847,3.27371 0.101214,0.43231 -0.05491,0.75972 -0.05491,0.75972 -0.249144,0.62778 -0.0037,1.59731 -0.0037,1.59731 0.49706,0.1967 1.007642,0.91504 1.007642,0.91504 0.08359,0.59335 0.05983,2.56766 0.05983,2.56766 l 0.278648,0.16268 c -0.185219,0.23193 -0.143832,1.02157 -0.143832,1.02157 0.0049,0.88225 -1.504291,0.62614 -1.504291,0.62614 -1.792365,-0.0979 -1.479705,1.15476 -1.479705,1.15476 -0.998627,0.18931 -0.798656,1.72475 -0.798656,1.72475 l 2.956132,-0.0209 c 1.137541,0.14096 1.126887,-0.1213 1.126887,-0.1213 0.702767,0.13031 0.819144,-0.3229 0.819144,-0.3229 0.185629,-0.52247 0.277009,-0.78022 0.277009,-0.78022 0.346672,-0.23808 0.651546,-0.51959 0.651546,-0.51959 -0.1004,-0.47821 -0.0787,-1.3117 -0.0787,-1.3117 0.3983,-0.0492 0.74661,-0.57738 0.74661,-0.57738 -0.0504,-0.38641 0.17252,-0.42944 0.17252,-0.42944 0.11597,-0.16883 0.0496,-0.67531 0.0496,-0.67531 0,-1.10599 -0.37904,-1.4625 -0.37904,-1.4625 -0.951916,-0.83676 -0.36716,-1.95177 -0.36716,-1.95177 0.18562,-0.32126 0.16227,-0.66179 0.16227,-0.66179 -0.0271,-0.54459 -0.2135,-0.68719 -0.2135,-0.68719 0.0975,-1.29367 -0.14793,-1.58871 -0.14793,-1.58871 -0.19874,-0.14219 -0.249141,-0.66916 -0.249141,-0.66916 v -1.35022 c -0.950682,-1.11049 0.390521,-1.92185 0.390521,-1.92185 0.33274,-0.22497 0.75481,-0.43232 0.75481,-0.43232 0.69744,0 1.89194,0 1.89194,0 v 1.05559 0.21185 l -0.0238,0.24423 c -0.16228,0.0582 -0.17621,0.45772 -0.17621,0.45772 -0.009,0.70318 0.1926,0.66015 0.1926,0.66015 v 0.82037 c -0.44789,0.19096 -0.14056,1.93661 -0.14056,1.93661 0,0.33602 0.009,0.59377 0.009,0.59377 -0.27865,1.23056 0.11556,1.27768 0.11556,1.27768 l 0.0238,1.06747 0.0844,-0.008 v 0.43559 l -0.13031,0.24587 c 0.11556,0.85889 -0.21022,1.11377 -0.21022,1.11377 -0.51796,0.50362 -0.29053,1.65673 -0.29053,1.65673 l 0.17784,0.10982 v 0.5786 l -0.16063,0.0312 c 0,1.29858 -0.76506,2.42219 -0.76506,2.42219 -0.4987,0.38396 -0.79661,1.35185 -0.79661,1.35185 -0.59745,0.0947 -0.945761,0.67081 -0.945761,0.67081 -0.397074,0.38642 -0.794967,0.43436 -0.794967,0.43436 -0.545004,1.15188 -2.238612,1.34571 -2.238612,1.34571 -2.2423,0.38478 -3.536376,0.52984 -3.536376,0.52984 -0.597864,0.72121 -2.390229,0.57738 -2.390229,0.57738 -0.04753,0.14383 -0.544184,0.53025 -0.544184,0.53025 -1.496096,0 -2.438583,0.86463 -2.438583,0.86463 -0.650316,0.0975 -2.839345,0.14383 -2.839345,0.14383 -1.294486,0.0959 -1.993156,0.91462 -1.993156,0.91462 l -0.14711,0.0504 c -1.246541,-1.39775 -2.188619,-1.15762 -2.188619,-1.15762 l -0.05245,-0.67244 c -0.447067,-0.0963 -0.546233,-0.86627 -0.546233,-0.86627 h -0.299957 c -0.166369,0.7376 0.49624,2.07183 0.49624,2.07183 0,0.47985 0.949044,0.33438 0.949044,0.33438 0.395025,0.14506 0.449116,0.67245 0.449116,0.67245 -1.098203,0.0504 -1.247772,0.52861 -1.247772,0.52861 -3.201587,0.60975 -3.586778,1.82842 -3.586778,1.82842 0,0.62614 0.503616,0.4356 0.503616,0.4356 0.180712,-0.89701 2.784845,-1.63747 2.784845,-1.63747 0.549921,0.0488 0.747843,-0.19424 0.747843,-0.19424 1.825147,-0.0279 2.288195,-0.81586 2.288195,-0.81586 l 1.045751,0.0488 c 0.09876,-0.24136 0.648677,-0.62614 0.648677,-0.62614 0.631466,0.16022 1.691969,0.0947 1.691969,0.0947 -2.275901,1.12361 -2.24189,2.07019 -2.24189,2.07019 -1.260884,0.64089 -0.84496,1.63911 -0.84496,1.63911 -0.04917,0.43068 -0.148749,0.57574 -0.148749,0.57574 -0.266765,0.57574 -1.36128,1.13836 -1.36128,1.13836 -0.199561,-0.0516 -0.499518,0.19136 -0.499518,0.19136 -0.994119,-0.0459 -1.178109,0.73883 -1.178109,0.73883 -0.49624,0.0947 -0.346261,0.80235 -0.346261,0.80235 0.398303,0 0.612616,0 0.612616,0 0.05163,-0.6245 1.328497,-1.18877 1.328497,-1.18877 0.880202,-0.10982 1.543631,-0.52861 1.543631,-0.52861 0.150388,-0.43395 0.447476,-0.86586 0.447476,-0.86586 0.347901,-0.33765 0.347901,-0.91339 0.347901,-0.91339 0.09876,-0.81874 0.648677,-1.20393 0.648677,-1.20393 0.84537,-0.57737 2.988094,-2.40457 2.988094,-2.40457 0.595406,-0.14506 0.993709,-0.43395 0.993709,-0.43395 0.298728,0.0488 1.644026,-0.0488 1.644026,-0.0488 0.09958,-0.19259 0.795787,-0.57737 0.795787,-0.57737 2.139036,0 2.337368,-0.38478 2.337368,-0.38478 0.647447,-0.1926 1.645254,-0.0475 1.645254,-0.0475 -0.298317,0.24013 -2.24189,0.9134 -2.24189,0.9134 -1.146146,0.38642 -2.139036,0.81873 -2.139036,0.81873 -2.059539,0.25488 -1.941933,1.29736 -1.941933,1.29736 -0.895773,0.38765 -0.647858,1.68623 -0.647858,1.68623 -0.597454,0.23972 -0.597454,1.05722 -0.597454,1.05722 -0.447477,0.0992 -1.143688,0.48272 -1.143688,0.48272 -2.140266,0.15858 -1.942343,2.01815 -1.942343,2.01815 -0.448296,0.243 -0.8466,0.9179 -0.8466,0.9179 -0.498288,0.18973 -0.347081,1.05723 -0.347081,1.05723 -0.199151,0.0471 -0.266765,0.57737 -0.266765,0.57737 h 0.466327 l 0.147519,-0.38396 c 0.167189,-1.2867 1.19532,-1.63583 1.19532,-1.63583 0.197103,-0.24463 0.413465,-0.4487 0.413465,-0.4487 0.248735,-1.41414 1.326039,-1.4289 1.326039,-1.4289 0.236441,0.16023 0.06843,0.52575 0.20079,0.62491 0.3688,0.26349 0,1.25269 0,1.25269 -0.447066,0.0459 -0.297088,0.9597 -0.297088,0.9597 -0.248735,0 -0.101625,0.57738 -0.101625,0.57738 0.34995,0.0471 0.448296,-0.43437 0.448296,-0.43437 0.397894,-0.0934 0.249145,-0.86176 0.249145,-0.86176 0.251193,-0.0992 0.296678,-0.48599 0.296678,-0.48599 0.353638,-0.1926 0.201201,-1.97226 0.201201,-1.97226 1.693198,-0.57574 1.444874,-1.6346 1.444874,-1.6346 1.195319,-2.11732 1.938245,-2.02102 1.938245,-2.02102 0.649087,-0.0475 0.748663,-0.14506 0.748663,-0.14506 0,-0.38478 0.34913,-0.38478 0.34913,-0.38478 h 0.199561 c -0.199561,0.6749 0.396664,0.57901 0.396664,0.57901 l -0.09999,0.23685 c -0.546233,0.38765 -0.198333,0.77161 -0.198333,0.77161 v 0.19383 c -1.043702,0.6749 -0.746204,1.29858 -0.746204,1.29858 -0.34831,0.0975 -0.649086,0.71957 -0.649086,0.71957 -0.395845,0.0992 -0.247915,0.53025 -0.247915,0.53025 l 0.200381,0.10081 0.249964,-0.1926 c 0.149158,0.0471 0.446656,-0.1467 0.446656,-0.1467 0.14752,-0.62327 0.8466,-1.05845 0.8466,-1.05845 l 0.09794,-0.57615 c 0.34913,-0.0488 0.649086,-0.57861 0.649086,-0.57861 l 0.09835,-1.97348 h 1.294076 c 0.151617,-0.38396 2.142724,-0.91094 2.142724,-0.91094 0.896182,-0.0975 1.04657,-0.53312 1.04657,-0.53312 0.04712,-0.67244 0.396664,-0.52697 0.396664,-0.52697 1.094105,-0.19259 0.994119,-0.76997 0.994119,-0.76997 l 0.196284,0.0504 c 0,1.00682 -0.29545,1.39161 -0.29545,1.39161 -0.594586,0.19095 -0.894953,0.96379 -0.894953,0.96379 -0.699489,0.28889 -0.396664,1.44365 -0.396664,1.44365 -1.845226,-0.0975 -2.192717,1.24982 -2.192717,1.24982 -0.3479,0.0959 0.04958,0.72407 0.04958,0.72407 v 1.10435 c -0.249144,0.0947 -0.696211,0.57451 -0.696211,0.57451 -1.644435,0 -1.446103,1.06009 -1.446103,1.06009 l -1.59051,1.35042 c -0.451164,0.23685 -0.34831,0.81586 -0.34831,0.81586 h 0.298727 c -0.151207,-0.38642 0.694163,-0.6245 0.694163,-0.6245 0.548691,0.0455 0.945765,-0.81873 0.945765,-0.81873 0.398713,-0.18973 0.797016,-0.67532 0.797016,-0.67532 0,-0.19095 0.250374,-0.38191 0.250374,-0.38191 0.597865,0.0459 0.995758,-0.24136 0.995758,-0.24136 0.148749,-0.86463 0.599094,-0.86463 0.599094,-0.86463 0.281107,0.0131 0.296269,-0.33888 0.296269,-0.33888 l 0.102035,-1.34448 c 0.347491,-1.25433 1.493227,-0.67654 1.493227,-0.67654 0,0.19259 0.09753,0.28889 0.09753,0.28889 v 0.38765 c -0.247915,0 -0.298318,0.47821 -0.298318,0.47821 -0.03196,0.545 0.200791,0.53025 0.200791,0.53025 l -0.102854,1.6846 c -0.49583,0.62491 0.350769,1.39078 0.350769,1.39078 0.0963,0.19546 0.05163,1.06296 0.05163,1.06296 -0.350359,0.0475 -0.350359,1.0101 -0.350359,1.0101 -0.197513,0 -0.397484,0.19382 -0.397484,0.19382 -1.045341,-0.0516 -0.997397,0.71998 -0.997397,0.71998 -0.598275,0.15982 -0.795787,1.00969 -0.795787,1.00969 -0.168009,0.10081 -0.0836,0.80399 -0.0836,0.80399 l -0.181941,0.12867 -0.03319,0.67367 c 0.381093,-0.0516 0.51468,0.0119 0.51468,0.0119 0.133588,-0.0266 0.08196,-0.89126 0.08196,-0.89126 0.332739,0.12416 0.498289,-0.9179 0.498289,-0.9179 0.466326,-0.077 0.597864,-0.43109 0.597864,-0.43109 0.399123,0.0443 0.549511,-0.14506 0.549511,-0.14506 0.09671,-0.29012 0.395025,-0.05 0.395025,-0.05 -0.04958,0.6749 0.351589,0.95929 0.351589,0.95929 l 0.04507,1.39938 0.199562,0.14056 0.103264,0.58352 h 0.246685 c 0.29545,-0.81873 -0.09917,-1.06337 -0.09917,-1.06337 l 0.05163,-0.28848 c 0.297089,-0.52411 -0.05163,-0.81259 -0.05163,-0.81259 0,-1.1105 -0.09998,-1.35227 -0.09998,-1.35227 -0.249145,-0.81545 0.298317,-1.5383 0.298317,-1.5383 0.348311,-0.57901 0.150389,-1.05845 0.150389,-1.05845 l -0.20202,-0.14793 c 0.05163,-0.19137 0.05163,-0.47534 0.05163,-0.47534 -0.598274,-0.62778 -0.449115,-1.25269 -0.449115,-1.25269 0.302415,-0.1467 0.250374,-1.97103 0.250374,-1.97103 0.248734,-0.19259 0.248734,-2.7451 0.248734,-2.7451 0.117196,0.38397 0.595817,0.43396 0.595817,0.43396 0.24832,0 0.29955,0.38396 0.29955,0.38396 -0.10081,0.80234 0.34831,0.77448 0.34831,0.77448 0.55033,0.0619 0.44665,-0.24587 0.44665,-0.24587 l -0.19792,-0.14096 c -0.0492,-0.243 -0.14916,-0.33889 -0.14916,-0.33889 l -0.0512,-0.77161 c -0.993707,-0.91052 -0.44788,-1.20105 -0.44788,-1.20105 0.20038,0.0475 0.39953,-0.48108 0.39953,-0.48108 -0.0488,-0.48272 0.19956,-0.62614 0.19956,-0.62614 0.49706,-0.48149 0.64786,-0.86463 0.64786,-0.86463 -0.1,-0.43232 0.0983,-0.57902 0.0983,-0.57902 0.30159,0.0975 0.49911,-0.52697 0.49911,-0.52697 l 0.0992,0.72121 c -0.0488,0.28848 0.19833,0.52533 0.19833,0.52533 v 0.77325 c 0.19875,0 0.19875,0.57738 0.19875,0.57738 -0.39708,0.19423 -0.19875,0.77161 -0.19875,0.77161 l 0.19875,0.0943 -0.0471,1.53871 c -0.34995,0.19259 -0.20079,1.10886 -0.20079,1.10886 l 0.24751,0.14383 c 0,0 0.15243,0.36593 -0.0713,0.50484 -0.35159,0.21596 -0.32578,0.84087 -0.32578,0.84087 l 0.14957,0.33765 c -0.19833,0.0471 -0.19833,0.48108 -0.19833,0.48108 -0.29996,0.36142 -0.17539,1.89973 -0.17539,1.89973 -0.4487,0.33929 -0.37412,0.93716 -0.37412,0.93716 l 0.14916,0.29176 c -0.69663,1.0101 0.0504,1.53871 0.0504,1.53871 l -0.0504,0.86586 0.25037,-0.1926 0.19915,-0.0488 v -1.10599 c -0.39912,-0.0947 -0.24873,-0.6749 -0.24873,-0.6749 0.49624,0 0.29586,-0.67408 0.29586,-0.67408 h -0.19588 v -0.1422 c 0.84537,-0.82037 0.54624,-1.8317 0.54624,-1.8317 l 0.2516,0.1467 c 0.39666,0.05 0.84701,0.72408 0.84701,0.72408 0.0488,0.23849 0.39666,0.23849 0.39666,0.23849 0.45035,0.0455 0.39994,0.72243 0.39994,0.72243 l 0.34791,0.0488 0.0992,-0.28685 -0.2475,-0.052 0.0504,-0.81423 -0.45035,-0.14629 c -0.44542,-1.01133 -1.39611,-1.34734 -1.39611,-1.34734 l 0.0504,-1.53994 c 0.24873,0 0.34667,-0.62491 0.34667,-0.62491 0.0783,-0.50444 0.0525,-2.40744 0.0525,-2.40744 0.64909,-0.1926 0.44952,-1.44242 0.44952,-1.44242 -0.0504,-0.86422 0.2975,-0.91462 0.2975,-0.91462 0.59951,-0.20735 0.64991,-1.10599 0.64991,-1.10599 0.46346,-0.6749 0.59377,0 0.59377,0 0.0992,0.72121 0.39543,0.67654 0.39543,0.67654 0.15367,0 0.40117,0.11392 0.30201,0.69416 -0.13769,0.80849 0.40117,0.96421 0.40117,0.96421 0.19587,0.98592 -0.15244,1.85219 -0.15244,1.85219 -0.64868,0.38396 -0.50034,1.20106 -0.50034,1.20106 l 0.25202,0.14506 v 1.44323 h 0.19546 c 0,0.0266 0,0.0742 0,0.14384 0,0.28889 -0.0959,0.96256 -0.0959,0.96256 -0.20161,0.0459 -0.2475,0.53025 -0.2475,0.53025 -0.20038,0.28726 0.14834,0.57574 0.14834,0.57574 l 0.0992,0.86914 c -0.0992,0.71793 0.24833,1.10435 0.24833,1.10435 0.24873,0.53148 0.19833,1.30022 0.19833,1.30022 -0.49747,0.43067 -0.44707,1.68172 -0.44707,1.68172 -0.20161,0.0471 -0.49911,0.53148 -0.49911,0.53148 v 1.77557 h 0.54992 l 0.0451,-1.68214 c 0.30037,-0.0443 0.30037,-0.23521 0.30037,-0.23521 0.1008,-0.43641 0.59827,-0.19669 0.59827,-0.19669 l 0.55033,0.38765 c 0,0.52861 0.89495,0.7212 0.89495,0.7212 l 0.14629,0.52862 h 0.35077 v -0.67491 l -0.30036,-0.14506 c -0.59828,-1.2953 -1.79155,-1.5383 -1.79155,-1.5383 l 0.0488,-0.72285 c 0.2979,0.0492 0.2979,-0.38478 0.2979,-0.38478 0.2012,-0.55074 0,-1.20064 0,-1.20064 -0.2475,-0.14506 -0.14956,-0.48272 -0.14956,-0.48272 0.1008,-0.38478 0.94904,-0.0492 0.94904,-0.0492 l 0.29627,0.19259 0.20038,0.29053 c 0.34913,-0.0475 0.44952,0.38601 0.44952,0.38601 0.34913,0.38478 0.99535,0.33602 0.99535,0.33602 0,0.28725 0.29873,0.43395 0.29873,0.43395 0.14793,0.81587 0.69744,0.81587 0.69744,0.81587 0,0.1926 0.59664,0.52697 0.59664,0.52697 l 0.0975,0.19588 h 0.40117 l -0.052,-0.2889 c -0.54787,-0.0488 -0.59499,-0.62614 -0.59499,-0.62614 -0.49747,-0.0959 -0.64868,-0.57573 -0.64868,-0.57573 0.052,-1.10763 -1.14369,-1.20393 -1.14369,-1.20393 -0.64786,-0.19136 -0.84578,-0.62491 -0.84578,-0.62491 0.14629,-0.52697 -1.44446,-1.01297 -1.44446,-1.01297 -0.89782,-0.47943 -0.60033,-1.10721 -0.60033,-1.10721 0.30037,-0.0459 0.24997,-0.52575 0.24997,-0.52575 0.2475,-0.28684 0.2475,-0.67367 0.2475,-0.67367 0.10286,-0.52861 -0.34667,-0.72285 -0.34667,-0.72285 0.0992,-0.14219 -0.0504,-0.96092 -0.0504,-0.96092 0.4483,0 0.24751,-0.58025 0.24751,-0.58025 0.5032,-0.14096 0.35076,-0.57451 0.35076,-0.57451 -0.0504,-0.43395 0.15203,-0.43395 0.15203,-0.43395 0.39585,-1.20392 0.0447,-2.74346 0.0447,-2.74346 -0.1967,-0.38478 -0.0975,-0.72284 -0.0975,-0.72284 0.29627,0 0.24873,-0.33438 0.24873,-0.33438 -0.0488,-0.6749 0.34791,-0.57738 0.34791,-0.57738 -0.0504,0.24136 0.35076,0.43232 0.35076,0.43232 l 0.1463,0.33765 c 0.0504,0.53025 0.20079,0.72285 0.20079,0.72285 0.29954,0.0943 0.29954,0.57861 0.29954,0.57861 l 0.19915,0.18808 0.0984,1.25146 c 0.20038,0.05 0.30037,0.72244 0.30037,0.72244 l -0.0504,1.05886 0.29791,0.0488 -0.0475,0.23972 c -0.1508,-0.0488 -0.24997,0.19136 -0.24997,0.19136 -0.39994,0.14506 -0.29872,0.62901 -0.29872,0.62901 -0.15121,0 -0.34667,0.43108 -0.34667,0.43108 l -0.0521,1.87596 0.34913,0.0488 0.0984,-1.20393 c 0.0516,-1.25146 1.09574,-1.29735 1.09574,-1.29735 l -0.0488,1.58584 h 0.24833 c 0.1008,0.24299 0,0.91503 0,0.91503 -0.0975,0.23808 -0.0496,0.76833 -0.0496,0.76833 l 0.19915,0.0975 0.0992,1.10926 c 0.19833,0.47944 1.14451,0.57246 1.14451,0.57246 l 0.19833,0.48149 c 0.69703,0.29012 1.19327,1.10886 1.19327,1.10886 0,0.9642 0.3983,1.00846 0.3983,1.00846 -0.10039,0.24136 0.19834,0.76997 0.19834,0.76997 l 0.45034,-0.0918 c -0.30037,-0.29176 -0.19833,-1.1105 -0.19833,-1.1105 0,-0.29053 -0.1508,-0.62655 -0.1508,-0.62655 -0.64581,-0.33437 -0.99535,-1.53994 -0.99535,-1.53994 h -0.4946 l -0.10039,-0.28561 c 0.49583,0.1426 1.3412,0.0934 1.3412,0.0934 0.1008,0.24463 1.19491,0.29176 1.19491,0.29176 0,0.33478 0.94904,0.28725 0.94904,0.28725 0.64376,0 0.84537,0.48272 0.84537,0.48272 l 0.15121,1.87309 0.2975,0.0471 0.14956,-1.72803 c 0.64704,-0.0488 1.19205,0.47821 1.19205,0.47821 0.05,0.19424 0.42002,0.2934 0.42002,0.2934 0.32905,-0.0209 0.47698,-0.0992 0.47698,-0.0992 -0.44748,-0.9134 -2.08946,-1.25269 -2.08946,-1.25269 -0.99657,-1.15311 -4.0363,-1.5383 -4.0363,-1.5383 -0.19997,-0.23849 -1.66205,-0.2639 -1.66205,-0.2639 0.19751,-0.52861 -0.0287,-1.37439 -0.0287,-1.37439 -0.6958,-0.67081 -0.545,-3.36386 -0.545,-3.36386 -0.79784,-0.63065 -0.74908,-2.50374 -0.74908,-2.50374 -0.5954,-0.69867 -0.94781,-1.77966 -0.94781,-1.77966 -0.14793,-0.72121 -0.0963,-1.06009 -0.0963,-1.06009 h 0.19834 c 0,0.23972 0.14956,0.43395 0.24996,0.62777 0.26635,0.51673 1.09451,1.44078 1.09451,1.44078 0.14793,0.8216 0.34586,1.73254 0.34586,1.73254 0.54992,0.14629 1.04902,0.81996 1.04902,0.81996 0.24751,0.96134 2.18862,1.00846 2.18862,1.00846 l 0.14793,0.1926 -0.29627,0.0475 v 2.02266 l 0.1967,0.19096 c 0.0504,0.91503 0.3983,0.81873 0.3983,0.81873 v 0.43273 l 0.7462,0.0488 c -0.0992,-0.43559 -0.64703,-0.82037 -0.64703,-0.82037 l -0.0992,-0.67081 c -0.24873,-0.0963 -0.19956,-0.57901 -0.19956,-0.57901 l 0.19956,-0.0471 v -0.91257 c 0,-0.53148 0.39994,-0.33889 0.39994,-0.33889 0.34667,0.24136 0.19834,0.48436 0.19834,0.48436 l 0.99657,0.14506 c 0.99494,1.49118 2.44022,1.00682 2.44022,1.00682 l 0.0471,0.28849 c -0.19915,0.62327 0.19956,1.10762 0.19956,1.10762 -0.0516,0.28726 0.35077,0.52862 0.35077,0.52862 0,0 -0.15244,-0.1926 0.1467,0.0942 0.2975,0.2934 0.24751,1.20393 0.24751,1.20393 h 0.62327 c -0.19834,0.45567 0.82201,0.38478 0.82201,0.38478 0.64704,0 0.89577,1.01256 0.89577,1.01256 0.10081,0.24013 0.54664,0.0225 0.54664,0.0225 -0.1467,-1.24982 -1.59198,-1.66001 -1.59198,-1.66001 -1.04534,-0.0311 -0.8929,-0.6245 -0.8929,-0.6245 0.0488,-0.62614 -0.25448,-1.20393 -0.25448,-1.20393 -0.39543,-0.28889 -0.34544,-0.8175 -0.34544,-0.8175 0.69457,-0.14506 1.88948,0.1467 1.88948,0.1467 0,0.33438 0.44994,0.71957 0.44994,0.71957 0.34831,0 0.44912,0.38191 0.44912,0.38191 0.49869,1.06337 1.9911,0.91954 1.9911,0.91954 0.0816,0.65441 0.89659,0.62204 0.89659,0.62204 0.56345,0.0799 0.79415,0.52861 0.79415,0.52861 0.79825,-0.0471 0.74948,0.53026 0.74948,0.53026 0,0.24258 0.39667,0.14506 0.39667,0.14506 0,-1.05846 -2.04397,-1.92637 -2.04397,-1.92637 0.29996,0 0.50157,-0.14342 0.50157,-0.14342 0.10039,-0.33601 0.4487,0 0.4487,0 0.24751,0.29012 1.34284,0.0516 1.34284,0.0516 0.0992,-0.2934 0.64704,-0.1008 0.64704,-0.1008 0.0975,0.19259 0.44707,0.0492 0.44707,0.0492 -0.1004,-0.91339 -1.39324,-0.67531 -1.39324,-0.67531 -0.1967,0.19669 -0.7962,0.052 -0.7962,0.052 -1.29408,-0.77161 -1.98988,0.24136 -1.98988,0.24136 -0.30037,0.0934 -0.59827,-0.14629 -0.59827,-0.14629 -0.0992,-0.62614 -0.99822,-0.91339 -0.99822,-0.91339 -0.39502,-1.73131 -2.48858,-1.49282 -2.48858,-1.49282 -2.63445,-0.0471 -2.98194,-0.91216 -2.98194,-0.91216 0.4487,-0.14629 1.49281,0.0947 1.49281,0.0947 0.23358,0.15982 0.39831,0 0.39831,0 0.19956,-0.24135 1.23916,-0.0947 1.23916,-0.0947 0.24997,0.19095 1.49651,0.19095 1.49651,0.19095 0.0992,0.14383 0.84414,0.28726 0.84414,0.28726 0.2516,0.48271 0.94822,0.19546 0.94822,0.19546 0.0496,-0.29012 0.44666,-0.19546 0.44666,-0.19546 0.65155,0.0504 0.39994,-0.52862 0.39994,-0.52862 -0.24873,0 -0.69908,0.19424 -0.69908,0.19424 -0.8929,0.14506 -0.54623,-0.76997 -0.54623,-0.76997 0.24751,-0.19424 0.2012,-0.67245 0.2012,-0.67245 -0.39994,-0.0533 -0.4487,0.52698 -0.4487,0.52698 -0.19834,-0.0488 -0.50034,0.28889 -0.50034,0.28889 -0.0971,0.33602 -0.34667,0.23972 -0.34667,0.23972 -0.34954,-0.62327 -2.5902,-0.38355 -2.5902,-0.38355 -0.79579,-0.24013 -3.18561,-0.0947 -3.18561,-0.0947 -0.89454,-1.30022 -2.24025,-1.01297 -2.24025,-1.01297 -1.626,-0.3729 -1.63911,-1.49118 -1.63911,-1.49118 0.0475,-0.7712 -0.94781,-1.58707 -0.94781,-1.58707 -0.49747,-0.77161 0.44747,-0.43231 0.44747,-0.43231 0.39994,0.0471 0.7458,0.52697 0.7458,0.52697 h 1.14327 c 0.20284,0.53148 0.84824,0.62614 0.84824,0.62614 l 1.44488,0.0947 c 2.18862,1.44774 3.08562,0.86586 3.08562,0.86586 0.19833,-0.24136 0.6958,-0.14219 0.6958,-0.14219 0.2012,0.43231 1.0941,0.33601 1.0941,0.33601 0.29791,0.43232 1.14615,0.47985 1.14615,0.47985 1.11213,-0.38396 1.09574,0 1.09574,0 0.13318,0.34954 0.6454,0.38765 0.6454,0.38765 0.99658,0.14219 1.29408,-0.47985 1.29408,-0.47985 2.88729,1.72803 3.83469,1.19655 3.83469,1.19655 0.23235,-0.0607 0.14957,-0.38232 0.14957,-0.38232 -2.69182,-0.1926 -3.83469,-1.58543 -3.83469,-1.58543 l -3.5331,-0.052 c -0.7503,-1.15311 -3.13398,-0.81423 -3.13398,-0.81423 -0.44911,0.0459 -0.89618,-0.19423 -0.89618,-0.19423 -0.7966,-0.1926 -1.64361,-1.10599 -1.64361,-1.10599 l -1.44488,-0.0975 c -0.19997,-0.24135 -1.29694,-0.86585 -1.29694,-0.86585 l -0.0979,-0.53026 c -0.0488,-0.52697 -2.0915,-1.00846 -2.0915,-1.00846 -0.84496,-0.38601 -0.89372,-0.43395 -0.89372,-0.43395 -0.39831,-0.81423 -1.29531,-1.63419 -1.29531,-1.63419 l -0.14957,-1.29859 c -0.44788,-0.81873 -0.71793,-1.46905 -0.71793,-1.46905 -0.39707,-0.57737 -0.19587,-1.68172 -0.19587,-1.68172 -0.39994,-0.29012 -0.33028,-0.9892 -0.33028,-0.9892 0.19833,0.052 0.24751,-0.38478 0.24751,-0.38478 0.0959,-0.92241 0.2012,-1.82843 0.2012,-1.82843 -0.29013,-0.11556 -0.10204,-0.52861 -0.10204,-0.52861 0.11392,-0.33028 0.0533,-0.52861 0.0533,-0.52861 0.39626,-0.38642 0,-0.86463 0,-0.86463 -0.35241,-0.38765 -0.10367,-0.81874 -0.10367,-0.81874 0.25611,-1.08959 0.0471,-2.06527 0.0471,-2.06527 -0.18481,-0.53312 0.003,-0.91954 0.003,-0.91954 0.20284,-0.38478 0.14998,-0.47985 0.14998,-0.47985 -0.14998,-0.47985 0,-0.9638 0,-0.9638 0,-0.18972 -0.0479,-0.52738 -0.0479,-0.52738 0.19669,-0.14506 0.74456,-0.05 0.74456,-0.05 0.15121,0.24136 1.49528,0.14629 1.49528,0.14629 l 0.44747,0.24136 c 3.18602,0.0783 3.90969,3.41262 3.90969,3.41262 0.34872,1.20392 0.91831,1.49118 0.91831,1.49118 -0.0992,0.83062 0.24873,0.86913 0.24873,0.86913 0.7462,0.38642 0.69867,0.67491 0.69867,0.67491 0.24751,0.62081 -0.0533,2.87704 -0.0524,3.02825 0.005,0.62901 -0.59746,0.72121 -0.59746,0.72121 -0.7462,0.0959 -1.39324,0.19423 -1.39324,0.19423 -1.9407,0.0959 -1.69238,1.20229 -1.69238,1.20229 -0.69703,0.14219 -0.5995,1.74729 -0.5995,1.74729 1.08386,0.0311 3.59047,0 3.59047,0 0.26389,-0.27865 0.29504,-0.54501 0.29504,-0.54501 0.77447,0.0652 0.74825,-0.67203 0.74825,-0.67203 0,-0.62655 1.19327,-1.20393 1.19327,-1.20393 0.93634,-0.27209 0.89659,-0.72243 0.89659,-0.72243 0.0365,-0.67941 0.43109,-0.86463 0.43109,-0.86463 0.42944,-0.40691 0.25488,-1.40513 0.25488,-1.40513 -0.54583,-0.052 -0.38642,-0.56877 -0.38642,-0.56877 0.14629,-0.47985 0,-0.91093 0,-0.91093 -0.59828,-0.67491 -0.29914,-1.54445 -0.29914,-1.54445 0.20284,-0.37741 0.11802,-1.38751 0.11802,-1.38751 1.01051,-0.12744 1.67066,-0.77571 1.67066,-0.77571 0.23234,0.87939 0.45198,1.20065 0.45198,1.20065 1.93989,3.11554 5.57584,3.27084 5.57584,3.27084 0.54336,0.26226 1.17852,0.19669 1.17852,0.19669 0.73432,0.7167 1.98414,0.50772 1.98414,0.50772 0.21349,0.6958 0.50607,0.4946 0.64335,0.80234 0.0496,0.64253 0.5827,1.36374 0.5827,1.36374 -0.0504,1.94685 -0.30979,1.99111 -0.30979,1.99111 -0.44789,0.0742 -0.74293,0.27578 -0.74293,0.27578 -1.81859,0.0115 -1.71328,1.17237 -1.71328,1.17237 0.002,0.8425 0.87078,0.67408 0.87078,0.67408 -0.12457,0.6749 1.0392,0.56713 1.0392,0.56713 0.0279,0.70892 1.21253,0.16391 1.21253,0.16391 0.40567,-0.23234 0.70809,-0.24422 0.70809,-0.24422 1.66697,-0.37454 1.08017,-1.48954 1.08017,-1.48954 0.61508,0.0238 0.53394,-1.38628 0.53394,-1.38628 l -0.19669,-0.0221 c -0.15121,-0.52246 -0.20202,-1.60673 -0.20202,-1.60673 -0.19833,-0.38478 -0.34217,-0.60975 -0.34217,-0.60975 0.0967,-1.44651 -0.61958,-1.57682 -0.61958,-1.57682 0.0488,-0.96257 -0.0992,-1.29736 -0.0992,-1.29736 -0.23112,-0.98879 -1.97513,-0.9224 -1.97513,-0.9224 -0.44748,-0.86914 -1.64198,-1.15476 -1.64198,-1.15476 -0.43354,-0.14506 -0.39994,-0.67654 -0.39994,-0.67654 0.0369,-0.38355 -0.54664,-1.05681 -0.54664,-1.05681 -1.35882,-1.75918 -0.65155,-3.32698 -0.65155,-3.32698 1.16459,-2.15133 1.0101,-3.03973 1.0101,-3.03973 0,-1.54158 -0.70645,-2.67871 -0.70645,-2.67871 -0.25038,-0.43068 0.0992,-0.47985 0.0992,-0.47985 0.78022,0.22087 1.09247,1.15352 1.09247,1.15352 0.25078,0.76997 0.80029,1.0601 0.80029,1.0601 l 0.15039,0.6245 c 0.39667,-0.0942 0.49747,0.40404 0.49747,0.40404 0.0516,1.92349 1.24368,2.28942 1.24368,2.28942 l 0.14956,0.49747 c 0.14793,-0.0504 0.54992,0.17948 0.54992,0.17948 0.16965,1.49241 2.23821,2.1628 2.23821,2.1628 0.22333,1.31047 1.09123,1.54159 1.09123,1.54159 1.34735,0.76997 1.17524,1.50142 1.26417,2.17919 0.0635,0.47534 0.58065,0.60688 0.58065,0.60688 0,0.43395 0.69703,0.67818 0.69703,0.67818 0.34667,0.36716 0.34667,0.72121 0.34667,0.72121 1.04534,0.0443 0.59828,-1.15639 0.59828,-1.15639 -0.0488,-0.43232 0.21595,-0.32127 0.21595,-0.32127 0,-0.81709 -0.41593,-1.1191 -0.41593,-1.1191 -0.33191,-0.48435 0.44707,-0.29176 0.44707,-0.29176 0.068,-1.25269 -0.89454,-1.7309 -0.89454,-1.7309 -0.29791,-0.40404 -0.19874,-1.15311 -0.19874,-1.15311 -0.0426,-2.97785 -3.03481,-4.61942 -3.03481,-4.61942 -1.09861,-0.48312 -1.09861,-0.8175 -1.09861,-0.8175 -0.59049,-0.97732 -1.29244,-1.20639 -1.29244,-1.20639 -0.50649,-0.11105 -0.59828,-0.43108 -0.59828,-0.43108 -0.47206,-2.15584 -1.93537,-2.66806 -1.93537,-2.66806 -1.17852,-0.4696 -2.79386,-0.55525 -2.79386,-0.55525 -3.06759,-3.89862 -8.71145,-3.80068 -8.71145,-3.80068 -6.47243,0.19096 -10.15305,-0.33888 -10.15305,-0.33888 -0.19587,-0.41183 -0.19833,-1.0101 -0.19833,-1.0101 -0.0283,-0.28398 -0.0529,-0.57574 -0.0529,-0.57574 l 0.0615,-0.59377 -0.0471,-0.67203 c -0.15285,-0.0934 -0.052,-0.99658 -0.052,-0.99658 0.23234,-0.37003 -0.0156,-0.66507 -0.0156,-0.66507 -0.12498,-0.31962 0.032,-0.51058 0.032,-0.51058 0.24587,-0.14219 0.0926,-0.97609 0.0926,-0.97609 -0.24791,-0.32413 -0.17088,-0.6958 -0.17088,-0.6958 0.1508,-0.0959 0.0516,-0.47206 0.0516,-0.47206 0.21267,-0.25448 0.28889,-0.62614 0.28889,-0.62614 0.19956,-0.38642 0.0873,-2.30541 0.0873,-2.30541 v -0.19546 c -0.28807,-0.17785 -0.1803,-1.30719 -0.1803,-1.30719 0.3565,-1.59485 0.10367,-3.84084 0.10367,-3.84084 l -0.15284,-0.0475 c 0.15284,-1.4924 0.0344,-1.83867 0.0344,-1.83867 -0.32455,-0.15407 -0.23235,-0.63392 -0.23235,-0.63392 0.15531,-0.54173 0.0516,-0.99494 0.0516,-0.99494 -0.17457,-1.83744 0.54951,-2.69182 0.54951,-2.69182 2.38818,-1.20639 3.97975,-4.66695 3.97975,-4.66695 -0.0385,2.34392 0.74498,2.07142 0.74498,2.07142 0.62327,0.0102 0.79783,-0.96503 0.79783,-0.96503 0.74743,0.43109 0.69744,-0.29176 0.69744,-0.29176 0.1004,-0.38232 0.2975,-0.38232 0.2975,-0.38232 0.18645,0.59991 0.84619,0.53025 0.84619,0.53025 0.54992,-0.0504 0.29955,-0.43559 0.29955,-0.43559 -0.1717,-1.53667 0.19751,-1.58543 0.19751,-1.58543 0.74825,-0.38396 0.74825,-0.67408 0.74825,-0.67408 0,-0.48108 0.19997,-0.52861 0.19997,-0.52861 0.14793,0.28889 0.64704,0.47984 0.64704,0.47984 0.44625,0.4356 0.84537,1.68624 0.84537,1.68624 1.29408,-0.14506 1.74606,0.28725 1.74606,0.28725 0.64089,0.47985 1.39037,0.57738 1.39037,0.57738 1.74442,0.0606 0.79784,-0.76997 0.79784,-0.76997 -0.40117,-0.19424 -0.40117,-0.38479 -0.40117,-0.38479 -0.0971,-0.43231 0.40117,-0.6245 0.40117,-0.6245 -0.59786,-0.24135 -0.59786,-0.57901 -0.59786,-0.57901 0.0238,-0.59991 0.69703,-0.43231 0.69703,-0.43231 -0.0504,-0.43437 0.34831,-0.43437 0.34831,-0.43437 0.54623,0.57738 1.1445,0.57738 1.1445,0.57738 0.39831,0.0492 0.64786,-0.28685 0.64786,-0.28685 0.49501,-0.57901 0.59418,0 0.59418,0 1.76737,1.8522 3.88673,1.00683 3.88673,1.00683 1.04371,-1.7768 -0.15039,-3.0299 -0.15039,-3.0299 -0.69785,-0.86872 -0.99739,-1.48626 -0.99739,-1.48626 -0.14793,-0.53312 -0.24669,-0.58065 -0.24669,-0.58065 -1.14696,-0.43232 -1.24572,-0.8675 -1.24572,-0.8675 -0.0537,-0.62614 -0.59705,-0.9642 -0.59705,-0.9642 0.0639,-0.23808 -0.24832,-0.33602 -0.24832,-0.33602 -0.50075,-0.0352 -0.54787,0.19423 -0.54787,0.19423 -0.2012,0 -0.50157,-0.0959 -0.50157,-0.0959 0.79825,-0.43272 0.69826,-0.7212 0.69826,-0.7212 0.35077,0.38478 1.04534,0.53148 1.04534,0.53148 0.79784,0.0426 0.79784,-0.53148 0.79784,-0.53148 l 0.74497,0.0504 -0.0992,0.14219 c 1.1445,0 0.94781,0.1926 0.94781,0.1926 0.53435,0.46796 0.59664,-0.0963 0.59664,-0.0963 0,-0.76997 0.64908,-1.06173 0.64908,-1.06173 0.84496,-0.33889 0.79415,-0.91217 0.79415,-0.91217 0.8003,0.23849 1.94398,-0.24299 1.94398,-0.24299 1.73828,-0.33438 0.99084,-1.34735 0.99084,-1.34735 0.0525,-1.20065 -1.59034,-1.92144 -1.59034,-1.92144 -0.99658,-0.72285 -1.24367,-0.8675 -1.24367,-0.8675 0.3479,-0.18973 0.64539,0.0987 0.64539,0.0987 0.20121,0.53025 0.99658,0.38478 0.99658,0.38478 0.79661,0.2889 1.14451,-0.33888 1.14451,-0.33888 0.15121,0.48435 0.54951,0.58065 0.54951,0.58065 0.14957,0.0943 0.0959,0.47944 0.0959,0.47944 -0.59787,0.0934 -0.34503,0.43396 -0.34503,0.43396 -0.10204,1.77843 2.58692,2.69182 2.58692,2.69182 0.4487,0.28725 1.09574,-0.29012 1.09574,-0.29012 0.3979,2.0747 2.49145,2.21648 2.49145,2.21648 1.18056,-0.38806 0.44542,-3.95066 0.44542,-3.95066 0.59746,-0.14055 0.99535,0.24464 0.99535,0.24464 0.29668,0.91462 1.34489,1.05681 1.34489,1.05681 2.04028,0.33766 2.48735,-0.33724 2.48735,-0.33724 0.28889,-1.92063 -2.43859,-3.4159 -2.43859,-3.4159 -1.28055,-0.60975 -1.74114,-1.15312 -1.74114,-1.15312 2.58692,-0.48148 2.28902,-2.88851 2.28902,-2.88851 -0.69867,-0.91504 -2.28902,-0.23686 -2.28902,-0.23686 -0.54787,0.43068 -1.04411,0.52821 -1.04411,0.52821 -1.54691,0.14383 -1.44487,0.81709 -1.44487,0.81709 -1.44406,1.2027 -2.09192,0.14219 -2.09192,0.14219 -0.47206,-0.58639 -1.04534,-0.6245 -1.04534,-0.6245 -1.14614,-0.0947 -0.79496,1.34735 -0.79496,1.34735 -2.29066,-1.77966 -3.68513,-1.29858 -3.68513,-1.29858 -0.54664,0.24136 -1.24367,0 -1.24367,0 -0.83226,-0.0238 -0.44953,-0.43232 -0.44953,-0.43232 0.89946,-0.86749 2.5902,-1.54035 2.5902,-1.54035 -0.1508,0.72408 1.94235,0.0516 1.94235,0.0516 0.4946,0.86381 1.98864,1.00887 1.98864,1.00887 2.1415,0.47944 3.83634,-1.20392 3.83634,-1.20392 -0.79784,-0.27455 -0.99822,-0.81751 -0.99822,-0.81751 -0.49911,-1.15393 -2.29065,-1.9743 -2.29065,-1.9743 -0.44625,-0.3856 0.44911,-0.1926 0.44911,-0.1926 0.19792,0.53066 1.04657,0.24136 1.04657,0.24136 0.0484,-0.24136 0.54664,-0.14383 0.54664,-0.14383 1.04698,1.15475 1.69238,0.7671 1.69238,0.7671 -0.29627,0.72572 0.94618,0.96298 0.94618,0.96298 0.14875,1.54158 0.94494,1.63788 0.94494,1.63788 0.54788,0.32372 0.59951,-0.28644 0.59951,-0.28644 0.0504,-0.26799 0.29791,-0.0992 0.29791,-0.0992 0.79496,1.44241 1.64361,1.1527 1.64361,1.1527 2.11281,-0.62204 1.09575,-2.83689 1.09575,-2.83689 -0.0992,-0.14301 0.0967,-0.2389 0.0967,-0.2389 0.49993,0.19424 0.4483,-0.24258 0.4483,-0.24258 -0.0373,-0.79292 0.94863,-0.38274 0.94863,-0.38274 1.24081,0.5278 1.3412,1.00888 1.3412,1.00888 -0.10039,0.38642 0.54747,0.62695 0.54747,0.62695 0.89782,0.29013 0.74825,0.86709 0.74825,0.86709 0.0992,0.8171 0.24873,1.00887 0.24873,1.00887 0.39667,0.38192 0.74457,-0.0484 0.74457,-0.0484 0.30036,-0.38437 0.5995,-0.0488 0.5995,-0.0488 0.0504,0.53025 1.14451,1.0101 1.14451,1.0101 0.7462,0.24136 1.19491,-1.0101 1.19491,-1.0101 0.71055,-1.3453 -0.24587,-2.26115 -0.24587,-2.26115 -0.20284,-0.28972 0.0955,-0.28972 0.0955,-0.28972 1.09779,0.77161 1.19696,0.7249 1.19696,0.7249 0.6454,0.1926 0.34667,-0.24587 0.34667,-0.24587 -0.22374,-0.74169 0.49911,-0.62204 0.49911,-0.62204 1.9407,0.81669 1.84113,-0.96379 1.84113,-0.96379 0.57205,-2.41154 -2.88811,-2.68568 -2.88811,-2.68568 z m -68.576599,17.2512 c 0,0 -0.385601,0.2516 -0.64335,-0.0963 0,0 0.277009,-0.016 0.335197,-0.0987 0.05163,-0.077 0.203659,-0.37495 0.333559,-0.34667 4.1e-4,-4.1e-4 0.07704,0.44501 -0.02541,0.54172 z" />
<path
   style="fill:#005b81;stroke-width:0.40977702"
   id="path34"
   d="m 90.41256,137.33496 c 0,0 0.846189,-0.0947 1.094924,-1.39324 0,0 0.599504,-0.0488 0.695392,-0.48435 0,0 0.386419,0.13645 0.449525,-0.1422 0,0 0.189317,-0.38355 0.597045,0.0947 0,0 0.797426,0.7376 1.991107,-0.14506 0,0 0.300366,-0.0943 0.351179,0.0504 0,0 -0.601553,0.33602 -0.601553,0.62614 0,0 -0.943307,0 -1.143688,0.38068 0,0 -0.84578,0 -0.795787,0.43683 0,0 -0.199971,0.28684 0.198742,0.48108 0,0 0.101625,0.18972 -0.04917,0.33601 0,0 -0.336017,0.0488 -0.299137,0.38765 0,0 -0.374127,0.25038 -0.199972,0.81751 0,0 0.249964,0.56426 0.797426,0.47821 0,0 0.45977,-0.0594 0.548282,-0.38355 0,0 0.34872,-0.33602 0.497469,-0.0488 0,0 0.197103,0.29012 0.495011,0.14629 0,0 0.55197,-0.0459 0.600733,-0.43395 0,0 0.448296,-0.0504 0.49624,0.24136 0,0 -0.04835,0.23972 0.150798,0.43395 l -0.199152,0.28725 c 0,0 -0.699079,0.24136 -0.349539,0.96257 0,0 0.298727,0.76997 1.394061,0.0471 0,0 0.399123,-0.24136 0.695802,0.0459 0,0 0.847009,0.1926 1.095743,-0.33438 0,0 0.648677,-0.1426 0.84619,0.38478 0,0 0.997399,0.72244 1.443639,-0.72284 0,0 0.29955,-0.50485 1.24409,-0.38356 0,0 1.89317,0.33602 2.04233,-2.55127 l -1.29408,-0.0459 c 0,0 0.0492,-0.81874 0.49747,-0.81874 0,0 0.19833,-0.0488 0.0992,-0.24299 0,0 0.15079,0.33601 0.59786,0.38642 0,0 0.24956,0 0.29914,0.43231 0,0 -0.0496,0.72285 0.6454,0.81751 0,0 0.34954,0.14506 0.24873,0.43518 0,0 -0.44706,0.24013 -0.1971,0.86627 0,0 -0.3983,0.23972 1.29571,0.47821 0,0 0.59541,-0.1422 0.89291,0.48435 0,0 0.29791,1.20229 2.63978,1.05559 0,0 0.0504,0.81873 -0.49911,1.19942 0,0 -1.2449,0.38928 -0.94699,1.87882 0,0 0.25078,0.38929 1.04944,-0.14506 0,0 0.34667,0.0959 0.2975,0.29013 0,0 0.49624,0.14506 0.84537,-0.0947 0,0 0.24996,0.38478 0.14956,0.77161 0,0 -0.1008,0.43067 0.14957,0.86586 0,0 0.15982,1.51453 -1.04575,1.87595 0,0 -2.14272,0.57574 -2.88729,2.83689 l -0.15079,-0.38478 h -0.24751 c 0,0 -0.0992,-0.23972 0.24751,-0.57738 0,0 0.7966,-0.86585 0.7462,-2.21156 0,0 0.30037,-0.33602 0.30037,-0.67409 0,0 0.39666,-0.38478 0.14956,-0.96092 0,0 0.05,-0.38642 -0.30077,-0.48272 0,0 -0.19956,-0.57738 0.0504,-0.71998 0,0 0.19833,-0.43805 0.10081,-0.96666 0,0 0.29626,-0.52698 0.14956,-0.67081 0,0 -0.30077,-0.24136 -0.59991,-0.14383 0,0 -0.64376,-0.72244 -0.64376,-1.10599 0,0 -0.0639,-0.67777 -0.84783,-0.67777 0,0 -0.7085,0.0402 -0.59745,0.71957 0,0 0.24259,0.62901 -0.10081,0.9179 0,0 -0.44706,-0.14383 -0.44706,0.77161 0,0 0.19833,0.62204 -0.0992,0.6749 0,0 -1.24531,-0.38928 -0.94454,0.9134 0,0 -0.0516,0.14506 -0.35077,0.23972 0,0 -0.99493,-0.0504 -2.13903,1.10598 0,0 -0.19997,0.33766 -0.64827,0.0471 0,0 -2.140674,-2.16444 -3.234779,-2.64552 -1.095334,-0.48149 -1.295305,-0.10859 -2.041919,-0.67408 0,0 -0.449525,-0.72285 -1.642796,-0.86463 0,0 -1.54363,-0.0533 -1.244493,-1.0601 l 0.247916,-0.0488 c 0,0 0.34831,-0.91339 -0.34954,-1.34735 0,0 -0.571639,-0.37904 -0.84578,-0.7671 0.0025,0.002 -0.945356,-0.86463 -1.440366,-1.34858 z" />
<path
   style="fill:#005b81;stroke-width:0.40977702"
   id="path36"
   d="m 83.145164,126.09273 c 0,0 1.127297,-0.0631 1.392832,-0.31676 0,0 -0.03196,0.96175 0.564673,1.27728 0,0 -1.361689,-0.0266 -1.692789,0.54746 0,0 0.132768,-1.05927 -0.265126,-1.05927 v -0.44871 z" />
<path
   style="fill:#005b81;stroke-width:0.40977702"
   id="path38"
   d="m 85.269448,105.08346 c 0,0 1.062142,-0.32085 1.325629,-0.83225 0,0 0.135636,-0.22374 0.298318,-0.1926 0,0 0.235621,0.38273 -0.09753,0.57656 0,0 -0.16596,0.25734 -0.133997,0.38478 -4.1e-4,4.1e-4 -0.497879,0.4823 -1.392423,0.0635 z" />
<path
   style="fill:#005b81;stroke-width:0.40977702"
   id="path40"
   d="m 104.45398,109.12509 c 0,0 0.62942,0.0303 0.99207,-0.15981 0,0 3.64989,-1.41004 5.04682,-0.16227 0,0 0.2643,0.32208 0.0983,0.96257 0,0 0.49747,-0.25816 0.92979,-0.25816 0,0 0.56098,-0.0295 0.69744,-0.4147 0,0 -0.23521,-0.86463 1.05845,-1.12238 0,0 -0.13154,-1.12443 1.09575,-1.15639 l 0.0651,-0.15776 c 0,0 -0.49583,-1.09042 -1.1609,-1.02772 0,0 -0.76218,-0.0303 -0.76218,-0.70482 0,0 -0.16432,-0.57738 -0.9302,-1.44242 0,0 -0.9933,-0.86831 -0.92691,-1.76695 l -0.034,-1.50593 -0.16719,0.0631 c 0,0 -0.0963,-0.12744 -0.19588,0.16022 0,0 -0.1344,0.4819 0.0336,0.57779 l 0.13072,0.0291 c 0,0 0.49624,0.67532 -0.63351,1.02977 0,0 -0.39421,0.12826 -0.6958,0.0627 0,0 -0.73309,0.0652 -0.79415,0.67449 0,0 0.13318,0.47944 -1.10025,0.64171 0,0 -0.46428,0 -0.39216,0.44543 0,0 -0.0713,0.26144 0.35979,0.38888 0,0 0.40117,0.0311 0.29872,0.47944 0,0 0.10245,0.35323 -0.52697,0.67408 0,0 -0.40117,0.44994 -0.86627,0.48108 0,0 -0.66015,0.28848 -0.4946,0.86586 0,0 0.0652,0.32085 -0.20161,0.51304 0.001,0.002 -0.95683,0.5786 -0.92405,1.83006 z" />
<path
   style="fill:#005b81;stroke-width:0.40977702"
   id="path42"
   d="m 100.81598,119.05358 c 0,0 0.99862,1.44078 2.78894,0.28807 l 0.2512,0.0971 c 0,0 -0.64868,0.57533 -0.74867,2.11527 l -0.15038,-0.0459 c 0,0 -0.0963,-1.10599 -1.19164,-1.05928 0,-4.1e-4 -1.64279,-0.24013 -0.94945,-1.39529 z" />
<path
   style="fill:#005b81;stroke-width:0.40977702"
   id="path44"
   d="m 100.51684,120.54476 c 0,0 0.59869,0.96339 1.79442,0.81669 0,0 0.29873,1.20515 1.04493,2.21443 0,0 0.24873,1.82556 0.39748,2.74182 0,0 -0.8929,-0.47862 -1.14368,-0.4315 0,0 0.4446,-1.39529 -0.10122,-1.5887 0,0 0.14998,-1.20147 -0.59582,-1.15475 0,0 -0.54828,-0.14384 -0.79783,-1.20516 0,0 -0.0545,-0.25037 -1.144921,0 4.1e-4,-4.1e-4 0.647861,-0.76792 0.546641,-1.39283 z" />
<path
   style="fill:#005b81;stroke-width:0.40977702"
   id="path46"
   d="m 86.532791,137.58042 0.0098,-0.1299 c 0,0 0.35036,0.0488 0.376586,-0.0844 0,0 0.111869,-0.16883 0.186038,-0.15736 0,0 0.100805,-0.15366 0.188908,-0.14506 0,4.1e-4 0.283975,0.81013 -0.761366,0.51673 z" />
<path
   style="fill:#005b81;stroke-width:0.40977702"
   id="path48"
   d="m 114.64227,124.90151 c 0,0 -0.26472,-0.0975 -0.33028,0.0643 l -0.0365,1.50593 0.19915,0.0635 c 0,0 -0.0668,-1.18385 0.16719,-1.15106 v -0.48272 z" />
<path
   style="fill:#005b81;stroke-width:0.40977702"
   id="path50"
   d="m 112.2881,121.91669 c 0,0 -0.10081,0.89864 0.36429,1.05928 0,0 0.99494,0.22578 0.82775,1.05845 l -0.26349,-0.0979 c 0,0 -1.02936,-0.89659 -1.35923,-0.73514 0,0 -0.23685,-0.57737 0.0627,-0.57737 0,4.1e-4 -0.16678,-0.70728 0.36798,-0.70728 z" />
<path
   style="fill:#005b81;stroke-width:0.40977702"
   id="path52"
   d="m 115.90684,112.35823 c 0,0 -0.6495,1.34899 0.59049,1.25146 0,0 0.0533,0.1676 0,0.38437 0,0 -0.26963,-0.14506 -0.29545,0.67327 0,0 0.0496,0.57901 -0.14875,0.69744 0,0 -0.12293,0.19341 -0.12293,0.57655 0,0 -0.47534,0.11966 -0.29873,0.6745 0,0 0,0.33765 0.32208,0.3856 0,0 0.0742,0.31471 -0.0238,0.45526 0,0 -0.27414,-0.0221 -0.27414,0.41183 0,0 0.11842,1.27522 -0.77284,1.24859 0,0 -0.17334,0 -0.22374,-0.1422 0,0 -0.10204,-0.24094 -0.27537,-0.21841 0,0 -0.19096,-1.28137 0.15244,-2.4771 0,0 0.61917,-2.0202 0.81873,-2.4771 0,0 0.19997,-0.19301 0.27619,-0.52861 8.2e-4,4.1e-4 -0.15244,-0.7458 0.27578,-0.91545 z" />
<path
   style="fill:#005b81;stroke-width:0.40977702"
   id="path54"
   d="m 122.27641,116.23104 c 0,0 0,-0.3602 0.37618,-0.40937 0,0 -0.0549,-0.23972 0.32126,-0.23972 0,0 0.1967,0.0746 0.0488,0.33684 0,0 0.14793,0.16719 0.27537,0.12047 0,0 0.0713,0.45608 -0.22497,0.50567 0,0 0.05,0.40854 -0.27578,0.35978 0,0 -0.17333,-0.025 -0.14506,-0.21554 0,0 -0.32577,-0.0734 -0.22661,-0.24259 4.1e-4,0 -0.24996,0.0242 -0.14916,-0.21554 z" />
<path
   style="fill:#005b81;stroke-width:0.40977702"
   id="path56"
   d="m 139.99681,114.12232 c 0,0 -0.0303,-0.45075 0.46469,-0.48066 0,0 0.16596,-0.51304 -0.0992,-0.70605 0,0 -0.19669,-0.67285 0.66507,-0.67285 0,0 0.4651,-0.47985 0.82898,-0.0955 0,0 0.16719,0.19095 0.1299,0.35159 0,0 0.33397,0.0971 0.26513,0.54623 0,0 0.43231,0.22251 1.43012,0.0631 0,0 0.0324,0.5786 -0.42945,0.48107 0,0 -0.6663,-0.25734 -1.13303,0.2262 0,0 -0.0959,0.38355 -0.69417,0.38355 z" />
<path
   style="fill:#005b81;stroke-width:0.40977702"
   id="path58"
   d="m 140.29759,116.72154 c 0,0 0.26348,0.44871 0.66302,0.44871 0.39543,0 0.0668,0.0336 0.0668,0.0336 0,0 0.19956,-0.0336 0.29832,-0.22538 0,0 0.39789,-0.25652 0.53107,0.12539 0,0 0.13154,0.51468 0.96339,0.58189 0,0 -0.33315,0.0635 -0.40077,0.22209 0,0 -0.33028,-0.0311 -0.26471,0.38683 0,0 -0.23276,0.12826 -0.4315,-0.0307 0,0 -0.49747,-0.32208 -0.96256,-0.25939 0,0 -0.16596,-0.28848 -0.39872,-0.22251 4.1e-4,-8.2e-4 -0.29586,-0.71014 -0.0643,-1.0605 z" />
<path
   style="fill:#005b81;stroke-width:0.40977702"
   id="path60"
   d="m 111.83939,139.67274 c 0,0 0.25734,0.3143 0.86176,0.19424 0,0 -0.20038,0.54172 -0.59827,0.54172 0,0 -0.36265,-0.4487 -0.26349,-0.73596 z" />
<path
   style="fill:#005b81;stroke-width:0.40977702"
   id="path62"
   d="m 123.23898,140.10342 c 0,0 0.53312,-0.63966 1.32645,-0.51222 l 0.0651,0.51222 z" />
<path
   style="fill:#005b81;stroke-width:0.40977702"
   id="path64"
   d="m 123.12301,136.56212 c 0,0 0.39257,-0.48599 0.69744,-0.34052 v 0.43231 z" />
<polygon
   style="fill:#005b81"
   transform="matrix(0.40977702,0,0,0.40977702,1.999888,1.9999544)"
   id="polygon66"
   points="314.408,324.613 313.441,324.613 312.83,323.79 314.047,323.912 314.408,324.151 " />
<path
   style="fill:#005b81;stroke-width:0.40977702"
   id="path68"
   d="m 127.71907,132.05171 c 0,0 0.76383,-0.0602 0.72982,0.80398 0,0 0.26635,0.32127 0.6958,0.5155 0,0 0.30118,0.54336 -0.26349,0.83349 0,0 0,-0.57738 -0.19833,-0.61426 0,0 -0.23398,-0.0922 -0.26636,-0.21923 -0.0328,-0.13031 -0.0328,-0.13031 -0.0328,-0.13031 0,0 -0.26471,-0.19095 -0.79456,0.22374 0,0 -0.30077,0.57738 -1.03304,0.41469 0,0 0.0348,-0.31798 0.23439,-0.38068 0,0 0.86463,-0.51509 0.8929,-0.73883 z" />
<path
   style="fill:#005b81;stroke-width:0.40977702"
   id="path70"
   d="m 128.01903,130.86704 c 0,0 1.3916,0.22374 1.52601,-0.29012 0,0 0.32987,-0.73596 -0.50034,-0.70482 0,4.1e-4 -0.76136,-0.35076 -1.02567,0.99494 z" />
<path
   style="fill:#005b81;stroke-width:0.40977702"
   id="path72"
   d="m 127.25439,126.31278 c 0,0 0.66342,0 0.82897,0.7335 0,0 0.0357,0.3856 0.39995,0.45076 0,0 -0.0992,0.51427 -0.53312,0.74087 0,0 -0.0664,0.25325 -0.19793,0.3184 0,0 -0.0328,0.22497 -0.1971,0.31963 l -0.10039,-0.0947 v -0.57738 c 0,0 -0.26554,-0.19259 -0.29627,-0.48272 0,0 0.19546,-0.25365 0.32741,-0.2893 0,0 0.10367,-0.67039 -0.0992,-0.70154 -4.1e-4,-4.1e-4 -0.29831,-0.25857 -0.13235,-0.41756 z" />
<path
   style="fill:#005b81;stroke-width:0.40977702"
   id="path74"
   d="m 129.60855,126.72993 2.75576,-2.30991 c 0,0 -0.76096,-0.12867 -0.66343,-0.73801 0.1008,-0.61057 -0.0324,-0.0955 -0.0324,-0.0955 0,0 -0.36265,-0.0668 -0.36265,-0.16227 0,0 -0.43272,0.12949 -0.5659,-0.13031 0,0 0.46346,0.32045 0.19669,0.83718 0,0 0.23562,0.57901 -0.89577,0.6413 0,0 -0.13031,-0.0336 -0.0652,0.3229 0,0 0.36594,0.70318 -0.23234,0.89578 0,4.1e-4 -0.43231,0.25693 -0.13482,0.73882 z" />
<path
   style="fill:#005b81;stroke-width:0.40977702"
   id="path76"
   d="m 140.96921,132.08736 h 0.22538 c 0,0 0.13482,0.43272 -0.0266,0.68269 l -0.13604,0.0357 c 0,-0.0357 -0.0627,-0.71834 -0.0627,-0.71834 z" />
<path
   style="fill:#005b81;stroke-width:0.40977702"
   id="path78"
   d="m 74.187848,116.11015 c 0,0 0.731452,0.64376 0.529432,1.54117 0,0 2.654945,0.19465 5.111968,2.9504 l 0.131129,-0.25488 c 0,0 -1.183026,-0.66507 -1.118281,-1.11501 0.06638,-0.44706 0.323314,-0.68309 0.854794,-0.55401 0,0 0.632696,-0.10491 0.0672,-0.49706 0,0 -0.53353,-0.57246 0.196283,-0.77202 0,0 0.350769,-0.14343 0,-0.67368 0,0 -0.47698,-0.53353 0,-0.86504 0,0 0.742106,-0.41674 1.246542,0.048 0,0 1.093285,1.01174 2.290244,1.05968 0,0 0.296268,0.43109 0.149568,1.34653 0,0 0.447477,-0.38478 0.894953,-0.14342 0,0 0.197513,-1.10968 0.84496,-1.05764 0,0 0.844961,-0.14547 0.896593,0.76833 0,0 -0.198742,1.54117 1.044111,1.58666 0,0 0.447477,-0.0451 0.549102,0.0975 0,0 0.212674,-0.87406 0.647857,-0.81956 0,0 1.008461,-0.0693 0.995349,1.05928 0,0 0.02582,0.42043 -0.248325,0.53066 0,0 -0.351589,0.62409 0.349949,1.00805 0,0 0.09835,0.14465 0.09835,0.43108 0,0 -1.444464,0.43519 -1.642796,1.10968 0,0 0.751531,-0.0873 1.244492,0.19178 0,0 0.167599,0.13563 0.398714,0.16268 0.07786,0.009 0.159403,0.007 0.247505,-0.0172 0.34872,-0.0967 0.696211,-0.62778 1.143688,-0.53066 0,0 0.426168,0.0758 0.399122,0.8175 0,0 -0.02008,0.33848 0.347491,0.1926 0,0 0.401582,-0.28808 0.700719,0 0,0 0.296679,0.29094 0.245866,0.57819 0,0 0.448706,0.14424 0.498289,0 0,0 0.398713,-0.43313 0.697441,0.14424 0,0 0.298317,0.57902 0,0.82038 0,0 2.276721,0.70195 5.476669,0.67367 0,0 -0.138914,-0.56057 -0.138914,-0.84701 0,0 -1.23138,-0.0164 -1.253508,-0.59868 0,0 -0.09917,-0.62573 0.648677,-0.62573 0,0 0.281517,-0.22866 -0.151208,-0.38355 0,0 -0.475751,-0.36143 0.151208,-0.48272 l 0.04426,-0.24054 -0.394615,-0.52943 c 0,0 -2.787303,0.38437 -2.24189,-3.12414 0,0 -0.747843,-0.52984 -0.894544,-0.77284 0,0 -1.584197,1.51822 -2.877864,1.46823 0,0 -1.961192,0.2598 -2.102156,-2.72092 0,0 -0.04999,-1.15311 1.591574,-1.87391 l -0.04712,-0.48108 c 0,0 -3.144219,1.10148 -3.529,0.60934 0,0 -1.591984,-2.06855 0.690884,-3.06349 0,0 0.697441,0.0463 0.84537,-0.2889 0,0 -0.196283,-1.00805 0.648677,-0.96461 0,0 0.644989,-0.19014 0.747434,0.29176 0,0 0.516319,0.38847 0.708914,-0.22907 0,0 0.269633,-0.0996 0.931833,-0.0627 0,0 -0.144652,-0.35241 -0.747024,-0.28725 0,0 -2.637734,0.28725 -4.030976,-1.05846 l -2.142724,-0.14219 c 0,0 -0.05081,0.43149 0.200381,0.47903 0,0 0.84455,-0.14383 0.946994,0.67531 0,0 0.235212,0.67244 -0.849877,1.05682 0,0 -0.347901,0.33601 0.151207,0.57614 0,0 0.449936,0.43478 -0.197922,0.7712 0,0 -0.301186,0.52943 0.148339,0.86627 0,0 0.697851,0.28807 -0.248734,1.01215 0,0 -0.589669,0.33438 -0.939209,0.0938 0,0 -0.567132,-0.10081 -0.603602,-0.42945 0,0 -0.498289,-0.14506 -0.598274,0.0938 0,0 -0.62532,0.11146 -0.62532,-0.0807 0,0 -0.327822,-1.09042 -0.169238,-1.55593 0,0 -0.05081,-0.43313 -0.547052,-0.57696 0,0 -0.449526,0.14383 -0.397074,-1.73213 l -0.05245,-0.96298 -0.196283,0.0484 c 0,0 0.196283,0.43395 -0.749072,0.38478 0,0 -0.547872,1.01092 -1.096563,0.81914 0,0 0.250783,1.05764 -0.196693,0.96052 0,0 0.09835,0.52943 -0.300367,0.38519 0,0 -0.148339,0.52902 0.150798,0.67326 0,0 -0.05122,0.43232 0.346671,0.52943 0,0 0.05122,0.43191 -0.397483,0.38438 0,0 -0.547872,-0.048 -0.747843,0.19136 0,0 -0.23931,0.29299 -0.796607,0.14588 0,0 -0.745384,0.43191 -0.745384,1.24982 0,0 -0.347082,0.048 -1.194091,0.19301 0,0 -0.527383,-0.30693 -0.896592,0.0471 -0.199971,0.19587 -0.548281,0.62778 -1.144917,0.29135 z" />
<path
   style="fill:#005b81;stroke-width:0.40977702"
   id="path80"
   d="m 100.46972,113.51258 c 0,0 0.99616,-1.39407 1.24654,-1.3453 0,0 0.64827,0.43108 0.94413,0.38396 0,0 0.10244,0.62655 0.69621,0.81791 0,0 0.14957,0.8171 0.65154,1.10886 0,0 -0.3983,1.00723 0.19998,1.29695 0,0 0.64417,0.19218 0.84537,0.0963 0,0 0.55074,1.41947 2.1378,1.29941 0,0 1.01707,0.009 1.44242,-0.43478 0,0 0.71957,-1.05476 -0.54623,-1.97225 0,0 -1.39325,-1.10763 -1.39325,-1.48954 0,0 -0.29709,-0.33848 -0.89413,-0.33848 0,0 -0.30037,-0.52902 -0.54787,-0.52902 0,0 -0.29627,-0.57738 0.6917,-0.28848 0,0 0.55197,-0.0967 0.79948,0.38478 0,0 0.68883,0.60933 1.09574,-0.24054 0,0 0.0975,-0.91422 1.04862,-0.72244 0,0 1.34407,0.19259 1.59157,-0.81833 0,0 0.29914,0.0971 0.20079,0.43232 0,0 -1.19859,0.75481 -0.94822,1.44405 0,0 0.59827,1.58748 2.38982,1.3957 0,0 0.99412,-0.19177 1.34407,-0.77038 0,0 0.19833,0.62532 -0.0504,1.06092 0,0 -0.55074,1.26129 0,3.60767 l -0.34627,-0.14342 c 0,0 -0.99534,-0.29217 -1.09902,-1.73418 0,0 -0.59335,-0.14424 -0.64376,0.14343 0,0 -0.84701,0.193 -0.94494,-0.23972 0,0 -1.04534,-0.43355 -1.39775,0.48108 0,0 -0.1258,0.53312 0.35241,0.67203 0,0 0.14793,0.29094 -0.10368,0.38478 0,0 -0.4946,0.38806 0.14957,0.77284 0,0 0.28684,0.45075 -0.0979,0.52697 0,0 -0.69867,0.0979 -0.35036,0.86914 0,0 0.50034,0.28725 0.89701,0.43313 0,0 0.29954,0.42945 0.2012,0.72039 0,0 -0.74785,0.0459 -0.79948,0.3352 0,0 -1.54281,-0.14383 -1.64279,0.28971 0,0 -0.27005,0.95847 -0.94126,0.86463 0,0 -0.50321,0.0955 -0.45158,0.33684 h -0.54787 c 0,0 -0.29463,0.19382 0.15121,0.62778 0,0 0.0983,0.62409 -0.10081,0.7212 0,0 -0.0992,0.0488 -0.0504,0.28808 0,0 -0.34339,0 -0.14957,0.72325 0,0 0.24874,0.76916 0.89782,0.5782 0,0 0.39626,-0.0963 0.49543,-0.43395 0,0 0.10203,0.0488 0.24873,0.0975 0,0 0.39666,0.19096 0.14916,0.38355 0,0 -0.64253,0.33766 -0.89372,0.81751 l -0.40241,0.14219 c 0,0 -0.19464,0.28726 0.50116,0.91626 0,0 -0.44379,1.24859 0.34831,1.73008 0,0 0.29791,0.38478 0.5446,0.38478 0,0 0.75849,0.0549 0.79947,-0.91503 0,0 0.34831,0.29012 0.59827,0.0975 0,0 0.39708,-0.19383 0.49747,-0.57738 0,0 0.44748,-0.0942 0.54665,0.19137 0,0 0.60032,0.28848 0.79783,0.24136 l -0.0504,2.40744 c 0,0 -0.24832,0.19095 -0.24832,0.58188 0,0 -0.30365,0.38765 -0.54665,1.24654 0,0 -0.30159,1.08099 -0.94781,1.15229 0,0 -0.79579,0.38642 -2.23984,-2.59552 0,0 -3.58309,-6.63962 -2.23575,-12.26832 0,0 0.48846,-1.15188 -0.20161,-2.36154 -0.68842,-1.2027 -1.81982,-2.26935 -2.59225,-3.12619 z" />
<path
   style="fill:#005b81;stroke-width:0.40977702"
   id="path82"
   d="m 97.742241,138.08731 0.311431,0.0455 0.02213,-0.10982 0.31143,-0.0856 -0.02377,-0.15244 -0.309791,-0.0193 -0.04221,0.1717 c 0,0 -0.269224,0.0639 -0.269224,0.14997 z" />
<path
   style="fill:#005b81;stroke-width:0.40977702"
   id="path84"
   d="m 124.16549,115.53646 c 0,0 -0.12458,-0.36183 0.77243,-0.26717 l -0.0984,0.16883 -0.17498,0.0246 -0.17497,0.19382 z" />
<polygon
   style="fill:#005b81"
   transform="matrix(0.40977702,0,0,0.40977702,1.999888,1.9999544)"
   id="polygon86"
   points="288.006,282.387 287.201,282.313 287.201,282.702 287.844,282.702 " />
<path
   style="fill:#005b81;stroke-width:0.40977702"
   id="path88"
   d="m 143.38444,117.36284 c 0,0 0.19669,-0.48313 0.62778,-0.44748 0,0 0.16719,0.31922 -0.034,0.28849 0,0 -0.2639,0.25283 -0.59377,0.15899 z" />
<path
   style="fill:#005b81;stroke-width:0.40977702"
   id="path90"
   d="m 101.53186,111.049 0.0984,0.54541 c 0,0 -1.2281,0.61385 -1.39324,1.50798 0,0 -0.16719,-0.22374 -0.297501,-0.16063 l 0.03155,-0.25693 h 0.231931 c 0,0 -0.233161,-0.8966 0.10081,-1.09042 0,0 0.46059,-0.3184 0.79374,-0.28602 l 0.19997,-0.22538 z" />
<path
   style="fill:#005b81;stroke-width:0.40977702"
   id="path92"
   d="m 100.47381,136.21832 c 0,0 0.39913,0.62491 1.06706,0.70892 0,0 -0.48845,0.34544 -1.689097,0.2979 l -0.175794,-0.10531 c -4.1e-4,0 0.644171,-0.43068 0.797831,-0.90151 z" />
<path
   style="fill:#e2001a;stroke-width:0.40977702"
   id="path94"
   d="m 83.90612,80.952514 -65.723317,-0.0127 c 0.398303,1.85506 0.821193,3.74085 1.257196,5.64386 l 64.466121,0.0152 z" />
<path
   style="fill:#e2001a;stroke-width:0.40977702"
   id="path96"
   d="m 127.85061,80.952514 65.75528,-0.0123 c -0.39953,1.85711 -0.82119,3.74044 -1.25719,5.64345 l -64.49768,0.0152 v -5.64632 z" />
<path
   style="fill:#ffed00;stroke-width:0.40977702"
   id="path98"
   d="m 83.90612,73.516704 -67.228428,-0.0106 c 0.356506,1.8526 0.733091,3.73511 1.133853,5.64344 l 66.094575,0.0152 v -5.64796 z" />
<path
   style="fill:#ffed00;stroke-width:0.40977702"
   id="path100"
   d="m 127.85061,73.516704 67.26162,-0.009 c -0.35364,1.85384 -0.73596,3.7343 -1.13426,5.64263 l -66.12736,0.0152 z" />
</svg>