<?xml version="1.0" encoding="UTF-8" standalone="no"?>
<svg
   xmlns:dc="http://purl.org/dc/elements/1.1/"
   xmlns:cc="http://creativecommons.org/ns#"
   xmlns:rdf="http://www.w3.org/1999/02/22-rdf-syntax-ns#"
   xmlns:svg="http://www.w3.org/2000/svg"
   xmlns="http://www.w3.org/2000/svg"
   viewBox="0 0 226.83176 350.00001"
   height="350"
   width="226.83176"
   xml:space="preserve"
   version="1.1"
   id="svg5309"><metadata
     id="metadata5315"><rdf:RDF><cc:Work
         rdf:about=""><dc:format>image/svg+xml</dc:format><dc:type
           rdf:resource="http://purl.org/dc/dcmitype/StillImage" /><dc:title></dc:title></cc:Work></rdf:RDF></metadata><defs
     id="defs5313" /><g
     transform="matrix(1.25,0,0,-1.25,-106.74162,524.21252)"
     id="g5317"><g
       transform="matrix(0.43315071,0,0,0.43315071,198.925,70.338783)"
       id="g6211"><g
         id="g5357"
         transform="translate(-338.89626,71.34658)"><path
           id="path5319"
           style="fill:#1c2f6d;fill-opacity:1;fill-rule:nonzero;stroke:none"
           d="m 495.73242,502.87646 -69.93066,85.36475 c 0,0 -18.27051,-22.99463 -60.16602,-34.33447 C 332.34668,544.896 306.78613,543.354 286.25781,543.354 l 0.008,0 c -20.53076,0 -46.09131,1.542 -79.38086,10.55274 -41.8955,11.33984 -60.16601,34.33447 -60.16601,34.33447 L 76.78955,502.87646 286.26611,88.02344 495.73242,502.87646 Z" /><path
           id="path5321"
           style="fill:#1c2f6d;fill-opacity:1;fill-rule:nonzero;stroke:none"
           d="m 375.42383,645.29297 c 0,-49.23975 -39.91699,-89.15576 -89.15772,-89.15576 -49.2456,0 -89.16113,39.91601 -89.16113,89.15576 0,49.23974 39.91553,89.15674 89.16113,89.15674 49.24073,0 89.15772,-39.917 89.15772,-89.15674 z" /><path
           id="path5323"
           style="fill:#ffffff;fill-opacity:1;fill-rule:nonzero;stroke:none"
           d="m 424.39258,566.85156 c -10.88281,-8.70459 -28.87695,-20.03222 -54.92871,-27.08398 -36.21973,-9.8042 -63.49219,-11.06153 -83.19776,-11.06153 -19.71289,0 -46.98681,1.25733 -83.20654,11.06153 -26.05078,7.05176 -44.04639,18.37939 -54.92676,27.08398 -13.13769,-16.0376 -45.45019,-55.48291 -53.96972,-65.88232 5.6123,-11.11572 92.73144,-183.6499 148.50879,-294.11279 l 181.7207,359.99511 z" /><path
           id="path5325"
           style="fill:#2f72c2;fill-opacity:1;fill-rule:nonzero;stroke:none"
           d="m 424.39258,566.85156 c 13.13769,-16.0376 45.45019,-55.48291 53.96972,-65.88232 C 470.64355,485.68115 308.75,165.05176 286.26611,120.51953 c -6.1372,12.1543 -22.6582,44.87305 -43.59423,86.33692 l 181.7207,359.99511 z" /><path
           id="path5327"
           style="fill:#e0930d;fill-opacity:1;fill-rule:nonzero;stroke:none"
           d="m 220.45703,680.21484 c 12.5376,23.53272 37.33252,39.58692 65.80908,39.58692 28.66162,0 53.59717,-16.2666 66.05518,-40.0542 l -0.20899,-0.59863 c -2.88281,-5.57862 -8.89746,-12.38428 -14.85937,-16.11524 -8.35352,-5.23047 -14.99121,-4.47754 -22.3877,-1.73828 l -1.60449,0.60449 c -5.50781,2.09375 -13.05078,4.96143 -26.90478,5.27979 -14.03467,-0.31836 -21.57813,-3.18604 -27.08545,-5.27881 l -1.60596,-0.60547 c -7.39746,-2.73926 -14.03516,-3.49219 -22.38818,1.7373 -6.14258,3.84571 -12.34424,10.95557 -15.11475,16.62354 l 0.29541,0.55859 z" /><path
           id="path5329"
           style="fill:#e0930d;fill-opacity:1;fill-rule:nonzero;stroke:none"
           d="m 257.33252,577.39307 c 5.17725,9.21923 10.53662,22.86279 10.53662,39.82812 0,17.41065 -5.14014,28.29688 -10.42432,34.88819 l -0.4873,0.57812 c 1.19043,0.354 2.34424,0.74951 3.46436,1.16406 l 1.66699,0.62842 c 4.63965,1.76367 10.28418,3.9082 20.16357,4.5791 l 0.043,-0.41553 0,-87.72753 -0.51855,0.002 c -8.75245,0.52246 -17.10059,2.56201 -24.78809,5.8584 l 0.34375,0.61621 z" /><path
           id="path5331"
           style="fill:#e0930d;fill-opacity:1;fill-rule:nonzero;stroke:none"
           d="m 213.20898,634.73682 c 3.5918,-3.7251 11.48584,-10.56787 22.85694,-13.00537 9.15283,-1.96094 17.57324,-2.42237 23.35205,-2.43409 l 0.48535,0.043 c -0.49316,18.04932 -7.21143,27.14112 -11.98242,31.34766 l -0.63819,0.52637 c -4.90039,0.042 -10.29199,1.38085 -16.21875,5.09082 -4.93164,3.08691 -10.67871,8.54882 -14.80419,14.48974 l -0.32862,-0.88574 c -2.70605,-7.70947 -4.17822,-15.99414 -4.17822,-24.61621 0,-3.29932 0.21582,-6.54981 0.63477,-9.73682 l 0.82128,-0.81933 z" /><path
           id="path5333"
           style="fill:#e0930d;fill-opacity:1;fill-rule:nonzero;stroke:none"
           d="m 215.99805,621.99805 c 4.73779,-3.26221 10.90576,-6.4209 18.40527,-8.02784 9.69141,-2.07714 18.50879,-2.59765 24.69336,-2.62304 l 0.58691,-0.0254 c -1.07421,-12.78516 -5.46533,-23.22803 -9.58496,-30.47266 l -0.31152,-0.50976 c -16.17773,9.11914 -28.62549,24.10839 -34.43506,42.05468 l 0.646,-0.39599 z" /><path
           id="path5335"
           style="fill:#e0930d;fill-opacity:1;fill-rule:nonzero;stroke:none"
           d="m 315.35449,577.11719 c -5.22363,9.22217 -10.69336,22.96777 -10.69336,40.104 0,17.43604 5.15625,28.32813 10.44727,34.91651 l 0.36328,0.58056 c -1.15527,0.34522 -2.27734,0.73096 -3.36523,1.1333 l -1.66602,0.62842 c -4.66016,1.771 -10.33105,3.92578 -20.16016,4.5874 l -0.0459,-0.66064 0,-87.56934 0.76171,0.0957 c 8.6836,0.54687 16.96875,2.58789 24.59864,5.86718 l -0.24024,0.3169 z" /><path
           id="path5337"
           style="fill:#e0930d;fill-opacity:1;fill-rule:nonzero;stroke:none"
           d="m 322.42871,580.85303 c -4.05176,7.12256 -8.36328,17.33789 -9.52637,29.83008 l -0.0996,0.66162 c 6.20704,-0.006 15.29688,0.47754 25.32325,2.62548 7.46093,1.59864 13.60254,4.73243 18.33203,7.97608 l 0.69922,0.38721 c -5.81055,-17.89893 -18.22461,-32.84912 -34.35547,-41.96192 l -0.37305,0.48145 z" /><path
           id="path5339"
           style="fill:#e0930d;fill-opacity:1;fill-rule:nonzero;stroke:none"
           d="m 312.64648,619.97705 c 0.64063,17.94873 7.48926,26.87695 12.21582,30.93408 l 0.46192,0.30323 c 4.87988,0.0552 10.24512,1.39941 16.14062,5.09082 4.79395,3.00048 10.3584,8.24414 14.45411,13.99023 l 0.33691,0.56689 c 2.9248,-7.97802 4.52148,-16.59082 4.52148,-25.56933 0,-3.29541 -0.21679,-6.54199 -0.63379,-9.72559 l -0.35351,-0.33349 c -3.33789,-3.5791 -11.42774,-10.95264 -23.3291,-13.50244 -9.40039,-2.01416 -18.02832,-2.44629 -23.81446,-2.43409 l 0,0.67969 z" /><path
           id="path5341"
           style="fill:#a00b3e;fill-opacity:1;fill-rule:nonzero;stroke:none"
           d="m 267.48193,372.16699 30.7378,30.73828 -30.39649,30.31739 30.39649,30.39892 -30.7378,30.73584 -30.33056,-30.33105 -30.38184,30.33105 -30.73877,-30.73584 30.29004,-30.4248 -30.29004,-30.29151 30.73877,-30.73828 30.34815,30.34864 30.36425,-30.34864 z" /><path
           id="path5343"
           style="fill:#ffffff;fill-opacity:1;fill-rule:nonzero;stroke:none"
           d="m 327.8916,241.71484 c -2.73535,-5.41699 -5.96875,-8.6748 -11.19824,-10.35449 l -1.75391,5.45899 c 3.95899,1.30371 6.22657,3.77929 8.09278,7.47363 2.37695,4.70801 1.7334,8.46191 -1.76172,10.22656 -1.56836,0.79199 -3.11328,1.00098 -4.45996,0.47461 -1.32032,-0.47851 -2.13379,-1.20898 -3.51172,-3.18262 l -2.75293,-3.94336 c -1.88867,-2.73144 -4.07617,-4.5498 -6.33496,-5.37695 -2.56543,-0.92871 -5.27637,-0.63769 -8.21289,0.84375 -6.27539,3.16895 -8.27832,9.89649 -4.49659,17.38672 2.40381,4.75781 5.3042,7.48633 9.74756,9.11523 l 1.67969,-5.23046 c -3.25098,-1.15332 -5.2124,-3.40137 -6.74609,-6.43946 -2.14649,-4.25097 -0.89112,-7.80566 2.2959,-9.41504 1.3164,-0.66406 2.68554,-0.84863 4.03027,-0.32129 1.27051,0.50196 2.61816,1.66309 3.71387,3.20606 l 2.67871,3.79297 c 2.19238,3.08594 3.94726,4.54883 6.08203,5.3789 2.71582,1.10352 5.78418,0.76172 8.87109,-0.79589 6.62989,-3.34766 7.84473,-10.75684 4.03711,-18.29786 z" /><path
           id="path5345"
           style="fill:#ffffff;fill-opacity:1;fill-rule:nonzero;stroke:none"
           d="m 346.66211,288.07715 c 1.12793,-3.42871 0.58008,-7.2793 -1.31055,-11.02637 l -6.38965,-12.65234 -36.03711,18.19433 6.38965,12.6543 c 1.88965,3.74512 4.66504,6.47266 8.09375,7.60059 5.86426,1.93066 11,-0.98145 16.21387,-3.61328 5.21289,-2.63282 11.11133,-5.292 13.04004,-11.15723 m -27.19824,9.03223 c -2.43653,-0.67579 -4.21973,-2.31641 -5.52149,-4.89844 l -3.34961,-6.62989 26.21875,-13.2373 3.34864,6.62988 c 1.30273,2.58008 1.56738,4.98926 0.66308,7.35157 -1.13086,2.91894 -5,4.93847 -9.96191,7.44335 -4.95899,2.50489 -8.37598,4.16602 -11.39746,3.34083 z" /><path
           id="path5347"
           style="fill:#ffffff;fill-opacity:1;fill-rule:nonzero;stroke:none"
           d="m 356.48828,299.10449 -35.74707,18.04883 13.08594,25.91895 6.96094,-3.51368 -8.82911,-17.48242 6.5918,-3.32812 7.93262,15.71093 6.69629,-3.37988 -7.9336,-15.71191 8.54297,-4.31153 9.6084,19.03223 6.95996,-3.51367 -13.86914,-27.46973 z" /><path
           id="path5349"
           style="fill:#ffffff;fill-opacity:1;fill-rule:nonzero;stroke:none"
           d="m 377.08496,339.90039 -4.23242,-8.38281 -35.74707,18.04687 4.23437,8.38379 35.74512,-18.04785 z" /><path
           id="path5351"
           style="fill:#ffffff;fill-opacity:1;fill-rule:nonzero;stroke:none"
           d="m 380.74707,347.15039 -35.74805,18.04883 7.71973,15.28613 c 2.33398,4.62305 4.76172,7.65918 7.28418,9.11231 2.52148,1.45117 5.29004,1.41601 8.30566,-0.10645 2.57129,-1.29883 4.21582,-3.03125 4.92969,-5.19824 0.7168,-2.16504 0.47266,-4.62305 -0.73047,-7.37793 2.00586,3.19726 4.06934,5.20312 6.18848,6.02148 2.11914,0.81739 4.55469,0.53125 7.30762,-0.85839 1.92871,-0.97461 3.40332,-2.29981 4.42773,-3.97754 1.02637,-1.67774 1.48731,-3.51563 1.3877,-5.51661 -0.0986,-1.42285 -0.39161,-2.89453 -0.88086,-4.41894 -0.49121,-1.52441 -1.50196,-3.80371 -3.03614,-6.8418 l -7.15527,-14.17285 m -24.94336,23.45996 7.5918,-3.83301 2.42285,4.79688 c 1.36426,2.7041 2.00977,4.67871 1.93848,5.92676 -0.0742,1.24609 -0.8125,2.22363 -2.21289,2.93261 -1.41895,0.71582 -2.64649,0.74024 -3.68653,0.0762 -1.03808,-0.66504 -2.24902,-2.36719 -3.63183,-5.10157 l -2.42188,-4.79785 m 13.96484,-7.33008 8.80372,-4.44531 2.68554,5.31543 c 1.53907,3.04981 2.24707,5.26074 2.12305,6.63477 -0.12305,1.37011 -1.00195,2.4707 -2.63379,3.29394 -1.64844,0.83203 -3.05664,0.89356 -4.22363,0.18262 -1.16406,-0.71289 -2.52246,-2.59961 -4.06934,-5.66406 l -2.68555,-5.31739 z" /><path
           id="path5353"
           style="fill:#ffffff;fill-opacity:1;fill-rule:nonzero;stroke:none"
           d="m 401.08691,387.43848 -4.61816,-9.14551 -29.18262,31.04785 4.57715,9.06641 42.30762,-5.05371 -4.62793,-9.16602 -6.55176,1.04492 -6.57324,-13.01953 4.66894,-4.77441 m -10.23632,10.12793 4.5039,8.91894 -16.41113,2.67285 11.90723,-11.59179 z" /><path
           id="path5355"
           style="fill:#ffffff;fill-opacity:1;fill-rule:nonzero;stroke:none"
           d="m 415.88574,416.74805 -35.74609,18.04883 7.62695,15.10449 c 2.52149,4.99511 5.31153,8.24756 8.36817,9.75537 3.05859,1.50879 6.47265,1.30957 10.24707,-0.59619 2.53808,-1.28076 4.35449,-2.96924 5.44824,-5.05909 1.09668,-2.09179 1.45703,-4.55126 1.08398,-7.37744 l 18.43848,0.75586 -4.82227,-9.55224 -16.15918,-0.55371 -2.87988,-5.70166 12.65332,-6.38965 -4.25879,-8.43457 m -24.89648,23.15625 9.91113,-5.00391 3.10352,6.14795 c 1.22754,2.42871 1.72265,4.3584 1.48339,5.78564 -0.23828,1.42725 -1.22949,2.58057 -2.97167,3.46045 -1.84083,0.9292 -3.37989,1.09912 -4.61426,0.51026 -1.23731,-0.58985 -2.50684,-2.17334 -3.8086,-4.75196 l -3.10351,-6.14843 z" /></g><path
         style="fill:#af262c;fill-opacity:1;stroke:#000000;stroke-width:4.45916128;stroke-opacity:0"
         d="m -184.34163,477.13884 -17.44879,-17.86919 18.7022,-19.05615 18.7022,-19.05615 -18.76176,-18.76177 -18.76177,-18.76176 17.50836,-17.93018 17.50836,-17.93018 19.14117,18.78564 19.14117,18.78564 19.14117,-18.78564 19.141175,-18.78564 17.437095,17.8572 17.437095,17.85721 -16.512042,16.90987 c -9.081626,9.30042 -16.512042,18.74727 -16.512042,20.993 0,2.24573 7.430416,11.69258 16.512042,20.993 l 16.512042,16.90987 -17.437095,17.85721 -17.437095,17.8572 -19.141175,-18.78564 -19.14117,-18.78563 -19.14117,18.78563 -19.14117,18.78564 -17.4488,-17.86918 z"
         id="path6195"
         transform="matrix(0.8,0,0,-0.8,0,841.88968)" /><path
         style="fill:#0071b9;fill-opacity:1;stroke:#000000;stroke-width:1.49944079;stroke-opacity:0"
         d="M -92.733824,757.87725 -119.85679,704.09096 -7.3667887,481.31089 C 54.502709,358.78187 105.65492,257.97896 106.30476,257.30443 c 0.64986,-0.67453 16.11218,16.97121 34.36072,39.21276 L 173.84467,336.95637 70.572936,541.40274 C 13.773488,653.84825 -40.104005,760.65736 -49.154823,778.75632 l -16.456031,32.9072 -27.12297,-53.78627 z m 69.956574,-85.61621 c 13.1190189,-7.74959 15.8843626,-28.59145 4.569894,-34.44238 -7.817153,-4.04241 -11.662097,-2.87068 -19.953093,6.08057 -7.711924,8.32608 -10.798024,9.7349 -14.097417,6.4355 -3.133875,-3.13388 -1.967534,-8.75924 2.805791,-13.53256 3.467022,-3.46702 4.38508,-5.48183 3.714762,-8.15259 -0.851772,-3.39373 -1.077567,-3.45067 -5.210079,-1.31365 -6.080306,3.14424 -10.607007,11.13236 -10.607007,18.71784 0,11.96089 13.293787,19.50555 21.883446,12.41956 1.727239,-1.42487 5.012379,-5.12098 7.300311,-8.21357 4.674594,-6.31865 8.573192,-7.13407 11.836105,-2.47561 1.643717,2.34673 1.836488,4.20283 0.757851,7.297 -1.560733,4.47712 -6.005957,9.86977 -8.942713,10.84868 -1.182673,0.39423 -1.464776,2.02367 -0.805277,4.65132 1.186302,4.7266 1.470128,4.79727 6.747426,1.67989 z M 5.5986091,622.86658 C 11.216742,611.47359 11.82446,603.34455 7.4717375,597.81097 3.6569457,592.96124 -16.186981,583.15978 -22.190881,583.15978 c -2.831223,0 -6.479529,1.54257 -9.339102,3.94875 -5.14925,4.3328 -14.180244,20.77691 -12.713719,23.1498 1.024925,1.65837 41.0211473,22.18057 43.46968766,22.30446 0.85386106,0.0432 3.72154164,-4.3201 6.37262344,-9.69621 z M 31.817399,571.51 l 8.749762,-16.68005 -4.503645,-2.32894 c -2.477017,-1.28091 -4.866061,-2.32893 -5.308995,-2.32893 -0.442935,0 -3.254537,4.89193 -6.247996,10.87095 -2.993467,5.97902 -5.679308,11.13045 -5.968535,11.44763 -0.610538,0.66955 -9.6186713,-2.88948 -9.6186713,-3.80024 0,-0.33582 2.0242453,-4.62057 4.4983223,-9.52169 2.474077,-4.90112 4.498323,-9.25041 4.498323,-9.6651 0,-0.41468 -2.022457,-1.79982 -4.494348,-3.07809 l -4.4943473,-2.32412 -4.8241254,9.78281 c -2.653268,5.38055 -5.2250864,9.78282 -5.7151501,9.78282 -0.4900638,0 -2.1261006,-0.90311 -3.6356357,-2.00691 -2.6068438,-1.90617 -2.4707021,-2.49669 2.712295,-11.76476 3.00129573,-5.36682 5.456903,-10.18175 5.456903,-10.69983 0,-0.81637 -7.9677601,-5.51732 -9.3514411,-5.51732 -0.965169,0 -16.7283674,32.89787 -16.0613444,33.52009 2.061827,1.92338 42.894259,21.72722 44.107602,21.3923 0.798187,-0.22031 5.388647,-7.9066 10.201027,-17.08062 z m 14.13121,-28.06657 c 1.371509,-2.87607 2.204028,-5.49867 1.85004,-5.82799 -1.332598,-1.23982 -43.391755,-21.9305 -44.5793931,-21.9305 -0.6829413,0 -2.35616727,2.33705 -3.7182788,5.19342 l -2.4765679,5.19342 15.3189588,8.14451 c 23.826398,12.66759 27.179043,14.31909 29.213049,14.39008 1.044211,0.0364 3.020699,-2.28688 4.392192,-5.16294 z m 13.943135,-27.74102 c 9.359255,-19.09434 8.747333,-26.2587 -2.649706,-31.02271 -5.032139,-2.10344 -10.021393,-0.87847 -12.688044,3.1152 -0.62873,0.94161 -1.111475,0.15928 -1.12458,-1.82248 -0.03524,-5.3387 -2.509914,-8.80111 -7.544617,-10.55622 -6.231781,-2.1724 -10.930979,-0.1333 -16.04445,6.96222 -4.654784,6.45901 -13.3108926,23.94426 -12.3129682,24.87207 1.4672163,1.36413 42.7549142,21.77877 44.1924132,21.85088 0.861219,0.0432 4.538597,-5.98634 8.171952,-13.39896 z m 15.75425,-31.50917 c 2.625581,-5.82249 2.621652,-6.09458 -0.131651,-9.13689 -2.794208,-3.08756 -2.777369,-3.24282 1.097066,-10.11778 3.275678,-5.81249 4.582561,-6.91123 7.801501,-6.5591 3.199117,0.34995 4.411939,-0.64587 7.025165,-5.76822 1.737192,-3.40515 2.942757,-6.38027 2.679051,-6.61135 -0.263707,-0.23109 -10.600687,-1.55027 -22.971074,-2.93151 -12.370386,-1.38125 -24.203553,-2.83573 -26.295918,-3.23218 -3.2722,-0.62 -4.23784,0.1743 -6.90389,5.67895 l -3.099584,6.39978 18.060899,19.13975 c 9.93354,10.52687 18.504494,19.13976 19.046602,19.13976 0.542108,0 2.203428,-2.70054 3.691833,-6.00121 z m 23.776048,-47.41458 c 1.425128,-2.98852 2.393528,-5.60458 2.152008,-5.81346 -0.24151,-0.20887 -3.475489,-1.89514 -7.186605,-3.74726 -8.481797,-4.23306 -8.035084,-3.69044 -6.066498,-7.36878 1.443932,-2.69802 3.069146,-3.12731 11.839303,-3.12731 10.16012,0 10.16699,-0.003 12.69249,-5.29892 4.02833,-8.44749 3.72353,-8.7194 -8.71893,-7.77838 l -11.245806,0.85052 0,-4.17823 c 0,-5.38879 -6.294083,-11.72277 -12.875908,-12.95753 -8.492428,-1.59319 -13.801468,2.81743 -21.89491,18.18976 -3.886056,7.38098 -6.592786,13.89272 -6.014962,14.47053 1.732814,1.73279 41.406174,22.10879 43.13209,22.1524 0.878117,0.0222 2.7626,-2.40481 4.187728,-5.39334 z"
         id="path6197"
         transform="matrix(0.8,0,0,-0.8,0,841.88968)" /><path
         style="fill:#e09701;fill-opacity:1;stroke:#000000;stroke-width:1.49944079;stroke-opacity:0"
         d="m -125.28063,135.77713 c -6.40445,-2.93844 -21.7419,-18.13329 -21.7419,-21.53974 0,-3.41094 8.02592,-14.93659 15.85412,-22.767377 17.70014,-17.705974 39.319445,-26.713044 64.365968,-26.816247 17.755439,-0.07316 29.821083,2.793191 44.983224,10.686354 11.647422,6.063457 29.2273852,22.615985 34.873065,32.83495 l 3.384792,6.12667 -6.7133109,8.24129 c -7.2678196,8.92201 -19.1764385,16.05182 -26.8106871,16.05182 -2.433031,0 -10.90359,-2.12762 -18.823464,-4.72803 -12.510373,-4.10766 -16.465562,-4.72327 -30.143899,-4.69176 -13.509431,0.0311 -17.78801,0.70222 -30.143899,4.72803 -16.580989,5.40245 -20.801069,5.67437 -29.084009,1.87404 z"
         id="path6199"
         transform="matrix(0.8,0,0,-0.8,0,841.88968)" /><path
         style="fill:#e09701;fill-opacity:1;stroke:#000000;stroke-width:1.49944079;stroke-opacity:0"
         d="m -31.145595,179.94203 c 1.588236,-15.38852 11.068662,-30.81625 18.978414,-30.88403 6.5629745,-0.0562 16.3469082,-5.52235 25.483491,-14.23717 l 8.765445,-8.36082 1.959678,7.94172 c 1.077823,4.36795 1.996078,13.89121 2.040566,21.16281 l 0.08089,13.22109 -5.248043,4.39126 c -10.819791,9.05338 -29.0416327,14.89951 -46.440404,14.89951 l -6.459576,0 0.83954,-8.13437 z"
         id="path6201"
         transform="matrix(0.8,0,0,-0.8,0,841.88968)" /><path
         style="fill:#e09701;fill-opacity:1;stroke:#000000;stroke-width:1.49944079;stroke-opacity:0"
         d="m -125.65376,185.80255 c -10.77465,-2.34061 -22.35821,-8.20991 -28.16516,-14.27106 -3.67699,-3.83794 -4.00923,-5.18629 -3.93842,-15.98317 0.0677,-10.32675 2.11672,-24.42285 3.99088,-27.4553 0.34796,-0.56301 4.20062,2.42968 8.56148,6.65043 8.65476,8.37671 19.67352,14.34748 26.47752,14.34748 7.575,0 16.54858,15.28717 18.70367,31.86312 l 0.926,7.12235 -8.5931,-0.11921 c -4.7262,-0.0656 -12.8095,-1.03515 -17.96287,-2.15464 z"
         id="path6203"
         transform="matrix(0.8,0,0,-0.8,0,841.88968)" /><path
         style="fill:#e09701;fill-opacity:1;stroke:#000000;stroke-width:1.49944079;stroke-opacity:0"
         d="m -120.95421,230.37618 c -11.04592,-8.7313 -20.46275,-19.90742 -26.57614,-31.54123 -3.01947,-5.74606 -5.48994,-10.7504 -5.48994,-11.12078 0,-0.37037 3.62104,1.15308 8.04675,3.38546 7.89337,3.9815 18.45567,6.41423 36.00512,8.29278 l 8.815,0.94358 -0.86112,7.27086 c -0.96848,8.1773 -8.38397,27.16414 -10.94009,28.01133 -0.91762,0.30413 -4.96743,-2.05477 -8.99958,-5.242 z"
         id="path6205"
         transform="matrix(0.8,0,0,-0.8,0,841.88968)" /><path
         style="fill:#e09701;fill-opacity:1;stroke:#000000;stroke-width:1.49944079;stroke-opacity:0"
         d="m -91.543215,245.24733 c -5.342834,-1.69965 -8.143241,-3.38345 -7.952486,-4.78158 0.161941,-1.18695 2.421979,-7.89345 5.022307,-14.90333 3.816842,-10.28933 4.882521,-15.80916 5.530448,-28.6457 0.915469,-18.13698 -0.754629,-27.64602 -7.1532,-40.72816 l -4.229064,-8.64651 4.905974,-2.04985 c 4.580659,-1.91392 18.743474,-5.39791 21.943114,-5.39791 0.874822,0 1.425637,20.85591 1.425637,53.97987 l 0,53.97987 -5.622903,-0.0916 c -3.092597,-0.0504 -9.334019,-1.27218 -13.869827,-2.7151 z"
         id="path6207"
         transform="matrix(0.8,0,0,-0.8,0,841.88968)" /><path
         style="fill:#e09701;fill-opacity:1;stroke:#000000;stroke-width:1.49944079;stroke-opacity:0"
         d="m -60.054958,193.90391 0,-54.15013 7.063423,1.05923 c 3.884882,0.58257 10.589912,2.37865 14.900063,3.99129 l 7.836642,2.93206 -3.687395,5.43368 c -6.279948,9.25402 -8.82654,20.4433 -8.79757,38.65496 0.02721,17.10922 3.204402,31.55053 9.774821,44.42962 l 2.795918,5.48045 -4.072005,1.58211 c -6.988064,2.7151 -15.866029,4.71978 -20.940715,4.72848 l -4.873182,0.008 0,-54.15012 z"
         id="path6209"
         transform="matrix(0.8,0,0,-0.8,0,841.88968)" /></g></g></svg>